<?xml version="1.0" encoding="utf-8"?>
<!-- Generator: Adobe Illustrator 16.0.0, SVG Export Plug-In . SVG Version: 6.00 Build 0)  -->
<!DOCTYPE svg PUBLIC "-//W3C//DTD SVG 1.1//EN" "http://www.w3.org/Graphics/SVG/1.1/DTD/svg11.dtd">
<svg version="1.1" id="Layer_1" xmlns="http://www.w3.org/2000/svg" xmlns:xlink="http://www.w3.org/1999/xlink" x="0px" y="0px"
	 width="115.474px" height="97px" viewBox="0 0 115.474 97" enable-background="new 0 0 115.474 97" xml:space="preserve">
<g>
	<g>
		<path fill="#FFFFFF" d="M49.946,41.093v-7.116c0-0.171,0.085-0.302,0.257-0.392s0.376-0.134,0.615-0.134s0.444,0.045,0.616,0.134
			c0.171,0.089,0.257,0.22,0.257,0.392v6.132h2.551c0.156,0,0.279,0.074,0.369,0.224c0.09,0.149,0.135,0.328,0.135,0.537
			c0,0.208-0.045,0.388-0.135,0.537c-0.089,0.149-0.212,0.224-0.369,0.224h-3.536c-0.209,0-0.388-0.046-0.537-0.14
			C50.021,41.397,49.946,41.265,49.946,41.093z"/>
		<path fill="#FFFFFF" d="M55.529,41.093v-7.105c0-0.171,0.074-0.304,0.224-0.397c0.149-0.093,0.328-0.14,0.537-0.14h3.984
			c0.171,0,0.302,0.075,0.392,0.224C60.755,33.824,60.8,34,60.8,34.201c0,0.216-0.047,0.399-0.14,0.548
			c-0.094,0.149-0.223,0.224-0.386,0.224h-2.999v1.891h1.679c0.164,0,0.292,0.067,0.386,0.202c0.092,0.134,0.14,0.294,0.14,0.481
			c0,0.172-0.045,0.325-0.134,0.459c-0.09,0.134-0.221,0.201-0.392,0.201h-1.679v1.902h2.999c0.164,0,0.292,0.074,0.386,0.224
			c0.093,0.149,0.14,0.332,0.14,0.548c0,0.201-0.045,0.377-0.134,0.526c-0.09,0.149-0.22,0.224-0.392,0.224H56.29
			c-0.208,0-0.388-0.046-0.537-0.14C55.604,41.397,55.529,41.265,55.529,41.093z"/>
		<path fill="#FFFFFF" d="M61.409,40.288c0-0.208,0.077-0.417,0.229-0.626c0.153-0.208,0.33-0.313,0.532-0.313
			c0.111,0,0.237,0.045,0.375,0.135c0.138,0.091,0.265,0.191,0.381,0.301c0.115,0.11,0.277,0.21,0.487,0.301
			c0.208,0.09,0.429,0.136,0.66,0.136c0.291,0,0.544-0.062,0.761-0.185c0.216-0.124,0.324-0.308,0.324-0.554
			s-0.121-0.462-0.363-0.648c-0.242-0.187-0.537-0.356-0.884-0.51c-0.347-0.152-0.696-0.324-1.046-0.514
			c-0.35-0.19-0.647-0.46-0.89-0.812c-0.242-0.351-0.363-0.768-0.363-1.253c0-0.791,0.28-1.382,0.839-1.774
			c0.559-0.391,1.234-0.587,2.025-0.587c0.194,0,0.397,0.012,0.609,0.035c0.213,0.023,0.452,0.067,0.717,0.133
			s0.48,0.171,0.649,0.317c0.167,0.146,0.251,0.323,0.251,0.53c0,0.197-0.062,0.402-0.185,0.614s-0.293,0.318-0.509,0.318
			c-0.09,0-0.28-0.071-0.571-0.213c-0.291-0.142-0.612-0.212-0.962-0.212c-0.373,0-0.653,0.065-0.839,0.196
			s-0.279,0.289-0.279,0.476c0,0.172,0.087,0.328,0.263,0.47c0.174,0.142,0.393,0.263,0.654,0.363
			c0.261,0.101,0.546,0.231,0.856,0.392c0.309,0.161,0.595,0.336,0.855,0.526c0.261,0.19,0.479,0.457,0.655,0.8
			s0.263,0.734,0.263,1.175c0,0.769-0.256,1.368-0.771,1.796s-1.19,0.643-2.026,0.643c-0.724,0-1.354-0.149-1.891-0.447
			C61.678,40.997,61.409,40.661,61.409,40.288z"/>
		<g>
			<path fill="#FFFFFF" d="M33.507,64.747c-1.602-4.353-2.763-8.94-3.886-13.377c-0.897-3.546-1.826-7.212-2.977-10.751
				c-0.166-0.485-0.46-0.893-0.928-1.284c-0.42-0.351-0.892-0.641-1.441-0.885c-0.592-0.263-1.069-0.377-1.473-0.35
				c-0.369,0.024-0.833,0.2-0.947,0.896l-0.003,0.018l-0.972,28.082c-0.018,0.229-0.023,0.362-0.017,0.448
				c0.048,0.717,0.377,1.219,0.977,1.491c0.306,0.139,0.63,0.209,0.964,0.209c0.238,0,0.49-0.035,0.747-0.106
				c0.491-0.135,1.157-0.412,1.278-1.258c0.188-1.354,0.246-2.292,0.306-4.285c1.537-0.186,2.392-0.283,3.908-0.446
				c0.47,1.696,0.705,2.465,1.086,3.448c0.101,0.256,0.334,0.562,0.875,0.562c0.156,0,0.335-0.023,0.547-0.073
				c0.542-0.128,1.006-0.351,1.42-0.681c0.487-0.389,0.692-0.823,0.625-1.331C33.589,65.008,33.563,64.915,33.507,64.747z
				 M27.572,57.497c-0.48-0.001-0.87-0.002-1.274-0.002c-0.342,0-0.694,0.001-1.119,0.002c-0.008-1.216-0.021-2.431-0.035-3.646
				c-0.023-2.158-0.047-4.371-0.043-6.577c0.296,1.225,0.591,2.449,0.885,3.674C26.502,53.096,27.035,55.312,27.572,57.497z"/>
			<path fill="#FFFFFF" d="M43.153,54.735c-0.342-3.026-0.695-6.154-1.141-9.224c-0.061-0.387-0.398-0.595-0.687-0.732
				c-0.309-0.148-0.68-0.281-1.166-0.419c-0.51-0.145-0.866-0.212-1.153-0.219l-0.037,0c-0.089,0-0.362,0-0.528,0.195
				c-0.101,0.118-0.138,0.273-0.108,0.459c0.409,2.711,0.753,5.48,1.085,8.158c0.007,0.058,0.014,0.114,0.021,0.171
				c-1.53-3.764-3.705-8.75-3.731-8.811l-0.011-0.023c-0.421-0.77-0.815-1.265-1.241-1.561c-0.312-0.216-0.77-0.429-1.441-0.67
				c-0.513-0.184-0.891-0.262-1.203-0.248c-0.231,0.011-0.407,0.086-0.522,0.225c-0.118,0.141-0.161,0.334-0.128,0.575
				c0.508,3.75,1.01,7.501,1.511,11.252c0.51,3.815,1.021,7.632,1.538,11.447c0.041,0.299,0.206,0.68,0.759,0.795
				c0.136,0.028,0.284,0.043,0.44,0.043c0.225,0,0.473-0.028,0.759-0.088c0.46-0.095,0.824-0.228,1.114-0.405
				c0.382-0.235,0.54-0.539,0.482-0.93c-0.433-2.973-0.832-6.002-1.218-8.932c-0.019-0.144-0.038-0.287-0.057-0.431
				c1.664,3.815,4.25,9.04,4.281,9.102l0.018,0.036l0.027,0.029c0.338,0.373,0.79,0.416,1.1,0.416c0.215,0,0.467-0.024,0.815-0.078
				c0.442-0.068,0.771-0.153,1.035-0.27c0.39-0.171,0.561-0.43,0.509-0.767C43.839,60.81,43.49,57.722,43.153,54.735z"/>
			<path fill="#FFFFFF" d="M47.701,55.021c-0.252-2.774-0.514-5.643-0.862-8.46c-0.049-0.359-0.375-0.527-0.688-0.645
				c-0.291-0.108-0.643-0.207-1.144-0.32c-0.366-0.083-0.787-0.168-1.13-0.18c-0.021-0.001-0.041-0.001-0.06-0.001
				c-0.157,0-0.382,0.019-0.525,0.186c-0.063,0.073-0.132,0.203-0.102,0.4c0.414,2.957,0.733,5.979,1.042,8.903
				c0.307,2.901,0.625,5.9,1.034,8.845c0.05,0.328,0.29,0.52,0.714,0.57c0.107,0.013,0.22,0.019,0.345,0.019
				c0.193,0,0.415-0.015,0.697-0.047c0.439-0.05,0.746-0.108,0.994-0.189c0.402-0.132,0.584-0.359,0.541-0.675
				C48.212,60.633,47.953,57.779,47.701,55.021z"/>
			<path fill="#FFFFFF" d="M59.703,47.549c-0.323-0.083-0.716-0.099-1.131-0.114l-0.073-0.003c-0.563-0.022-1.012-0.037-1.296-0.017
				c-0.362,0.027-0.789,0.121-1.209,0.624l-0.024,0.028l-1.572,3.402l-1.922-3.745l-0.029-0.046
				c-0.457-0.581-0.876-0.765-1.226-0.867c-0.333-0.099-0.807-0.18-1.392-0.275c-0.511-0.083-0.868-0.123-1.16-0.085
				c-0.462,0.06-0.667,0.362-0.609,0.897c0.248,2.428,0.453,4.901,0.652,7.295c0.238,2.866,0.484,5.83,0.805,8.743
				c0.037,0.304,0.269,0.481,0.687,0.527c0.116,0.013,0.243,0.02,0.387,0.02c0.165,0,0.352-0.009,0.609-0.026
				c0.33-0.023,0.675-0.054,0.966-0.121c0.412-0.095,0.606-0.298,0.579-0.599c-0.207-2.52-0.373-5.087-0.533-7.569
				c-0.012-0.181-0.023-0.362-0.035-0.543c0.093,0.252,0.186,0.504,0.279,0.757c0.362,0.982,0.724,1.964,1.091,2.941
				c0.245,0.675,0.637,1.021,1.167,1.03h0.021c0.371,0,0.868-0.173,1.134-1.002c0.158-0.5,0.313-1.001,0.469-1.502
				c0.191-0.613,0.385-1.237,0.583-1.862c0.006,0.223,0.012,0.445,0.017,0.668c0.058,2.301,0.119,4.679,0.15,7.016
				c0.003,0.437,0.471,0.505,0.625,0.528c0.279,0.041,0.607,0.049,0.946,0.055c0.118,0.002,0.231,0.003,0.338,0.003
				c0.259,0,0.449-0.008,0.615-0.026c0.156-0.018,0.632-0.071,0.651-0.51c0.071-2.684,0.06-5.411,0.05-8.049
				c-0.009-2.206-0.018-4.487,0.021-6.727C60.342,47.931,60.143,47.661,59.703,47.549z"/>
			<path fill="#FFFFFF" d="M68.994,47.555l-0.018-0.039c-0.174-0.384-0.665-0.388-0.9-0.391h-0.047
				c-0.358,0-0.761,0.038-1.233,0.082c-0.469,0.044-0.912,0.086-1.298,0.15c-0.425,0.072-0.747,0.172-0.931,0.425l-0.033,0.045
				l-3.819,14.98c-0.031,0.084-0.049,0.146-0.052,0.206c-0.024,0.515,0.544,0.652,0.731,0.697c0.376,0.091,0.761,0.12,1.155,0.144
				c0.185,0.012,0.336,0.021,0.468,0.021c0.245,0,0.492-0.026,0.646-0.215c0.301-0.371,0.451-0.811,0.701-1.735
				c1.222,0.053,1.923,0.089,3.153,0.158c0.121,0.971,0.194,1.442,0.342,1.897c0.123,0.366,0.573,0.425,1.05,0.487
				c0.215,0.027,0.499,0.06,0.792,0.06c0.164,0,0.316-0.009,0.465-0.029c0.536-0.071,0.836-0.3,0.891-0.681
				c0.009-0.059,0.005-0.126-0.011-0.247L68.994,47.555z M67.106,58.249c-0.721-0.013-1.199-0.021-1.913-0.035
				c0.404-2.021,0.818-4.099,1.278-6.154c0.218,1.809,0.391,3.63,0.56,5.405L67.106,58.249z"/>
			<path fill="#FFFFFF" d="M81.816,55.711c0.377-3.674,0.767-7.472,1.246-11.192c0.03-0.226-0.012-0.407-0.126-0.539
				c-0.114-0.131-0.286-0.199-0.526-0.201c-0.287,0-0.63,0.076-1.111,0.247c-0.474,0.168-0.837,0.335-1.143,0.526
				c-0.267,0.166-0.58,0.411-0.645,0.838c-0.494,3.478-0.845,7.035-1.185,10.474c-0.139,1.402-0.282,2.852-0.433,4.274
				c-0.249,2.312-0.931,2.624-1.564,2.624c-0.063,0-0.129-0.004-0.196-0.011c-0.405-0.04-0.678-0.164-0.861-0.388
				c-0.312-0.382-0.407-1.126-0.291-2.275c0.13-1.312,0.25-2.648,0.365-3.941c0.286-3.196,0.581-6.502,1.056-9.713
				c0.036-0.221-0.036-0.36-0.102-0.439c-0.148-0.174-0.38-0.195-0.547-0.196c-0.267,0-0.593,0.049-1.091,0.164
				c-0.495,0.114-0.844,0.216-1.131,0.331c-0.283,0.114-0.616,0.292-0.677,0.66l-1.225,12.993c-0.223,2.442,0.021,3.734,0.84,4.463
				c0.772,0.686,1.875,0.945,3.237,1.214c0.675,0.134,1.387,0.257,2.02,0.257c0.682,0,1.215-0.142,1.629-0.433
				c1.479-1.04,1.838-3.31,1.985-5.163C81.503,58.762,81.66,57.236,81.816,55.711z"/>
			<path fill="#FFFFFF" d="M94.232,38.29c-0.456-0.159-0.954-0.076-1.521,0.26c-0.497,0.294-0.83,0.692-1.051,1.261l-2.979,8.426
				l-1.581-5.94l-0.019-0.033c-0.122-0.21-0.318-0.321-0.568-0.321c-0.176,0-0.381,0.055-0.646,0.175
				c-0.507,0.228-0.971,0.535-1.417,0.938c-0.519,0.469-0.79,0.923-0.851,1.43c-0.032,0.265,0.005,0.539,0.112,0.816l2.106,9.22
				l-4.297,9.882c-0.159,0.277-0.25,0.525-0.278,0.759c-0.065,0.543,0.133,1.011,0.608,1.43c0.408,0.36,0.863,0.601,1.391,0.732
				c0.168,0.043,0.312,0.063,0.439,0.063c0.239,0,0.432-0.073,0.572-0.219l0.034-0.034l3.297-7.047l1.967,8.414l0.012,0.039
				c0.141,0.359,0.445,0.603,0.932,0.742c0.218,0.062,0.433,0.094,0.638,0.094c0.365,0,0.718-0.1,1.051-0.298
				c0.579-0.345,0.893-0.923,0.933-1.721c0.016-0.326-0.031-0.71-0.137-1.126l-2.484-12.15l4.222-12.981
				c0.161-0.487,0.251-0.921,0.27-1.291C95.041,38.791,94.606,38.421,94.232,38.29z"/>
		</g>
		<path fill="#FFFFFF" d="M34.998,77.89v-7.127c0-0.142,0.071-0.265,0.212-0.37c0.142-0.104,0.325-0.156,0.549-0.156h1.98
			c0.835,0,1.503,0.213,2.002,0.638c0.5,0.426,0.75,1.093,0.75,2.003v2.898c0,0.91-0.25,1.577-0.75,2.003
			c-0.5,0.425-1.167,0.638-2.002,0.638h-1.98c-0.224,0-0.407-0.053-0.549-0.156C35.068,78.155,34.998,78.032,34.998,77.89z
			 M36.744,76.894h0.996c0.671,0,1.007-0.372,1.007-1.118v-2.898c0-0.745-0.335-1.118-1.007-1.118h-0.996V76.894z"/>
		<path fill="#FFFFFF" d="M41.466,75.843v-5.08c0-0.172,0.083-0.303,0.251-0.392c0.168-0.09,0.375-0.135,0.621-0.135
			c0.238,0,0.443,0.045,0.615,0.135c0.172,0.089,0.257,0.22,0.257,0.392v5.08c0,0.745,0.358,1.118,1.075,1.118
			c0.715,0,1.074-0.373,1.074-1.118v-5.08c0-0.172,0.084-0.303,0.252-0.392c0.167-0.09,0.375-0.135,0.621-0.135
			c0.239,0,0.444,0.045,0.615,0.135c0.172,0.089,0.257,0.22,0.257,0.392v5.08c0,0.91-0.257,1.577-0.771,2.002
			c-0.515,0.426-1.197,0.638-2.047,0.638c-0.858,0-1.542-0.212-2.054-0.638C41.721,77.42,41.466,76.753,41.466,75.843z"/>
		<path fill="#FFFFFF" d="M50.518,77.879v-7.105c0-0.172,0.075-0.304,0.224-0.397c0.148-0.093,0.328-0.14,0.537-0.14h3.882
			c0.172,0,0.303,0.075,0.392,0.224c0.09,0.15,0.135,0.325,0.135,0.526c0,0.216-0.046,0.399-0.14,0.548
			c-0.094,0.149-0.222,0.225-0.386,0.225h-2.898v1.891h1.69c0.164,0,0.292,0.066,0.385,0.201c0.093,0.134,0.14,0.295,0.14,0.481
			c0,0.171-0.045,0.324-0.134,0.459c-0.09,0.134-0.22,0.201-0.391,0.201h-1.69v2.887c0,0.172-0.085,0.304-0.257,0.397
			c-0.171,0.093-0.376,0.14-0.615,0.14s-0.444-0.047-0.615-0.14C50.604,78.183,50.518,78.051,50.518,77.879z"/>
		<path fill="#FFFFFF" d="M56.407,75.843v-5.08c0-0.172,0.083-0.303,0.251-0.392c0.168-0.09,0.375-0.135,0.621-0.135
			c0.239,0,0.444,0.045,0.616,0.135c0.171,0.089,0.257,0.22,0.257,0.392v5.08c0,0.745,0.358,1.118,1.075,1.118
			c0.715,0,1.074-0.373,1.074-1.118v-5.08c0-0.172,0.083-0.303,0.252-0.392c0.167-0.09,0.375-0.135,0.621-0.135
			c0.239,0,0.444,0.045,0.615,0.135c0.172,0.089,0.257,0.22,0.257,0.392v5.08c0,0.91-0.257,1.577-0.771,2.002
			c-0.515,0.426-1.198,0.638-2.047,0.638c-0.859,0-1.543-0.212-2.054-0.638C56.662,77.42,56.407,76.753,56.407,75.843z"/>
		<path fill="#FFFFFF" d="M62.808,70.986c0-0.202,0.045-0.378,0.135-0.526c0.089-0.149,0.22-0.224,0.392-0.224h4.833
			c0.171,0,0.302,0.074,0.392,0.224c0.09,0.148,0.135,0.324,0.135,0.526c0,0.218-0.047,0.4-0.141,0.549
			c-0.093,0.149-0.222,0.224-0.386,0.224h-1.544v6.116c0,0.173-0.086,0.306-0.257,0.4c-0.172,0.094-0.377,0.141-0.615,0.141
			c-0.239,0-0.444-0.047-0.616-0.141c-0.171-0.095-0.257-0.228-0.257-0.4v-6.116h-1.543c-0.165,0-0.293-0.074-0.386-0.224
			C62.854,71.387,62.808,71.204,62.808,70.986z"/>
		<path fill="#FFFFFF" d="M69.461,75.843v-5.08c0-0.172,0.083-0.303,0.252-0.392c0.168-0.09,0.375-0.135,0.621-0.135
			c0.239,0,0.443,0.045,0.615,0.135c0.172,0.089,0.257,0.22,0.257,0.392v5.08c0,0.745,0.358,1.118,1.075,1.118
			c0.716,0,1.074-0.373,1.074-1.118v-5.08c0-0.172,0.084-0.303,0.252-0.392c0.167-0.09,0.375-0.135,0.621-0.135
			c0.239,0,0.444,0.045,0.616,0.135c0.171,0.089,0.257,0.22,0.257,0.392v5.08c0,0.91-0.257,1.577-0.772,2.002
			c-0.515,0.426-1.197,0.638-2.047,0.638c-0.857,0-1.542-0.212-2.054-0.638C69.716,77.42,69.461,76.753,69.461,75.843z"/>
		<path fill="#FFFFFF" d="M76.179,77.879v-7.116c0-0.142,0.05-0.265,0.151-0.37c0.101-0.104,0.229-0.156,0.386-0.156h2.316
			c1.834,0,2.752,0.799,2.752,2.395c0,1.164-0.452,1.921-1.354,2.271l1.365,2.473c0.037,0.053,0.055,0.12,0.055,0.201
			c0,0.217-0.117,0.422-0.352,0.616c-0.234,0.193-0.483,0.29-0.744,0.29c-0.261,0-0.448-0.107-0.56-0.324l-1.533-2.977h-0.738v2.697
			c0,0.172-0.086,0.304-0.257,0.397c-0.172,0.093-0.377,0.14-0.615,0.14c-0.239,0-0.444-0.047-0.616-0.14
			C76.264,78.183,76.179,78.051,76.179,77.879z M77.924,73.84h1.108c0.328,0,0.578-0.081,0.749-0.241
			c0.172-0.16,0.258-0.427,0.258-0.8s-0.086-0.64-0.258-0.8c-0.171-0.161-0.421-0.24-0.749-0.24h-1.108V73.84z"/>
	</g>
	<g>
		<path fill="#FFFFFF" d="M113.374,78.5H91.229c-1.16,0-2.1-0.94-2.1-2.1c0-1.16,0.94-2.101,2.1-2.101h20.004
			c-0.229-6.004-1.441-11.857-3.611-17.43c-1.159-2.976-2.611-5.891-4.315-8.664c-0.799-1.3-1.71-2.639-2.706-3.981
			c-0.483-0.65-1.006-1.318-1.554-1.983c-0.208-0.253-0.354-0.551-0.427-0.871c-0.098-0.431-0.044-0.79-0.013-0.968l0.732-7.488
			l-7.52,1.195c-0.954,0.158-1.612-0.382-1.851-0.587l-0.153-0.114c-0.099-0.075-0.199-0.15-0.298-0.224
			c-0.402-0.297-0.738-0.541-1.057-0.764c-2.756-1.939-5.676-3.611-8.68-4.968c-6.098-2.756-12.594-4.331-19.308-4.68
			c-6.673-0.348-13.348,0.571-19.841,2.729c-3.049,1.013-6.113,2.382-9.108,4.067c-1.402,0.789-2.808,1.67-4.179,2.619
			c-0.741,0.513-1.474,1.058-2.029,1.476c-0.381,0.287-1.02,0.59-1.9,0.411l-7.284-1.158l0.758,7.757
			c0.047,0.481-0.041,1.194-0.716,1.876c-0.227,0.281-0.469,0.588-0.737,0.935c-0.001,0.001-0.002,0.003-0.003,0.005
			c-4.024,5.193-7.024,10.995-8.918,17.248C5.181,65.133,4.418,69.687,4.24,74.3h21.075c1.16,0,2.1,0.94,2.1,2.101
			c0,1.159-0.94,2.1-2.1,2.1H2.1c-1.16,0-2.1-0.94-2.1-2.1c0-5.745,0.84-11.426,2.498-16.884c2.032-6.708,5.243-12.934,9.544-18.506
			c0.007-0.01,0.014-0.019,0.021-0.028c0.006-0.008,0.012-0.016,0.018-0.023l0.038-0.049c0.18-0.232,0.35-0.45,0.513-0.655
			l-0.942-9.636c-0.063-0.647,0.177-1.288,0.65-1.733s1.126-0.647,1.77-0.545l9.329,1.483c0.462-0.342,0.984-0.721,1.518-1.09
			c1.477-1.022,2.994-1.973,4.509-2.825c3.228-1.817,6.54-3.295,9.843-4.393c6.991-2.324,14.187-3.312,21.384-2.938
			c7.238,0.376,14.242,2.074,20.819,5.047c3.244,1.466,6.396,3.27,9.367,5.36c0.346,0.243,0.708,0.505,1.139,0.824
			c0.006,0.005,0.013,0.01,0.02,0.015l9.329-1.483c0.642-0.102,1.296,0.1,1.77,0.545c0.474,0.446,0.713,1.087,0.65,1.734
			l-0.942,9.633c0.393,0.493,0.772,0.985,1.131,1.469c1.068,1.439,2.048,2.881,2.911,4.285c1.836,2.987,3.401,6.129,4.651,9.339
			c2.613,6.708,3.938,13.792,3.938,21.055C115.474,77.56,114.533,78.5,113.374,78.5z"/>
	</g>
</g>
</svg>
