<?xml version="1.0" encoding="utf-8"?>
<!-- Generator: Adobe Illustrator 16.0.0, SVG Export Plug-In . SVG Version: 6.00 Build 0)  -->
<!DOCTYPE svg PUBLIC "-//W3C//DTD SVG 1.1//EN" "http://www.w3.org/Graphics/SVG/1.1/DTD/svg11.dtd">
<svg version="1.1" id="Layer_1" xmlns="http://www.w3.org/2000/svg" xmlns:xlink="http://www.w3.org/1999/xlink" x="0px" y="0px"
	 width="80.001px" height="80px" viewBox="1.739 1.739 80.001 80" enable-background="new 1.739 1.739 80.001 80"
	 xml:space="preserve">
<g>
	<circle fill="#FFFFFF" cx="41.74" cy="41.739" r="39.407"/>
	<g>
		<path fill="#262626" d="M30.509,24.154c0,1.236,0,2.475,0,3.77c0.225,0,0.397,0.002,0.567,0c0.752-0.009,1.048-0.262,1.1-1.018
			c0.037-0.557,0.057-1.12,0.017-1.677C32.121,24.157,31.562,23.816,30.509,24.154z"/>
		<path fill="#262626" d="M25.761,49.428c-1.025-0.078-2.063-0.02-3.122-0.02c0,0.923,0,1.847,0,2.821
			c1.01,0,1.974,0.021,2.935-0.008c0.716-0.02,1.198-0.535,1.248-1.255C26.881,50.114,26.517,49.488,25.761,49.428z"/>
		<path fill="#262626" d="M36.049,34.736c0.004-0.25,0.007-0.499,0-0.747c-0.029-0.69-0.323-0.892-1.011-0.683
			c0,0.722,0,1.448,0,2.165C35.798,35.618,36.028,35.444,36.049,34.736z"/>
		<path fill="#262626" d="M25.459,45.619c0.763-0.056,1.165-0.591,1.15-1.329c-0.017-0.707-0.432-1.231-1.166-1.279
			c-0.926-0.058-1.857-0.015-2.806-0.015c0,0.885,0,1.736,0,2.639C23.6,45.635,24.532,45.686,25.459,45.619z"/>
		<path fill="#262626" d="M57.745,26.975c0,0.077,0.012,0.155,0.021,0.231c0.086,0.479,0.413,0.781,0.845,0.786
			c0.409,0.002,0.802-0.276,0.829-0.729c0.051-0.848,0.059-1.704,0.004-2.554c-0.036-0.517-0.367-0.729-0.862-0.715
			c-0.462,0.013-0.758,0.279-0.815,0.79c-0.043,0.383-0.043,0.775-0.064,1.163c0.018,0,0.031,0,0.042,0
			C57.744,26.29,57.744,26.632,57.745,26.975z"/>
		<path fill="#262626" d="M12.451,24.072c-0.334-0.024-0.671-0.006-1.027-0.006c0,0.467,0,0.88,0,1.352
			c0.376,0,0.716,0.028,1.052-0.008c0.391-0.045,0.613-0.3,0.591-0.701C13.047,24.337,12.827,24.101,12.451,24.072z"/>
		<path fill="#262626" d="M41.739,1.739c-22.09,0-40,17.908-40,39.999c0,22.093,17.91,40.001,40,40.001
			c22.093,0,40.001-17.909,40.001-40.001C81.741,19.647,63.832,1.739,41.739,1.739z M56.062,24.432
			c0.211-1.294,1.267-2.056,2.727-2.01c1.301,0.043,2.336,0.943,2.421,2.199c0.06,0.914,0.065,1.837-0.004,2.75
			c-0.101,1.268-1.099,2.105-2.448,2.163c-1.418,0.058-2.469-0.7-2.695-1.987c-0.086-0.516-0.085-1.052-0.125-1.58
			C55.977,25.454,55.98,24.935,56.062,24.432z M49.799,22.503c0.513,0,1.014-0.021,1.505,0.016c0.121,0.01,0.289,0.197,0.335,0.337
			c0.346,1.094,0.669,2.197,1.04,3.434c0.156-0.494,0.279-0.865,0.391-1.241c0.223-0.743,0.452-1.486,0.656-2.235
			c0.065-0.243,0.176-0.324,0.419-0.315c0.478,0.02,0.955,0.006,1.495,0.006c-0.234,0.704-0.457,1.349-0.666,1.994
			c-0.503,1.521-1.018,3.036-1.502,4.561c-0.101,0.315-0.238,0.477-0.582,0.427c-0.184-0.027-0.383,0.026-0.557-0.018
			c-0.141-0.033-0.328-0.138-0.365-0.251c-0.735-2.181-1.449-4.368-2.168-6.554C49.788,22.637,49.799,22.603,49.799,22.503z
			 M46.104,25.841c1.044,0,2.081,0,3.16,0c0,0.494,0,0.979,0,1.491c-1.053,0-2.089,0-3.16,0
			C46.104,26.84,46.104,26.357,46.104,25.841z M49.379,36.455c-0.324,0-0.576,0.024-0.817-0.012
			c-0.122-0.019-0.302-0.128-0.326-0.225c-0.075-0.312-0.256-0.384-0.539-0.357c-0.201,0.02-0.404-0.008-0.607,0.009
			c-0.097,0.008-0.259,0.052-0.269,0.104c-0.18,0.782-0.763,0.386-1.272,0.502c0.395-1.096,0.758-2.097,1.123-3.104
			c0.073-0.203,0.16-0.403,0.221-0.611c0.086-0.284,0.176-0.479,0.56-0.48c0.399-0.004,0.489,0.202,0.591,0.5
			C48.472,33.98,48.909,35.171,49.379,36.455z M44.329,18.114c-0.145-0.07-0.331-0.062-0.498-0.09
			c-0.648-0.113-0.984-0.44-1.039-1.014c-0.068-0.676,0.223-1.202,0.828-1.397c0.734-0.237,1.43-0.171,2.069,0.366
			c-0.224,0.201-0.429,0.381-0.607,0.539c-0.338-0.036-0.654-0.099-0.967-0.081c-0.12,0.007-0.23,0.201-0.347,0.311
			c0.109,0.11,0.199,0.271,0.333,0.322c0.198,0.075,0.425,0.072,0.64,0.109c0.499,0.089,0.859,0.324,0.984,0.854
			c0.132,0.554,0.014,1.019-0.436,1.378c-0.674,0.541-2.041,0.434-2.681-0.224c0.183-0.2,0.373-0.403,0.5-0.54
			c0.455,0.062,0.844,0.154,1.235,0.154c0.137-0.002,0.271-0.228,0.408-0.352C44.614,18.335,44.488,18.189,44.329,18.114z
			 M40.325,33.881c0,0.334,0,0.617,0,0.941c-0.496,0-0.97,0-1.485,0c0,0.234,0,0.426,0,0.681c0.553,0,1.119,0,1.73,0
			c0,0.342,0,0.624,0,0.93c-0.927,0-1.838,0-2.776,0c0-1.369,0-2.713,0-4.096c0.926,0,1.846,0,2.794,0c0,0.275,0,0.536,0,0.87
			c-0.579,0-1.156,0-1.774,0c0,0.281,0,0.453,0,0.674C39.308,33.881,39.798,33.881,40.325,33.881z M40.576,28.984
			c-0.024-0.588,0.121-1.078,0.459-1.564c0.658-0.943,1.261-1.924,1.887-2.892c0.083-0.127,0.154-0.258,0.276-0.464
			c-0.858,0-1.642,0-2.447,0c0-0.538,0-1.014,0-1.528c1.497,0,2.997,0,4.567,0c-0.026,0.614,0.13,1.228-0.3,1.838
			c-0.797,1.127-1.523,2.305-2.312,3.524c0.892,0,1.722,0,2.586,0c0,0.53,0,1.017,0,1.552c-0.121,0.008-0.257,0.026-0.387,0.028
			c-1.277,0.001-2.555-0.017-3.831,0.009C40.671,29.497,40.595,29.356,40.576,28.984z M42.608,36.017c0-1.214,0-2.425,0-3.68
			c0.341,0,0.658,0,1.028,0c0,1.041,0,2.091,0,3.195c0.607,0,1.16,0,1.742,0c0,0.314,0,0.574,0,0.878c-0.897,0-1.801,0-2.773,0
			C42.608,36.26,42.608,36.139,42.608,36.017z M39.446,15.564c0.92,0,1.829,0,2.781,0c0,0.306,0,0.566,0,0.882
			c-0.58,0-1.148,0-1.743,0c0,0.25,0,0.445,0,0.691c0.475,0,0.949,0,1.459,0c0,0.32,0,0.589,0,0.917c-0.466,0-0.939,0-1.451,0
			c0,0.26,0,0.465,0,0.71c0.562,0,1.119,0,1.711,0c0,0.321,0,0.604,0,0.917c-0.907,0-1.816,0-2.759,0
			C39.446,18.314,39.446,16.957,39.446,15.564z M36.086,15.568c0.317,0,0.634,0,0.991,0c0,1.062,0,2.098,0,3.195
			c0.587,0,1.14,0,1.726,0c0,0.328,0,0.6,0,0.908c-0.892,0-1.785,0-2.717,0C36.086,18.323,36.086,16.964,36.086,15.568z
			 M35.088,22.683c0-0.044,0.021-0.087,0.045-0.161c1.569,0,3.105,0,4.67,0c0,0.507,0,0.994,0,1.524c-0.983,0-1.944,0-2.943,0
			c0,0.39,0,0.738,0,1.144c0.828,0,1.658,0,2.512,0c0,0.534,0,1.009,0,1.528c-0.841,0-1.657,0-2.512,0c0,0.408,0,0.772,0,1.184
			c0.957,0,1.931,0,2.935,0c0,0.537,0,1.023,0,1.577c-0.432,0-0.864,0-1.297,0c-1.01,0-2.021-0.002-3.033,0.003
			c-0.219,0.002-0.392-0.01-0.388-0.311C35.084,27.009,35.084,24.845,35.088,22.683z M33.988,32.317c0.635,0,1.244-0.033,1.845,0.01
			c0.634,0.047,1.136,0.527,1.197,1.172c0.054,0.583,0.052,1.178,0,1.763c-0.061,0.627-0.539,1.109-1.156,1.159
			c-0.617,0.052-1.236,0.011-1.886,0.011C33.988,35.055,33.988,33.698,33.988,32.317z M21.97,22.504
			c0.438,0,0.871-0.022,1.297,0.014c0.135,0.01,0.292,0.154,0.373,0.28c0.565,0.859,1.113,1.725,1.666,2.588
			c0.073,0.115,0.152,0.225,0.322,0.323c0-1.058,0-2.113,0-3.187c0.609,0,1.151,0,1.722,0c0,2.305,0,4.6,0,6.952
			c-0.443,0-0.893,0.021-1.336-0.013c-0.116-0.009-0.25-0.164-0.328-0.282c-0.583-0.897-1.156-1.804-1.736-2.707
			c-0.063-0.099-0.135-0.197-0.202-0.295c-0.032,0.011-0.067,0.02-0.1,0.031c0,1.069,0,2.14,0,3.242c-0.568,0-1.102,0-1.677,0
			C21.97,27.142,21.97,24.851,21.97,22.504z M13.357,29.464c-0.108-0.006-0.243-0.165-0.305-0.285
			c-0.317-0.621-0.64-1.244-0.908-1.889c-0.14-0.342-0.334-0.454-0.725-0.351c0,0.812,0,1.642,0,2.537
			c-0.539,0-1.033,0.014-1.525-0.012c-0.083-0.002-0.229-0.169-0.229-0.259c-0.007-2.194,0-4.387,0.007-6.581
			c0-0.027,0.026-0.058,0.054-0.104c1.042,0,2.101-0.063,3.15,0.021c0.949,0.073,1.617,0.646,1.858,1.589
			c0.262,1.033-0.068,1.868-1.019,2.455c0.485,0.943,0.963,1.874,1.484,2.889C14.527,29.474,13.94,29.491,13.357,29.464z
			 M16.037,22.527c1.575,0,3.121,0,4.7,0c0,0.502,0,0.989,0,1.52c-0.984,0-1.946,0-2.941,0c0,0.39,0,0.738,0,1.144
			c0.821,0,1.653,0,2.511,0c0,0.534,0,1.009,0,1.528c-0.84,0-1.657,0-2.513,0c0,0.41,0,0.774,0,1.184c0.958,0,1.928,0,2.934,0
			c0,0.537,0,1.023,0,1.544c-1.548,0-3.095,0-4.691,0C16.037,27.115,16.037,24.835,16.037,22.527z M27.387,55.757
			c-0.538,0.127-1.108,0.187-1.663,0.191c-2.224,0.021-4.452,0.011-6.68,0.011c-0.166,0-0.333,0-0.523,0c0-5.577,0-11.098,0-16.686
			c0.462,0,0.881-0.002,1.299,0c2.146,0.018,4.299-0.022,6.441,0.072c1.559,0.068,2.915,0.692,3.77,2.084
			c0.947,1.543,1.242,4.207-0.908,5.839c-0.051,0.037-0.102,0.07-0.188,0.133c0.754,0.477,1.347,1.033,1.689,1.816
			C31.806,51.922,30.25,55.086,27.387,55.757z M29.02,29.474c-0.076,0-0.148-0.027-0.241-0.047c0-2.295,0-4.581,0-6.92
			c1.016,0,1.978-0.042,2.939,0.012c1.257,0.068,2.164,1.035,2.202,2.293c0.021,0.792,0.027,1.586,0,2.38
			c-0.043,1.218-0.931,2.156-2.147,2.235C30.857,29.489,29.937,29.466,29.02,29.474z M35.963,76.308c-1.179,0-2.309,0-3.476,0
			c-0.009-0.192-0.023-0.359-0.023-0.528c-0.003-4.854,0.001-9.71-0.013-14.562c0-0.419,0.099-0.565,0.539-0.55
			c0.979,0.032,1.956,0.011,2.974,0.011C35.963,65.905,35.963,71.09,35.963,76.308z M39.961,76.295c-1.153,0-2.297,0-3.497,0
			c0-5.191,0-10.368,0-15.581c1.159,0,2.314,0,3.497,0C39.961,65.909,39.961,71.082,39.961,76.295z M35.882,55.069
			c-1.71-1.159-2.532-2.816-2.585-4.827c-0.055-1.926-0.08-3.86,0.073-5.779c0.237-2.992,2.522-5.113,5.549-5.301
			c1.907-0.12,3.698,0.216,5.17,1.555c1.145,1.041,1.715,2.376,1.973,3.963c-1.352,0-2.656,0.006-3.964-0.017
			c-0.092,0-0.221-0.178-0.269-0.299c-0.481-1.225-1.401-1.74-2.697-1.496c-0.922,0.174-1.498,0.757-1.625,1.797
			c-0.244,1.969-0.255,3.948,0.004,5.916c0.18,1.367,1.182,2.031,2.548,1.801c1.321-0.226,2.06-1.23,1.859-2.578
			c-0.767,0-1.541,0-2.353,0c0-1.16,0-2.285,0-3.44c2.152,0,4.308,0,6.513,0c-0.047,1.858,0.166,3.714-0.338,5.53
			c-0.657,2.34-2.796,4.012-5.297,4.171C38.825,56.164,37.271,56.014,35.882,55.069z M46.91,76.412
			c-0.975-5.027-1.945-10.026-2.915-15.024c-0.023,0-0.047,0.002-0.068,0.002c0,4.964,0,9.928,0,14.916c-1.182,0-2.315,0-3.483,0
			c0-5.187,0-10.366,0-15.632c0.239,0,0.479,0,0.719,0c0.794,0,1.59-0.01,2.385,0.008c0.154,0.004,0.303,0.122,0.459,0.188
			c-0.01,0.056-0.02,0.112-0.031,0.169c1.125-0.216,2.249-0.427,3.432-0.653c0.992,5.129,1.979,10.216,2.975,15.352
			C49.226,75.963,48.101,76.182,46.91,76.412z M64.382,55.922c-1.345,0-2.691,0-4.094,0c0-2.556,0-5.095,0-7.639
			c-0.031-0.008-0.062-0.016-0.094-0.024c-0.154,0.259-0.312,0.515-0.464,0.776c-0.521,0.902-1.046,1.803-1.552,2.714
			c-0.134,0.248-0.281,0.367-0.576,0.358c-0.639-0.021-1.278-0.02-1.916-0.001c-0.273,0.009-0.422-0.094-0.549-0.323
			c-0.596-1.059-1.204-2.109-1.807-3.161c-0.08-0.144-0.176-0.279-0.339-0.539c0,2.696,0,5.254,0,7.845c-1.384,0-2.731,0-4.097,0
			c0-5.543,0-11.066,0-16.651c1.299,0,2.561-0.013,3.816,0.018c0.14,0.002,0.319,0.215,0.402,0.373
			c1.092,2.114,2.167,4.236,3.248,6.355c0.082,0.164,0.166,0.324,0.288,0.559c0.638-1.244,1.236-2.414,1.833-3.583
			c0.574-1.122,1.152-2.242,1.711-3.37c0.125-0.257,0.276-0.363,0.57-0.358c1.194,0.016,2.391,0.006,3.614,0.006
			C64.382,44.844,64.382,50.363,64.382,55.922z M67.589,23.124c0,1.292,0.003,2.581-0.004,3.875c0,1.485-1.038,2.499-2.575,2.536
			c-1.526,0.036-2.652-0.954-2.688-2.426c-0.035-1.461-0.007-2.925-0.007-4.386c0-0.06,0.02-0.117,0.033-0.197
			c0.553,0,1.089,0,1.69,0c0,0.197,0,0.378,0,0.558c0,1.276-0.013,2.552,0.004,3.829c0.009,0.823,0.539,1.253,1.223,1.018
			c0.471-0.164,0.594-0.55,0.594-1.001c0.003-1.292,0.003-2.582,0.003-3.875c0-0.167,0-0.335,0-0.527c0.586,0,1.122,0,1.728,0
			C67.589,22.734,67.589,22.927,67.589,23.124z M72.667,29.025c-1.193,0.86-3.543,0.63-4.442-0.431
			c0.352-0.343,0.704-0.692,1.079-1.061c0.574,0.39,1.223,0.538,1.929,0.413c0.341-0.059,0.582-0.215,0.572-0.607
			c-0.008-0.381-0.259-0.494-0.579-0.539c-0.323-0.043-0.646-0.085-0.967-0.147c-1.168-0.229-1.678-0.799-1.74-1.914
			c-0.053-1.001,0.516-1.845,1.524-2.148c1.097-0.328,2.155-0.23,3.12,0.432c0.094,0.061,0.18,0.122,0.287,0.195
			c-0.421,0.391-0.779,0.725-1.049,0.977c-0.538-0.081-1.025-0.191-1.523-0.217c-0.355-0.018-0.655,0.194-0.664,0.581
			c-0.013,0.394,0.325,0.488,0.645,0.544c0.367,0.066,0.738,0.099,1.101,0.171c0.78,0.158,1.34,0.564,1.513,1.39
			C73.663,27.609,73.492,28.432,72.667,29.025z"/>
		<path fill="#262626" d="M47.157,34.945c0.104-0.324,0.189-0.607,0.277-0.892c0.033-0.003,0.067-0.003,0.1-0.007
			c0.086,0.286,0.175,0.573,0.271,0.898C47.573,34.945,47.398,34.945,47.157,34.945z"/>
	</g>
</g>
</svg>
