<?xml version="1.0" encoding="utf-8"?>
<!-- Generator: Adobe Illustrator 16.0.0, SVG Export Plug-In . SVG Version: 6.00 Build 0)  -->
<!DOCTYPE svg PUBLIC "-//W3C//DTD SVG 1.1//EN" "http://www.w3.org/Graphics/SVG/1.1/DTD/svg11.dtd">
<svg version="1.1" id="Layer_1" xmlns="http://www.w3.org/2000/svg" xmlns:xlink="http://www.w3.org/1999/xlink" x="0px" y="0px"
	 width="120.095px" height="80px" viewBox="-40.094 0 120.095 80" enable-background="new -40.094 0 120.095 80"
	 xml:space="preserve">
<g>
	<circle fill="#FFFFFF" cx="40.001" cy="40" r="39.407"/>
	<g>
		<path fill="#262626" d="M28.769,22.415c0,1.236,0,2.475,0,3.77c0.226,0,0.397,0.002,0.567,0c0.752-0.009,1.048-0.262,1.1-1.018
			c0.037-0.557,0.058-1.12,0.018-1.677C30.381,22.418,29.823,22.077,28.769,22.415z"/>
		<path fill="#262626" d="M24.022,47.688c-1.025-0.078-2.063-0.02-3.122-0.02c0,0.923,0,1.847,0,2.82
			c1.01,0,1.974,0.021,2.935-0.008c0.716-0.02,1.198-0.535,1.248-1.255C25.141,48.375,24.778,47.749,24.022,47.688z"/>
		<path fill="#262626" d="M34.309,32.997c0.005-0.25,0.008-0.499,0-0.747c-0.028-0.69-0.322-0.892-1.011-0.683
			c0,0.722,0,1.448,0,2.165C34.058,33.879,34.289,33.705,34.309,32.997z"/>
		<path fill="#262626" d="M23.719,43.88c0.764-0.057,1.165-0.592,1.15-1.329c-0.018-0.707-0.433-1.231-1.166-1.279
			c-0.926-0.058-1.857-0.015-2.806-0.015c0,0.885,0,1.736,0,2.639C21.861,43.896,22.792,43.946,23.719,43.88z"/>
		<path fill="#262626" d="M56.005,25.236c0,0.077,0.012,0.155,0.021,0.231c0.086,0.479,0.413,0.781,0.845,0.786
			c0.409,0.002,0.802-0.276,0.829-0.729c0.051-0.848,0.059-1.704,0.004-2.554c-0.035-0.517-0.367-0.729-0.861-0.715
			c-0.463,0.013-0.758,0.279-0.815,0.79c-0.043,0.383-0.043,0.775-0.063,1.163c0.018,0,0.03,0,0.041,0
			C56.005,24.551,56.005,24.893,56.005,25.236z"/>
		<path fill="#262626" d="M10.711,22.333c-0.334-0.024-0.671-0.006-1.027-0.006c0,0.467,0,0.88,0,1.352
			c0.376,0,0.717,0.028,1.053-0.008c0.391-0.045,0.612-0.3,0.591-0.701C11.307,22.598,11.087,22.362,10.711,22.333z"/>
		<path fill="#262626" d="M40,0C17.91,0,0,17.908,0,39.999C0,62.092,17.91,80,40,80c22.094,0,40.002-17.909,40.002-40.001
			C80.001,17.908,62.093,0,40,0z M54.323,22.693c0.211-1.294,1.267-2.056,2.728-2.01c1.301,0.043,2.336,0.943,2.42,2.199
			c0.061,0.914,0.065,1.837-0.004,2.75c-0.101,1.268-1.099,2.105-2.447,2.163c-1.418,0.058-2.469-0.7-2.695-1.987
			c-0.086-0.516-0.085-1.052-0.125-1.58C54.238,23.715,54.241,23.196,54.323,22.693z M48.06,20.764c0.513,0,1.014-0.021,1.505,0.016
			c0.12,0.01,0.288,0.197,0.335,0.337c0.346,1.094,0.669,2.197,1.04,3.434c0.155-0.494,0.278-0.865,0.391-1.241
			c0.224-0.743,0.452-1.486,0.656-2.235c0.065-0.243,0.176-0.324,0.419-0.315c0.479,0.02,0.955,0.006,1.495,0.006
			c-0.234,0.704-0.457,1.349-0.666,1.994c-0.503,1.521-1.019,3.036-1.502,4.561c-0.101,0.315-0.238,0.477-0.582,0.427
			c-0.185-0.027-0.384,0.026-0.558-0.018c-0.141-0.033-0.328-0.138-0.365-0.251c-0.734-2.181-1.448-4.368-2.168-6.554
			C48.048,20.898,48.06,20.864,48.06,20.764z M44.365,24.102c1.044,0,2.081,0,3.16,0c0,0.494,0,0.979,0,1.491
			c-1.053,0-2.09,0-3.16,0C44.365,25.101,44.365,24.618,44.365,24.102z M47.64,34.716c-0.324,0-0.576,0.024-0.817-0.012
			c-0.122-0.019-0.302-0.128-0.326-0.225c-0.075-0.312-0.256-0.384-0.539-0.357c-0.2,0.02-0.403-0.008-0.606,0.009
			c-0.098,0.008-0.26,0.052-0.27,0.104c-0.18,0.782-0.763,0.386-1.271,0.502c0.395-1.096,0.758-2.097,1.123-3.104
			c0.072-0.203,0.16-0.403,0.221-0.611c0.086-0.284,0.176-0.479,0.561-0.479c0.398-0.004,0.488,0.202,0.59,0.5
			C46.733,32.241,47.169,33.432,47.64,34.716z M42.589,16.375c-0.145-0.07-0.33-0.062-0.498-0.09
			c-0.647-0.113-0.983-0.44-1.039-1.014c-0.067-0.676,0.224-1.202,0.828-1.397c0.734-0.237,1.43-0.171,2.069,0.366
			c-0.224,0.201-0.429,0.381-0.606,0.539c-0.338-0.036-0.654-0.099-0.967-0.081c-0.121,0.007-0.23,0.201-0.348,0.311
			c0.109,0.11,0.199,0.271,0.333,0.322c0.198,0.075,0.425,0.072,0.64,0.109c0.5,0.089,0.859,0.324,0.984,0.854
			c0.132,0.554,0.014,1.019-0.436,1.378c-0.674,0.541-2.041,0.434-2.682-0.224c0.184-0.2,0.373-0.403,0.5-0.54
			c0.455,0.062,0.844,0.154,1.234,0.154c0.138-0.002,0.271-0.228,0.408-0.352C42.875,16.596,42.749,16.45,42.589,16.375z
			 M38.585,32.142c0,0.334,0,0.617,0,0.941c-0.496,0-0.97,0-1.485,0c0,0.234,0,0.426,0,0.681c0.554,0,1.119,0,1.73,0
			c0,0.342,0,0.624,0,0.93c-0.927,0-1.838,0-2.776,0c0-1.369,0-2.713,0-4.096c0.927,0,1.847,0,2.795,0c0,0.275,0,0.536,0,0.87
			c-0.58,0-1.156,0-1.774,0c0,0.281,0,0.453,0,0.674C37.569,32.142,38.058,32.142,38.585,32.142z M38.837,27.245
			c-0.025-0.588,0.12-1.078,0.459-1.564c0.657-0.943,1.26-1.924,1.887-2.892c0.082-0.127,0.154-0.258,0.275-0.464
			c-0.857,0-1.642,0-2.447,0c0-0.538,0-1.014,0-1.528c1.498,0,2.998,0,4.567,0c-0.026,0.614,0.13,1.228-0.3,1.838
			c-0.797,1.127-1.523,2.305-2.312,3.524c0.893,0,1.723,0,2.586,0c0,0.53,0,1.017,0,1.552c-0.121,0.008-0.256,0.026-0.387,0.028
			c-1.277,0.001-2.555-0.017-3.83,0.009C38.931,27.758,38.856,27.617,38.837,27.245z M40.869,34.278c0-1.214,0-2.425,0-3.68
			c0.342,0,0.658,0,1.028,0c0,1.041,0,2.091,0,3.195c0.606,0,1.159,0,1.741,0c0,0.314,0,0.574,0,0.878c-0.896,0-1.801,0-2.772,0
			C40.869,34.521,40.869,34.4,40.869,34.278z M37.707,13.825c0.92,0,1.829,0,2.781,0c0,0.306,0,0.566,0,0.882
			c-0.58,0-1.148,0-1.743,0c0,0.25,0,0.445,0,0.691c0.476,0,0.949,0,1.459,0c0,0.32,0,0.589,0,0.917c-0.466,0-0.938,0-1.451,0
			c0,0.26,0,0.465,0,0.71c0.562,0,1.119,0,1.712,0c0,0.321,0,0.604,0,0.917c-0.908,0-1.816,0-2.76,0
			C37.707,16.575,37.707,15.218,37.707,13.825z M34.346,13.829c0.317,0,0.635,0,0.991,0c0,1.062,0,2.098,0,3.195
			c0.587,0,1.14,0,1.727,0c0,0.328,0,0.6,0,0.908c-0.893,0-1.785,0-2.718,0C34.346,16.584,34.346,15.225,34.346,13.829z
			 M33.348,20.944c0-0.044,0.021-0.087,0.045-0.161c1.569,0,3.105,0,4.671,0c0,0.507,0,0.994,0,1.524c-0.983,0-1.944,0-2.943,0
			c0,0.39,0,0.738,0,1.144c0.828,0,1.658,0,2.512,0c0,0.534,0,1.009,0,1.528c-0.841,0-1.657,0-2.512,0c0,0.408,0,0.772,0,1.184
			c0.957,0,1.931,0,2.935,0c0,0.537,0,1.023,0,1.577c-0.432,0-0.863,0-1.297,0c-1.01,0-2.021-0.002-3.033,0.003
			c-0.219,0.002-0.392-0.01-0.388-0.311C33.344,25.27,33.344,23.105,33.348,20.944z M32.249,30.578c0.635,0,1.244-0.033,1.845,0.01
			c0.634,0.047,1.137,0.527,1.197,1.172c0.054,0.583,0.052,1.178,0,1.763c-0.062,0.627-0.539,1.109-1.156,1.159
			c-0.617,0.052-1.235,0.011-1.886,0.011C32.249,33.316,32.249,31.959,32.249,30.578z M20.231,20.765
			c0.438,0,0.87-0.022,1.297,0.014c0.135,0.01,0.292,0.154,0.373,0.28c0.564,0.859,1.112,1.725,1.666,2.588
			c0.072,0.115,0.151,0.225,0.321,0.323c0-1.058,0-2.113,0-3.187c0.609,0,1.151,0,1.723,0c0,2.305,0,4.6,0,6.952
			c-0.443,0-0.894,0.021-1.336-0.013c-0.116-0.009-0.25-0.164-0.328-0.282c-0.583-0.897-1.156-1.804-1.736-2.707
			c-0.062-0.099-0.135-0.197-0.202-0.295c-0.032,0.011-0.066,0.021-0.1,0.031c0,1.069,0,2.14,0,3.242c-0.568,0-1.103,0-1.677,0
			C20.231,25.403,20.231,23.112,20.231,20.765z M11.618,27.725c-0.108-0.006-0.243-0.165-0.306-0.285
			c-0.316-0.621-0.64-1.244-0.907-1.889c-0.141-0.342-0.334-0.454-0.726-0.351c0,0.812,0,1.642,0,2.537
			c-0.539,0-1.032,0.014-1.524-0.012c-0.083-0.002-0.229-0.169-0.229-0.259c-0.007-2.194,0-4.387,0.007-6.581
			c0-0.027,0.026-0.058,0.055-0.104c1.042,0,2.101-0.063,3.149,0.021c0.949,0.073,1.617,0.646,1.858,1.589
			c0.262,1.033-0.068,1.868-1.02,2.455c0.485,0.943,0.964,1.874,1.484,2.889C12.788,27.735,12.201,27.752,11.618,27.725z
			 M14.297,20.788c1.575,0,3.121,0,4.7,0c0,0.502,0,0.989,0,1.52c-0.984,0-1.946,0-2.941,0c0,0.39,0,0.738,0,1.144
			c0.821,0,1.653,0,2.512,0c0,0.534,0,1.009,0,1.528c-0.841,0-1.657,0-2.514,0c0,0.41,0,0.774,0,1.184c0.958,0,1.929,0,2.935,0
			c0,0.537,0,1.023,0,1.544c-1.548,0-3.096,0-4.691,0C14.297,25.376,14.297,23.096,14.297,20.788z M25.648,54.018
			c-0.538,0.127-1.108,0.187-1.663,0.191c-2.225,0.021-4.452,0.011-6.681,0.011c-0.166,0-0.333,0-0.522,0c0-5.577,0-11.098,0-16.686
			c0.462,0,0.881-0.002,1.299,0c2.146,0.018,4.299-0.022,6.441,0.072c1.559,0.068,2.914,0.692,3.77,2.085
			c0.947,1.543,1.242,4.206-0.908,5.838c-0.051,0.037-0.102,0.07-0.188,0.133c0.754,0.478,1.347,1.033,1.688,1.816
			C30.067,50.183,28.51,53.347,25.648,54.018z M27.281,27.735c-0.076,0-0.148-0.027-0.241-0.047c0-2.295,0-4.581,0-6.92
			c1.016,0,1.978-0.042,2.938,0.012c1.258,0.068,2.164,1.035,2.202,2.293c0.021,0.792,0.027,1.586,0,2.38
			c-0.043,1.218-0.931,2.156-2.146,2.235C29.118,27.75,28.198,27.727,27.281,27.735z M34.223,74.569c-1.179,0-2.309,0-3.476,0
			c-0.009-0.192-0.023-0.359-0.023-0.529c-0.003-4.854,0.001-9.709-0.013-14.562c0-0.419,0.099-0.565,0.539-0.55
			c0.979,0.032,1.956,0.012,2.974,0.012C34.223,64.166,34.223,69.351,34.223,74.569z M38.221,74.556c-1.152,0-2.297,0-3.497,0
			c0-5.191,0-10.368,0-15.581c1.159,0,2.314,0,3.497,0C38.221,64.17,38.221,69.343,38.221,74.556z M34.142,53.329
			c-1.71-1.158-2.531-2.815-2.585-4.826c-0.055-1.926-0.08-3.86,0.073-5.779c0.237-2.992,2.522-5.113,5.549-5.301
			c1.908-0.12,3.699,0.216,5.17,1.555c1.146,1.041,1.716,2.376,1.974,3.963c-1.353,0-2.655,0.006-3.964-0.017
			c-0.092,0-0.221-0.179-0.27-0.299c-0.48-1.226-1.4-1.74-2.697-1.496c-0.922,0.174-1.498,0.757-1.625,1.797
			c-0.243,1.969-0.255,3.948,0.005,5.916c0.18,1.367,1.182,2.03,2.548,1.801c1.32-0.226,2.061-1.229,1.859-2.577
			c-0.768,0-1.542,0-2.354,0c0-1.16,0-2.285,0-3.44c2.152,0,4.309,0,6.514,0c-0.047,1.858,0.166,3.714-0.338,5.53
			c-0.658,2.34-2.797,4.012-5.298,4.17C37.085,54.425,35.532,54.274,34.142,53.329z M45.171,74.673
			c-0.976-5.027-1.945-10.026-2.916-15.023c-0.022,0-0.047,0.002-0.068,0.002c0,4.963,0,9.928,0,14.916c-1.182,0-2.314,0-3.482,0
			c0-5.188,0-10.367,0-15.633c0.239,0,0.479,0,0.719,0c0.795,0,1.59-0.01,2.385,0.008c0.154,0.004,0.304,0.123,0.459,0.188
			c-0.01,0.056-0.02,0.112-0.03,0.169c1.125-0.216,2.249-0.428,3.433-0.653c0.991,5.13,1.979,10.216,2.975,15.353
			C47.487,74.224,46.362,74.442,45.171,74.673z M62.642,54.183c-1.344,0-2.69,0-4.094,0c0-2.556,0-5.095,0-7.639
			c-0.031-0.008-0.062-0.016-0.094-0.024c-0.154,0.259-0.312,0.515-0.464,0.776c-0.521,0.902-1.046,1.803-1.552,2.714
			c-0.135,0.248-0.281,0.367-0.576,0.358c-0.639-0.021-1.277-0.021-1.916-0.002c-0.273,0.01-0.422-0.094-0.549-0.322
			c-0.596-1.059-1.204-2.109-1.807-3.161c-0.08-0.144-0.177-0.279-0.34-0.539c0,2.696,0,5.254,0,7.845c-1.384,0-2.73,0-4.097,0
			c0-5.543,0-11.066,0-16.651c1.299,0,2.562-0.013,3.815,0.018c0.141,0.002,0.319,0.215,0.402,0.373
			c1.092,2.114,2.167,4.236,3.248,6.355c0.082,0.164,0.166,0.324,0.288,0.559c0.638-1.244,1.235-2.414,1.833-3.583
			c0.574-1.122,1.152-2.242,1.711-3.37c0.125-0.257,0.275-0.363,0.57-0.358c1.193,0.016,2.391,0.006,3.613,0.006
			C62.642,43.104,62.642,48.624,62.642,54.183z M65.849,21.385c0,1.292,0.004,2.581-0.004,3.875c0,1.485-1.037,2.499-2.574,2.536
			c-1.526,0.036-2.652-0.954-2.688-2.426c-0.034-1.461-0.007-2.925-0.007-4.386c0-0.06,0.02-0.117,0.033-0.197
			c0.553,0,1.089,0,1.689,0c0,0.197,0,0.378,0,0.558c0,1.276-0.013,2.552,0.004,3.829c0.01,0.823,0.539,1.253,1.224,1.018
			c0.471-0.164,0.594-0.55,0.594-1.001c0.003-1.292,0.003-2.582,0.003-3.875c0-0.167,0-0.335,0-0.527c0.586,0,1.122,0,1.729,0
			C65.849,20.995,65.849,21.188,65.849,21.385z M70.927,27.286c-1.192,0.86-3.543,0.63-4.441-0.431
			c0.352-0.343,0.704-0.692,1.079-1.061c0.573,0.39,1.223,0.538,1.929,0.413c0.342-0.059,0.582-0.215,0.572-0.607
			c-0.008-0.381-0.26-0.494-0.579-0.539c-0.323-0.043-0.646-0.085-0.968-0.147c-1.168-0.229-1.678-0.799-1.739-1.914
			c-0.054-1.001,0.517-1.845,1.524-2.148c1.097-0.328,2.154-0.23,3.119,0.432c0.094,0.061,0.18,0.122,0.287,0.195
			c-0.421,0.391-0.779,0.725-1.049,0.977c-0.538-0.081-1.025-0.191-1.523-0.217c-0.354-0.018-0.654,0.194-0.664,0.581
			c-0.012,0.394,0.326,0.488,0.646,0.544c0.367,0.066,0.738,0.099,1.101,0.171c0.781,0.158,1.34,0.564,1.514,1.39
			C71.923,25.87,71.753,26.693,70.927,27.286z"/>
		<path fill="#262626" d="M45.417,33.206c0.104-0.324,0.189-0.607,0.277-0.892c0.033-0.003,0.066-0.003,0.1-0.007
			c0.086,0.286,0.176,0.573,0.271,0.898C45.833,33.206,45.659,33.206,45.417,33.206z"/>
	</g>
</g>
<rect x="-40.094" y="10.833" fill="#262626" width="5.928" height="28.577"/>
<rect x="-32.761" y="10.833" fill="#262626" width="5.928" height="28.577"/>
<rect x="-25.427" y="10.833" fill="#262626" width="5.928" height="28.577"/>
<rect x="-15.094" y="10.833" transform="matrix(0.9848 -0.1738 0.1738 0.9848 -4.5502 -1.7257)" fill="#262626" width="5.929" height="28.577"/>
</svg>
