<?xml version="1.0" encoding="utf-8"?>
<!-- Generator: Adobe Illustrator 16.0.0, SVG Export Plug-In . SVG Version: 6.00 Build 0)  -->
<!DOCTYPE svg PUBLIC "-//W3C//DTD SVG 1.1//EN" "http://www.w3.org/Graphics/SVG/1.1/DTD/svg11.dtd">
<svg version="1.1" id="Layer_1" xmlns="http://www.w3.org/2000/svg" xmlns:xlink="http://www.w3.org/1999/xlink" x="0px" y="0px"
	 width="571.287px" height="175.253px" viewBox="0 0 571.287 175.253" enable-background="new 0 0 571.287 175.253"
	 xml:space="preserve">
<path fill="#0D0D0D" d="M571.287,52.178h-7.518l6.437-6.53v-5.387h-15.492v-4.019l10.742-10.9v-5.1h-9.923l14.673-14.887V0h-25.599
	l-4.902,4.977L534.754,0H510.75l-4.634,4.702V0H496.01l-3.483,3.535V0h-10.041L472.38,10.254V0h-10.104l-4.258,4.317L453.723,0
	h-24.005l-2.873,2.917V0h-30.603l-3.57,3.623L388.522,0h-12.625l-6.31,6.363v0.041V6.363l-3.577,3.608V0h-5.066l-13.182,13.373
	L334.421,0h-3.792l-4.905,4.977L320.772,0h-17.631l-9.918,9.94V6.343L286.912,0h-17.628l-28.87,29.168v23.01h-4.16l-5.545,5.626
	l-5.598-5.626h-26.63l-3.183,3.229v-3.229h-34.195l-2.716,2.757v-2.757h-11.251l8.475-8.599v-3.963L143.89,27.832h-2.605
	l-11.787,11.96v-0.177l-12.381,12.562h-5.969L98.35,65.162V52.178H85.384L62.89,75.002v31.779h-6.535l-4.904,4.977l-4.952-4.977
	H22.495L0,129.606v45.647h24.004l6.312-6.344l3.545-3.599v9.94h25.597l3.757-3.812l4.188,3.812h12.304l6.917-6.979l18.501-18.773
	v19.41l6.376,6.344h17.628l6.312-6.344l3.544-3.599v9.94h10.105L159.196,165v10.252H169.3l3.545-3.596v3.596h10.104L193.055,165
	v10.252h10.104l3.544-3.596v3.596h5.1l14.451-14.66l10.764,10.806v3.854h5.069l3.514-3.564v3.564h24.003l6.312-6.344l3.225-3.273
	v3.816l6.376,5.801h12.304l22.494-22.822l2.927-2.932v25.754h6.692l13.174-13.365l3.219,3.865l2.52,0.006l15.451-15.68v25.174h9.438
	l4.929-5l5.022,5h17.629l6.312-6.344l2.237-2.271v2.271l6.377,6.344h23.876l3.606-3.66v3.66h25.278l2.084-2.113v2.113h10.107
	l3.323-3.373v3.373h5.102l14.451-14.66l10.762,10.806v3.854h5.07l3.908-3.963l4.354,3.963h12.306l29.412-29.806v-10.774
	l-9.638-7.943l9.638-9.78v-4.684l-4.708-4.11l6.107-6.197v-8.078h-16.046v-1.664l11.127-11.29v-7.781h-7.812l12.73-12.919v-8.047
	H571.287z M151.762,43.564l-0.022-0.022L151.762,43.564z M111.164,72.643v-0.045V72.643z M111.147,65.177h0.153H111.147z"/>
<g>
	<g>
		<g>
			<path fill="#FFFFFF" d="M288.138,35.198h5.036v4.113l-6.312,6.344H269.23l-6.376-6.344V6.345L269.23,0h17.632l6.312,6.345v4.113
				h-5.036V5.356H272.96v34.88h15.178V35.198z"/>
			<path fill="#FFFFFF" d="M320.729,45.656h-17.633l-6.375-6.344V6.345L303.097,0h17.633l6.312,6.345v32.967L320.729,45.656z
				 M306.826,5.037v35.518h10.106V5.037H306.826z"/>
			<path fill="#FFFFFF" d="M335.687,45.656h-5.101V0h3.793l26.527,26.59V0h5.067v45.656h-5.067v-3.857l-25.222-25.315v29.172
				H335.687z"/>
			<path fill="#FFFFFF" d="M369.17,39.854v-5.293l3.759,0.006l5.127,4.406l6.961-0.012l0.02-10.164L369.558,16.16l-0.004-9.817
				L375.865,0h12.625l6.28,5.484v4.687l-3.485,0.014l-4.994-4.19h-6.951v9.183l15.433,12.721v10.776l-6.918,6.982h-12.308
				L369.17,39.854z"/>
			<path fill="#FFFFFF" d="M416.424,45.656h-10.104V5.994h-10.107V0h30.607v5.994h-10.396V45.656z"/>
			<path fill="#FFFFFF" d="M439.801,45.656h-10.106V0h24.008l6.312,6.345v12.657l-5.037,5.069l5.037,5.102v16.483h-10.104V25.347
				h-10.107L439.801,45.656L439.801,45.656z M439.801,5.037v15.209h10.107V5.037H439.801z"/>
			<path fill="#FFFFFF" d="M462.254,39.312V0h10.107v40.555h10.106V0h10.043v39.312v6.344H468.63L462.254,39.312z"/>
			<path fill="#FFFFFF" d="M506.104,45.656h-10.106V0h10.106V45.656z"/>
			<path fill="#FFFFFF" d="M520.844,45.656h-10.104V0h24.008l6.312,6.345v12.657l-5.036,5.069l5.036,5.102v16.483h-10.106V25.347
				h-10.107L520.844,45.656L520.844,45.656z M520.844,5.037v15.209h10.107V5.037H520.844z"/>
			<path fill="#FFFFFF" d="M570.205,40.268v5.388h-25.602V0h25.602v5.356h-15.494v14.89h10.744v5.101h-10.744v14.921H570.205z"/>
		</g>
		<g>
			<polygon fill="#FFFFFF" points="98.267,52.187 85.299,52.187 85.299,101.974 113.985,101.974 113.985,94.191 98.267,94.191 			
				"/>
			<polygon fill="#FFFFFF" points="111.066,65.189 116.348,65.189 116.346,67.316 111.083,72.612 111.054,75.722 116.769,75.722 
				124.034,68.348 124.034,52.187 111.066,52.187 			"/>
			<polygon fill="#FFFFFF" points="129.297,101.974 158.313,101.974 158.313,93.894 142.265,93.894 142.265,80.939 153.393,80.939 
				153.393,73.156 142.265,73.156 142.265,60.236 158.313,60.236 158.313,52.187 129.297,52.187 			"/>
			<polygon fill="#FFFFFF" points="161.03,60.896 171.498,60.896 171.498,101.974 184.465,101.974 184.465,60.896 195.231,60.896 
				195.231,52.187 161.03,52.187 			"/>
			<path fill="#FFFFFF" d="M198.415,52.187v49.787h12.968V80.939h7.968v21.035h12.968V83.138l-4.708-4.767l4.708-4.737v-14.14
				l-7.269-7.307H198.415z M219.35,59.906v13.25h-7.968v-13.25H219.35z"/>
			<polygon fill="#FFFFFF" points="236.195,101.974 265.21,101.974 265.21,93.894 249.163,93.894 249.163,80.939 260.291,80.939 
				260.291,73.156 249.163,73.156 249.163,60.236 265.21,60.236 265.21,52.187 236.195,52.187 			"/>
			<rect x="270.078" y="76.162" fill="#FFFFFF" width="28.685" height="7.783"/>
			<polygon fill="#FFFFFF" points="332.167,77.119 330.659,77.119 309.724,52.187 303.961,52.187 303.961,101.974 313.396,101.974 
				313.396,73.933 328.538,92.132 332.319,92.141 346.492,75.056 346.492,101.974 358.767,101.974 358.767,52.187 353.069,52.187 
							"/>
			<path fill="#FFFFFF" d="M371.295,52.187l-7.267,7.342v42.445h12.968V80.939h7.969v21.035h12.967v-42.48l-7.268-7.307H371.295z
				 M384.965,60.236v12.92h-7.969v-12.92H384.965z"/>
			<polygon fill="#FFFFFF" points="409.148,52.187 401.811,59.49 401.811,94.673 409.148,101.974 428.445,101.974 435.713,94.669 
				435.713,88.644 427.996,88.644 427.996,93.861 414.777,93.861 414.777,60.236 427.996,60.236 427.996,65.519 435.713,65.519 
				435.713,59.494 428.445,52.187 			"/>
			<polygon fill="#FFFFFF" points="461.879,73.156 453.91,73.156 453.91,52.187 440.943,52.187 440.943,101.974 453.91,101.974 
				453.91,80.939 461.879,80.939 461.879,101.974 474.846,101.974 474.846,52.187 461.879,52.187 			"/>
			<rect x="479.949" y="52.187" fill="#FFFFFF" width="12.967" height="49.787"/>
			<polygon fill="#FFFFFF" points="529.324,77.956 503.618,52.187 497.92,52.187 497.92,101.974 505.703,101.974 505.703,73.536 
				529.324,97.248 529.324,101.974 537.074,101.974 537.074,52.187 529.324,52.187 			"/>
			<polygon fill="#FFFFFF" points="571.287,60.236 571.287,52.187 542.271,52.187 542.271,101.974 571.287,101.974 571.287,93.894 
				555.238,93.894 555.238,80.939 566.367,80.939 566.367,73.156 555.238,73.156 555.238,60.236 			"/>
		</g>
		<g>
			<path fill="#FFFFFF" d="M46.407,152.457H22.399V106.8h24.008l6.313,6.344v32.967L46.407,152.457z M32.506,111.837v35.518h10.107
				v-35.518H32.506L32.506,111.837z"/>
			<path fill="#FFFFFF" d="M81.867,147.068v5.389H56.265V106.8h25.602v5.354H66.372v14.892h10.745v5.1H66.372v14.922H81.867z"/>
			<path fill="#FFFFFF" d="M83.437,146.654v-5.293l3.757,0.006l5.127,4.406l6.961-0.012l0.02-10.164L83.823,122.96l-0.004-9.818
				l6.313-6.342h12.625l6.281,5.484v4.686l-3.487,0.014l-4.994-4.189h-6.95v9.183l15.431,12.722v10.776l-6.918,6.981H89.813
				L83.437,146.654z"/>
			<path fill="#FFFFFF" d="M148.076,132.146h-5.324v-5.1h15.112v19.063l-6.313,6.347H133.92l-6.377-6.347v-32.967l6.377-6.345
				h17.631l6.313,6.345v4.112h-5.038v-5.102h-15.495v35.199h10.745V132.146z"/>
			<path fill="#FFFFFF" d="M171.516,152.457h-10.107V106.8h24.008l6.312,6.344v12.658l-5.037,5.068l5.037,5.102v16.484h-10.106
				v-20.312h-10.107V152.457z M171.516,111.837v15.209h10.107v-15.209H171.516z"/>
			<path fill="#FFFFFF" d="M205.382,152.457h-10.106v-39.278l6.312-6.378h17.695l6.312,6.345v39.312H215.49v-20.311h-10.107
				L205.382,152.457L205.382,152.457z M205.382,112.156v14.891h10.107v-14.891H205.382z"/>
			<path fill="#FFFFFF" d="M234.242,152.457h-5.101V106.8h3.794l26.526,26.59V106.8h5.069v45.656h-5.069v-3.857l-25.22-25.316
				L234.242,152.457L234.242,152.457z"/>
			<path fill="#FFFFFF" d="M292.054,152.457h-24.009V106.8h24.009l6.312,6.344v32.967L292.054,152.457z M278.152,111.837v35.518
				h10.107v-35.518H278.152L278.152,111.837z"/>
			<path fill="#FFFFFF" d="M301.592,146.654v-5.293l3.759,0.006l5.127,4.406l6.961-0.012l0.02-10.164l-15.479-12.637l-0.004-9.818
				l6.312-6.342h12.625l6.28,5.484v4.686l-3.485,0.014l-4.994-4.189h-6.95v9.183l15.432,12.722v10.776l-6.918,6.981H307.97
				L301.592,146.654z"/>
			<path fill="#FFFFFF" d="M352.396,123.251v29.205H345.7V106.8h3.793l20.215,24.07l2.582,0.002l20.182-24.072h3.73v45.656h-9.438
				v-28.129L371.31,142.96l-2.521-0.006L352.396,123.251z"/>
			<path fill="#FFFFFF" d="M423.787,152.457h-17.633l-6.375-6.346v-32.967l6.375-6.344h17.633l6.312,6.344v32.967L423.787,152.457z
				 M409.885,111.837v35.518h10.107v-35.518H409.885L409.885,111.837z"/>
			<path fill="#FFFFFF" d="M432.338,146.111V106.8h10.107v40.555h10.106V106.8h10.043v39.311v6.346h-23.881L432.338,146.111z"/>
			<path fill="#FFFFFF" d="M491.488,152.457h-25.283V106.8h10.105v40.555h15.178V152.457z"/>
			<path fill="#FFFFFF" d="M503.68,152.457h-10.106V106.8h10.106V152.457z"/>
			<path fill="#FFFFFF" d="M512.107,152.457h-5.103V106.8h3.795l26.525,26.59V106.8h5.069v45.656h-5.069v-3.857l-25.219-25.316
				L512.107,152.457L512.107,152.457z"/>
			<path fill="#FFFFFF" d="M544.285,146.654v-5.293l3.758,0.006l5.127,4.406l6.961-0.012l0.021-10.164l-15.479-12.637l-0.004-9.818
				l6.312-6.342h12.625l6.28,5.484v4.686l-3.485,0.014l-4.994-4.189h-6.951v9.183l15.432,12.722v10.776l-6.918,6.981h-12.307
				L544.285,146.654z"/>
		</g>
	</g>
	<path fill="#FFFFFF" d="M133.372,43.611l-3.953-0.023v-3.964l11.789-11.785h2.605l11.723,11.785v3.964l-3.848-0.016l-9.207-9.164
		L133.372,43.611z"/>
</g>
</svg>
