<?xml version="1.0" encoding="utf-8"?>
<!-- Generator: Adobe Illustrator 16.0.0, SVG Export Plug-In . SVG Version: 6.00 Build 0)  -->
<!DOCTYPE svg PUBLIC "-//W3C//DTD SVG 1.1//EN" "http://www.w3.org/Graphics/SVG/1.1/DTD/svg11.dtd">
<svg version="1.1" id="Layer_1" xmlns="http://www.w3.org/2000/svg" xmlns:xlink="http://www.w3.org/1999/xlink" x="0px" y="0px"
	 width="283.001px" height="86.817px" viewBox="144.141 44.218 283.001 86.817"
	 enable-background="new 144.141 44.218 283.001 86.817" xml:space="preserve">
<g id="Layer_1_1_">
	<path fill="#0D0D0D" d="M427.142,70.066h-3.725l3.189-3.234v-2.669h-7.676v-1.992l5.32-5.398v-2.526h-4.916l7.271-7.375v-2.653
		h-12.684l-2.428,2.466l-2.453-2.466h-11.891l-2.297,2.329v-2.329h-5.005l-1.728,1.751v-1.751h-4.975l-5.006,5.08v-5.08h-5.006
		l-2.109,2.139l-2.127-2.139h-11.893l-1.424,1.445v-1.445h-15.16l-1.768,1.796l-2.059-1.796h-6.252l-3.127,3.152v0.021V47.37
		l-1.771,1.787v-4.939h-2.511l-6.53,6.625l-6.607-6.625h-1.879l-2.43,2.466l-2.453-2.466h-8.732l-4.914,4.925v-1.781l-3.125-3.144
		h-8.733l-14.302,14.45v11.397h-2.062l-2.746,2.787l-2.771-2.787H242.46l-1.576,1.6v-1.6H223.95l-1.346,1.366v-1.366h-5.574
		l4.198-4.259v-1.963l-5.806-5.838h-1.291l-5.84,5.926v-0.089l-6.132,6.225h-2.957l-6.34,6.433v-6.433h-6.424l-11.142,11.307v15.743
		h-3.237l-2.43,2.466l-2.453-2.466h-11.892l-11.143,11.307v22.611h11.891l3.126-3.142l1.756-1.783v4.923h12.68l1.86-1.887
		l2.075,1.887h6.095l3.427-3.457l9.165-9.299v9.615l3.158,3.143h8.732l3.127-3.143l1.756-1.782v4.923h5.006l5.006-5.076v5.078h5.004
		l1.757-1.78v1.78h5.005l5.007-5.078v5.078h5.005l1.756-1.78v1.78h2.526l7.157-7.262l5.334,5.353v1.909h2.51l1.741-1.766v1.766
		h11.891l3.126-3.143l1.6-1.622v1.892l3.158,2.873h6.094l11.146-11.306l1.45-1.452v12.758h3.312l6.525-6.62l1.596,1.914l1.248,0.002
		l7.653-7.766v12.47h4.677l2.439-2.478l2.488,2.478h8.731l3.126-3.143l1.109-1.124v1.124l3.158,3.143h11.826l1.787-1.812v1.812
		h12.521l1.031-1.047v1.047h5.008l1.646-1.67v1.67h2.524l7.158-7.262l5.332,5.353v1.909h2.512l1.939-1.963l2.154,1.963h6.098
		l14.568-14.765v-5.337l-4.773-3.937l4.773-4.846v-2.319l-2.332-2.036l3.023-3.068v-4.002h-7.947v-0.823l5.514-5.594v-3.854h-3.869
		l6.307-6.398v-3.986h0.002v-0.003H427.142z M219.324,65.799l-0.013-0.01L219.324,65.799z M199.211,80.205v-0.021V80.205z
		 M199.202,76.505h0.076H199.202z"/>
	<g>
		<g>
			<g>
				<path fill="#FFFFFF" d="M286.88,61.655h2.492v2.038l-3.125,3.143h-8.734l-3.159-3.143V47.362l3.159-3.144h8.734l3.125,3.144
					V49.4h-2.492v-2.528h-7.521v17.279h7.521V61.655z"/>
				<path fill="#FFFFFF" d="M303.023,66.835h-8.734l-3.158-3.143v-16.33l3.16-3.144h8.733l3.127,3.144v16.331L303.023,66.835z
					 M296.136,46.714v17.596h5.007V46.714H296.136z"/>
				<path fill="#FFFFFF" d="M310.433,66.835h-2.527V44.219h1.881l13.143,13.173V44.219h2.509v22.617h-2.509v-1.911l-12.495-12.541
					L310.433,66.835L310.433,66.835z"/>
				<path fill="#FFFFFF" d="M327.021,63.961v-2.622l1.861,0.003l2.539,2.184l3.447-0.006l0.01-5.035l-7.666-6.26l-0.002-4.863
					l3.125-3.144h6.254l3.111,2.717v2.321l-1.728,0.008l-2.476-2.076h-3.44v4.549l7.646,6.301v5.339l-3.429,3.458h-6.097
					L327.021,63.961z"/>
				<path fill="#FFFFFF" d="M350.429,66.835h-5.006V47.188h-5.008v-2.97h15.162v2.97h-5.148V66.835L350.429,66.835z"/>
				<path fill="#FFFFFF" d="M362.007,66.835h-5.004V44.219h11.893l3.128,3.144v6.27l-2.495,2.512l2.495,2.526v8.166h-5.005V56.775
					h-5.007L362.007,66.835L362.007,66.835z M362.007,46.714v7.534h5.009v-7.534H362.007z"/>
				<path fill="#FFFFFF" d="M373.132,63.692V44.219h5.008v20.091h5.005V44.219h4.976v19.475v3.143h-11.828L373.132,63.692z"/>
				<path fill="#FFFFFF" d="M394.855,66.835h-5.008V44.219h5.008V66.835z"/>
				<path fill="#FFFFFF" d="M402.156,66.835h-5.004V44.219h11.893l3.125,3.144v6.27l-2.494,2.512l2.494,2.526v8.166h-5.006V56.775
					h-5.006L402.156,66.835L402.156,66.835z M402.156,46.714v7.534h5.008v-7.534H402.156z"/>
				<path fill="#FFFFFF" d="M426.609,64.167v2.669h-12.684V44.219h12.684v2.653h-7.676v7.376h5.32v2.527h-5.32v7.392H426.609z"/>
			</g>
			<g>
				<polygon fill="#FFFFFF" points="192.823,70.071 186.398,70.071 186.398,94.734 200.609,94.734 200.609,90.878 192.823,90.878 
									"/>
				<polygon fill="#FFFFFF" points="199.162,76.512 201.779,76.512 201.778,77.565 199.171,80.189 199.156,81.729 201.988,81.729 
					205.585,78.076 205.585,70.071 199.162,70.071 				"/>
				<polygon fill="#FFFFFF" points="208.193,94.734 222.568,94.734 222.568,90.732 214.619,90.732 214.619,84.314 220.13,84.314 
					220.13,80.458 214.619,80.458 214.619,74.058 222.568,74.058 222.568,70.071 208.193,70.071 				"/>
				<polygon fill="#FFFFFF" points="223.914,74.385 229.098,74.385 229.098,94.734 235.522,94.734 235.522,74.385 240.856,74.385 
					240.856,70.071 223.914,70.071 				"/>
				<path fill="#FFFFFF" d="M242.433,70.071v24.663h6.424v-10.42h3.947v10.42h6.423v-9.331l-2.332-2.361l2.332-2.346V73.69
					l-3.601-3.619H242.433z M252.802,73.895v6.562h-3.945v-6.562H252.802z"/>
				<polygon fill="#FFFFFF" points="261.148,94.734 275.521,94.734 275.521,90.732 267.572,90.732 267.572,84.314 273.085,84.314 
					273.085,80.458 267.572,80.458 267.572,74.058 275.521,74.058 275.521,70.071 261.148,70.071 				"/>
				<rect x="277.932" y="81.948" fill="#FFFFFF" width="14.211" height="3.854"/>
				<polygon fill="#FFFFFF" points="308.69,82.421 307.943,82.421 297.572,70.071 294.716,70.071 294.716,94.734 299.392,94.734 
					299.392,80.844 306.891,89.859 308.765,89.862 315.787,81.399 315.787,94.734 321.867,94.734 321.867,70.071 319.044,70.071 
									"/>
				<path fill="#FFFFFF" d="M328.074,70.071l-3.601,3.636v21.026h6.424v-10.42h3.948v10.42h6.423V73.69l-3.603-3.619H328.074z
					 M334.845,74.058v6.399h-3.948v-6.399H334.845z"/>
				<polygon fill="#FFFFFF" points="346.824,70.071 343.189,73.689 343.189,91.118 346.824,94.734 356.384,94.734 359.984,91.116 
					359.984,88.13 356.162,88.13 356.162,90.715 349.612,90.715 349.612,74.058 356.162,74.058 356.162,76.675 359.984,76.675 
					359.984,73.69 356.384,70.071 				"/>
				<polygon fill="#FFFFFF" points="372.945,80.458 368.998,80.458 368.998,70.071 362.576,70.071 362.576,94.734 368.998,94.734 
					368.998,84.314 372.945,84.314 372.945,94.734 379.371,94.734 379.371,70.071 372.945,70.071 				"/>
				<rect x="381.897" y="70.071" fill="#FFFFFF" width="6.423" height="24.663"/>
				<polygon fill="#FFFFFF" points="406.357,82.836 393.621,70.071 390.8,70.071 390.8,94.734 394.655,94.734 394.655,80.646 
					406.357,92.392 406.357,94.734 410.195,94.734 410.195,70.071 406.357,70.071 				"/>
				<polygon fill="#FFFFFF" points="427.142,74.058 427.142,70.071 412.769,70.071 412.769,94.734 427.142,94.734 427.142,90.732 
					419.195,90.732 419.195,84.314 424.707,84.314 424.707,80.458 419.195,80.458 419.195,74.058 				"/>
			</g>
			<g>
				<path fill="#FFFFFF" d="M167.132,119.742H155.24V97.125h11.893l3.127,3.144v16.33L167.132,119.742z M160.245,99.62v17.594h5.007
					V99.62H160.245L160.245,99.62z"/>
				<path fill="#FFFFFF" d="M184.698,117.072v2.67h-12.683V97.125h12.683v2.652h-7.676v7.377h5.323v2.525h-5.323v7.393H184.698z"/>
				<path fill="#FFFFFF" d="M185.476,116.868v-2.623l1.861,0.003l2.54,2.184l3.448-0.006l0.011-5.034l-7.669-6.261l-0.001-4.863
					l3.127-3.143h6.254l3.111,2.717v2.321l-1.727,0.008l-2.474-2.074h-3.443v4.548l7.644,6.302v5.339l-3.427,3.458h-6.097
					L185.476,116.868z"/>
				<path fill="#FFFFFF" d="M217.496,109.679h-2.638v-2.525h7.485v9.442l-3.127,3.146h-8.733l-3.157-3.146v-16.33l3.157-3.145h8.733
					l3.127,3.145v2.035h-2.494v-2.525h-7.676v17.438h5.322L217.496,109.679L217.496,109.679z"/>
				<path fill="#FFFFFF" d="M229.109,119.742h-5.008V97.125h11.893l3.127,3.144v6.271l-2.494,2.511l2.494,2.528v8.165h-5.006
					v-10.062h-5.006V119.742z M229.109,99.62v7.534h5.006V99.62H229.109z"/>
				<path fill="#FFFFFF" d="M245.884,119.742h-5.006v-19.456l3.125-3.161h8.767l3.127,3.146v19.474h-5.006v-10.061h-5.007V119.742
					L245.884,119.742z M245.884,99.778v7.376h5.007v-7.376H245.884z"/>
				<path fill="#FFFFFF" d="M260.18,119.742h-2.526V97.125h1.879l13.139,13.172V97.125h2.514v22.617h-2.514v-1.911l-12.491-12.542
					V119.742L260.18,119.742z"/>
				<path fill="#FFFFFF" d="M288.819,119.742h-11.894V97.125h11.894l3.127,3.144v16.33L288.819,119.742z M281.933,99.62v17.594
					h5.006V99.62H281.933L281.933,99.62z"/>
				<path fill="#FFFFFF" d="M293.542,116.868v-2.623l1.862,0.003l2.54,2.184l3.448-0.006l0.01-5.034l-7.668-6.261l-0.001-4.863
					l3.127-3.143h6.254l3.11,2.717v2.321l-1.728,0.008l-2.475-2.074h-3.441v4.548l7.645,6.302v5.339l-3.426,3.458h-6.098
					L293.542,116.868z"/>
				<path fill="#FFFFFF" d="M318.712,105.274v14.468h-3.318V97.125h1.88l10.015,11.924l1.278,0.001l9.997-11.925h1.848v22.617
					h-4.674v-13.934l-7.656,9.229l-1.25-0.002L318.712,105.274z"/>
				<path fill="#FFFFFF" d="M354.076,119.742h-8.734l-3.156-3.145v-16.33l3.156-3.144h8.734l3.127,3.144v16.33L354.076,119.742z
					 M347.189,99.62v17.594h5.008V99.62H347.189L347.189,99.62z"/>
				<path fill="#FFFFFF" d="M358.312,116.597V97.125h5.007v20.089h5.007V97.125h4.975v19.474v3.145h-11.828L358.312,116.597z"/>
				<path fill="#FFFFFF" d="M387.615,119.742h-12.525V97.125h5.007v20.089h7.521v2.528H387.615z"/>
				<path fill="#FFFFFF" d="M393.654,119.742h-5.008V97.125h5.008V119.742z"/>
				<path fill="#FFFFFF" d="M397.83,119.742H395.3V97.125h1.879l13.141,13.172V97.125h2.512v22.617h-2.512v-1.911l-12.492-12.542
					L397.83,119.742L397.83,119.742z"/>
				<path fill="#FFFFFF" d="M413.767,116.868v-2.623l1.861,0.003l2.539,2.184l3.449-0.006l0.01-5.034l-7.668-6.261l-0.002-4.863
					l3.127-3.143h6.254l3.111,2.717v2.321l-1.729,0.008l-2.475-2.074h-3.443v4.548l7.646,6.302v5.339l-3.43,3.458h-6.096
					L413.767,116.868z"/>
			</g>
		</g>
		<path fill="#FFFFFF" d="M210.212,65.822l-1.959-0.011v-1.964l5.84-5.839h1.291l5.807,5.839v1.964l-1.906-0.009l-4.561-4.538
			L210.212,65.822z"/>
	</g>
</g>
</svg>
