<?xml version="1.0" encoding="utf-8"?>
<!-- Generator: Adobe Illustrator 16.0.0, SVG Export Plug-In . SVG Version: 6.00 Build 0)  -->
<!DOCTYPE svg PUBLIC "-//W3C//DTD SVG 1.1//EN" "http://www.w3.org/Graphics/SVG/1.1/DTD/svg11.dtd">
<svg version="1.1" id="Layer_1" xmlns="http://www.w3.org/2000/svg" xmlns:xlink="http://www.w3.org/1999/xlink" x="0px" y="0px"
	 width="456.968px" height="277.269px" viewBox="-24.811 46.444 456.968 277.269"
	 enable-background="new -24.811 46.444 456.968 277.269" xml:space="preserve">
<g id="Layer_2">
	<g>
		<path fill="#F37B39" d="M377.91,143.612c-1.607,0-3.139,0.334-4.525,0.934l-47.203-47.203H233.48l-13.807,13.806
			c-0.266-0.021-0.528-0.035-0.786-0.035c-6.312,0-11.448,5.138-11.448,11.451c0,6.314,5.137,11.453,11.448,11.453
			c6.313,0,11.448-5.138,11.448-11.453c0-3.183-1.338-6.131-3.537-8.237l9.699-9.698h86.666l44.787,44.79
			c-0.949,1.667-1.494,3.592-1.494,5.643c0,6.313,5.139,11.45,11.453,11.45c6.312,0,11.451-5.137,11.451-11.45
			C389.361,148.748,384.222,143.612,377.91,143.612z M218.887,126.731c-2.294,0-4.161-1.869-4.161-4.167
			c0-2.296,1.867-4.164,4.161-4.164c0.295,0,0.639,0.055,1.075,0.173c1.817,0.492,3.088,2.133,3.088,3.991
			C223.052,124.863,221.183,126.731,218.887,126.731z M377.91,159.226c-2.295,0-4.164-1.867-4.164-4.163s1.869-4.165,4.164-4.165
			c2.297,0,4.166,1.868,4.166,4.165C382.076,157.358,380.207,159.226,377.91,159.226z"/>
		<path fill="#F37B39" d="M90.855,178c-6.314,0-11.451,5.139-11.451,11.451c0,6.314,5.137,11.452,11.451,11.452
			c6.312,0,11.45-5.138,11.45-11.452C102.305,183.138,97.167,178,90.855,178z M90.855,193.617c-2.295,0-4.164-1.867-4.164-4.164
			s1.868-4.166,4.164-4.166s4.164,1.869,4.164,4.166S93.151,193.617,90.855,193.617z"/>
		<path fill="#F37B39" d="M90.855,207.776c-5.04,0-9.327,3.274-10.854,7.808H37.165v-55.287c4.533-1.525,7.808-5.812,7.808-10.854
			c0-6.315-5.138-11.452-11.451-11.452c-6.314,0-11.451,5.137-11.451,11.452c0,5.041,3.274,9.328,7.807,10.855v105.304
			c-4.603,1.483-7.943,5.81-7.943,10.899c0,6.313,5.137,11.453,11.45,11.453c6.314,0,11.451-5.14,11.451-11.453
			c0-4.989-3.209-9.242-7.671-10.808v-42.823h42.836c1.525,4.533,5.812,7.809,10.854,7.809c6.312,0,11.45-5.139,11.45-11.452
			S97.167,207.776,90.855,207.776z M33.522,145.277c2.296,0,4.164,1.869,4.164,4.166c0,2.296-1.868,4.165-4.164,4.165
			s-4.165-1.869-4.165-4.165C29.357,147.146,31.225,145.277,33.522,145.277z M33.385,280.667c-2.296,0-4.164-1.869-4.164-4.166
			s1.868-4.164,4.164-4.164c2.296,0,4.164,1.867,4.164,4.164S35.681,280.667,33.385,280.667z M90.855,223.392
			c-2.295,0-4.164-1.868-4.164-4.165c0-2.296,1.868-4.165,4.164-4.165s4.164,1.869,4.164,4.165
			C95.019,221.524,93.151,223.392,90.855,223.392z"/>
	</g>
	<g>
		<g opacity="0.95">
			<path fill="#FFFFFF" stroke="#FFFFFF" stroke-width="0.1214" stroke-miterlimit="10" d="M42.951,127.932h-6.582v-11.888H39v10.56
				h3.951V127.932z"/>
			<path fill="#FFFFFF" stroke="#FFFFFF" stroke-width="0.1214" stroke-miterlimit="10" d="M47.305,122.643l0.002-1.258h-1.708
				v-3.394h3.383v4.653l-2.113,2.146h-1.27l0.004-0.433L47.305,122.643z"/>
			<path fill="#FFFFFF" stroke="#FFFFFF" stroke-width="1.4573" stroke-miterlimit="10" d="M83.892,154.867v5.612H57.228v-47.552
				h26.664v5.579H67.755v15.506h11.19v5.314h-11.19v15.541H83.892z"/>
			<path fill="#FFFFFF" stroke="#FFFFFF" stroke-width="1.4573" stroke-miterlimit="10" d="M111.688,160.479h-10.526v-41.31H90.636
				v-6.243h31.878v6.243h-10.825L111.688,160.479L111.688,160.479z"/>
			<path fill="#FFFFFF" stroke="#FFFFFF" stroke-width="1.4573" stroke-miterlimit="10" d="M140.319,160.479h-10.526v-47.552h25.004
				l6.574,6.609v13.182l-5.246,5.28l5.246,5.312v17.168h-10.525v-21.152h-10.526V160.479z M140.319,118.174v15.838h10.526v-15.838
				H140.319z"/>
			<path fill="#FFFFFF" stroke="#FFFFFF" stroke-width="1.4573" stroke-miterlimit="10" d="M195.605,154.867v5.612h-26.664v-47.552
				h26.664v5.579h-16.139v15.506h11.188v5.314h-11.188v15.541H195.605z"/>
			<path fill="#FFFFFF" stroke="#FFFFFF" stroke-width="1.4573" stroke-miterlimit="10" d="M123.826,198.472v30.416h-6.972v-47.551
				h3.95l21.053,25.07h2.689l21.019-25.07h3.886v47.551h-9.828v-29.297L143.526,219l-2.625-0.008L123.826,198.472z"/>
			<path fill="#FFFFFF" stroke="#FFFFFF" stroke-width="1.4573" stroke-miterlimit="10" d="M187.785,228.888h-10.525v-40.91
				l6.572-6.641h18.431l6.575,6.606v40.943h-10.525v-21.151h-10.527V228.888L187.785,228.888z M187.785,186.916v15.508h10.526
				v-15.508H187.785z"/>
			<path fill="#FFFFFF" stroke="#FFFFFF" stroke-width="1.4573" stroke-miterlimit="10" d="M241.65,217.998h5.248v4.283
				l-6.577,6.607h-18.362l-6.642-6.607v-34.336l6.642-6.607h18.362l6.577,6.607v4.284h-5.248v-5.313h-15.809v36.33h15.809V217.998z"
				/>
			<path fill="#FFFFFF" stroke="#FFFFFF" stroke-width="1.4573" stroke-miterlimit="10" d="M263.087,228.888h-10.524v-47.551h10.524
				v21.086h10.525v-21.086h10.525v47.551h-10.525v-21.151h-10.525V228.888z"/>
			<path fill="#FFFFFF" stroke="#FFFFFF" stroke-width="1.4573" stroke-miterlimit="10" d="M301.292,228.888h-10.527v-47.551h10.527
				V228.888z"/>
			<path fill="#FFFFFF" stroke="#FFFFFF" stroke-width="1.4573" stroke-miterlimit="10" d="M313.197,228.888h-5.312v-47.551h3.953
				l27.627,27.695v-27.695h5.279v47.551h-5.279v-4.018l-26.268-26.367V228.888z"/>
			<path fill="#FFFFFF" stroke="#FFFFFF" stroke-width="1.4573" stroke-miterlimit="10" d="M377.515,223.278v5.61h-26.666v-47.551
				h26.666v5.578h-16.139v15.508h11.191v5.312h-11.191v15.541L377.515,223.278L377.515,223.278z"/>
			<path fill="#FFFFFF" stroke="#FFFFFF" stroke-width="0.1214" stroke-miterlimit="10" d="M188.307,256.498h-6.252V244.61h6.252
				l1.644,1.651v8.582L188.307,256.498z M184.688,245.921v9.248h2.631v-9.248H184.688z"/>
			<path fill="#FFFFFF" stroke="#FFFFFF" stroke-width="0.1214" stroke-miterlimit="10" d="M199.582,255.093v1.404h-6.666V244.61
				h6.666v1.394h-4.035v3.877h2.797v1.328h-2.797v3.885H199.582L199.582,255.093z"/>
			<path fill="#FFFFFF" stroke="#FFFFFF" stroke-width="0.1214" stroke-miterlimit="10" d="M214.979,256.498h-6.584V244.61h2.632
				v10.56h3.952V256.498L214.979,256.498z"/>
			<path fill="#FFFFFF" stroke="#FFFFFF" stroke-width="0.1214" stroke-miterlimit="10" d="M220.566,256.498h-2.633V246.27
				l1.645-1.66h4.606l1.644,1.651v10.236h-2.631v-5.289h-2.631V256.498z M220.566,246.003v3.877h2.631v-3.877H220.566z"/>
			<path fill="#FFFFFF" stroke="#FFFFFF" stroke-width="0.1214" stroke-miterlimit="10" d="M241.319,253.774h1.312v1.069
				l-1.644,1.654h-4.591l-1.66-1.654v-8.582l1.66-1.651h4.591l1.644,1.651v1.07h-1.312v-1.328h-3.952v9.082h3.952V253.774z"/>
			<path fill="#FFFFFF" stroke="#FFFFFF" stroke-width="0.1214" stroke-miterlimit="10" d="M251.843,256.498h-4.59l-1.662-1.652
				v-8.583l1.662-1.651h4.59l1.644,1.651v8.583L251.843,256.498z M248.225,245.921v9.248h2.631v-9.248H248.225z"/>
			<path fill="#FFFFFF" stroke="#FFFFFF" stroke-width="0.1214" stroke-miterlimit="10" d="M257.78,256.498h-1.329V244.61h0.987
				l6.907,6.921v-6.921h1.32v11.888h-1.32v-1.006l-6.565-6.591V256.498z"/>
			<path fill="#FFFFFF" stroke="#FFFFFF" stroke-width="0.1214" stroke-miterlimit="10" d="M269.949,256.498h-1.328V244.61h0.988
				l6.906,6.921v-6.921h1.32v11.888h-1.32v-1.006l-6.566-6.591V256.498z"/>
			<path fill="#FFFFFF" stroke="#FFFFFF" stroke-width="0.1214" stroke-miterlimit="10" d="M283.423,256.498h-2.633V246.27
				l1.645-1.66h4.607l1.643,1.651v10.236h-2.633v-5.289h-2.629V256.498L283.423,256.498z M283.423,246.003v3.877h2.629v-3.877
				H283.423z"/>
			<path fill="#FFFFFF" stroke="#FFFFFF" stroke-width="0.1214" stroke-miterlimit="10" d="M295.609,256.498h-2.633V244.61h2.633
				V256.498z"/>
			<path fill="#FFFFFF" stroke="#FFFFFF" stroke-width="0.1214" stroke-miterlimit="10" d="M299.792,254.986v-1.378l0.979,0.001
				l1.334,1.146l1.812-0.002l0.004-2.646l-4.029-3.29v-2.558l1.645-1.649h3.287l1.635,1.427v1.223l-0.908,0.002l-1.301-1.092h-1.809
				v2.392l4.018,3.313v2.806l-1.803,1.817h-3.203L299.792,254.986z"/>
			<path fill="#FFFFFF" stroke="#FFFFFF" stroke-width="0.1214" stroke-miterlimit="10" d="M309.33,254.986v-1.378l0.979,0.001
				l1.334,1.146l1.814-0.002l0.004-2.646l-4.029-3.29l-0.002-2.558l1.645-1.649h3.289l1.635,1.427v1.223l-0.908,0.002l-1.301-1.092
				h-1.809v2.392l4.018,3.313v2.806l-1.803,1.817h-3.205L309.33,254.986z"/>
			<path fill="#FFFFFF" stroke="#FFFFFF" stroke-width="0.1214" stroke-miterlimit="10" d="M321.583,256.498h-2.631V246.27
				l1.643-1.66h4.607l1.643,1.651v10.236h-2.629v-5.289h-2.633V256.498z M321.583,246.003v3.877h2.633v-3.877H321.583z"/>
			<path fill="#FFFFFF" stroke="#FFFFFF" stroke-width="0.1214" stroke-miterlimit="10" d="M331.136,256.498h-1.326V244.61h0.986
				l6.906,6.921v-6.921h1.32v11.888h-1.32v-1.006l-6.566-6.591V256.498z"/>
			<path fill="#FFFFFF" stroke="#FFFFFF" stroke-width="0.1214" stroke-miterlimit="10" d="M348.56,253.774h1.312v1.069
				l-1.645,1.654h-4.59l-1.66-1.654v-8.582l1.66-1.651h4.59l1.645,1.651v1.07h-1.312v-1.328h-3.949v9.082h3.949V253.774z"/>
			<path fill="#FFFFFF" stroke="#FFFFFF" stroke-width="0.1214" stroke-miterlimit="10" d="M359.503,255.093v1.404h-6.664V244.61
				h6.664v1.394h-4.035v3.877h2.797v1.328h-2.797v3.885H359.503L359.503,255.093z"/>
		</g>
	</g>
	<g>
		<path fill="#FFFFFF" d="M60.434,104.854l-3.975-0.02v-3.416l11.855-10.161h2.623l11.788,10.161v3.415l-3.871-0.012l-9.259-7.9
			L60.434,104.854z"/>
	</g>
	<path fill="#F37B39" d="M305.603,49.798c-2.162-2.162-5.037-3.354-8.098-3.354s-5.934,1.19-8.1,3.354
		c-3.562,3.563-4.271,8.908-2.146,13.191l-12.01,12.009H125.324l-13.908-13.574l-3.61-3.523h-3.888H60.505h-9.647H29.658h-0.001
		l0-7.808H6.754v22.903h22.903v-7.808h21.199h0.317l-39.837,36.708H-2.506c-1.526-4.533-5.814-7.807-10.854-7.807
		c-6.314,0-11.451,5.137-11.451,11.451c0,6.314,5.137,11.453,11.451,11.453c5.042,0,9.328-3.275,10.854-7.809h16.689l47.743-43.995
		h42.93l17.578,17.097h155.834v-0.001l14.135-14.133c1.562,0.781,3.301,1.197,5.102,1.198c0,0,0,0,0.002,0
		c3.057,0,5.932-1.191,8.096-3.355C310.07,61.528,310.068,54.264,305.603,49.798z M22.373,65.71h-8.33v-8.331h8.33V65.71z
		 M-13.357,109.705c-2.297,0-4.165-1.869-4.165-4.166c0-2.296,1.868-4.164,4.165-4.164s4.164,1.868,4.165,4.164
		C-9.192,107.837-11.061,109.705-13.357,109.705z M300.449,60.84c-0.787,0.787-1.832,1.22-2.943,1.22h-0.002
		c-1.111,0-2.158-0.434-2.945-1.221c-1.623-1.624-1.623-4.265,0.002-5.889c0.785-0.787,1.832-1.22,2.943-1.22
		c1.115,0,2.16,0.433,2.945,1.219C302.072,56.574,302.074,59.215,300.449,60.84z"/>
</g>
<path fill="#F37B39" d="M371.473,300.812h-7.285h-2.504l-29.847-29.848H176.21l-13.25-13.248c0.57-1.357,0.887-2.85,0.887-4.412
	c0-6.314-5.137-11.452-11.451-11.452c-6.312,0-11.451,5.138-11.451,11.452s5.139,11.451,11.451,11.451
	c2.094,0,4.057-0.566,5.748-1.553l15.048,15.049H328.82l27.56,27.561v17.901h22.904v-22.901H371.473z M152.395,257.468
	c-2.295,0-4.163-1.867-4.163-4.164s1.868-4.165,4.163-4.165c2.297,0,4.165,1.868,4.165,4.165S154.692,257.468,152.395,257.468z
	 M371.997,316.427h-8.33v-8.328h8.33V316.427z"/>
<path fill="#F37B39" d="M424.347,118.9h-7.285h-2.695L401,105.534v-11.86c4.531-1.526,7.805-5.814,7.805-10.854
	c0-6.314-5.135-11.451-11.449-11.451s-11.449,5.137-11.449,11.451c0,5.041,3.273,9.328,7.807,10.854v14.878l15.541,15.542v17.708
	h22.904V118.9H424.347z M397.355,86.986c-2.295,0-4.164-1.868-4.164-4.166c0-2.296,1.869-4.165,4.164-4.165s4.162,1.869,4.162,4.165
	C401.517,85.117,399.65,86.986,397.355,86.986z M424.871,134.516h-8.33v-8.328h8.33V134.516z"/>
</svg>
