<?xml version="1.0" encoding="utf-8"?>
<!-- Generator: Adobe Illustrator 16.0.0, SVG Export Plug-In . SVG Version: 6.00 Build 0)  -->
<!DOCTYPE svg PUBLIC "-//W3C//DTD SVG 1.1//EN" "http://www.w3.org/Graphics/SVG/1.1/DTD/svg11.dtd">
<svg version="1.1" id="Layer_1" xmlns="http://www.w3.org/2000/svg" xmlns:xlink="http://www.w3.org/1999/xlink" x="0px" y="0px"
	 width="79.979px" height="79.872px" viewBox="9.316 0.149 79.979 79.872" enable-background="new 9.316 0.149 79.979 79.872"
	 xml:space="preserve">
<path fill="#FEFEFE" d="M49.305,80.011c-13.167,0-26.333-0.002-39.5,0.01c-0.399,0.001-0.489-0.09-0.489-0.489
	c0.011-26.298,0.011-52.596,0-78.894c0-0.399,0.09-0.489,0.489-0.489c26.333,0.011,52.667,0.011,79,0
	c0.399,0,0.489,0.09,0.489,0.489c-0.011,26.298-0.011,52.596,0,78.894c0,0.399-0.09,0.49-0.489,0.489
	C75.638,80.009,62.472,80.011,49.305,80.011z M46.043,44.145c0.004,0.067,0.015,0.104,0.006,0.137
	c-0.041,0.154-0.086,0.307-0.133,0.46c-1.288,4.245-1.745,8.562-1.138,12.976c0.058,0.424,0.114,0.676,0.681,0.574
	c3.174-0.565,6.355-1.086,9.535-1.617c0.302-0.051,0.432-0.12,0.372-0.502c-0.449-2.874-0.549-5.752,0.06-8.618
	c0.718-3.384,2.193-6.315,5.1-8.363c0.284-0.2,0.162-0.305,0.012-0.476c-2.156-2.449-4.312-4.897-6.458-7.354
	c-0.18-0.205-0.301-0.212-0.527-0.083c-0.645,0.369-1.297,0.729-1.964,1.056c-2.027,0.993-4.134,1.45-6.387,0.933
	c-3.35-0.768-4.87-3.26-3.973-6.573c0.707-2.612,2.267-4.625,4.464-6.15c1.663-1.154,3.545-1.843,5.479-2.384
	c3.431-0.959,6.94-1.193,10.482-1.055c0.471,0.019,0.615-0.118,0.716-0.57c0.702-3.144,1.431-6.282,2.177-9.417
	c0.112-0.47-0.012-0.559-0.458-0.582c-1.806-0.092-3.609-0.165-5.419-0.121c-4.533,0.109-8.952,0.815-13.223,2.374
	c-5.875,2.144-10.414,5.831-13.191,11.507c-1.736,3.548-2.471,7.3-1.673,11.207c1.235,6.046,5.063,9.804,10.788,11.771
	C42.881,43.794,44.458,44.023,46.043,44.145z M51.97,74.492c3.616-0.011,6.52-2.938,6.495-6.546
	c-0.023-3.613-2.934-6.471-6.58-6.461c-3.534,0.009-6.448,2.942-6.449,6.493C45.434,71.584,48.363,74.503,51.97,74.492z"/>
<path fill-rule="evenodd" clip-rule="evenodd" fill="#27358C" d="M46.043,44.145c-1.585-0.121-3.162-0.351-4.674-0.87
	c-5.725-1.968-9.553-5.725-10.788-11.771c-0.798-3.907-0.063-7.659,1.673-11.207c2.778-5.676,7.316-9.363,13.191-11.507
	c4.271-1.558,8.69-2.264,13.223-2.374c1.81-0.044,3.613,0.029,5.419,0.121c0.446,0.023,0.57,0.112,0.458,0.582
	c-0.746,3.134-1.475,6.272-2.177,9.417c-0.101,0.452-0.245,0.589-0.716,0.57c-3.542-0.138-7.052,0.096-10.482,1.055
	c-1.934,0.541-3.815,1.229-5.479,2.384c-2.198,1.525-3.757,3.538-4.464,6.15c-0.897,3.313,0.623,5.806,3.973,6.573
	c2.253,0.517,4.36,0.06,6.387-0.933c0.667-0.327,1.319-0.687,1.964-1.056c0.227-0.129,0.348-0.123,0.527,0.083
	c2.146,2.458,4.302,4.906,6.458,7.354c0.15,0.171,0.272,0.275-0.012,0.476c-2.906,2.048-4.382,4.979-5.1,8.363
	c-0.608,2.866-0.509,5.744-0.06,8.618c0.06,0.382-0.07,0.451-0.372,0.502c-3.18,0.531-6.361,1.052-9.535,1.617
	c-0.566,0.102-0.623-0.15-0.681-0.574c-0.607-4.413-0.15-8.73,1.138-12.976c0.046-0.153,0.092-0.306,0.133-0.46
	C46.058,44.249,46.047,44.212,46.043,44.145z"/>
<path fill-rule="evenodd" clip-rule="evenodd" fill="#27368C" d="M51.97,74.492c-3.607,0.011-6.536-2.908-6.534-6.514
	c0.001-3.551,2.915-6.484,6.449-6.493c3.646-0.01,6.557,2.848,6.58,6.461C58.49,71.555,55.586,74.481,51.97,74.492z"/>
</svg>
