<?xml version="1.0" encoding="utf-8"?>
<!-- Generator: Adobe Illustrator 16.0.0, SVG Export Plug-In . SVG Version: 6.00 Build 0)  -->
<!DOCTYPE svg PUBLIC "-//W3C//DTD SVG 1.1//EN" "http://www.w3.org/Graphics/SVG/1.1/DTD/svg11.dtd">
<svg version="1.1" id="Layer_1" xmlns="http://www.w3.org/2000/svg" xmlns:xlink="http://www.w3.org/1999/xlink" x="0px" y="0px"
	 width="147.426px" height="122px" viewBox="0 0 147.426 122" enable-background="new 0 0 147.426 122" xml:space="preserve">
<g>
	<path fill-rule="evenodd" clip-rule="evenodd" fill="#FFFFFF" d="M0.208,90.656c-0.264-0.778-0.202-1.586-0.202-2.385
		C0.011,59.483,0.019,30.695,0.025,1.906c0-0.546,0-1.094,0-1.837C13.657,0.046,27.16,0.023,40.662,0
		c0.675,0.033,1.351,0.094,2.027,0.094c34.154-0.011,68.308-0.027,102.462-0.042c0.726,0,1.451,0,2.274,0
		c0,40.724,0,81.273,0,121.948c-23.167,0-46.292,0-69.625,0c0-10.378,0-20.773,0-31.122c-0.848-0.357-1.533-0.22-2.196-0.22
		c-23.901-0.022-47.804-0.035-71.706-0.033c-0.585,0-1.229-0.256-1.765,0.222c-0.368-0.004-0.737-0.008-1.104-0.011
		C0.812,90.518,0.497,90.649,0.208,90.656z M130.299,110.137c0.184-0.463,0.177-0.933,0.046-1.406
		c-0.782-1.177-1.292-1.399-2.086-0.908c-0.8,0.493-1.049,1.482-0.601,2.385c0.461,0.927,1.046,1.074,2.18,0.546
		C130.054,110.596,130.354,110.499,130.299,110.137z M111.586,108.253c-0.05-0.252-0.219-0.335-0.455-0.326
		c-0.932-0.449-1.082-0.38-1.775,0.814c-0.01,0.349-0.019,0.696-0.026,1.044c0.653,1.605,1.355,1.796,2.404,0.65
		c-1.142,0.119-1.142,0.119-1.568-0.624c0.359-0.415,0.99,0.083,1.332-0.389C112.405,109.1,112.033,108.68,111.586,108.253z
		 M90.731,117.596c-0.018-0.728-0.034-1.456-0.052-2.185c-0.467-1.17-1.252-0.859-2.049-0.427c-0.06,0.032-0.042,0.205-0.066,0.347
		c0.406,0.279,1.066-0.551,1.369,0.282c-0.272,0.488-0.876,0.36-1.229,0.676c-0.812,0.782-0.811,0.848,0.029,1.541
		C89.439,118.091,90.139,118.289,90.731,117.596z M97.061,110.545c0.914,0.844,0.914,0.844,1.938,0.116
		c0.155-0.102,0.261-0.215,0.062-0.367c-0.008-0.006-0.134,0.143-0.204,0.22c-0.442,0.009-0.884,0.018-1.324,0.027
		c-0.08-0.251-0.161-0.501-0.241-0.751c0.489-0.331,1.076-0.226,1.609-0.358c0.702-0.534,0.591-0.988-0.373-1.512
		c-0.974-0.421-1.067-0.379-1.804,0.811C96.64,109.372,96.5,110.023,97.061,110.545z M118.45,108.24
		c-0.546,0.907-0.697,1.772,0.267,2.521c0.654,0.743,1.308,0.414,1.868-0.082c0.709-0.628,0.669-1.399-0.021-2.525
		C119.454,107.407,119.454,107.407,118.45,108.24z M86.286,116.053c0.302,0.024,0.637,0.127,0.742-0.313
		c0.74-0.981,0.674-1.292-0.369-1.752c-0.551-0.66-1.205-0.452-1.863-0.227c-0.38,0.101-0.399,0.395-0.394,0.712
		c0.02,1.04,0.031,2.081,0.047,3.121c0.046,0.135,0.091,0.27,0.131,0.389c0.217-0.061,0.257-0.201,0.26-0.363
		c0.021-0.34,0.042-0.68,0.062-1.02C85.271,116.181,85.986,116.643,86.286,116.053z M92.593,114.947
		c-0.231-0.05-0.465-0.096-0.723,0.124c-0.076,0.897-0.152,1.843,0.107,2.9c0.618-0.881-0.031-1.904,0.584-2.652
		c0.302-0.03,0.615-0.044,0.72-0.604C93.017,114.773,92.767,114.478,92.593,114.947z M124.81,110.826
		c0.589,0.407,1.137,0.491,1.585-0.203c0.972-1.954,0.557-2.781-1.507-3.013c-0.119-0.013-0.233-0.063-0.35-0.096
		c-0.068-0.317,0.199-0.735-0.433-0.996c0.026,1.481-0.105,2.896,0.089,4.308C124.449,110.826,124.63,110.826,124.81,110.826z
		 M94.358,110.202c0.074,0.267,0.042,0.606,0.529,0.651c0.358-0.213,0.273-0.708,0.487-1.035c0.265-0.658,0.87-1.254,0.457-2.092
		c-0.795,0.387-0.421,1.411-1.104,1.802c-0.431-0.515-0.343-1.241-1.007-1.634C93.468,108.832,93.94,109.511,94.358,110.202z
		 M90.377,108.319c0.537,0.749-0.078,1.769,0.691,2.79c-0.063-1.259,0.429-2.252-0.333-3.146c-0.685-0.82-1.429,0.056-2.119-0.224
		c-0.252,2.124-0.252,2.124,0.29,3.214c0.674-0.793-0.04-1.853,0.599-2.634C89.776,108.319,90.076,108.319,90.377,108.319z
		 M110.384,115.04c-0.337-0.626-0.376-0.861-0.245-1.467c-0.812-0.048-0.295,0.808-0.841,1.161
		c-1.534,0.996-1.506,1.531-0.396,3.177c0.596,0.082,1.238,0.298,2.097-0.441c-0.931-0.054-1.954,0.529-1.985-0.741
		c0.408-0.391,0.972-0.059,1.403-0.314C111.266,116.037,111.263,115.904,110.384,115.04z M84.454,109.807
		c0.468,1.108,0.982,1.506,1.771,1.372c0.799-0.138,1.387-0.723,1.48-1.644c0.079-0.788,0.042-1.59,0.022-2.385
		c-0.008-0.307-0.135-0.588-0.582-0.498c-0.505,1.178,0.25,2.552-0.442,3.651c-0.855,0.539-1.312,0.093-1.716-0.513
		c-0.217-1.012,0.205-2.106-0.533-3.076C84.454,107.745,84.454,108.776,84.454,109.807z M8.4,77.918
		c2.042,0,3.881,0.062,5.715-0.014c3.587-0.146,6.348-2.058,7.308-4.961c1.556-4.707-1.285-9.431-6.219-10.2
		c-3.732-0.582-7.501-0.224-11.255-0.229c-0.094,0-0.188,0.144-0.281,0.222C3.37,66.544,3.497,84.951,3.854,86.394
		c1.482-0.021,2.991,0.2,4.546-0.154C8.4,83.501,8.4,80.856,8.4,77.918z M13.65,33.156c0,1.532,0,2.938,0,4.343
		c0,1.442,0,2.885,0,4.49c-0.394-0.232-0.568-0.3-0.699-0.417c-2.705-2.425-7.396-1.547-9.181,1.893
		c-1.934,3.724-1.885,7.591-0.257,11.417c1.769,4.156,7.283,4.974,9.833,2.083c0.102-0.115,0.321-0.128,0.421-0.165
		c0.475,0.389,0.042,1.007,0.496,1.395c1.31,0,2.638,0,3.951,0c0.285-2.191,0.226-23.591-0.069-25.038
		C16.751,33.156,15.344,33.156,13.65,33.156z M86.254,58.172c1.325,0,2.646,0,3.953,0c0.333-3.73,0.278-23.643-0.065-25.009
		c-1.393,0-2.793,0-4.329,0c-0.08,2.926-0.16,5.787-0.242,8.757c-0.324-0.175-0.508-0.231-0.639-0.349
		c-2.78-2.527-7.83-1.49-9.525,2.526c-1.46,3.458-1.513,6.991-0.09,10.427c1.79,4.322,6.295,5.361,9.988,2.457
		c0.132-0.104,0.319-0.138,0.471-0.201C86.098,57.214,85.83,57.809,86.254,58.172z M39.403,86.374
		c-0.742-2.135-0.603-4.174-0.607-6.201c-0.004-1.91,0.048-3.823-0.017-5.732c-0.084-2.475-1.134-4.409-3.503-5.388
		c-2.845-1.173-5.688-0.979-8.366,0.479c-1.606,0.874-2.68,2.241-2.794,4.305c1.595,0,3.052,0,4.49,0
		c0.861-1.793,2.396-2.473,4.028-1.814c1.217,0.491,1.631,1.805,1.093,3.688c-1.131,0-2.299-0.037-3.463,0.01
		c-1.366,0.056-2.668,0.397-3.872,1.073c-2.312,1.298-3.277,3.844-2.39,6.317c1.155,3.222,5.54,4.705,8.678,2.926
		c0.474-0.269,0.919-0.584,1.354-0.861c0.53,0.282,0.373,0.975,0.983,1.2C36.332,86.374,37.74,86.374,39.403,86.374z
		 M108.896,29.576c-0.763-1.724-0.789-3.318-0.786-4.92c0.006-2.407,0.022-4.815-0.023-7.222c-0.044-2.317-1.163-4.048-3.255-4.978
		c-2.812-1.25-5.687-1.117-8.396,0.318c-1.62,0.859-2.83,2.151-2.779,4.298c1.455,0.203,2.855,0.08,4.209,0.089
		c1.14-1.918,2.531-2.555,4.075-1.921c1.291,0.53,1.699,1.707,1.222,3.604c-0.638,0.213-1.321,0.118-1.987,0.108
		c-1.307-0.018-2.588,0.161-3.853,0.442c-2.402,0.534-3.959,2.332-4.202,4.794c-0.215,2.173,0.982,4.219,3.189,5.14
		c2.088,0.872,4.19,0.934,6.173-0.405c0.296-0.201,0.556-0.502,0.969-0.471c0.466,0.236,0.386,0.917,0.969,1.125
		C105.767,29.576,107.171,29.576,108.896,29.576z M109.438,50.862c0.244-1.874,0.129-3.587-0.352-5.242
		c-0.628-2.168-1.913-3.844-4.055-4.754c-4.376-1.859-9.273,0.222-10.91,4.671c-0.535,1.455-0.729,2.987-0.677,4.54
		c0.211,6.434,5.268,9.145,10.188,8.48c2.147-0.29,4.138-1.086,5.446-3.208c-0.852-0.66-1.265-1.681-2.271-2.15
		c-2.01,1.587-4.157,2.358-6.524,1.07c-1.207-0.656-2.001-1.718-1.828-3.408C102.175,50.862,105.786,50.862,109.438,50.862z
		 M8.511,16c-0.192-2.139-0.113-4.138-0.052-6.327c1.832,0,3.543,0.03,5.254-0.008c1.761-0.039,3.536,0.177,5.314-0.146
		c0-1.203,0-2.292,0-3.364C17.377,5.86,5.268,5.863,3.71,6.145C3.376,9.199,3.5,28.258,3.867,29.546c1.452,0,2.907,0,4.543,0
		c0-3.268,0-6.445,0-9.796c3.234,0,6.291,0,9.365,0c0.047-0.729,0.13-1.284,0.103-1.833c-0.028-0.595,0.199-1.238-0.363-1.917
		C14.621,16,11.617,16,8.511,16z M36.411,22.272c0.215-2.146,0.03-4.023-0.588-5.841c-0.531-1.562-1.488-2.835-2.922-3.692
		c-4.331-2.585-10.014-0.636-11.828,4.068c-0.286,0.741-0.516,1.525-0.623,2.31c-0.881,6.431,2.649,10.425,7.997,10.782
		c2.942,0.196,5.578-0.554,7.6-3.128c-0.841-0.789-1.318-1.738-2.249-2.374c-1.804,1.736-3.92,2.297-6.271,1.374
		c-1.474-0.578-2.179-1.795-2.337-3.5C28.975,22.272,32.6,22.272,36.411,22.272z M37.535,50.909
		c0.177-1.422,0.078-2.685-0.123-3.962c-0.609-3.885-2.761-6.089-6.568-6.658c-3.47-0.519-6.856,1.257-8.358,4.476
		c-1.249,2.677-1.409,5.467-0.52,8.287c0.685,2.174,2.128,3.723,4.166,4.711c1.833,0.89,3.804,1.137,5.773,0.783
		c2.064-0.372,3.997-1.127,5.211-3.114c-0.731-0.833-1.345-1.656-2.178-2.231c-4.222,2.885-8.183,1.847-8.518-2.292
		C30.107,50.909,33.785,50.909,37.535,50.909z M124.979,53.101c-1.842,1.711-3.913,2.389-6.263,1.282
		c-1.354-0.638-2.164-1.722-2.096-3.496c3.693,0,7.301,0,10.961,0c0.229-1.635,0.103-3.102-0.183-4.544
		c-0.678-3.437-2.967-5.628-6.33-6.073c-2.543-0.337-6.245,0.485-8.101,3.98c-1.436,2.702-1.581,5.56-0.852,8.436
		c1.234,4.859,6.331,6.657,10.363,5.749c1.886-0.425,3.593-1.195,4.7-2.992C126.479,54.6,125.883,53.75,124.979,53.101z
		 M140.224,45.885c1.403,0.075,2.845,0.226,4.274-0.098c-0.128-2.159-0.865-3.478-2.657-4.41c-2.854-1.486-5.778-1.568-8.706-0.15
		c-0.735,0.356-1.338,0.875-1.844,1.512c-1.789,2.256-1.357,5.145,1.011,6.777c1.031,0.71,2.192,1.105,3.395,1.411
		c1.012,0.258,2.037,0.496,3.012,0.861c1.154,0.432,1.559,1.039,1.458,1.874s-0.876,1.488-1.976,1.664
		c-2.139,0.341-3.387-0.358-4.432-2.583c-1.305,0.142-2.69-0.241-4.095,0.226c0.141,1.663,0.851,2.905,2.042,3.896
		c3.002,2.497,8.172,2.281,10.933,0.284c2.909-2.105,2.701-6.188-0.395-8.035c-1.019-0.608-2.149-0.905-3.286-1.193
		c-1.012-0.257-2.036-0.487-3.021-0.829c-0.723-0.251-1.3-0.734-1.278-1.625c0.018-0.777,0.555-1.405,1.452-1.71
		C137.932,43.135,139.257,43.801,140.224,45.885z M39.562,52.814c-0.063,1.778,0.731,2.991,1.898,3.978
		c2.889,2.444,8.252,2.542,11.235,0.241c2.692-2.076,2.504-6.021-0.383-7.819c-1.058-0.658-2.244-0.991-3.441-1.294
		c-0.952-0.241-1.941-0.332-2.852-0.748c-1.113-0.507-1.542-1.034-1.434-1.874c0.11-0.859,0.676-1.389,1.74-1.674
		c0.431-0.115,0.851-0.071,1.282-0.04c1.467,0.105,2.007,1.214,2.485,2.424c1.475-0.161,2.882,0.123,4.336-0.171
		c0.099-1.92-0.848-3.214-2.275-4.209c-2.589-1.805-6.966-1.805-9.676-0.134c-2.635,1.624-4.037,6.022,0.246,8.386
		c1.255,0.693,2.62,1.05,4.005,1.343c0.909,0.192,1.807,0.434,2.575,0.959c0.914,0.626,0.946,1.798,0.118,2.535
		c-0.427,0.381-0.943,0.56-1.512,0.628c-2.119,0.251-3.226-0.4-4.189-2.531C42.411,52.814,41.072,52.814,39.562,52.814z
		 M77.633,73.968c0.065-1.946-0.714-3.455-2.459-4.391c-2.833-1.52-5.78-1.652-8.716-0.313c-1.945,0.887-3.097,2.429-3.129,4.628
		c-0.032,2.207,1.31,3.493,3.145,4.381c1.114,0.539,2.313,0.828,3.516,1.098c0.903,0.203,1.82,0.401,2.59,0.938
		c1.003,0.698,1.006,1.903,0.032,2.641c-0.396,0.301-0.852,0.498-1.36,0.539c-0.869,0.07-1.713,0.03-2.542-0.314
		c-1.014-0.421-1.284-1.394-1.659-2.189c-1.463,0-2.808,0-4.186,0c-0.073,1.699,0.74,2.916,1.863,3.92
		c2.804,2.504,8.506,2.552,11.378,0.147c2.626-2.197,2.288-6.086-0.679-7.796c-0.809-0.466-1.685-0.755-2.58-0.991
		c-1.069-0.281-2.158-0.498-3.209-0.833c-1.358-0.435-1.944-1.129-1.827-1.985c0.139-1.012,1.169-1.746,2.5-1.766
		c0.244-0.003,0.49,0.046,0.735,0.069c1.393,0.132,1.878,1.215,2.324,2.36c1.292,0,2.524,0.005,3.756-0.007
		C77.299,74.101,77.47,74.013,77.633,73.968z M38.157,16.388c0.076,1.616,0.315,2.161,1.12,3.108
		c2.944,3.464,9.366,2.998,11.925,0.931c2.812-2.272,2.513-6.049-0.64-7.827c-1.255-0.708-2.64-1.025-4.027-1.338
		c-0.842-0.19-1.689-0.357-2.472-0.755c-0.618-0.314-0.944-0.823-0.95-1.475c-0.007-0.713,0.292-1.296,0.975-1.656
		c1.537-0.807,3.393-0.207,4.18,1.369c0.105,0.211,0.149,0.482,0.315,0.533c1.514,0,2.911,0,4.362,0
		c0.088-1.911-0.903-3.106-2.262-4.058c-2.616-1.835-7.204-1.828-9.847-0.023c-3.242,2.212-3.052,6.218,0.385,8.129
		c1.091,0.607,2.277,0.946,3.482,1.231c0.9,0.213,1.815,0.384,2.655,0.797c0.706,0.348,1.214,0.819,1.146,1.714
		c-0.071,0.951-0.646,1.411-1.471,1.682c-2.024,0.662-3.794-0.197-4.737-2.361C40.988,16.388,39.646,16.388,38.157,16.388z
		 M86.745,12.07c-1.079,3.808-2.133,7.529-3.188,11.25c-0.116-0.003-0.234-0.006-0.351-0.01c-1.061-3.752-2.122-7.504-3.2-11.321
		c-0.888,0-1.624-0.032-2.357,0.009c-0.765,0.043-1.566-0.198-2.393,0.218c1.976,5.821,3.929,11.573,5.916,17.425
		c1.53-0.08,2.988,0.161,4.482-0.146c1.971-5.805,3.918-11.542,5.916-17.426C89.865,12.07,88.405,12.07,86.745,12.07z
		 M54.697,12.044c0.217,1.205-0.167,2.245,0.263,3.195c0.796,0.188,1.562-0.098,2.405,0.347c0,0.56-0.001,1.163,0,1.766
		c0.006,2.712-0.035,5.424,0.033,8.134c0.063,2.539,1.398,3.954,3.907,4.353c1.299,0.207,2.548,0.038,3.822-0.336
		c0.078-1.158,0.172-2.233-0.038-3.409c-0.545,0-0.971,0.027-1.393-0.005c-1.229-0.093-1.582-0.337-1.607-1.542
		c-0.062-3.005-0.021-6.013-0.021-8.957c1.003-0.602,2.084,0.066,2.989-0.544c0.038-0.979,0.115-1.94-0.039-2.858
		c-0.975-0.421-1.944,0.043-2.831-0.375c-0.418-1.356,0.169-2.812-0.383-4.152c-1.465,0-2.862,0-4.312,0
		c-0.356,1.425,0.121,2.863-0.302,4.268C56.408,11.966,55.689,11.999,54.697,12.044z M111.99,29.408
		c0.439,0.351,0.889,0.222,1.307,0.229c1.035,0.019,2.07,0.006,3.198,0.006c0-8.417,0-16.653,0-24.837
		c-0.458-0.354-0.906-0.234-1.323-0.243c-1.034-0.021-2.069-0.007-3.182-0.007C111.99,12.97,111.99,21.21,111.99,29.408z
		 M46.803,68.68c-1.416,0.079-2.804-0.146-4.164,0.144c-0.315,4.951-0.179,16.249,0.214,17.587c1.437-0.034,2.895,0.163,4.439-0.143
		c0-0.71,0.001-1.318,0-1.927c-0.001-2.773-0.011-5.547,0-8.32c0.007-1.969,0.757-2.806,2.708-2.973
		c0.782-0.067,1.575-0.011,2.508-0.011c0.033-1.559,0.128-2.992-0.054-4.393c-2.147-0.546-2.585-0.406-5.204,1.604
		C46.84,69.875,47.116,69.325,46.803,68.68z M55.243,68.738C54.94,73.09,55.064,84.982,55.4,86.3c1.456,0,2.898,0,4.318,0
		c0.33-3.211,0.206-16.294-0.156-17.562C58.166,68.738,56.764,68.738,55.243,68.738z M66.462,40.602c0,5.972,0,11.782,0,17.586
		c1.574,0,3.024,0,4.491,0c0-5.911,0-11.72,0-17.586C69.43,40.602,68.027,40.602,66.462,40.602z M68.136,29.627
		c1.534-0.021,3.021,0.106,4.646-0.118c-0.015-5.89,0.011-11.646-0.019-17.56c-1.691,0.157-3.146-0.174-4.628,0.218
		C68.136,17.961,68.136,23.679,68.136,29.627z M53.312,25.853c-4.719,0-9.37,0-14.067,0c-0.064,1.316-0.167,2.518,0.054,3.732
		c4.748,0,9.352,0,14.034,0C53.5,28.309,53.546,27.109,53.312,25.853z M84.398,95.882c0,1.515-0.046,3.106,0.014,4.696
		c0.058,1.537,1.039,2.404,2.648,2.483c1.706,0.083,2.857-0.727,3.02-2.295c0.171-1.646,0.179-3.308,0.008-5.059
		c-0.572-0.006-1.098-0.28-1.552,0.153c-0.412,1.923,0.437,3.956-0.519,5.687c-0.699,0.194-1.175,0.232-1.7-0.266
		c-0.491-1.73,0.053-3.67-0.344-5.571C85.448,95.658,84.98,95.493,84.398,95.882z M96.219,95.048
		c-1.144,0.682-1.84,0.109-2.314-0.808c-0.589-0.016-1.091-0.193-1.51,0.203c0.657,1.785,2.067,2.545,3.891,2.094
		c0.886-0.219,1.612-0.641,1.829-1.607c0.203-0.903-0.209-1.683-1.24-2.24c-0.59-0.318-1.253-0.499-1.867-0.774
		c-0.507-0.229-0.791-0.587-0.403-1.279c0.508-0.158,1.119-0.396,1.588,0.2c0.597,0.759,1.218,0.544,1.927,0.282
		c-0.807-1.938-2.568-2.578-4.365-1.666c-1.466,0.743-1.594,2.235-0.278,3.25c0.547,0.421,1.205,0.603,1.835,0.849
		C95.887,93.776,96.5,94.015,96.219,95.048z M114.101,97.862c-0.373-1.62-1.202-2.339-2.735-2.378
		c-1.522-0.04-2.8,0.878-3.119,2.364c-0.209,0.965-0.219,1.974,0.022,2.939c0.346,1.38,1.406,2.197,2.806,2.267
		c1.556,0.077,2.512-0.562,3.064-2.066c0.03-0.083-0.058-0.21-0.113-0.392c-0.389,0-0.804,0-1.303,0
		c-0.104,0.152-0.24,0.347-0.369,0.546c-0.358,0.555-0.9,0.621-1.47,0.499c-0.646-0.138-0.849-0.658-0.9-1.243
		c-0.039-0.43-0.047-0.862-0.041-1.294c0.012-0.858-0.107-1.821,0.935-2.198c1.076-0.389,1.499,0.52,1.915,1.174
		C113.321,98.104,113.758,98.234,114.101,97.862z M102.321,102.76c0.336-0.784-0.121-1.584,0.38-2.216
		c0.636-0.071,1.253-0.082,1.839-0.22c1.259-0.298,1.969-1.201,1.93-2.349c-0.039-1.133-0.834-2.084-2.053-2.252
		c-1.193-0.165-2.405-0.16-3.623-0.007c0,2.465,0,4.774,0,7.062C101.336,103.076,101.792,103.008,102.321,102.76z M102.271,33.159
		c-1.016,1.554-2.04,3.122-3.24,4.959c1.494-0.034,2.643,0.099,3.827-0.174c1.397-1.531,2.799-3.069,4.363-4.785
		C105.408,33.159,103.884,33.159,102.271,33.159z M68.781,38.278c1.566-0.028,2.678-1.081,2.605-2.47
		c-0.071-1.371-1.277-2.367-2.805-2.314c-1.455,0.049-2.49,1.056-2.479,2.41C66.117,37.373,67.17,38.307,68.781,38.278z
		 M57.418,61.627c-1.516,0.023-2.647,1.11-2.598,2.494c0.052,1.416,1.171,2.36,2.756,2.323c1.489-0.033,2.466-0.978,2.468-2.387
		C60.047,62.582,58.988,61.603,57.418,61.627z M70.412,4.971c-1.464-0.007-2.603,0.984-2.631,2.291
		c-0.029,1.359,1.011,2.366,2.494,2.416c1.558,0.052,2.719-0.969,2.705-2.379C72.969,5.949,71.897,4.978,70.412,4.971z
		 M97.587,98.796c-1.588,0-3.209,0-4.796,0c-0.233,0.5-0.292,0.891,0.124,1.26c1.548,0,3.118,0,4.775,0
		C97.778,99.605,97.95,99.226,97.587,98.796z M116.683,109.806c-0.146,1.271-1.279,0.409-1.867,0.792
		c0.481,0.631,1.018,0.679,1.656,0.426c0.554-0.222,0.963-0.514,0.967-1.179c0.002-0.581-0.343-0.889-0.815-1.103
		c-0.335-0.149-0.678-0.282-1.018-0.422c-0.415-0.17-0.509-0.483-0.407-0.867c0.799-0.927,1.422,0.301,2.146,0.289
		c0.072-0.688-0.342-0.896-0.712-1.083c-0.778-0.391-1.758-0.133-2.117,0.514c-0.354,0.634-0.066,1.247,0.844,1.769
		C115.813,109.203,116.452,109.181,116.683,109.806z M140.808,109.363c-0.11-1.343-0.498-1.87-1.317-1.735
		c-0.741,0.122-1.182,0.607-1.324,1.351c-0.174,0.915,0.154,1.679,0.884,2.039c0.708,0.35,1.198,0.068,1.693-0.479
		c-0.628-0.357-1.519,0.521-1.741-0.618C139.442,109.312,140.198,109.863,140.808,109.363z M98.004,115.534
		c-1.108-1.323-1.708-1.24-2.45,0.237c0.212,0.933,1.461,0.564,1.782,1.372c-0.509,0.958-1.16-0.096-1.786,0.072
		c1.065,1.221,1.783,1.117,2.541-0.239c-0.228-0.889-1.45-0.616-1.742-1.426C96.894,114.787,97.32,115.746,98.004,115.534z
		 M134.98,110.789c0.562-2.467,0.562-2.467,1.64-2.213c0.141,1.597,0.141,1.597,0.57,2.23c0.624-2.917,0.108-3.529-2.496-2.809
		C134.859,108.905,134.52,109.857,134.98,110.789z M102.299,110.317c0.365,0.655,0.867,0.998,1.604,0.788
		c0.635-0.181,1.128-0.523,0.865-1.311c-0.302-0.765-1.33-0.52-1.725-1.129c0.354-0.793,1.065,0.039,1.427-0.457
		c-1.207-0.907-1.417-0.851-2.147,0.532c0.217,0.945,1.442,0.608,1.741,1.42C103.545,111.196,102.908,109.834,102.299,110.317z
		 M133.838,111.208c-0.158-1.362,0.381-2.441-0.437-3.296c-0.694-0.725-1.434-0.047-2.111,0.116
		c-0.193,1.854-0.193,1.854,0.282,2.807c0.609-0.731-0.111-1.729,0.504-2.407c0.312-0.16,0.598-0.163,0.787-0.022
		C133.594,109.141,132.943,110.16,133.838,111.208z M101.408,113.969c-1.035,0.649-1.317,1.463-0.936,2.695
		c0.211,0.681,0.566,1.299,1.296,1.437c0.761,0.143,1.477-0.071,1.903-0.812c0.102-0.177-0.019-0.347-0.141-0.49
		c-0.568,0.068-0.741,0.863-1.407,0.76C100.999,116.72,100.879,116.121,101.408,113.969z M108.637,111.134
		c-0.583-1.056-0.648-1.956-0.296-2.897c0.224-0.596-0.15-0.991-0.642-1.327c-1.131,1.099-0.02,2.301-0.249,3.417
		C107.366,110.733,107.742,111.1,108.637,111.134z M106.726,113.821c-1.146,1.311-0.224,2.527-0.209,3.693
		c0.004,0.315,0.343,0.645,0.958,0.26C106.393,116.673,107.876,115.183,106.726,113.821z M106.024,110.856
		c0.526-1.428,0.26-2.832-0.096-4.235C105.75,108.033,105.303,109.445,106.024,110.856z M121.975,111.008
		c0.775-0.553,0.571-1.175,0.51-1.659c-0.094-0.748,0.655-0.955,0.832-1.516c-0.517-0.24-0.966-0.205-1.448,0.106
		C121.844,108.896,121.759,109.869,121.975,111.008z M100.465,111.224c0.529-1.069,0.152-1.903,0.446-2.635
		c0.828-0.541,0.828-0.541,0.681-0.847c-0.469-0.179-0.891-0.004-1.375,0.273C100.102,108.967,99.806,109.939,100.465,111.224z
		 M94.216,118.196c0.438-1.301,0.521-2.24-0.057-3.541C94.027,115.965,93.981,116.903,94.216,118.196z M104.999,117.784
		c0.217-0.955,0.353-1.924-0.063-2.878C104.78,115.861,104.686,116.815,104.999,117.784z M92.389,110.786
		c0.305-0.985,0.376-1.991,0.041-3.215C92.025,108.775,92.22,109.773,92.389,110.786z M103.619,114.923
		c0.223-0.639,0.064-0.959-0.651-1.009C102.897,114.503,103.197,114.726,103.619,114.923z M111.082,106.347
		c-0.19,0.055-0.303,0.19-0.279,0.378c0.007,0.061,0.18,0.161,0.25,0.142c0.16-0.044,0.365-0.12,0.286-0.352
		C111.313,106.438,111.17,106.4,111.082,106.347z M102.562,113.737c-0.211-0.166-0.421-0.307-0.621,0.021
		C102.182,113.99,102.373,113.878,102.562,113.737z"/>
	<path fill-rule="evenodd" clip-rule="evenodd" fill="#242424" d="M8.4,77.918c0,2.938,0,5.583,0,8.321
		c-1.555,0.354-3.064,0.133-4.546,0.154c-0.356-1.442-0.484-19.85-0.186-23.658c0.093-0.077,0.188-0.221,0.281-0.221
		c3.753,0.005,7.522-0.354,11.255,0.229c4.934,0.77,7.774,5.493,6.219,10.2c-0.959,2.903-3.72,4.815-7.308,4.961
		C12.281,77.979,10.441,77.918,8.4,77.918z M8.484,73.995c1.794,0.122,3.506,0.188,5.214-0.035c2.013-0.264,3.06-1.327,3.224-3.178
		c0.163-1.834-0.842-3.459-2.521-4.078c-1.059-0.391-4.611-0.377-5.917,0.013C8.484,69.113,8.484,71.5,8.484,73.995z"/>
	<path fill-rule="evenodd" clip-rule="evenodd" fill="#242424" d="M13.65,33.156c1.694,0,3.102,0,4.494,0
		c0.295,1.446,0.354,22.846,0.069,25.038c-1.313,0-2.641,0-3.951,0c-0.454-0.387-0.021-1.005-0.496-1.395
		c-0.101,0.037-0.32,0.05-0.421,0.165c-2.55,2.892-8.064,2.074-9.833-2.083c-1.628-3.826-1.677-7.692,0.257-11.417
		c1.785-3.439,6.477-4.317,9.181-1.893c0.131,0.117,0.305,0.185,0.699,0.417c0-1.605,0-3.048,0-4.49
		C13.65,36.094,13.65,34.688,13.65,33.156z M13.648,49.538c-0.002,0-0.003,0-0.005,0c0-0.984-0.013-1.969,0.003-2.954
		c0.017-1.058-0.555-1.731-1.429-2.178c-1.875-0.958-3.952-0.17-4.671,1.82c-0.617,1.707-0.715,3.472-0.347,5.264
		c0.125,0.606,0.249,1.203,0.555,1.746c0.745,1.32,2.123,1.917,3.607,1.563c1.619-0.385,2.272-1.252,2.286-3.047
		C13.652,51.015,13.648,50.276,13.648,49.538z"/>
	<path fill-rule="evenodd" clip-rule="evenodd" fill="#242424" d="M86.254,58.172c-0.424-0.364-0.156-0.958-0.479-1.393
		c-0.151,0.063-0.339,0.098-0.471,0.201c-3.693,2.904-8.198,1.866-9.988-2.457c-1.423-3.437-1.37-6.969,0.09-10.427
		c1.695-4.017,6.745-5.054,9.525-2.526c0.131,0.118,0.314,0.174,0.639,0.349c0.082-2.97,0.162-5.831,0.242-8.757
		c1.536,0,2.937,0,4.329,0c0.344,1.366,0.398,21.279,0.065,25.009C88.9,58.172,87.579,58.172,86.254,58.172z M85.608,49.356
		c-0.003,0-0.006,0-0.009,0c0-0.922-0.034-1.846,0.009-2.766c0.052-1.083-0.533-1.722-1.406-2.169
		c-1.883-0.964-3.912-0.19-4.683,1.77c-0.461,1.17-0.521,2.417-0.472,3.63c0.051,1.268,0.086,2.587,0.868,3.714
		c0.797,1.149,2.109,1.599,3.58,1.19c1.506-0.418,2.086-1.177,2.11-2.786C85.618,51.078,85.608,50.217,85.608,49.356z"/>
	<path fill-rule="evenodd" clip-rule="evenodd" fill="#242424" d="M39.403,86.374c-1.663,0-3.071,0-4.386,0
		c-0.611-0.226-0.453-0.918-0.983-1.2c-0.435,0.277-0.88,0.593-1.354,0.861c-3.138,1.779-7.522,0.296-8.678-2.926
		c-0.888-2.474,0.078-5.02,2.39-6.317c1.204-0.676,2.506-1.018,3.872-1.073c1.165-0.047,2.332-0.01,3.463-0.01
		c0.538-1.883,0.124-3.196-1.093-3.688c-1.632-0.658-3.167,0.021-4.028,1.814c-1.438,0-2.896,0-4.49,0
		c0.114-2.063,1.188-3.431,2.794-4.305c2.678-1.458,5.521-1.651,8.366-0.479c2.369,0.979,3.419,2.913,3.503,5.388
		c0.064,1.909,0.012,3.822,0.017,5.732C38.8,82.2,38.661,84.239,39.403,86.374z M33.969,78.388
		c-1.494-0.161-2.889-0.202-4.205,0.435c-1.064,0.514-1.563,1.643-1.305,2.785c0.218,0.964,1.005,1.531,2.214,1.568
		c1.386,0.043,2.505-0.475,3.296-1.552C33.969,80.523,33.969,79.496,33.969,78.388z"/>
	<path fill-rule="evenodd" clip-rule="evenodd" fill="#242424" d="M108.896,29.576c-1.726,0-3.13,0-4.477,0
		c-0.583-0.207-0.503-0.888-0.969-1.125c-0.413-0.031-0.673,0.271-0.969,0.471c-1.982,1.339-4.085,1.277-6.173,0.405
		c-2.207-0.921-3.404-2.967-3.189-5.14c0.243-2.462,1.8-4.26,4.202-4.794c1.265-0.281,2.546-0.46,3.853-0.442
		c0.666,0.01,1.35,0.104,1.987-0.108c0.478-1.897,0.069-3.074-1.222-3.604c-1.544-0.634-2.936,0.003-4.075,1.921
		c-1.354-0.01-2.754,0.113-4.209-0.089c-0.051-2.146,1.159-3.439,2.779-4.298c2.71-1.435,5.584-1.568,8.396-0.318
		c2.092,0.93,3.211,2.661,3.255,4.978c0.046,2.407,0.029,4.815,0.023,7.222C108.107,26.258,108.134,27.852,108.896,29.576z
		 M103.436,21.511c-1.568,0.043-2.913-0.224-4.187,0.432c-1.607,0.828-2.005,3-0.688,3.969c1.05,0.773,2.209,0.63,3.332,0.118
		c1.033-0.471,1.686-1.191,1.553-2.438C103.383,22.99,103.436,22.377,103.436,21.511z"/>
	<path fill-rule="evenodd" clip-rule="evenodd" fill="#242424" d="M109.438,50.862c-3.652,0-7.264,0-10.983,0
		c-0.173,1.69,0.621,2.751,1.828,3.408c2.367,1.288,4.515,0.517,6.524-1.07c1.007,0.469,1.42,1.49,2.271,2.15
		c-1.309,2.121-3.299,2.918-5.446,3.208c-4.92,0.665-9.977-2.046-10.188-8.48c-0.052-1.553,0.142-3.084,0.677-4.54
		c1.637-4.449,6.534-6.53,10.91-4.671c2.142,0.91,3.427,2.586,4.055,4.754C109.567,47.275,109.683,48.988,109.438,50.862z
		 M104.749,47.778c0.197-2.393-0.783-3.656-2.785-3.787c-1.982-0.13-3.263,1.176-3.498,3.771
		C100.575,47.832,102.669,47.808,104.749,47.778z"/>
	<path fill-rule="evenodd" clip-rule="evenodd" fill="#242424" d="M8.511,16c3.106,0,6.11,0,9.004,0
		c0.562,0.678,0.335,1.322,0.363,1.917c0.027,0.549-0.056,1.104-0.103,1.833c-3.075,0-6.131,0-9.365,0c0,3.351,0,6.528,0,9.796
		c-1.636,0-3.091,0-4.543,0C3.5,28.258,3.376,9.199,3.71,6.145C5.268,5.863,17.377,5.86,19.027,6.155c0,1.072,0,2.161,0,3.364
		c-1.778,0.323-3.553,0.107-5.314,0.146c-1.71,0.039-3.422,0.008-5.254,0.008C8.397,11.863,8.318,13.861,8.511,16z"/>
	<path fill-rule="evenodd" clip-rule="evenodd" fill="#242424" d="M36.411,22.272c-3.811,0-7.436,0-11.222,0
		c0.158,1.704,0.863,2.921,2.337,3.5c2.352,0.923,4.467,0.362,6.271-1.374c0.931,0.636,1.408,1.585,2.249,2.374
		c-2.022,2.574-4.658,3.324-7.6,3.128c-5.347-0.357-8.878-4.352-7.997-10.782c0.107-0.785,0.337-1.569,0.623-2.31
		c1.813-4.704,7.497-6.653,11.828-4.068c1.435,0.856,2.391,2.129,2.922,3.692C36.441,18.249,36.626,20.126,36.411,22.272z
		 M25.269,19.127c2.131,0,4.246,0,6.358,0c0.315-2.13-0.582-3.487-2.453-3.752C27.086,15.08,25.699,16.375,25.269,19.127z"/>
	<path fill-rule="evenodd" clip-rule="evenodd" fill="#242424" d="M37.535,50.909c-3.75,0-7.428,0-11.114,0
		c0.335,4.139,4.296,5.177,8.518,2.292c0.833,0.575,1.447,1.398,2.178,2.231c-1.214,1.987-3.147,2.743-5.211,3.114
		c-1.969,0.354-3.939,0.106-5.773-0.783c-2.038-0.989-3.481-2.538-4.166-4.711c-0.889-2.819-0.729-5.61,0.52-8.287
		c1.502-3.218,4.888-4.995,8.358-4.476c3.808,0.569,5.959,2.773,6.568,6.658C37.613,48.224,37.712,49.487,37.535,50.909z
		 M32.838,47.792c0.103-2.426-0.742-3.551-2.675-3.759c-2.035-0.219-3.238,0.9-3.821,3.756
		C28.487,47.833,30.589,47.815,32.838,47.792z"/>
	<path fill-rule="evenodd" clip-rule="evenodd" fill="#242424" d="M124.979,53.101c0.904,0.649,1.501,1.5,2.201,2.342
		c-1.107,1.797-2.814,2.567-4.7,2.992c-4.032,0.908-9.129-0.889-10.363-5.749c-0.729-2.876-0.584-5.734,0.852-8.436
		c1.855-3.496,5.558-4.317,8.101-3.98c3.363,0.445,5.652,2.637,6.33,6.073c0.285,1.442,0.412,2.909,0.183,4.544
		c-3.66,0-7.268,0-10.961,0c-0.068,1.774,0.742,2.858,2.096,3.496C121.065,55.489,123.137,54.812,124.979,53.101z M116.62,47.817
		c2.267-0.069,4.395,0.088,6.517-0.098c-0.034-2.47-0.906-3.551-2.845-3.704C118.225,43.853,116.991,45.034,116.62,47.817z"/>
	<path fill-rule="evenodd" clip-rule="evenodd" fill="#242424" d="M140.224,45.885c-0.967-2.084-2.292-2.75-4.112-2.13
		c-0.897,0.305-1.435,0.933-1.452,1.71c-0.021,0.89,0.556,1.374,1.278,1.625c0.984,0.342,2.009,0.572,3.021,0.829
		c1.137,0.288,2.268,0.585,3.286,1.193c3.096,1.847,3.304,5.93,0.395,8.035c-2.761,1.998-7.931,2.213-10.933-0.284
		c-1.191-0.991-1.901-2.233-2.042-3.896c1.404-0.467,2.79-0.084,4.095-0.226c1.045,2.224,2.293,2.924,4.432,2.583
		c1.1-0.176,1.875-0.829,1.976-1.664s-0.304-1.441-1.458-1.874c-0.975-0.365-2-0.603-3.012-0.861
		c-1.202-0.306-2.363-0.701-3.395-1.411c-2.368-1.632-2.8-4.521-1.011-6.777c0.506-0.636,1.108-1.155,1.844-1.512
		c2.928-1.418,5.852-1.335,8.706,0.15c1.792,0.933,2.529,2.251,2.657,4.41C143.068,46.111,141.627,45.96,140.224,45.885z"/>
	<path fill-rule="evenodd" clip-rule="evenodd" fill="#242424" d="M39.562,52.814c1.51,0,2.849,0,4.158,0
		c0.963,2.131,2.071,2.782,4.189,2.531c0.568-0.068,1.085-0.247,1.512-0.628c0.828-0.736,0.796-1.909-0.118-2.535
		c-0.768-0.525-1.666-0.767-2.575-0.959c-1.385-0.293-2.75-0.65-4.005-1.343c-4.283-2.364-2.881-6.763-0.246-8.386
		c2.71-1.67,7.087-1.67,9.676,0.134c1.428,0.995,2.374,2.289,2.275,4.209c-1.454,0.293-2.861,0.01-4.336,0.171
		c-0.479-1.21-1.019-2.319-2.485-2.424c-0.432-0.031-0.851-0.076-1.282,0.04c-1.063,0.285-1.629,0.815-1.74,1.674
		c-0.108,0.84,0.32,1.366,1.434,1.874c0.911,0.416,1.9,0.507,2.852,0.748c1.197,0.303,2.384,0.636,3.441,1.294
		c2.887,1.798,3.075,5.743,0.383,7.819c-2.983,2.301-8.346,2.203-11.235-0.241C40.293,55.805,39.499,54.592,39.562,52.814z"/>
	<path fill-rule="evenodd" clip-rule="evenodd" fill="#242424" d="M77.633,73.968c-0.163,0.045-0.334,0.133-0.507,0.135
		c-1.231,0.012-2.464,0.007-3.756,0.007c-0.446-1.146-0.932-2.229-2.324-2.36c-0.245-0.023-0.491-0.072-0.735-0.069
		c-1.331,0.02-2.361,0.754-2.5,1.766c-0.117,0.856,0.469,1.551,1.827,1.985c1.051,0.335,2.14,0.552,3.209,0.833
		c0.896,0.236,1.771,0.525,2.58,0.991c2.967,1.71,3.305,5.599,0.679,7.796c-2.872,2.404-8.574,2.356-11.378-0.147
		c-1.123-1.004-1.937-2.221-1.863-3.92c1.378,0,2.723,0,4.186,0c0.375,0.796,0.646,1.769,1.659,2.189
		c0.829,0.345,1.673,0.385,2.542,0.314c0.509-0.041,0.964-0.238,1.36-0.539c0.974-0.737,0.971-1.942-0.032-2.641
		c-0.77-0.536-1.687-0.734-2.59-0.938c-1.202-0.27-2.401-0.559-3.516-1.098c-1.835-0.888-3.177-2.174-3.145-4.381
		c0.032-2.199,1.184-3.741,3.129-4.628c2.936-1.339,5.883-1.206,8.716,0.313C76.919,70.513,77.698,72.021,77.633,73.968z"/>
	<path fill-rule="evenodd" clip-rule="evenodd" fill="#242424" d="M38.157,16.388c1.489,0,2.831,0,4.14,0
		c0.943,2.164,2.712,3.023,4.737,2.361c0.826-0.271,1.4-0.731,1.471-1.682c0.067-0.895-0.44-1.366-1.146-1.714
		c-0.839-0.413-1.754-0.583-2.655-0.797c-1.206-0.285-2.391-0.624-3.482-1.231c-3.437-1.911-3.626-5.917-0.385-8.129
		c2.644-1.805,7.231-1.812,9.847,0.023c1.358,0.952,2.35,2.147,2.262,4.058c-1.451,0-2.849,0-4.362,0
		c-0.166-0.05-0.21-0.322-0.315-0.533c-0.787-1.575-2.643-2.175-4.18-1.369c-0.684,0.359-0.982,0.943-0.975,1.656
		c0.006,0.652,0.333,1.161,0.95,1.475c0.783,0.398,1.63,0.565,2.472,0.755c1.388,0.312,2.772,0.63,4.027,1.338
		c3.152,1.778,3.452,5.555,0.64,7.827c-2.56,2.067-8.981,2.533-11.925-0.931C38.472,18.549,38.233,18.003,38.157,16.388z"/>
	<path fill-rule="evenodd" clip-rule="evenodd" fill="#242424" d="M86.745,12.07c1.66,0,3.12,0,4.826,0
		c-1.998,5.885-3.945,11.622-5.916,17.426c-1.494,0.307-2.952,0.065-4.482,0.146c-1.987-5.853-3.94-11.604-5.916-17.425
		c0.826-0.416,1.628-0.175,2.393-0.218c0.733-0.042,1.47-0.009,2.357-0.009c1.078,3.817,2.14,7.569,3.2,11.321
		c0.116,0.004,0.234,0.007,0.351,0.01C84.612,19.599,85.666,15.878,86.745,12.07z"/>
	<path fill-rule="evenodd" clip-rule="evenodd" fill="#242424" d="M54.697,12.044c0.992-0.046,1.711-0.079,2.495-0.115
		c0.423-1.405-0.055-2.843,0.302-4.268c1.449,0,2.847,0,4.312,0c0.552,1.34-0.035,2.796,0.383,4.152
		c0.887,0.418,1.856-0.047,2.831,0.375c0.154,0.918,0.077,1.879,0.039,2.858c-0.905,0.61-1.986-0.058-2.989,0.544
		c0,2.944-0.042,5.952,0.021,8.957c0.025,1.204,0.378,1.448,1.607,1.542c0.422,0.032,0.848,0.005,1.393,0.005
		c0.21,1.175,0.116,2.251,0.038,3.409c-1.274,0.374-2.523,0.543-3.822,0.336c-2.509-0.399-3.844-1.814-3.907-4.353
		c-0.068-2.709-0.027-5.422-0.033-8.134c-0.001-0.603,0-1.207,0-1.766c-0.844-0.445-1.609-0.16-2.405-0.347
		C54.53,14.29,54.914,13.25,54.697,12.044z"/>
	<path fill-rule="evenodd" clip-rule="evenodd" fill="#242424" d="M111.99,29.408c0-8.198,0-16.438,0-24.852
		c1.112,0,2.147-0.015,3.182,0.007c0.417,0.009,0.865-0.111,1.323,0.243c0,8.184,0,16.42,0,24.837c-1.128,0-2.163,0.012-3.198-0.006
		C112.879,29.63,112.43,29.759,111.99,29.408z"/>
	<path fill-rule="evenodd" clip-rule="evenodd" fill="#242424" d="M46.803,68.68c0.313,0.646,0.037,1.195,0.447,1.568
		c2.619-2.01,3.057-2.149,5.204-1.604c0.182,1.4,0.087,2.834,0.054,4.393c-0.933,0-1.726-0.057-2.508,0.011
		c-1.951,0.167-2.701,1.004-2.708,2.973c-0.011,2.773-0.001,5.547,0,8.32c0.001,0.608,0,1.217,0,1.927
		c-1.544,0.306-3.002,0.108-4.439,0.143c-0.394-1.338-0.53-12.636-0.214-17.587C43.999,68.533,45.387,68.759,46.803,68.68z"/>
	<path fill-rule="evenodd" clip-rule="evenodd" fill="#242424" d="M55.243,68.738c1.521,0,2.923,0,4.319,0
		c0.362,1.268,0.486,14.351,0.156,17.562c-1.42,0-2.862,0-4.318,0C55.064,84.982,54.94,73.09,55.243,68.738z"/>
	<path fill-rule="evenodd" clip-rule="evenodd" fill="#242424" d="M66.462,40.602c1.565,0,2.968,0,4.491,0
		c0,5.866,0,11.675,0,17.586c-1.467,0-2.917,0-4.491,0C66.462,52.383,66.462,46.573,66.462,40.602z"/>
	<path fill-rule="evenodd" clip-rule="evenodd" fill="#242424" d="M68.136,29.627c0-5.948,0-11.666,0-17.459
		c1.482-0.392,2.937-0.061,4.628-0.218c0.029,5.914,0.004,11.669,0.019,17.56C71.156,29.733,69.67,29.606,68.136,29.627z"/>
	<path fill-rule="evenodd" clip-rule="evenodd" fill="#242424" d="M53.312,25.853c0.233,1.257,0.188,2.457,0.021,3.732
		c-4.682,0-9.286,0-14.034,0c-0.222-1.214-0.119-2.416-0.054-3.732C43.943,25.853,48.594,25.853,53.312,25.853z"/>
	<path fill-rule="evenodd" clip-rule="evenodd" fill="#242424" d="M84.398,95.882c0.582-0.389,1.05-0.224,1.575-0.171
		c0.396,1.901-0.147,3.841,0.344,5.571c0.525,0.498,1.001,0.46,1.7,0.266c0.955-1.73,0.106-3.764,0.519-5.687
		c0.454-0.434,0.979-0.159,1.552-0.153c0.171,1.751,0.163,3.413-0.008,5.059c-0.162,1.568-1.313,2.378-3.02,2.295
		c-1.609-0.079-2.591-0.946-2.648-2.483C84.353,98.988,84.398,97.396,84.398,95.882z"/>
	<path fill-rule="evenodd" clip-rule="evenodd" fill="#242424" d="M96.219,95.048c0.281-1.033-0.332-1.271-0.909-1.497
		c-0.63-0.246-1.288-0.428-1.835-0.849c-1.315-1.015-1.188-2.507,0.278-3.25c1.797-0.912,3.559-0.271,4.365,1.666
		c-0.709,0.262-1.33,0.477-1.927-0.282c-0.469-0.597-1.08-0.358-1.588-0.2c-0.388,0.692-0.104,1.05,0.403,1.279
		c0.614,0.275,1.277,0.456,1.867,0.774c1.031,0.558,1.443,1.337,1.24,2.24c-0.217,0.967-0.943,1.389-1.829,1.607
		c-1.823,0.451-3.233-0.309-3.891-2.094c0.419-0.396,0.921-0.219,1.51-0.203C94.379,95.157,95.075,95.729,96.219,95.048z"/>
	<path fill-rule="evenodd" clip-rule="evenodd" fill="#242424" d="M114.101,97.862c-0.343,0.372-0.779,0.241-1.309,0.218
		c-0.416-0.654-0.839-1.562-1.915-1.174c-1.042,0.377-0.923,1.34-0.935,2.198c-0.006,0.432,0.002,0.864,0.041,1.294
		c0.052,0.585,0.254,1.105,0.9,1.243c0.569,0.122,1.111,0.056,1.47-0.499c0.129-0.199,0.266-0.394,0.369-0.546
		c0.499,0,0.914,0,1.303,0c0.056,0.182,0.144,0.309,0.113,0.392c-0.553,1.505-1.509,2.144-3.064,2.066
		c-1.399-0.069-2.46-0.887-2.806-2.267c-0.241-0.966-0.231-1.975-0.022-2.939c0.319-1.486,1.597-2.404,3.119-2.364
		C112.898,95.523,113.728,96.242,114.101,97.862z"/>
	<path fill-rule="evenodd" clip-rule="evenodd" fill="#242424" d="M102.321,102.76c-0.529,0.248-0.985,0.316-1.527,0.019
		c0-2.287,0-4.597,0-7.062c1.218-0.153,2.43-0.158,3.623,0.007c1.219,0.168,2.014,1.119,2.053,2.252
		c0.039,1.147-0.671,2.051-1.93,2.349c-0.586,0.138-1.203,0.148-1.839,0.22C102.2,101.176,102.657,101.976,102.321,102.76z
		 M104.339,98.875c0.49-0.499,0.538-1.082,0.045-1.598c-0.526-0.55-1.182-0.423-1.921-0.211c0.037,0.713-0.271,1.364,0.267,2.032
		C103.251,99.041,103.8,99.22,104.339,98.875z"/>
	<path fill-rule="evenodd" clip-rule="evenodd" fill="#242424" d="M102.271,33.159c1.613,0,3.138,0,4.95,0
		c-1.564,1.716-2.966,3.253-4.363,4.785c-1.185,0.273-2.333,0.14-3.827,0.174C100.23,36.28,101.255,34.713,102.271,33.159z"/>
	<path fill-rule="evenodd" clip-rule="evenodd" fill="#242424" d="M68.781,38.278c-1.611,0.028-2.664-0.906-2.678-2.374
		c-0.012-1.354,1.023-2.361,2.479-2.41c1.527-0.052,2.733,0.943,2.805,2.314C71.459,37.197,70.348,38.25,68.781,38.278z"/>
	<path fill-rule="evenodd" clip-rule="evenodd" fill="#242424" d="M57.418,61.627c1.57-0.024,2.629,0.955,2.626,2.431
		c-0.002,1.409-0.979,2.354-2.468,2.387c-1.585,0.037-2.704-0.907-2.756-2.323C54.771,62.737,55.902,61.65,57.418,61.627z"/>
	<path fill-rule="evenodd" clip-rule="evenodd" fill="#242424" d="M70.412,4.971c1.485,0.007,2.557,0.979,2.568,2.327
		c0.014,1.41-1.147,2.431-2.705,2.379c-1.483-0.049-2.523-1.056-2.494-2.416C67.81,5.955,68.948,4.964,70.412,4.971z"/>
	<path fill-rule="evenodd" clip-rule="evenodd" fill="#242424" d="M97.587,98.796c0.363,0.43,0.191,0.81,0.104,1.26
		c-1.657,0-3.228,0-4.775,0c-0.416-0.369-0.357-0.76-0.124-1.26C94.378,98.796,95.999,98.796,97.587,98.796z"/>
	<path fill-rule="evenodd" clip-rule="evenodd" fill="#242424" d="M116.683,109.806c-0.23-0.625-0.869-0.603-1.324-0.864
		c-0.91-0.521-1.197-1.135-0.844-1.769c0.359-0.646,1.339-0.904,2.117-0.514c0.37,0.187,0.784,0.396,0.712,1.083
		c-0.724,0.012-1.347-1.216-2.146-0.289c-0.102,0.384-0.008,0.697,0.407,0.867c0.34,0.14,0.683,0.272,1.018,0.422
		c0.473,0.214,0.817,0.521,0.815,1.103c-0.004,0.665-0.413,0.957-0.967,1.179c-0.639,0.253-1.175,0.205-1.656-0.426
		C115.403,110.215,116.536,111.077,116.683,109.806z"/>
	<path fill-rule="evenodd" clip-rule="evenodd" fill="#242424" d="M140.808,109.363c-0.609,0.5-1.365-0.052-1.806,0.557
		c0.223,1.139,1.113,0.261,1.741,0.618c-0.495,0.548-0.985,0.829-1.693,0.479c-0.729-0.36-1.058-1.124-0.884-2.039
		c0.143-0.743,0.583-1.229,1.324-1.351C140.31,107.493,140.697,108.021,140.808,109.363z M140.314,108.771
		c-0.616-0.578-0.985-0.627-1.401-0.079C139.295,109.204,139.672,109.079,140.314,108.771z"/>
	<path fill-rule="evenodd" clip-rule="evenodd" fill="#242424" d="M98.004,115.534c-0.684,0.212-1.11-0.747-1.655,0.017
		c0.292,0.81,1.515,0.537,1.742,1.426c-0.758,1.356-1.476,1.46-2.541,0.239c0.626-0.168,1.277,0.886,1.786-0.072
		c-0.321-0.808-1.57-0.439-1.782-1.372C96.296,114.294,96.896,114.211,98.004,115.534z"/>
	<path fill-rule="evenodd" clip-rule="evenodd" fill="#242424" d="M134.98,110.789c-0.461-0.932-0.121-1.884-0.286-2.791
		c2.604-0.721,3.12-0.108,2.496,2.809c-0.43-0.634-0.43-0.634-0.57-2.23C135.542,108.322,135.542,108.322,134.98,110.789z"/>
	<path fill-rule="evenodd" clip-rule="evenodd" fill="#242424" d="M84.987,109.791c0.403,0.605,0.86,1.052,1.716,0.513
		c0.692-1.1-0.062-2.474,0.442-3.651c0.447-0.09,0.574,0.191,0.582,0.498c0.02,0.795,0.057,1.597-0.022,2.385
		c-0.094,0.921-0.682,1.506-1.48,1.644c-0.788,0.134-1.303-0.264-1.771-1.372C84.631,109.802,84.81,109.796,84.987,109.791z"/>
	<path fill-rule="evenodd" clip-rule="evenodd" fill="#242424" d="M110.416,116.414c-0.432,0.256-0.995-0.076-1.403,0.314
		c0.031,1.271,1.055,0.688,1.985,0.741c-0.858,0.739-1.501,0.523-2.097,0.441c-1.109-1.646-1.138-2.181,0.396-3.177
		c0.546-0.354,0.029-1.209,0.841-1.161c-0.131,0.605-0.092,0.841,0.245,1.467c-0.006,0.123-0.012,0.244-0.018,0.367
		c-0.513-0.121-1.063-0.38-1.365,0.356c0.374,0.536,0.902,0.197,1.34,0.29C110.366,116.174,110.392,116.294,110.416,116.414z"/>
	<path fill-rule="evenodd" clip-rule="evenodd" fill="#242424" d="M102.299,110.317c0.609-0.483,1.246,0.879,1.766-0.156
		c-0.299-0.812-1.524-0.475-1.741-1.42c0.73-1.383,0.94-1.439,2.147-0.532c-0.361,0.496-1.073-0.336-1.427,0.457
		c0.395,0.609,1.423,0.364,1.725,1.129c0.263,0.787-0.23,1.13-0.865,1.311C103.166,111.315,102.664,110.973,102.299,110.317z"/>
	<path fill-rule="evenodd" clip-rule="evenodd" fill="#242424" d="M133.838,111.208c-0.895-1.048-0.244-2.067-0.975-2.803
		c-0.189-0.141-0.476-0.138-0.787,0.022c-0.615,0.678,0.105,1.676-0.504,2.407c-0.476-0.953-0.476-0.953-0.282-2.807
		c0.678-0.163,1.417-0.841,2.111-0.116C134.219,108.767,133.68,109.846,133.838,111.208z"/>
	<path fill-rule="evenodd" clip-rule="evenodd" fill="#242424" d="M129.838,110.753c-1.134,0.528-1.719,0.381-2.18-0.546
		c-0.448-0.902-0.199-1.892,0.601-2.385c0.794-0.491,1.304-0.269,2.086,0.908c-0.139-0.006-0.277-0.012-0.414-0.019
		c-0.435-0.323-0.894-0.682-1.421-0.246c-0.479,0.394-0.415,0.975-0.258,1.489c0.208,0.684,0.771,0.624,1.324,0.507
		C129.663,110.56,129.75,110.656,129.838,110.753z"/>
	<path fill-rule="evenodd" clip-rule="evenodd" fill="#242424" d="M101.408,113.969c-0.529,2.152-0.409,2.751,0.716,3.589
		c0.666,0.104,0.839-0.691,1.407-0.76c0.122,0.144,0.242,0.313,0.141,0.49c-0.427,0.741-1.143,0.955-1.903,0.812
		c-0.729-0.138-1.085-0.756-1.296-1.437C100.091,115.432,100.373,114.618,101.408,113.969z"/>
	<path fill-rule="evenodd" clip-rule="evenodd" fill="#242424" d="M108.637,111.134c-0.895-0.034-1.271-0.4-1.187-0.808
		c0.229-1.116-0.882-2.318,0.249-3.417c0.491,0.336,0.865,0.731,0.642,1.327C107.988,109.178,108.054,110.078,108.637,111.134z"/>
	<path fill-rule="evenodd" clip-rule="evenodd" fill="#242424" d="M106.726,113.821c1.15,1.361-0.333,2.852,0.749,3.953
		c-0.615,0.385-0.954,0.056-0.958-0.26C106.502,116.349,105.58,115.132,106.726,113.821z"/>
	<path fill-rule="evenodd" clip-rule="evenodd" fill="#242424" d="M90.377,108.319c-0.301,0-0.601,0-0.872,0
		c-0.639,0.781,0.075,1.841-0.599,2.634c-0.542-1.09-0.542-1.09-0.29-3.214c0.69,0.279,1.435-0.597,2.119,0.224
		C90.542,108.008,90.411,108.114,90.377,108.319z"/>
	<path fill-rule="evenodd" clip-rule="evenodd" fill="#242424" d="M106.024,110.856c-0.722-1.411-0.274-2.823-0.096-4.235
		C106.284,108.024,106.551,109.429,106.024,110.856z"/>
	<path fill-rule="evenodd" clip-rule="evenodd" fill="#242424" d="M111.497,109.423c-0.342,0.472-0.973-0.026-1.332,0.389
		c0.427,0.743,0.427,0.743,1.568,0.624c-1.049,1.146-1.751,0.955-2.404-0.65c0.314-0.107,0.551-0.287,0.597-0.645l0.137-0.113
		c0.46-0.008,0.92-0.016,1.382-0.023C111.461,109.144,111.479,109.283,111.497,109.423z"/>
	<path fill-rule="evenodd" clip-rule="evenodd" fill="#242424" d="M121.975,111.008c-0.216-1.139-0.131-2.111-0.106-3.068
		c0.482-0.312,0.932-0.347,1.448-0.106c-0.177,0.561-0.926,0.768-0.832,1.516C122.546,109.833,122.75,110.455,121.975,111.008z"/>
	<path fill-rule="evenodd" clip-rule="evenodd" fill="#242424" d="M100.465,111.224c-0.659-1.284-0.363-2.257-0.248-3.208
		c0.484-0.277,0.906-0.452,1.375-0.273c0.147,0.306,0.147,0.306-0.681,0.847C100.617,109.32,100.994,110.154,100.465,111.224z"/>
	<path fill-rule="evenodd" clip-rule="evenodd" fill="#242424" d="M94.358,110.202c-0.418-0.691-0.891-1.37-0.637-2.308
		c0.664,0.393,0.576,1.119,1.007,1.634c0.683-0.391,0.309-1.415,1.104-1.802c0.413,0.838-0.192,1.434-0.457,2.092
		C95.036,109.946,94.697,110.074,94.358,110.202z"/>
	<path fill-rule="evenodd" clip-rule="evenodd" fill="#242424" d="M120.563,108.153c0.69,1.126,0.73,1.897,0.021,2.525
		c-0.561,0.496-1.214,0.825-1.868,0.082c0.09-0.093,0.18-0.188,0.271-0.28c1.46-0.072,1.525-0.175,1.261-1.996
		C120.354,108.374,120.459,108.264,120.563,108.153z"/>
	<path fill-rule="evenodd" clip-rule="evenodd" fill="#242424" d="M124.538,107.515c0.116,0.032,0.23,0.083,0.35,0.096
		c2.063,0.231,2.479,1.059,1.507,3.013c-0.116-0.114-0.231-0.229-0.348-0.344c0.393-1.682,0.313-1.812-1.216-1.974
		C124.761,108.031,124.411,107.861,124.538,107.515z"/>
	<path fill-rule="evenodd" clip-rule="evenodd" fill="#242424" d="M88.705,116.289c0.353-0.315,0.956-0.188,1.229-0.676
		c-0.303-0.833-0.963-0.003-1.369-0.282c0.024-0.142,0.007-0.314,0.066-0.347c0.797-0.433,1.582-0.743,2.049,0.427
		c-0.489,0.278-0.226,0.826-0.433,1.206c-0.421-0.195-0.851-0.206-1.286-0.06C88.875,116.469,88.79,116.378,88.705,116.289z"/>
	<path fill-rule="evenodd" clip-rule="evenodd" fill="#242424" d="M98.9,109.432c-0.533,0.133-1.12,0.027-1.609,0.358
		c-0.443-0.217,0.042-0.932-0.567-1.06c0.736-1.189,0.83-1.231,1.804-0.811c0.051,0.117,0.058,0.236,0.023,0.358
		c-0.435,0.042-1.01-0.186-1.095,0.594c0.431,0.313,0.907,0.161,1.369,0.123C98.851,109.141,98.876,109.286,98.9,109.432z"/>
	<path fill-rule="evenodd" clip-rule="evenodd" fill="#242424" d="M124.538,107.515c-0.127,0.347,0.223,0.517,0.293,0.791
		c-0.501,0.754-0.315,1.504,0.013,2.254c-0.06,0.082-0.071,0.171-0.034,0.267c-0.18,0-0.36,0-0.615,0
		c-0.194-1.412-0.062-2.826-0.089-4.308C124.737,106.779,124.47,107.197,124.538,107.515z"/>
	<path fill-rule="evenodd" clip-rule="evenodd" fill="#242424" d="M90.377,108.319c0.034-0.205,0.165-0.312,0.358-0.356
		c0.762,0.895,0.27,1.888,0.333,3.146C90.299,110.088,90.914,109.068,90.377,108.319z"/>
	<path fill-rule="evenodd" clip-rule="evenodd" fill="#242424" d="M94.216,118.196c-0.234-1.293-0.188-2.231-0.057-3.541
		C94.737,115.956,94.654,116.896,94.216,118.196z"/>
	<path fill-rule="evenodd" clip-rule="evenodd" fill="#242424" d="M92.562,115.319c-0.615,0.748,0.034,1.771-0.584,2.652
		c-0.26-1.058-0.184-2.003-0.107-2.9c0.258-0.22,0.491-0.174,0.723-0.124C92.582,115.071,92.572,115.195,92.562,115.319z"/>
	<path fill-rule="evenodd" clip-rule="evenodd" fill="#242424" d="M84.449,117.594c-0.016-1.04-0.027-2.081-0.047-3.121
		c-0.006-0.317,0.014-0.611,0.394-0.712c0.038,0.203,0.075,0.406,0.113,0.609c0.013,0.41,0.025,0.819,0.038,1.229
		c-0.016,0.333-0.03,0.667-0.046,1c-0.02,0.34-0.041,0.68-0.062,1.02C84.71,117.61,84.58,117.602,84.449,117.594z"/>
	<path fill-rule="evenodd" clip-rule="evenodd" fill="#242424" d="M84.909,114.37c-0.038-0.203-0.075-0.406-0.113-0.609
		c0.658-0.226,1.312-0.434,1.863,0.227c0.062,0.068,0.071,0.143,0.028,0.224C86.086,114.162,85.472,113.99,84.909,114.37z"/>
	<path fill-rule="evenodd" clip-rule="evenodd" fill="#242424" d="M109.355,108.741c0.693-1.194,0.844-1.264,1.775-0.814
		c0.062,0.105,0.072,0.215,0.028,0.329c-0.506,0.059-1.218-0.177-1.097,0.771l-0.137,0.113
		C109.735,109.008,109.545,108.875,109.355,108.741z"/>
	<path fill-rule="evenodd" clip-rule="evenodd" fill="#242424" d="M104.999,117.784c-0.313-0.969-0.219-1.923-0.063-2.878
		C105.352,115.86,105.216,116.829,104.999,117.784z"/>
	<path fill-rule="evenodd" clip-rule="evenodd" fill="#242424" d="M86.688,114.211c0.043-0.081,0.033-0.155-0.028-0.224
		c1.043,0.46,1.109,0.771,0.369,1.752l0.025,0.028C86.729,115.297,87.189,114.641,86.688,114.211z"/>
	<path fill-rule="evenodd" clip-rule="evenodd" fill="#242424" d="M84.987,109.791c-0.178,0.005-0.356,0.011-0.533,0.016
		c0-1.03,0-2.062,0-3.092C85.192,107.685,84.771,108.779,84.987,109.791z"/>
	<path fill-rule="evenodd" clip-rule="evenodd" fill="#242424" d="M92.389,110.786c-0.169-1.013-0.363-2.011,0.041-3.215
		C92.765,108.795,92.693,109.801,92.389,110.786z"/>
	<path fill-rule="evenodd" clip-rule="evenodd" fill="#242424" d="M84.901,116.6c0.016-0.333,0.03-0.667,0.046-1
		c0.458,0.079,0.916,0.158,1.374,0.235c0.037,0.08,0.024,0.153-0.035,0.218C85.986,116.643,85.271,116.181,84.901,116.6z"/>
	<path fill-rule="evenodd" clip-rule="evenodd" fill="#242424" d="M98.551,108.278c0.034-0.122,0.027-0.241-0.023-0.358
		c0.964,0.523,1.075,0.978,0.373,1.512c-0.024-0.146-0.05-0.291-0.075-0.437C98.734,108.756,98.643,108.517,98.551,108.278z"/>
	<path fill-rule="evenodd" clip-rule="evenodd" fill="#242424" d="M118.717,110.761c-0.964-0.748-0.812-1.613-0.267-2.521
		c0.117,0.114,0.233,0.228,0.351,0.342c-0.378,0.676-0.092,1.287,0.187,1.898C118.896,110.573,118.807,110.668,118.717,110.761z"/>
	<path fill-rule="evenodd" clip-rule="evenodd" fill="#242424" d="M118.45,108.24c1.004-0.833,1.004-0.833,2.113-0.087
		c-0.104,0.11-0.21,0.221-0.315,0.331c-0.499-0.224-0.993-0.352-1.447,0.098C118.684,108.468,118.567,108.354,118.45,108.24z"/>
	<path fill-rule="evenodd" clip-rule="evenodd" fill="#242424" d="M97.532,110.541c0.44-0.01,0.882-0.019,1.324-0.027
		c0.046,0.05,0.094,0.1,0.143,0.147c-1.024,0.728-1.024,0.728-1.938-0.116C97.218,110.544,97.374,110.542,97.532,110.541z"/>
	<path fill-rule="evenodd" clip-rule="evenodd" fill="#242424" d="M97.532,110.541c-0.158,0.001-0.314,0.003-0.472,0.004
		c-0.561-0.521-0.421-1.173-0.337-1.814c0.609,0.128,0.124,0.843,0.567,1.06C97.371,110.04,97.452,110.29,97.532,110.541z"/>
	<path fill-rule="evenodd" clip-rule="evenodd" fill="#242424" d="M110.416,116.414c-0.024-0.12-0.05-0.24-0.075-0.36
		c0.008-0.216,0.017-0.431,0.025-0.646c0.006-0.123,0.012-0.244,0.018-0.367C111.263,115.904,111.266,116.037,110.416,116.414z"/>
	<path fill-rule="evenodd" clip-rule="evenodd" fill="#242424" d="M88.734,117.83c-0.84-0.693-0.841-0.759-0.029-1.541
		c0.085,0.089,0.17,0.18,0.256,0.269c0.007,0.314,0.016,0.629,0.022,0.943C88.9,117.61,88.817,117.721,88.734,117.83z"/>
	<path fill-rule="evenodd" clip-rule="evenodd" fill="#242424" d="M90.731,117.596c-0.593,0.693-1.292,0.495-1.997,0.234
		c0.083-0.109,0.166-0.22,0.249-0.329c0.522,0.2,0.896-0.101,1.277-0.377C90.34,117.359,90.436,117.578,90.731,117.596z"/>
	<path fill-rule="evenodd" clip-rule="evenodd" fill="#242424" d="M90.731,117.596c-0.296-0.018-0.392-0.236-0.471-0.472
		c-0.004-0.169-0.01-0.338-0.014-0.507c0.207-0.38-0.057-0.928,0.433-1.206C90.697,116.14,90.714,116.868,90.731,117.596z"/>
	<path fill-rule="evenodd" clip-rule="evenodd" fill="#242424" d="M124.81,110.826c-0.037-0.096-0.025-0.185,0.034-0.267
		c0.411-0.049,0.858,0.058,1.203-0.28c0.116,0.114,0.231,0.229,0.348,0.344C125.946,111.317,125.398,111.233,124.81,110.826z"/>
	<path fill-rule="evenodd" clip-rule="evenodd" fill="#242424" d="M94.358,110.202c0.339-0.128,0.678-0.256,1.017-0.384
		c-0.214,0.327-0.129,0.822-0.487,1.035C94.4,110.809,94.433,110.469,94.358,110.202z"/>
	<path fill-rule="evenodd" clip-rule="evenodd" fill="#242424" d="M111.497,109.423c-0.019-0.14-0.036-0.279-0.053-0.419
		c0.007-0.213,0.014-0.426,0.021-0.64l0.12-0.111C112.033,108.68,112.405,109.1,111.497,109.423z"/>
	<path fill-rule="evenodd" clip-rule="evenodd" fill="#242424" d="M103.619,114.923c-0.422-0.197-0.722-0.42-0.651-1.009
		C103.684,113.964,103.842,114.284,103.619,114.923z"/>
	<path fill-rule="evenodd" clip-rule="evenodd" fill="#242424" d="M111.082,106.346c0.088,0.055,0.231,0.092,0.257,0.169
		c0.079,0.231-0.126,0.308-0.286,0.352c-0.07,0.02-0.243-0.081-0.25-0.142C110.779,106.537,110.892,106.401,111.082,106.346z"/>
	<path fill-rule="evenodd" clip-rule="evenodd" fill="#242424" d="M92.562,115.319c0.011-0.124,0.021-0.248,0.031-0.372
		c0.174-0.47,0.424-0.174,0.688-0.232C93.177,115.275,92.863,115.289,92.562,115.319z"/>
	<path fill-rule="evenodd" clip-rule="evenodd" fill="#242424" d="M129.931,108.712c0.137,0.007,0.275,0.013,0.414,0.019
		c0.131,0.474,0.138,0.943-0.046,1.406c-0.163,0.009-0.325,0.018-0.488,0.025C130.095,109.699,130.05,109.209,129.931,108.712z"/>
	<path fill-rule="evenodd" clip-rule="evenodd" fill="#242424" d="M109.355,108.741c0.189,0.134,0.38,0.267,0.57,0.399
		c-0.046,0.357-0.282,0.537-0.597,0.645C109.337,109.438,109.346,109.09,109.355,108.741z"/>
	<path fill-rule="evenodd" clip-rule="evenodd" fill="#242424" d="M86.286,116.053c0.06-0.064,0.072-0.138,0.035-0.218
		c0.241-0.062,0.462-0.336,0.732-0.067l-0.025-0.028C86.923,116.18,86.588,116.077,86.286,116.053z"/>
	<path fill-rule="evenodd" clip-rule="evenodd" fill="#242424" d="M102.562,113.739c-0.189,0.139-0.381,0.251-0.621,0.019
		C102.142,113.431,102.352,113.571,102.562,113.739z"/>
	<path fill-rule="evenodd" clip-rule="evenodd" fill="#242424" d="M129.811,110.162c0.163-0.008,0.325-0.017,0.488-0.025
		c0.055,0.362-0.245,0.459-0.461,0.616c-0.088-0.097-0.175-0.193-0.262-0.291C129.654,110.362,129.732,110.263,129.811,110.162z"/>
	<path fill-rule="evenodd" clip-rule="evenodd" fill="#242424" d="M111.159,108.256c0.044-0.114,0.034-0.224-0.028-0.329
		c0.236-0.009,0.405,0.074,0.455,0.326l-0.12,0.111C111.333,108.414,111.231,108.377,111.159,108.256z"/>
	<path fill-rule="evenodd" clip-rule="evenodd" fill="#242424" d="M98.856,110.514c0.07-0.077,0.196-0.226,0.204-0.22
		c0.199,0.152,0.094,0.266-0.062,0.367C98.95,110.613,98.902,110.563,98.856,110.514z"/>
	<path fill-rule="evenodd" clip-rule="evenodd" fill="#242424" d="M84.449,117.594c0.131,0.008,0.261,0.017,0.391,0.025
		c-0.003,0.162-0.043,0.303-0.26,0.363C84.54,117.863,84.495,117.729,84.449,117.594z"/>
	<path fill-rule="evenodd" clip-rule="evenodd" fill="#FFFFFF" d="M8.484,73.995c0-2.495,0-4.882,0-7.278
		c1.306-0.39,4.857-0.403,5.917-0.013c1.68,0.619,2.685,2.244,2.521,4.078c-0.165,1.851-1.211,2.914-3.224,3.178
		C11.991,74.184,10.278,74.117,8.484,73.995z"/>
	<path fill-rule="evenodd" clip-rule="evenodd" fill="#FFFFFF" d="M13.648,49.538c0,0.738,0.004,1.477-0.001,2.214
		c-0.013,1.794-0.667,2.662-2.286,3.047c-1.484,0.353-2.863-0.244-3.607-1.563c-0.307-0.543-0.43-1.14-0.555-1.746
		c-0.368-1.792-0.271-3.557,0.347-5.264c0.72-1.99,2.797-2.778,4.671-1.82c0.874,0.447,1.446,1.121,1.429,2.178
		c-0.016,0.984-0.003,1.969-0.003,2.954C13.645,49.538,13.646,49.538,13.648,49.538z"/>
	<path fill-rule="evenodd" clip-rule="evenodd" fill="#FFFFFF" d="M85.608,49.356c0,0.861,0.01,1.722-0.002,2.583
		c-0.024,1.609-0.604,2.368-2.11,2.786c-1.471,0.409-2.783-0.042-3.58-1.19c-0.782-1.126-0.817-2.446-0.868-3.714
		c-0.049-1.213,0.011-2.46,0.472-3.63c0.771-1.959,2.8-2.733,4.683-1.77c0.873,0.448,1.458,1.087,1.406,2.169
		c-0.043,0.92-0.009,1.844-0.009,2.766C85.603,49.356,85.605,49.356,85.608,49.356z"/>
	<path fill-rule="evenodd" clip-rule="evenodd" fill="#FFFFFF" d="M33.969,78.388c0,1.108,0,2.136,0,3.236
		c-0.791,1.077-1.91,1.595-3.296,1.552c-1.208-0.037-1.996-0.604-2.214-1.568c-0.258-1.143,0.241-2.271,1.305-2.785
		C31.08,78.186,32.475,78.227,33.969,78.388z"/>
	<path fill-rule="evenodd" clip-rule="evenodd" fill="#FFFFFF" d="M103.436,21.511c0,0.866-0.053,1.479,0.011,2.081
		c0.133,1.247-0.52,1.967-1.553,2.438c-1.123,0.512-2.282,0.655-3.332-0.118c-1.317-0.969-0.92-3.141,0.688-3.969
		C100.522,21.288,101.867,21.554,103.436,21.511z"/>
	<path fill-rule="evenodd" clip-rule="evenodd" fill="#FFFFFF" d="M104.749,47.778c-2.08,0.029-4.174,0.054-6.283-0.017
		c0.235-2.595,1.516-3.901,3.498-3.771C103.966,44.123,104.946,45.386,104.749,47.778z"/>
	<path fill-rule="evenodd" clip-rule="evenodd" fill="#FFFFFF" d="M25.269,19.127c0.43-2.752,1.818-4.047,3.906-3.752
		c1.871,0.265,2.768,1.623,2.453,3.752C29.515,19.127,27.4,19.127,25.269,19.127z"/>
	<path fill-rule="evenodd" clip-rule="evenodd" fill="#FFFFFF" d="M32.838,47.792c-2.249,0.024-4.351,0.042-6.496-0.003
		c0.583-2.855,1.786-3.975,3.821-3.756C32.096,44.24,32.94,45.365,32.838,47.792z"/>
	<path fill-rule="evenodd" clip-rule="evenodd" fill="#FFFFFF" d="M116.62,47.817c0.371-2.783,1.604-3.964,3.672-3.802
		c1.938,0.153,2.811,1.234,2.845,3.704C121.015,47.905,118.887,47.748,116.62,47.817z"/>
	<path fill-rule="evenodd" clip-rule="evenodd" fill="#FFFFFF" d="M104.339,98.875c-0.539,0.345-1.088,0.166-1.609,0.224
		c-0.537-0.668-0.229-1.319-0.267-2.032c0.739-0.212,1.395-0.339,1.921,0.211C104.877,97.793,104.829,98.376,104.339,98.875z"/>
	<path fill-rule="evenodd" clip-rule="evenodd" fill="#FFFFFF" d="M140.314,108.771c-0.643,0.308-1.02,0.433-1.401-0.079
		C139.329,108.145,139.698,108.193,140.314,108.771z"/>
	<path fill-rule="evenodd" clip-rule="evenodd" fill="#FFFFFF" d="M110.366,115.407c-0.009,0.216-0.018,0.431-0.025,0.646
		c-0.438-0.093-0.966,0.246-1.34-0.29C109.303,115.027,109.854,115.286,110.366,115.407z"/>
	<path fill-rule="evenodd" clip-rule="evenodd" fill="#FFFFFF" d="M129.811,110.162c-0.078,0.101-0.156,0.2-0.234,0.3
		c-0.553,0.117-1.116,0.177-1.324-0.507c-0.157-0.515-0.221-1.096,0.258-1.489c0.527-0.436,0.986-0.077,1.421,0.246
		C130.05,109.209,130.095,109.699,129.811,110.162z"/>
	<path fill-rule="evenodd" clip-rule="evenodd" fill="#FFFFFF" d="M111.159,108.256c0.072,0.121,0.174,0.158,0.307,0.108
		c-0.008,0.214-0.015,0.427-0.021,0.64c-0.462,0.008-0.922,0.016-1.382,0.023C109.941,108.079,110.653,108.314,111.159,108.256z"/>
	<path fill-rule="evenodd" clip-rule="evenodd" fill="#FFFFFF" d="M118.801,108.582c0.454-0.449,0.948-0.321,1.447-0.098
		c0.265,1.821,0.199,1.924-1.261,1.996C118.709,109.869,118.423,109.258,118.801,108.582z"/>
	<path fill-rule="evenodd" clip-rule="evenodd" fill="#FFFFFF" d="M126.047,110.279c-0.345,0.338-0.792,0.231-1.203,0.28
		c-0.328-0.75-0.514-1.5-0.013-2.254C126.36,108.468,126.439,108.598,126.047,110.279z"/>
	<path fill-rule="evenodd" clip-rule="evenodd" fill="#FFFFFF" d="M90.247,116.617c0.004,0.169,0.01,0.338,0.014,0.507
		c-0.381,0.276-0.755,0.577-1.277,0.377c-0.007-0.314-0.016-0.629-0.022-0.943C89.396,116.411,89.826,116.422,90.247,116.617z"/>
	<path fill-rule="evenodd" clip-rule="evenodd" fill="#FFFFFF" d="M98.551,108.278c0.092,0.238,0.184,0.478,0.274,0.717
		c-0.462,0.038-0.938,0.19-1.369-0.123C97.541,108.093,98.116,108.32,98.551,108.278z"/>
	<path fill-rule="evenodd" clip-rule="evenodd" fill="#FFFFFF" d="M87.054,115.768c-0.271-0.269-0.491,0.006-0.732,0.067
		c-0.458-0.077-0.916-0.156-1.374-0.235c-0.013-0.41-0.025-0.819-0.038-1.229c0.562-0.38,1.177-0.208,1.778-0.159
		C87.189,114.641,86.729,115.297,87.054,115.768z"/>
</g>
</svg>
