<?xml version="1.0" encoding="utf-8"?>
<!-- Generator: Adobe Illustrator 16.0.0, SVG Export Plug-In . SVG Version: 6.00 Build 0)  -->
<!DOCTYPE svg PUBLIC "-//W3C//DTD SVG 1.1//EN" "http://www.w3.org/Graphics/SVG/1.1/DTD/svg11.dtd">
<svg version="1.1" id="Layer_1" xmlns="http://www.w3.org/2000/svg" xmlns:xlink="http://www.w3.org/1999/xlink" x="0px" y="0px"
	 width="96.673px" height="80px" viewBox="0 0 96.673 80" enable-background="new 0 0 96.673 80" xml:space="preserve">
<g>
	<path fill-rule="evenodd" clip-rule="evenodd" fill="#242424" d="M5.508,51.094c0,1.927,0,3.661,0,5.456
		c-1.02,0.233-2.009,0.088-2.981,0.102c-0.234-0.946-0.317-13.017-0.122-15.513c0.062-0.051,0.123-0.146,0.185-0.146
		c2.461,0.003,4.933-0.231,7.38,0.149c3.235,0.505,5.098,3.603,4.078,6.689c-0.629,1.903-2.439,3.157-4.792,3.253
		C8.053,51.135,6.847,51.094,5.508,51.094z M5.563,48.521c1.176,0.08,2.299,0.124,3.418-0.023c1.32-0.172,2.006-0.87,2.114-2.083
		c0.107-1.203-0.552-2.269-1.653-2.675c-0.694-0.256-3.023-0.247-3.879,0.008C5.563,45.32,5.563,46.885,5.563,48.521z"/>
	<path fill-rule="evenodd" clip-rule="evenodd" fill="#242424" d="M8.951,21.742c1.11,0,2.034,0,2.947,0
		c0.194,0.949,0.232,14.981,0.045,16.418c-0.861,0-1.732,0-2.59,0c-0.298-0.254-0.014-0.659-0.325-0.915
		c-0.066,0.025-0.209,0.033-0.276,0.108c-1.672,1.896-5.288,1.36-6.448-1.365c-1.067-2.509-1.1-5.044,0.168-7.486
		c1.17-2.255,4.247-2.831,6.02-1.241c0.086,0.077,0.201,0.121,0.459,0.273c0-1.053,0-1.999,0-2.944
		C8.951,23.668,8.951,22.746,8.951,21.742z M8.949,32.484c-0.001,0-0.002,0-0.003,0c0-0.645-0.009-1.292,0.001-1.937
		c0.011-0.694-0.364-1.135-0.937-1.429c-1.229-0.628-2.591-0.111-3.063,1.193c-0.405,1.12-0.469,2.277-0.227,3.452
		c0.082,0.397,0.163,0.789,0.364,1.145c0.488,0.866,1.392,1.257,2.366,1.025c1.062-0.252,1.49-0.821,1.499-1.998
		C8.952,33.452,8.949,32.968,8.949,32.484z"/>
	<path fill-rule="evenodd" clip-rule="evenodd" fill="#242424" d="M56.56,38.146c-0.277-0.238-0.103-0.628-0.313-0.913
		c-0.1,0.041-0.223,0.064-0.309,0.131c-2.422,1.905-5.377,1.224-6.55-1.61c-0.933-2.253-0.898-4.57,0.059-6.838
		c1.111-2.634,4.423-3.313,6.246-1.657c0.086,0.078,0.206,0.115,0.419,0.229c0.054-1.947,0.106-3.823,0.159-5.742
		c1.007,0,1.926,0,2.838,0c0.226,0.896,0.262,13.954,0.043,16.399C58.295,38.146,57.429,38.146,56.56,38.146z M56.136,32.364
		c-0.001,0-0.003,0-0.005,0c0-0.604-0.023-1.21,0.005-1.813c0.034-0.71-0.349-1.129-0.922-1.423
		c-1.234-0.632-2.564-0.125-3.07,1.161c-0.302,0.767-0.341,1.585-0.31,2.38c0.034,0.832,0.057,1.697,0.57,2.436
		c0.521,0.753,1.383,1.049,2.347,0.781c0.987-0.275,1.368-0.772,1.384-1.827C56.143,33.493,56.136,32.929,56.136,32.364z"/>
	<path fill-rule="evenodd" clip-rule="evenodd" fill="#242424" d="M25.838,56.639c-1.091,0-2.014,0-2.876,0
		c-0.401-0.148-0.298-0.602-0.646-0.787c-0.284,0.182-0.577,0.389-0.887,0.564c-2.058,1.168-4.933,0.194-5.69-1.918
		c-0.582-1.622,0.051-3.292,1.567-4.143c0.79-0.443,1.643-0.667,2.539-0.704c0.764-0.03,1.529-0.006,2.271-0.006
		c0.354-1.234,0.082-2.097-0.716-2.418c-1.07-0.433-2.077,0.014-2.641,1.189c-0.943,0-1.899,0-2.944,0
		c0.075-1.353,0.779-2.25,1.833-2.822c1.756-0.956,3.62-1.083,5.485-0.314c1.554,0.642,2.242,1.91,2.298,3.533
		c0.042,1.252,0.008,2.506,0.011,3.759C25.442,53.901,25.352,55.239,25.838,56.639z M22.274,51.401
		c-0.98-0.105-1.894-0.132-2.757,0.285c-0.697,0.337-1.025,1.077-0.855,1.827c0.143,0.632,0.659,1.004,1.451,1.027
		c0.909,0.028,1.643-0.311,2.162-1.017C22.274,52.803,22.274,52.129,22.274,51.401z"/>
	<path fill-rule="evenodd" clip-rule="evenodd" fill="#242424" d="M71.407,19.394c-1.132,0-2.053,0-2.936,0
		c-0.383-0.135-0.329-0.583-0.635-0.737c-0.271-0.02-0.441,0.178-0.636,0.309c-1.3,0.878-2.679,0.837-4.048,0.266
		c-1.447-0.604-2.232-1.945-2.092-3.371c0.159-1.614,1.181-2.793,2.756-3.143c0.829-0.185,1.669-0.302,2.526-0.291
		c0.437,0.006,0.885,0.068,1.303-0.071c0.313-1.244,0.046-2.016-0.801-2.363c-1.012-0.416-1.925,0.002-2.672,1.26
		c-0.888-0.006-1.806,0.074-2.761-0.059c-0.032-1.408,0.761-2.255,1.823-2.818c1.777-0.941,3.661-1.028,5.506-0.208
		c1.371,0.61,2.105,1.745,2.135,3.265c0.029,1.578,0.019,3.157,0.015,4.735C70.89,17.218,70.907,18.264,71.407,19.394z
		 M67.826,14.106c-1.028,0.028-1.91-0.147-2.745,0.283c-1.055,0.543-1.314,1.967-0.45,2.603c0.688,0.507,1.448,0.413,2.184,0.078
		c0.679-0.309,1.105-0.781,1.02-1.599C67.791,15.075,67.826,14.673,67.826,14.106z"/>
	<path fill-rule="evenodd" clip-rule="evenodd" fill="#242424" d="M71.763,33.353c-2.395,0-4.764,0-7.202,0
		c-0.113,1.108,0.407,1.804,1.199,2.234c1.552,0.845,2.96,0.339,4.277-0.702c0.66,0.307,0.932,0.977,1.489,1.41
		c-0.857,1.391-2.162,1.913-3.571,2.103c-3.226,0.437-6.542-1.342-6.68-5.561c-0.034-1.018,0.093-2.022,0.443-2.977
		c1.073-2.917,4.285-4.282,7.154-3.062c1.404,0.596,2.247,1.695,2.659,3.117C71.847,31,71.923,32.124,71.763,33.353z M68.688,31.33
		c0.13-1.569-0.514-2.397-1.826-2.483c-1.301-0.085-2.14,0.771-2.294,2.473C65.951,31.365,67.323,31.349,68.688,31.33z"/>
	<path fill-rule="evenodd" clip-rule="evenodd" fill="#242424" d="M5.581,10.492c2.037,0,4.007,0,5.905,0
		c0.368,0.444,0.219,0.867,0.238,1.257c0.018,0.36-0.037,0.724-0.067,1.202c-2.016,0-4.021,0-6.141,0c0,2.197,0,4.28,0,6.423
		c-1.073,0-2.027,0-2.979,0C2.294,18.53,2.214,6.032,2.433,4.029c1.022-0.185,8.962-0.187,10.043,0.007c0,0.703,0,1.417,0,2.206
		c-1.166,0.212-2.33,0.07-3.484,0.096C7.87,6.363,6.748,6.343,5.546,6.343C5.506,7.779,5.455,9.089,5.581,10.492z"/>
	<path fill-rule="evenodd" clip-rule="evenodd" fill="#242424" d="M23.876,14.604c-2.5,0-4.876,0-7.359,0
		c0.104,1.117,0.566,1.916,1.533,2.295c1.542,0.605,2.929,0.237,4.112-0.901c0.61,0.417,0.923,1.039,1.475,1.557
		c-1.326,1.688-3.054,2.179-4.983,2.051c-3.506-0.234-5.822-2.854-5.244-7.07c0.07-0.515,0.221-1.029,0.408-1.515
		c1.189-3.085,4.916-4.363,7.756-2.668c0.941,0.562,1.568,1.396,1.917,2.421C23.896,11.966,24.017,13.197,23.876,14.604z
		 M16.569,12.542c1.397,0,2.784,0,4.169,0c0.207-1.396-0.381-2.287-1.608-2.46C17.761,9.888,16.851,10.737,16.569,12.542z"/>
	<path fill-rule="evenodd" clip-rule="evenodd" fill="#242424" d="M24.613,33.383c-2.459,0-4.871,0-7.288,0
		c0.22,2.713,2.817,3.395,5.585,1.502c0.546,0.377,0.949,0.917,1.428,1.463c-0.795,1.303-2.062,1.799-3.417,2.042
		c-1.291,0.232-2.583,0.07-3.785-0.514c-1.336-0.648-2.283-1.664-2.732-3.089c-0.583-1.849-0.478-3.679,0.341-5.434
		c0.985-2.111,3.205-3.275,5.48-2.935c2.497,0.373,3.907,1.818,4.307,4.366C24.664,31.622,24.729,32.451,24.613,33.383z
		 M21.533,31.339c0.067-1.591-0.486-2.329-1.754-2.465c-1.334-0.144-2.124,0.59-2.506,2.463
		C18.68,31.366,20.058,31.354,21.533,31.339z"/>
	<path fill-rule="evenodd" clip-rule="evenodd" fill="#242424" d="M81.953,34.82c0.593,0.426,0.983,0.984,1.443,1.536
		c-0.727,1.179-1.846,1.684-3.082,1.962c-2.645,0.596-5.986-0.583-6.796-3.77c-0.479-1.885-0.384-3.76,0.558-5.531
		c1.218-2.292,3.645-2.832,5.312-2.61c2.206,0.292,3.707,1.729,4.151,3.982c0.187,0.946,0.271,1.907,0.119,2.979
		c-2.399,0-4.766,0-7.188,0c-0.044,1.164,0.487,1.874,1.374,2.292C79.387,36.386,80.745,35.942,81.953,34.82z M76.472,31.355
		c1.486-0.045,2.882,0.058,4.273-0.064c-0.022-1.62-0.595-2.329-1.865-2.429C77.524,28.756,76.715,29.53,76.472,31.355z"/>
	<path fill-rule="evenodd" clip-rule="evenodd" fill="#242424" d="M91.949,30.089c-0.634-1.367-1.502-1.803-2.696-1.397
		c-0.588,0.2-0.94,0.612-0.952,1.122c-0.014,0.583,0.364,0.9,0.838,1.065c0.646,0.224,1.317,0.375,1.98,0.544
		c0.746,0.189,1.487,0.383,2.155,0.782c2.03,1.211,2.166,3.889,0.259,5.27c-1.811,1.31-5.2,1.451-7.169-0.186
		c-0.781-0.65-1.247-1.464-1.339-2.555c0.921-0.306,1.829-0.055,2.685-0.148c0.686,1.458,1.504,1.917,2.906,1.693
		c0.722-0.115,1.229-0.543,1.296-1.091c0.065-0.547-0.199-0.945-0.957-1.229c-0.639-0.239-1.311-0.396-1.975-0.564
		c-0.788-0.201-1.549-0.46-2.226-0.925c-1.553-1.07-1.836-2.964-0.663-4.444c0.332-0.417,0.727-0.757,1.209-0.991
		c1.92-0.93,3.838-0.875,5.709,0.099c1.176,0.611,1.659,1.476,1.742,2.892C93.814,30.237,92.869,30.138,91.949,30.089z"/>
	<path fill-rule="evenodd" clip-rule="evenodd" fill="#242424" d="M25.941,34.632c0.991,0,1.869,0,2.727,0
		c0.632,1.397,1.358,1.825,2.748,1.66c0.372-0.045,0.711-0.162,0.991-0.412c0.543-0.482,0.521-1.251-0.078-1.662
		c-0.503-0.344-1.093-0.502-1.688-0.628c-0.908-0.192-1.803-0.426-2.626-0.881c-2.808-1.55-1.89-4.434-0.161-5.499
		c1.777-1.096,4.647-1.096,6.345,0.088c0.937,0.652,1.558,1.501,1.492,2.76c-0.954,0.193-1.876,0.007-2.843,0.112
		c-0.314-0.793-0.668-1.521-1.63-1.589c-0.283-0.021-0.559-0.05-0.841,0.026c-0.697,0.187-1.068,0.535-1.141,1.098
		c-0.071,0.551,0.21,0.896,0.939,1.229c0.598,0.272,1.246,0.333,1.87,0.49c0.785,0.199,1.563,0.417,2.257,0.849
		c1.894,1.179,2.017,3.766,0.251,5.127c-1.956,1.508-5.473,1.444-7.367-0.158C26.421,36.593,25.9,35.798,25.941,34.632z"/>
	<path fill-rule="evenodd" clip-rule="evenodd" fill="#242424" d="M50.906,48.503c-0.107,0.03-0.219,0.088-0.332,0.089
		c-0.808,0.008-1.615,0.004-2.463,0.004c-0.293-0.75-0.611-1.461-1.524-1.547c-0.16-0.016-0.322-0.048-0.482-0.046
		c-0.872,0.013-1.548,0.495-1.639,1.158c-0.077,0.562,0.307,1.017,1.198,1.302c0.688,0.219,1.402,0.361,2.104,0.546
		c0.588,0.155,1.162,0.345,1.692,0.649c1.945,1.122,2.167,3.672,0.444,5.113c-1.883,1.576-5.622,1.545-7.461-0.098
		c-0.735-0.658-1.27-1.456-1.222-2.57c0.904,0,1.786,0,2.745,0c0.246,0.522,0.423,1.16,1.088,1.437
		c0.544,0.226,1.097,0.252,1.667,0.206c0.334-0.027,0.632-0.156,0.892-0.354c0.639-0.484,0.637-1.273-0.021-1.731
		c-0.504-0.352-1.105-0.482-1.697-0.615c-0.788-0.177-1.575-0.366-2.306-0.72c-1.203-0.582-2.083-1.426-2.062-2.873
		c0.021-1.441,0.776-2.453,2.053-3.034c1.925-0.878,3.856-0.791,5.715,0.205C50.438,46.237,50.949,47.228,50.906,48.503z"/>
	<path fill-rule="evenodd" clip-rule="evenodd" fill="#242424" d="M25.021,10.746c0.977,0,1.856,0,2.715,0
		c0.618,1.419,1.778,1.982,3.106,1.548c0.541-0.177,0.918-0.479,0.965-1.103c0.043-0.587-0.289-0.896-0.752-1.124
		c-0.551-0.271-1.15-0.383-1.741-0.522c-0.791-0.187-1.568-0.409-2.283-0.807c-2.254-1.253-2.378-3.88-0.253-5.331
		c1.733-1.184,4.742-1.188,6.458,0.015c0.891,0.625,1.54,1.408,1.482,2.661c-0.951,0-1.868,0-2.86,0
		C31.748,6.05,31.72,5.873,31.65,5.734c-0.516-1.033-1.733-1.427-2.741-0.897c-0.447,0.235-0.644,0.618-0.639,1.085
		c0.004,0.428,0.218,0.761,0.623,0.967c0.514,0.261,1.069,0.371,1.621,0.495c0.909,0.205,1.818,0.413,2.641,0.877
		c2.067,1.166,2.264,3.643,0.42,5.132c-1.679,1.355-5.89,1.661-7.82-0.61C25.228,12.163,25.07,11.806,25.021,10.746z"/>
	<path fill-rule="evenodd" clip-rule="evenodd" fill="#242424" d="M56.882,7.915c1.089,0,2.046,0,3.164,0
		c-1.31,3.859-2.587,7.621-3.879,11.427c-0.979,0.201-1.936,0.043-2.939,0.095c-1.304-3.838-2.584-7.609-3.879-11.426
		c0.541-0.273,1.067-0.115,1.568-0.143c0.481-0.027,0.964-0.006,1.546-0.006c0.707,2.503,1.403,4.963,2.099,7.424
		c0.076,0.002,0.154,0.004,0.229,0.006C55.482,12.852,56.174,10.412,56.882,7.915z"/>
	<path fill-rule="evenodd" clip-rule="evenodd" fill="#242424" d="M35.866,7.898c0.651-0.03,1.122-0.051,1.637-0.076
		c0.277-0.921-0.036-1.864,0.198-2.798c0.949,0,1.866,0,2.827,0c0.361,0.879-0.023,1.834,0.251,2.723
		c0.581,0.274,1.217-0.031,1.855,0.246c0.102,0.602,0.051,1.232,0.026,1.874c-0.594,0.4-1.303-0.038-1.96,0.357
		c0,1.931-0.027,3.902,0.013,5.873c0.018,0.79,0.248,0.95,1.054,1.011c0.277,0.021,0.557,0.003,0.914,0.003
		c0.138,0.771,0.076,1.476,0.024,2.235c-0.835,0.245-1.654,0.356-2.506,0.22c-1.646-0.262-2.521-1.189-2.562-2.854
		c-0.046-1.777-0.019-3.555-0.022-5.333c-0.001-0.396,0-0.792,0-1.158c-0.553-0.292-1.056-0.104-1.577-0.228
		C35.757,9.37,36.009,8.688,35.866,7.898z"/>
	<path fill-rule="evenodd" clip-rule="evenodd" fill="#242424" d="M73.436,19.284c0-5.376,0-10.779,0-16.296
		c0.729,0,1.408-0.009,2.086,0.005c0.273,0.005,0.568-0.073,0.868,0.159c0,5.367,0,10.768,0,16.287
		c-0.739,0-1.419,0.008-2.097-0.004C74.019,19.43,73.725,19.514,73.436,19.284z"/>
	<path fill-rule="evenodd" clip-rule="evenodd" fill="#242424" d="M30.689,45.036c0.206,0.423,0.024,0.783,0.294,1.028
		c1.718-1.318,2.004-1.41,3.413-1.052c0.118,0.919,0.057,1.858,0.035,2.88c-0.612,0-1.133-0.036-1.645,0.008
		c-1.28,0.109-1.771,0.658-1.776,1.949c-0.007,1.818-0.001,3.637,0,5.456c0.001,0.399,0,0.798,0,1.263
		c-1.013,0.201-1.969,0.071-2.911,0.094c-0.258-0.877-0.348-8.285-0.141-11.532C28.852,44.939,29.762,45.088,30.689,45.036z"/>
	<path fill-rule="evenodd" clip-rule="evenodd" fill="#242424" d="M36.225,45.074c0.997,0,1.917,0,2.832,0
		c0.238,0.831,0.319,9.41,0.103,11.516c-0.931,0-1.876,0-2.831,0C36.107,55.727,36.025,47.928,36.225,45.074z"/>
	<path fill-rule="evenodd" clip-rule="evenodd" fill="#242424" d="M43.581,26.624c1.026,0,1.946,0,2.945,0c0,3.847,0,7.656,0,11.532
		c-0.962,0-1.913,0-2.945,0C43.581,34.35,43.581,30.54,43.581,26.624z"/>
	<path fill-rule="evenodd" clip-rule="evenodd" fill="#242424" d="M44.679,19.427c0-3.9,0-7.649,0-11.449
		c0.972-0.257,1.926-0.04,3.034-0.143c0.02,3.878,0.004,7.652,0.013,11.515C46.659,19.497,45.686,19.414,44.679,19.427z"/>
	<path fill-rule="evenodd" clip-rule="evenodd" fill="#242424" d="M34.959,16.952c0.152,0.824,0.122,1.611,0.013,2.447
		c-3.069,0-6.089,0-9.202,0c-0.146-0.796-0.078-1.584-0.035-2.447C28.814,16.952,31.864,16.952,34.959,16.952z"/>
	<path fill-rule="evenodd" clip-rule="evenodd" fill="#242424" d="M55.343,62.873c0.382-0.254,0.688-0.146,1.033-0.112
		c0.26,1.247-0.097,2.519,0.226,3.654c0.345,0.326,0.656,0.302,1.115,0.174c0.625-1.135,0.069-2.468,0.34-3.729
		c0.297-0.284,0.642-0.104,1.017-0.101c0.112,1.148,0.107,2.238-0.005,3.316c-0.105,1.028-0.861,1.56-1.98,1.505
		c-1.055-0.052-1.698-0.62-1.736-1.628C55.312,64.91,55.343,63.866,55.343,62.873z"/>
	<path fill-rule="evenodd" clip-rule="evenodd" fill="#242424" d="M63.094,62.326c0.185-0.677-0.218-0.833-0.596-0.981
		c-0.414-0.161-0.845-0.28-1.203-0.557c-0.863-0.665-0.779-1.644,0.183-2.131c1.178-0.598,2.333-0.179,2.861,1.093
		c-0.465,0.171-0.872,0.312-1.263-0.186c-0.308-0.391-0.708-0.234-1.042-0.131c-0.254,0.454-0.067,0.688,0.265,0.838
		c0.403,0.182,0.838,0.3,1.225,0.508c0.677,0.366,0.947,0.877,0.813,1.47c-0.143,0.634-0.619,0.91-1.199,1.054
		c-1.195,0.297-2.12-0.202-2.552-1.373c0.275-0.26,0.604-0.143,0.99-0.133C61.888,62.398,62.344,62.773,63.094,62.326z"/>
	<path fill-rule="evenodd" clip-rule="evenodd" fill="#242424" d="M74.819,64.172c-0.225,0.244-0.511,0.158-0.857,0.143
		c-0.272-0.429-0.55-1.024-1.257-0.77c-0.683,0.247-0.604,0.879-0.612,1.441c-0.004,0.283,0.002,0.566,0.026,0.849
		c0.035,0.384,0.168,0.726,0.591,0.815c0.374,0.08,0.729,0.036,0.964-0.328c0.085-0.13,0.175-0.258,0.242-0.357
		c0.327,0,0.6,0,0.854,0c0.036,0.119,0.095,0.202,0.074,0.257c-0.362,0.987-0.989,1.405-2.01,1.354
		c-0.918-0.045-1.613-0.581-1.84-1.485c-0.157-0.634-0.151-1.295-0.015-1.928c0.209-0.975,1.047-1.576,2.045-1.551
		C74.031,62.639,74.575,63.109,74.819,64.172z"/>
	<path fill-rule="evenodd" clip-rule="evenodd" fill="#242424" d="M67.096,67.384c-0.348,0.162-0.646,0.207-1.002,0.012
		c0-1.499,0-3.015,0-4.631c0.799-0.1,1.594-0.103,2.376,0.005c0.799,0.11,1.32,0.733,1.346,1.477
		c0.026,0.752-0.439,1.346-1.265,1.541c-0.385,0.09-0.789,0.097-1.206,0.144C67.017,66.345,67.315,66.869,67.096,67.384z
		 M68.419,64.836c0.321-0.327,0.353-0.709,0.028-1.048c-0.344-0.36-0.773-0.277-1.259-0.138c0.024,0.467-0.178,0.895,0.175,1.332
		C67.705,64.945,68.064,65.062,68.419,64.836z"/>
	<path fill-rule="evenodd" clip-rule="evenodd" fill="#242424" d="M67.062,21.743c1.058,0,2.057,0,3.246,0
		c-1.026,1.125-1.945,2.134-2.861,3.138c-0.777,0.179-1.53,0.092-2.51,0.114C65.725,23.79,66.396,22.763,67.062,21.743z"/>
	<path fill-rule="evenodd" clip-rule="evenodd" fill="#242424" d="M45.103,25.101c-1.058,0.019-1.747-0.594-1.757-1.557
		c-0.008-0.889,0.672-1.548,1.625-1.581c1.002-0.034,1.793,0.619,1.84,1.518C46.857,24.392,46.129,25.083,45.103,25.101z"/>
	<path fill-rule="evenodd" clip-rule="evenodd" fill="#242424" d="M37.65,40.411c1.03-0.016,1.725,0.626,1.723,1.594
		c-0.002,0.924-0.642,1.544-1.618,1.565c-1.04,0.024-1.773-0.596-1.808-1.523C35.915,41.139,36.657,40.426,37.65,40.411z"/>
	<path fill-rule="evenodd" clip-rule="evenodd" fill="#242424" d="M46.172,3.259c0.974,0.005,1.676,0.642,1.684,1.526
		c0.01,0.924-0.752,1.594-1.773,1.56c-0.973-0.032-1.654-0.692-1.636-1.584C44.465,3.905,45.212,3.255,46.172,3.259z"/>
	<path fill-rule="evenodd" clip-rule="evenodd" fill="#242424" d="M63.991,64.784c0.237,0.281,0.125,0.53,0.067,0.826
		c-1.087,0-2.116,0-3.131,0c-0.273-0.242-0.234-0.499-0.082-0.826C61.887,64.784,62.95,64.784,63.991,64.784z"/>
	<path fill-rule="evenodd" clip-rule="evenodd" fill="#242424" d="M76.513,72.004c-0.151-0.41-0.569-0.396-0.868-0.567
		c-0.597-0.341-0.785-0.743-0.553-1.159c0.234-0.424,0.878-0.593,1.388-0.337c0.242,0.122,0.515,0.26,0.467,0.71
		c-0.475,0.008-0.883-0.797-1.406-0.189c-0.067,0.252-0.006,0.457,0.267,0.568c0.223,0.092,0.447,0.18,0.667,0.277
		c0.31,0.141,0.536,0.342,0.535,0.723c-0.003,0.437-0.271,0.628-0.635,0.773c-0.419,0.165-0.771,0.134-1.086-0.279
		C75.674,72.271,76.416,72.838,76.513,72.004z"/>
	<path fill-rule="evenodd" clip-rule="evenodd" fill="#242424" d="M92.333,71.713c-0.4,0.328-0.896-0.033-1.185,0.366
		c0.146,0.746,0.729,0.171,1.142,0.405c-0.324,0.358-0.646,0.543-1.11,0.314c-0.479-0.236-0.693-0.737-0.58-1.338
		c0.094-0.486,0.383-0.806,0.869-0.885C92.006,70.487,92.26,70.833,92.333,71.713z M92.01,71.326
		c-0.405-0.38-0.646-0.412-0.92-0.053C91.341,71.609,91.588,71.527,92.01,71.326z"/>
	<path fill-rule="evenodd" clip-rule="evenodd" fill="#242424" d="M64.265,75.76c-0.448,0.14-0.728-0.489-1.086,0.012
		c0.191,0.53,0.994,0.352,1.143,0.935c-0.497,0.89-0.968,0.957-1.666,0.156c0.41-0.11,0.838,0.581,1.171-0.047
		c-0.211-0.529-1.029-0.288-1.168-0.899C63.145,74.947,63.537,74.893,64.265,75.76z"/>
	<path fill-rule="evenodd" clip-rule="evenodd" fill="#242424" d="M88.512,72.648c-0.303-0.611-0.08-1.235-0.188-1.83
		c1.709-0.473,2.046-0.07,1.638,1.842c-0.282-0.416-0.282-0.416-0.374-1.463C88.88,71.031,88.88,71.031,88.512,72.648z"/>
	<path fill-rule="evenodd" clip-rule="evenodd" fill="#242424" d="M55.729,71.994c0.266,0.397,0.564,0.689,1.125,0.336
		c0.454-0.721-0.04-1.621,0.291-2.395c0.293-0.059,0.377,0.126,0.381,0.327c0.014,0.521,0.038,1.047-0.015,1.563
		c-0.061,0.604-0.446,0.988-0.97,1.078c-0.518,0.088-0.855-0.173-1.161-0.899C55.495,72.001,55.612,71.998,55.729,71.994z"/>
	<path fill-rule="evenodd" clip-rule="evenodd" fill="#242424" d="M72.404,76.337c-0.284,0.168-0.653-0.05-0.921,0.206
		c0.021,0.834,0.691,0.451,1.302,0.486c-0.562,0.484-0.984,0.344-1.375,0.289c-0.728-1.078-0.746-1.43,0.26-2.082
		c0.358-0.232,0.02-0.793,0.552-0.762c-0.086,0.396-0.06,0.551,0.161,0.961c-0.004,0.081-0.008,0.16-0.012,0.241
		c-0.337-0.079-0.697-0.249-0.896,0.234c0.245,0.352,0.592,0.129,0.878,0.189C72.371,76.18,72.388,76.259,72.404,76.337z"/>
	<path fill-rule="evenodd" clip-rule="evenodd" fill="#242424" d="M67.08,72.339c0.4-0.316,0.817,0.577,1.158-0.103
		c-0.195-0.531-0.999-0.311-1.142-0.931c0.479-0.906,0.616-0.944,1.408-0.349c-0.237,0.325-0.703-0.221-0.936,0.299
		c0.259,0.4,0.933,0.239,1.131,0.741c0.173,0.516-0.151,0.74-0.567,0.859C67.649,72.994,67.32,72.769,67.08,72.339z"/>
	<path fill-rule="evenodd" clip-rule="evenodd" fill="#242424" d="M87.763,72.924c-0.587-0.688-0.16-1.355-0.64-1.839
		c-0.124-0.092-0.312-0.09-0.516,0.015c-0.403,0.445,0.068,1.1-0.331,1.579c-0.312-0.625-0.312-0.625-0.185-1.841
		c0.444-0.106,0.929-0.551,1.384-0.076C88.012,71.322,87.658,72.029,87.763,72.924z"/>
	<path fill-rule="evenodd" clip-rule="evenodd" fill="#242424" d="M85.139,72.625c-0.742,0.346-1.126,0.25-1.429-0.357
		c-0.294-0.593-0.131-1.241,0.394-1.564c0.521-0.322,0.855-0.176,1.368,0.596c-0.091-0.004-0.182-0.008-0.271-0.012
		c-0.285-0.213-0.586-0.447-0.933-0.162c-0.312,0.258-0.271,0.639-0.168,0.977c0.137,0.448,0.506,0.409,0.868,0.333
		C85.024,72.498,85.081,72.562,85.139,72.625z"/>
	<path fill-rule="evenodd" clip-rule="evenodd" fill="#242424" d="M66.497,74.733c-0.347,1.412-0.269,1.804,0.47,2.354
		c0.437,0.067,0.55-0.453,0.922-0.498c0.08,0.094,0.159,0.206,0.093,0.321c-0.28,0.486-0.749,0.627-1.249,0.533
		c-0.478-0.091-0.711-0.496-0.849-0.942C65.633,75.693,65.818,75.159,66.497,74.733z"/>
	<path fill-rule="evenodd" clip-rule="evenodd" fill="#242424" d="M71.236,72.875c-0.586-0.022-0.832-0.264-0.777-0.529
		c0.15-0.732-0.578-1.521,0.163-2.241c0.322,0.221,0.567,0.479,0.421,0.87C70.812,71.592,70.854,72.182,71.236,72.875z"/>
	<path fill-rule="evenodd" clip-rule="evenodd" fill="#242424" d="M69.983,74.637c0.755,0.893-0.218,1.87,0.491,2.592
		c-0.403,0.253-0.625,0.037-0.628-0.17C69.837,76.295,69.232,75.496,69.983,74.637z"/>
	<path fill-rule="evenodd" clip-rule="evenodd" fill="#242424" d="M59.264,71.029c-0.198,0-0.395,0-0.572,0
		c-0.419,0.512,0.049,1.207-0.393,1.727c-0.355-0.715-0.355-0.715-0.19-2.107c0.453,0.184,0.94-0.391,1.39,0.146
		C59.371,70.825,59.286,70.895,59.264,71.029z"/>
	<path fill-rule="evenodd" clip-rule="evenodd" fill="#242424" d="M69.524,72.693c-0.474-0.926-0.181-1.852-0.063-2.777
		C69.694,70.836,69.869,71.756,69.524,72.693z"/>
	<path fill-rule="evenodd" clip-rule="evenodd" fill="#242424" d="M73.112,71.752c-0.224,0.31-0.638-0.017-0.873,0.256
		c0.279,0.486,0.279,0.486,1.028,0.408c-0.688,0.752-1.148,0.627-1.577-0.426c0.206-0.07,0.362-0.188,0.392-0.422l0.09-0.075
		c0.302-0.005,0.604-0.011,0.906-0.015C73.089,71.569,73.1,71.661,73.112,71.752z"/>
	<path fill-rule="evenodd" clip-rule="evenodd" fill="#242424" d="M79.982,72.792c-0.141-0.747-0.086-1.384-0.069-2.013
		c0.316-0.203,0.611-0.227,0.949-0.069c-0.115,0.368-0.606,0.503-0.545,0.994C80.357,72.021,80.491,72.43,79.982,72.792z"/>
	<path fill-rule="evenodd" clip-rule="evenodd" fill="#242424" d="M65.878,72.934c-0.432-0.842-0.238-1.479-0.162-2.104
		c0.317-0.182,0.595-0.297,0.901-0.18c0.097,0.2,0.097,0.2-0.446,0.555C65.979,71.686,66.225,72.232,65.878,72.934z"/>
	<path fill-rule="evenodd" clip-rule="evenodd" fill="#242424" d="M61.874,72.264c-0.274-0.453-0.584-0.898-0.418-1.513
		c0.437,0.257,0.378,0.733,0.66,1.071c0.448-0.257,0.202-0.929,0.725-1.182c0.271,0.549-0.127,0.939-0.3,1.371
		C62.318,72.096,62.096,72.18,61.874,72.264z"/>
	<path fill-rule="evenodd" clip-rule="evenodd" fill="#242424" d="M79.058,70.92c0.452,0.738,0.479,1.244,0.015,1.656
		c-0.368,0.325-0.797,0.541-1.226,0.054c0.059-0.061,0.118-0.123,0.178-0.184c0.957-0.048,1-0.115,0.826-1.309
		C78.92,71.064,78.989,70.992,79.058,70.92z"/>
	<path fill-rule="evenodd" clip-rule="evenodd" fill="#242424" d="M81.664,70.502c0.076,0.021,0.15,0.054,0.229,0.062
		c1.354,0.151,1.626,0.694,0.988,1.976c-0.075-0.075-0.151-0.151-0.228-0.226c0.258-1.103,0.205-1.188-0.797-1.294
		C81.811,70.84,81.58,70.729,81.664,70.502z"/>
	<path fill-rule="evenodd" clip-rule="evenodd" fill="#242424" d="M58.167,76.256c0.231-0.207,0.627-0.124,0.806-0.444
		c-0.198-0.546-0.631-0.001-0.897-0.185c0.016-0.093,0.004-0.206,0.043-0.228c0.522-0.284,1.037-0.487,1.344,0.28
		c-0.321,0.182-0.147,0.541-0.284,0.791c-0.275-0.129-0.558-0.136-0.844-0.039C58.278,76.373,58.223,76.313,58.167,76.256z"/>
	<path fill-rule="evenodd" clip-rule="evenodd" fill="#242424" d="M64.853,71.759c-0.351,0.087-0.734,0.018-1.056,0.235
		c-0.291-0.143,0.027-0.611-0.372-0.695c0.483-0.78,0.545-0.808,1.183-0.531c0.034,0.076,0.038,0.154,0.016,0.234
		c-0.285,0.027-0.662-0.121-0.718,0.39c0.282,0.205,0.595,0.105,0.897,0.08C64.819,71.568,64.837,71.663,64.853,71.759z"/>
	<path fill-rule="evenodd" clip-rule="evenodd" fill="#242424" d="M81.664,70.502c-0.084,0.227,0.146,0.338,0.192,0.519
		c-0.329,0.494-0.207,0.985,0.008,1.478c-0.039,0.054-0.046,0.112-0.022,0.175c-0.117,0-0.236,0-0.403,0
		c-0.128-0.926-0.041-1.854-0.058-2.824C81.795,70.02,81.619,70.293,81.664,70.502z"/>
	<path fill-rule="evenodd" clip-rule="evenodd" fill="#242424" d="M59.264,71.029c0.022-0.135,0.107-0.204,0.234-0.234
		c0.5,0.587,0.177,1.238,0.219,2.063C59.212,72.189,59.615,71.521,59.264,71.029z"/>
	<path fill-rule="evenodd" clip-rule="evenodd" fill="#242424" d="M61.78,77.506c-0.153-0.848-0.123-1.464-0.037-2.322
		C62.123,76.037,62.068,76.653,61.78,77.506z"/>
	<path fill-rule="evenodd" clip-rule="evenodd" fill="#242424" d="M60.696,75.619c-0.404,0.49,0.021,1.162-0.384,1.739
		c-0.17-0.693-0.12-1.313-0.07-1.902c0.17-0.144,0.322-0.113,0.475-0.081C60.709,75.456,60.703,75.538,60.696,75.619z"/>
	<path fill-rule="evenodd" clip-rule="evenodd" fill="#242424" d="M55.376,77.111c-0.011-0.683-0.018-1.365-0.03-2.047
		c-0.004-0.208,0.009-0.401,0.258-0.468c0.024,0.134,0.05,0.267,0.074,0.4c0.008,0.269,0.017,0.537,0.025,0.806
		c-0.011,0.219-0.021,0.438-0.03,0.656c-0.013,0.223-0.026,0.445-0.041,0.668C55.547,77.122,55.462,77.115,55.376,77.111z"/>
	<path fill-rule="evenodd" clip-rule="evenodd" fill="#242424" d="M55.678,74.997c-0.024-0.134-0.05-0.267-0.074-0.4
		c0.432-0.147,0.86-0.284,1.222,0.149c0.04,0.045,0.047,0.093,0.019,0.146C56.449,74.86,56.047,74.748,55.678,74.997z"/>
	<path fill-rule="evenodd" clip-rule="evenodd" fill="#242424" d="M71.708,71.306c0.454-0.783,0.554-0.828,1.165-0.534
		c0.04,0.069,0.047,0.141,0.018,0.216c-0.331,0.038-0.799-0.115-0.719,0.506l-0.09,0.075C71.957,71.48,71.832,71.394,71.708,71.306z
		"/>
	<path fill-rule="evenodd" clip-rule="evenodd" fill="#242424" d="M68.852,77.235c-0.205-0.636-0.144-1.261-0.041-1.887
		C69.083,75.975,68.994,76.609,68.852,77.235z"/>
	<path fill-rule="evenodd" clip-rule="evenodd" fill="#242424" d="M56.844,74.893c0.028-0.054,0.021-0.102-0.019-0.146
		c0.685,0.302,0.728,0.505,0.242,1.148l0.017,0.019C56.871,75.604,57.173,75.174,56.844,74.893z"/>
	<path fill-rule="evenodd" clip-rule="evenodd" fill="#242424" d="M55.729,71.994c-0.116,0.004-0.233,0.007-0.349,0.011
		c0-0.676,0-1.353,0-2.028C55.863,70.612,55.587,71.33,55.729,71.994z"/>
	<path fill-rule="evenodd" clip-rule="evenodd" fill="#242424" d="M60.582,72.646c-0.11-0.664-0.237-1.318,0.027-2.108
		C60.829,71.341,60.782,72.001,60.582,72.646z"/>
	<path fill-rule="evenodd" clip-rule="evenodd" fill="#242424" d="M55.673,76.459c0.01-0.219,0.02-0.438,0.03-0.656
		c0.3,0.052,0.6,0.104,0.9,0.154c0.024,0.053,0.016,0.101-0.023,0.143C56.385,76.486,55.915,76.185,55.673,76.459z"/>
	<path fill-rule="evenodd" clip-rule="evenodd" fill="#242424" d="M64.623,71.002c0.022-0.08,0.019-0.158-0.016-0.234
		c0.633,0.343,0.705,0.641,0.245,0.991c-0.016-0.096-0.033-0.19-0.05-0.287C64.744,71.315,64.684,71.158,64.623,71.002z"/>
	<path fill-rule="evenodd" clip-rule="evenodd" fill="#242424" d="M77.847,72.63c-0.632-0.49-0.532-1.058-0.175-1.652
		c0.076,0.075,0.153,0.149,0.229,0.224c-0.247,0.443-0.06,0.844,0.123,1.245C77.965,72.507,77.905,72.569,77.847,72.63z"/>
	<path fill-rule="evenodd" clip-rule="evenodd" fill="#242424" d="M77.672,70.978c0.658-0.546,0.658-0.546,1.386-0.058
		c-0.068,0.072-0.138,0.145-0.207,0.218c-0.327-0.147-0.651-0.23-0.949,0.063C77.825,71.127,77.748,71.053,77.672,70.978z"/>
	<path fill-rule="evenodd" clip-rule="evenodd" fill="#242424" d="M63.955,72.486c0.289-0.007,0.578-0.013,0.868-0.019
		c0.03,0.033,0.062,0.065,0.094,0.097c-0.672,0.477-0.672,0.477-1.271-0.076C63.749,72.487,63.852,72.486,63.955,72.486z"/>
	<path fill-rule="evenodd" clip-rule="evenodd" fill="#242424" d="M63.955,72.486c-0.104,0-0.206,0.001-0.309,0.002
		c-0.368-0.342-0.277-0.769-0.222-1.189c0.399,0.084,0.081,0.553,0.372,0.695C63.85,72.157,63.902,72.321,63.955,72.486z"/>
	<path fill-rule="evenodd" clip-rule="evenodd" fill="#242424" d="M72.404,76.337c-0.017-0.078-0.033-0.157-0.051-0.236
		c0.006-0.142,0.012-0.282,0.018-0.424c0.004-0.081,0.008-0.16,0.012-0.241C72.959,76.003,72.961,76.09,72.404,76.337z"/>
	<path fill-rule="evenodd" clip-rule="evenodd" fill="#242424" d="M58.186,77.266c-0.551-0.455-0.551-0.498-0.019-1.01
		c0.056,0.058,0.111,0.117,0.167,0.176c0.005,0.206,0.011,0.412,0.016,0.618C58.295,77.122,58.24,77.193,58.186,77.266z"/>
	<path fill-rule="evenodd" clip-rule="evenodd" fill="#242424" d="M59.495,77.111c-0.388,0.455-0.847,0.325-1.31,0.154
		c0.055-0.072,0.109-0.144,0.164-0.216c0.343,0.132,0.588-0.066,0.837-0.247C59.239,76.957,59.302,77.101,59.495,77.111z"/>
	<path fill-rule="evenodd" clip-rule="evenodd" fill="#242424" d="M59.495,77.111c-0.193-0.011-0.256-0.154-0.309-0.309
		c-0.002-0.11-0.006-0.222-0.009-0.332c0.137-0.25-0.037-0.609,0.284-0.791C59.474,76.157,59.484,76.635,59.495,77.111z"/>
	<path fill-rule="evenodd" clip-rule="evenodd" fill="#242424" d="M81.842,72.673c-0.023-0.062-0.017-0.121,0.022-0.175
		c0.27-0.031,0.563,0.038,0.789-0.184c0.076,0.074,0.152,0.15,0.228,0.226C82.588,72.995,82.229,72.939,81.842,72.673z"/>
	<path fill-rule="evenodd" clip-rule="evenodd" fill="#242424" d="M61.874,72.264c0.222-0.084,0.444-0.168,0.667-0.252
		c-0.141,0.215-0.085,0.54-0.32,0.679C61.901,72.662,61.923,72.438,61.874,72.264z"/>
	<path fill-rule="evenodd" clip-rule="evenodd" fill="#242424" d="M73.112,71.752c-0.013-0.091-0.023-0.183-0.034-0.273
		c0.004-0.141,0.009-0.28,0.014-0.42l0.079-0.073C73.464,71.266,73.708,71.541,73.112,71.752z"/>
	<path fill-rule="evenodd" clip-rule="evenodd" fill="#242424" d="M67.947,75.359c-0.277-0.13-0.474-0.275-0.428-0.662
		C67.989,74.73,68.093,74.94,67.947,75.359z"/>
	<path fill-rule="evenodd" clip-rule="evenodd" fill="#242424" d="M72.841,69.735c0.057,0.036,0.151,0.06,0.168,0.11
		c0.052,0.152-0.083,0.202-0.188,0.23c-0.046,0.013-0.159-0.053-0.164-0.093C72.642,69.86,72.716,69.771,72.841,69.735z"/>
	<path fill-rule="evenodd" clip-rule="evenodd" fill="#242424" d="M60.696,75.619c0.007-0.081,0.013-0.163,0.021-0.244
		c0.113-0.308,0.277-0.114,0.451-0.152C61.1,75.591,60.894,75.6,60.696,75.619z"/>
	<path fill-rule="evenodd" clip-rule="evenodd" fill="#242424" d="M85.2,71.287c0.09,0.004,0.181,0.008,0.271,0.012
		c0.085,0.311,0.09,0.618-0.03,0.922c-0.107,0.006-0.213,0.012-0.32,0.017C85.308,71.934,85.278,71.612,85.2,71.287z"/>
	<path fill-rule="evenodd" clip-rule="evenodd" fill="#242424" d="M71.708,71.306c0.124,0.088,0.249,0.175,0.374,0.263
		c-0.029,0.234-0.186,0.352-0.392,0.422C71.696,71.763,71.701,71.534,71.708,71.306z"/>
	<path fill-rule="evenodd" clip-rule="evenodd" fill="#242424" d="M56.58,76.1c0.039-0.042,0.048-0.09,0.023-0.143
		c0.158-0.04,0.304-0.221,0.48-0.044l-0.017-0.019C56.998,76.184,56.779,76.116,56.58,76.1z"/>
	<path fill-rule="evenodd" clip-rule="evenodd" fill="#242424" d="M67.254,74.583c-0.124,0.091-0.25,0.165-0.408,0.013
		C66.978,74.381,67.115,74.473,67.254,74.583z"/>
	<path fill-rule="evenodd" clip-rule="evenodd" fill="#242424" d="M85.121,72.237c0.107-0.005,0.213-0.011,0.32-0.017
		c0.036,0.238-0.161,0.301-0.303,0.404c-0.058-0.063-0.114-0.127-0.171-0.19C85.019,72.369,85.07,72.303,85.121,72.237z"/>
	<path fill-rule="evenodd" clip-rule="evenodd" fill="#242424" d="M72.891,70.987c0.029-0.075,0.022-0.146-0.018-0.216
		c0.154-0.006,0.266,0.049,0.298,0.214l-0.079,0.073C73.005,71.092,72.938,71.067,72.891,70.987z"/>
	<path fill-rule="evenodd" clip-rule="evenodd" fill="#242424" d="M64.823,72.468c0.046-0.051,0.129-0.147,0.134-0.144
		c0.131,0.1,0.062,0.174-0.04,0.24C64.885,72.533,64.854,72.501,64.823,72.468z"/>
	<path fill-rule="evenodd" clip-rule="evenodd" fill="#242424" d="M55.376,77.111c0.086,0.004,0.171,0.011,0.256,0.016
		c-0.001,0.106-0.028,0.199-0.17,0.238C55.436,77.287,55.406,77.199,55.376,77.111z"/>
	<g>
		<path fill-rule="evenodd" clip-rule="evenodd" fill="#FFFFFF" d="M0.136,59.447c-0.173-0.511-0.132-1.04-0.132-1.564
			C0.007,39.005,0.012,20.128,0.017,1.25c0-0.358,0-0.717,0-1.205C8.955,0.03,17.81,0.015,26.663,0
			c0.443,0.022,0.886,0.062,1.329,0.062c22.396-0.007,44.792-0.018,67.188-0.027c0.477,0,0.952,0,1.492,0
			c0,26.704,0,53.294,0,79.966c-15.192,0-30.355,0-45.656,0c0-6.806,0-13.622,0-20.408c-0.556-0.234-1.006-0.145-1.44-0.145
			c-15.673-0.014-31.346-0.022-47.02-0.021c-0.384,0-0.806-0.168-1.157,0.146c-0.241-0.004-0.483-0.006-0.724-0.008
			C0.532,59.355,0.326,59.442,0.136,59.447z M85.441,72.221c0.12-0.304,0.115-0.611,0.03-0.922
			c-0.513-0.771-0.848-0.918-1.368-0.596c-0.524,0.323-0.688,0.972-0.394,1.564c0.303,0.607,0.687,0.703,1.429,0.357
			C85.28,72.521,85.478,72.459,85.441,72.221z M73.171,70.985c-0.032-0.165-0.144-0.22-0.298-0.214
			c-0.611-0.294-0.711-0.249-1.165,0.534c-0.007,0.229-0.012,0.457-0.018,0.685c0.429,1.053,0.89,1.178,1.577,0.426
			c-0.749,0.078-0.749,0.078-1.028-0.408c0.235-0.272,0.649,0.054,0.873-0.256C73.708,71.541,73.464,71.266,73.171,70.985z
			 M59.495,77.111c-0.011-0.477-0.021-0.954-0.033-1.432c-0.307-0.768-0.821-0.564-1.344-0.28c-0.039,0.021-0.027,0.135-0.043,0.228
			c0.267,0.184,0.699-0.361,0.897,0.185c-0.179,0.32-0.574,0.237-0.806,0.444c-0.532,0.512-0.532,0.555,0.019,1.01
			C58.648,77.437,59.107,77.566,59.495,77.111z M63.646,72.488c0.599,0.553,0.599,0.553,1.271,0.076
			c0.102-0.066,0.171-0.141,0.04-0.24c-0.005-0.004-0.088,0.093-0.134,0.144c-0.29,0.006-0.579,0.012-0.868,0.019
			c-0.053-0.165-0.105-0.329-0.158-0.492c0.321-0.218,0.705-0.148,1.056-0.235c0.46-0.351,0.388-0.648-0.245-0.991
			c-0.638-0.276-0.699-0.249-1.183,0.531C63.369,71.72,63.278,72.146,63.646,72.488z M77.672,70.978
			c-0.357,0.595-0.457,1.162,0.175,1.652c0.429,0.487,0.857,0.271,1.226-0.054c0.465-0.412,0.438-0.918-0.015-1.656
			C78.33,70.432,78.33,70.432,77.672,70.978z M56.58,76.1c0.199,0.017,0.418,0.084,0.487-0.205c0.485-0.644,0.442-0.847-0.242-1.148
			c-0.361-0.434-0.79-0.297-1.222-0.149c-0.249,0.066-0.262,0.26-0.258,0.468c0.013,0.682,0.02,1.364,0.03,2.047
			c0.03,0.088,0.06,0.176,0.086,0.254c0.142-0.039,0.169-0.132,0.17-0.238c0.015-0.223,0.028-0.445,0.041-0.668
			C55.915,76.185,56.385,76.486,56.58,76.1z M60.717,75.375c-0.152-0.032-0.305-0.062-0.475,0.081c-0.05,0.589-0.1,1.209,0.07,1.902
			c0.405-0.577-0.021-1.249,0.384-1.739c0.197-0.02,0.403-0.028,0.472-0.396C60.994,75.261,60.83,75.067,60.717,75.375z
			 M81.842,72.673c0.387,0.267,0.746,0.322,1.039-0.133c0.638-1.281,0.365-1.824-0.988-1.976c-0.078-0.009-0.152-0.042-0.229-0.062
			c-0.045-0.209,0.131-0.482-0.283-0.653c0.017,0.971-0.07,1.898,0.058,2.824C81.605,72.673,81.725,72.673,81.842,72.673z
			 M61.874,72.264c0.049,0.175,0.027,0.398,0.347,0.427c0.235-0.139,0.18-0.464,0.32-0.679c0.173-0.432,0.57-0.822,0.3-1.371
			c-0.522,0.253-0.276,0.925-0.725,1.182c-0.282-0.338-0.224-0.814-0.66-1.071C61.29,71.365,61.6,71.811,61.874,72.264z
			 M59.264,71.029c0.352,0.491-0.052,1.16,0.453,1.829c-0.042-0.825,0.281-1.477-0.219-2.063c-0.449-0.537-0.937,0.037-1.39-0.146
			c-0.165,1.393-0.165,1.393,0.19,2.107c0.441-0.52-0.026-1.215,0.393-1.727C58.869,71.029,59.065,71.029,59.264,71.029z
			 M72.383,75.436c-0.221-0.41-0.247-0.564-0.161-0.961c-0.532-0.031-0.193,0.529-0.552,0.762c-1.006,0.652-0.987,1.004-0.26,2.082
			c0.391,0.055,0.812,0.195,1.375-0.289c-0.61-0.035-1.281,0.348-1.302-0.486c0.268-0.256,0.637-0.038,0.921-0.206
			C72.961,76.09,72.959,76.003,72.383,75.436z M55.38,72.005c0.306,0.727,0.644,0.987,1.161,0.899
			c0.523-0.09,0.909-0.474,0.97-1.078c0.053-0.517,0.028-1.043,0.015-1.563c-0.004-0.201-0.088-0.386-0.381-0.327
			c-0.331,0.773,0.163,1.674-0.291,2.395c-0.561,0.354-0.859,0.062-1.125-0.336c-0.142-0.664,0.135-1.382-0.349-2.018
			C55.38,70.652,55.38,71.329,55.38,72.005z M5.508,51.094c1.339,0,2.545,0.041,3.748-0.009c2.353-0.096,4.163-1.35,4.792-3.253
			c1.021-3.087-0.843-6.185-4.078-6.689c-2.448-0.381-4.919-0.146-7.38-0.149c-0.062,0-0.123,0.095-0.185,0.146
			c-0.195,2.496-0.112,14.566,0.122,15.513c0.972-0.014,1.961,0.132,2.981-0.102C5.508,54.755,5.508,53.021,5.508,51.094z
			 M8.951,21.742c0,1.004,0,1.926,0,2.848c0,0.946,0,1.892,0,2.944c-0.258-0.152-0.373-0.197-0.459-0.273
			c-1.773-1.59-4.85-1.014-6.02,1.241c-1.268,2.442-1.236,4.978-0.168,7.486c1.16,2.726,4.776,3.262,6.448,1.365
			c0.067-0.075,0.21-0.083,0.276-0.108c0.311,0.256,0.027,0.661,0.325,0.915c0.858,0,1.729,0,2.59,0
			c0.187-1.437,0.148-15.469-0.045-16.418C10.984,21.742,10.061,21.742,8.951,21.742z M56.56,38.146c0.869,0,1.735,0,2.592,0
			c0.219-2.446,0.183-15.503-0.043-16.399c-0.912,0-1.831,0-2.838,0c-0.053,1.919-0.105,3.795-0.159,5.742
			c-0.213-0.114-0.333-0.151-0.419-0.229c-1.823-1.657-5.135-0.977-6.246,1.657c-0.957,2.268-0.991,4.584-0.059,6.838
			c1.173,2.834,4.128,3.515,6.55,1.61c0.086-0.067,0.209-0.09,0.309-0.131C56.457,37.517,56.282,37.907,56.56,38.146z
			 M25.838,56.639c-0.486-1.399-0.396-2.737-0.398-4.066c-0.003-1.253,0.031-2.507-0.011-3.759
			c-0.056-1.623-0.744-2.892-2.298-3.533c-1.865-0.769-3.729-0.642-5.485,0.314c-1.053,0.572-1.758,1.47-1.833,2.822
			c1.045,0,2.001,0,2.944,0c0.564-1.176,1.571-1.622,2.641-1.189c0.798,0.321,1.07,1.184,0.716,2.418
			c-0.741,0-1.507-0.024-2.271,0.006c-0.896,0.037-1.75,0.261-2.539,0.704c-1.516,0.851-2.149,2.521-1.567,4.143
			c0.757,2.112,3.632,3.086,5.69,1.918c0.31-0.176,0.603-0.383,0.887-0.564c0.348,0.186,0.244,0.639,0.646,0.787
			C23.824,56.639,24.747,56.639,25.838,56.639z M71.407,19.394c-0.5-1.13-0.518-2.176-0.516-3.227
			c0.004-1.579,0.015-3.157-0.015-4.735c-0.029-1.52-0.764-2.655-2.135-3.265c-1.845-0.82-3.729-0.732-5.506,0.208
			c-1.062,0.563-1.855,1.411-1.823,2.818c0.955,0.133,1.873,0.052,2.761,0.059c0.747-1.258,1.66-1.676,2.672-1.26
			c0.847,0.348,1.114,1.119,0.801,2.363c-0.418,0.139-0.866,0.077-1.303,0.071c-0.857-0.012-1.697,0.105-2.526,0.291
			c-1.575,0.35-2.597,1.529-2.756,3.143c-0.141,1.425,0.645,2.767,2.092,3.371c1.369,0.572,2.748,0.612,4.048-0.266
			c0.194-0.131,0.364-0.329,0.636-0.309c0.306,0.155,0.252,0.602,0.635,0.737C69.354,19.394,70.275,19.394,71.407,19.394z
			 M71.763,33.353c0.16-1.229,0.084-2.352-0.23-3.438c-0.412-1.422-1.255-2.521-2.659-3.117c-2.869-1.219-6.081,0.146-7.154,3.062
			c-0.351,0.955-0.478,1.959-0.443,2.977c0.138,4.219,3.454,5.997,6.68,5.561c1.409-0.19,2.714-0.712,3.571-2.103
			c-0.558-0.433-0.829-1.103-1.489-1.41c-1.317,1.041-2.726,1.546-4.277,0.702c-0.792-0.43-1.312-1.126-1.199-2.234
			C66.999,33.353,69.368,33.353,71.763,33.353z M5.581,10.492C5.455,9.089,5.506,7.779,5.546,6.343c1.201,0,2.324,0.02,3.445-0.005
			c1.154-0.025,2.319,0.116,3.484-0.096c0-0.789,0-1.503,0-2.206C11.395,3.843,3.455,3.845,2.433,4.029
			C2.214,6.032,2.294,18.53,2.536,19.375c0.952,0,1.906,0,2.979,0c0-2.143,0-4.226,0-6.423c2.121,0,4.125,0,6.141,0
			c0.031-0.479,0.085-0.842,0.067-1.202c-0.019-0.39,0.13-0.812-0.238-1.257C9.587,10.492,7.618,10.492,5.581,10.492z
			 M23.876,14.604c0.141-1.407,0.02-2.638-0.386-3.83c-0.349-1.024-0.976-1.859-1.917-2.421c-2.84-1.695-6.566-0.417-7.756,2.668
			c-0.188,0.485-0.338,1-0.408,1.515c-0.578,4.217,1.737,6.836,5.244,7.07c1.929,0.128,3.657-0.364,4.983-2.051
			c-0.552-0.518-0.864-1.14-1.475-1.557c-1.183,1.138-2.57,1.506-4.112,0.901c-0.966-0.379-1.429-1.178-1.533-2.295
			C19,14.604,21.376,14.604,23.876,14.604z M24.613,33.383c0.115-0.933,0.051-1.761-0.081-2.598
			c-0.399-2.547-1.81-3.993-4.307-4.366c-2.275-0.34-4.496,0.824-5.48,2.935c-0.819,1.755-0.924,3.585-0.341,5.434
			c0.449,1.426,1.396,2.441,2.732,3.089c1.202,0.583,2.494,0.746,3.785,0.514c1.354-0.244,2.622-0.739,3.417-2.042
			c-0.479-0.546-0.882-1.085-1.428-1.463c-2.768,1.893-5.365,1.211-5.585-1.502C19.742,33.383,22.154,33.383,24.613,33.383z
			 M81.953,34.82c-1.208,1.122-2.566,1.566-4.107,0.841c-0.887-0.418-1.418-1.129-1.374-2.292c2.422,0,4.788,0,7.188,0
			c0.151-1.072,0.067-2.034-0.119-2.979c-0.444-2.253-1.945-3.69-4.151-3.982c-1.668-0.221-4.095,0.318-5.312,2.61
			c-0.941,1.771-1.036,3.646-0.558,5.531c0.81,3.187,4.151,4.365,6.796,3.77c1.236-0.278,2.355-0.783,3.082-1.962
			C82.937,35.804,82.546,35.246,81.953,34.82z M91.949,30.089c0.92,0.049,1.865,0.148,2.803-0.064
			c-0.083-1.416-0.566-2.28-1.742-2.892c-1.871-0.974-3.789-1.028-5.709-0.099c-0.482,0.234-0.877,0.574-1.209,0.991
			c-1.173,1.479-0.89,3.374,0.663,4.444c0.677,0.465,1.438,0.725,2.226,0.925c0.664,0.169,1.336,0.325,1.975,0.564
			c0.758,0.284,1.022,0.681,0.957,1.229c-0.066,0.548-0.574,0.976-1.296,1.091c-1.402,0.224-2.221-0.235-2.906-1.693
			c-0.855,0.093-1.764-0.158-2.685,0.148c0.092,1.09,0.558,1.905,1.339,2.555c1.969,1.637,5.358,1.496,7.169,0.186
			c1.907-1.381,1.771-4.059-0.259-5.27c-0.668-0.398-1.409-0.593-2.155-0.782c-0.663-0.168-1.335-0.32-1.98-0.544
			c-0.474-0.165-0.852-0.481-0.838-1.065c0.012-0.51,0.364-0.922,0.952-1.122C90.447,28.286,91.315,28.722,91.949,30.089z
			 M25.941,34.632c-0.041,1.166,0.479,1.961,1.245,2.609c1.895,1.603,5.411,1.667,7.367,0.158c1.766-1.361,1.643-3.949-0.251-5.127
			c-0.693-0.432-1.472-0.649-2.257-0.849c-0.624-0.158-1.272-0.218-1.87-0.49c-0.729-0.333-1.011-0.678-0.939-1.229
			c0.072-0.563,0.443-0.911,1.141-1.098c0.282-0.076,0.558-0.047,0.841-0.026c0.962,0.069,1.315,0.796,1.63,1.589
			c0.967-0.105,1.889,0.081,2.843-0.112c0.065-1.259-0.556-2.107-1.492-2.76c-1.697-1.184-4.567-1.184-6.345-0.088
			c-1.729,1.064-2.646,3.949,0.161,5.499c0.823,0.455,1.718,0.689,2.626,0.881c0.596,0.126,1.186,0.284,1.688,0.628
			c0.6,0.411,0.621,1.18,0.078,1.662c-0.28,0.25-0.619,0.367-0.991,0.412c-1.39,0.165-2.116-0.263-2.748-1.66
			C27.811,34.632,26.933,34.632,25.941,34.632z M50.906,48.503c0.043-1.275-0.468-2.266-1.612-2.879
			c-1.858-0.996-3.79-1.083-5.715-0.205c-1.276,0.581-2.031,1.593-2.053,3.034c-0.021,1.447,0.859,2.291,2.062,2.873
			c0.73,0.354,1.518,0.543,2.306,0.72c0.592,0.133,1.193,0.264,1.697,0.615c0.658,0.458,0.66,1.247,0.021,1.731
			c-0.26,0.197-0.558,0.326-0.892,0.354c-0.57,0.046-1.123,0.02-1.667-0.206c-0.665-0.276-0.842-0.914-1.088-1.437
			c-0.959,0-1.841,0-2.745,0c-0.048,1.114,0.486,1.912,1.222,2.57c1.839,1.643,5.578,1.674,7.461,0.098
			c1.723-1.441,1.501-3.991-0.444-5.113c-0.53-0.305-1.104-0.494-1.692-0.649c-0.701-0.185-1.415-0.327-2.104-0.546
			c-0.892-0.285-1.275-0.74-1.198-1.302c0.091-0.663,0.767-1.146,1.639-1.158c0.16-0.002,0.322,0.03,0.482,0.046
			c0.913,0.086,1.231,0.797,1.524,1.547c0.848,0,1.655,0.004,2.463-0.004C50.688,48.591,50.799,48.533,50.906,48.503z
			 M25.021,10.746c0.05,1.06,0.207,1.417,0.734,2.038c1.931,2.271,6.142,1.966,7.82,0.61c1.844-1.49,1.647-3.967-0.42-5.132
			c-0.822-0.464-1.731-0.672-2.641-0.877C29.963,7.26,29.407,7.15,28.894,6.89c-0.405-0.206-0.619-0.54-0.623-0.967
			c-0.005-0.467,0.191-0.85,0.639-1.085c1.008-0.529,2.226-0.136,2.741,0.897c0.069,0.138,0.098,0.316,0.207,0.349
			c0.992,0,1.909,0,2.86,0c0.058-1.253-0.592-2.037-1.482-2.661c-1.716-1.203-4.725-1.199-6.458-0.015
			c-2.125,1.451-2.001,4.078,0.253,5.331c0.715,0.398,1.492,0.621,2.283,0.807c0.591,0.14,1.19,0.252,1.741,0.522
			c0.463,0.229,0.795,0.537,0.752,1.124c-0.047,0.624-0.424,0.925-0.965,1.103c-1.328,0.434-2.488-0.129-3.106-1.548
			C26.877,10.746,25.997,10.746,25.021,10.746z M56.882,7.915c-0.708,2.497-1.399,4.938-2.091,7.377
			c-0.075-0.002-0.153-0.004-0.229-0.006c-0.695-2.46-1.392-4.921-2.099-7.424c-0.582,0-1.064-0.021-1.546,0.006
			c-0.501,0.028-1.027-0.13-1.568,0.143c1.295,3.817,2.575,7.588,3.879,11.426c1.004-0.052,1.96,0.106,2.939-0.095
			c1.292-3.807,2.569-7.568,3.879-11.427C58.928,7.915,57.971,7.915,56.882,7.915z M35.866,7.898
			c0.143,0.791-0.109,1.472,0.173,2.095c0.521,0.123,1.024-0.064,1.577,0.228c0,0.367-0.001,0.763,0,1.158
			c0.004,1.778-0.023,3.557,0.022,5.333c0.041,1.665,0.916,2.592,2.562,2.854c0.852,0.136,1.671,0.025,2.506-0.22
			c0.052-0.759,0.113-1.465-0.024-2.235c-0.357,0-0.637,0.018-0.914-0.003c-0.806-0.062-1.036-0.221-1.054-1.011
			c-0.04-1.971-0.013-3.942-0.013-5.873c0.657-0.395,1.366,0.043,1.96-0.357c0.024-0.642,0.075-1.272-0.026-1.874
			c-0.639-0.277-1.274,0.028-1.855-0.246c-0.274-0.889,0.11-1.844-0.251-2.723c-0.961,0-1.878,0-2.827,0
			c-0.234,0.934,0.079,1.877-0.198,2.798C36.988,7.847,36.518,7.868,35.866,7.898z M73.436,19.284
			c0.289,0.23,0.583,0.146,0.857,0.15c0.678,0.012,1.357,0.004,2.097,0.004c0-5.519,0-10.92,0-16.287
			c-0.3-0.232-0.595-0.154-0.868-0.159c-0.678-0.014-1.356-0.005-2.086-0.005C73.436,8.505,73.436,13.908,73.436,19.284z
			 M30.689,45.036c-0.928,0.052-1.838-0.097-2.73,0.094c-0.207,3.247-0.117,10.655,0.141,11.532
			c0.942-0.022,1.898,0.107,2.911-0.094c0-0.465,0.001-0.863,0-1.263c-0.001-1.819-0.007-3.638,0-5.456
			c0.005-1.291,0.496-1.84,1.776-1.949c0.512-0.044,1.032-0.008,1.645-0.008c0.021-1.021,0.083-1.961-0.035-2.88
			c-1.409-0.358-1.695-0.267-3.413,1.052C30.714,45.819,30.896,45.459,30.689,45.036z M36.225,45.074
			c-0.199,2.854-0.117,10.652,0.104,11.516c0.955,0,1.9,0,2.831,0c0.217-2.105,0.136-10.685-0.103-11.516
			C38.142,45.074,37.222,45.074,36.225,45.074z M43.581,26.624c0,3.916,0,7.726,0,11.532c1.032,0,1.983,0,2.945,0
			c0-3.876,0-7.686,0-11.532C45.527,26.624,44.607,26.624,43.581,26.624z M44.679,19.427c1.007-0.014,1.98,0.07,3.047-0.077
			c-0.009-3.863,0.007-7.637-0.013-11.515c-1.108,0.103-2.062-0.114-3.034,0.143C44.679,11.778,44.679,15.527,44.679,19.427z
			 M34.959,16.952c-3.095,0-6.145,0-9.225,0c-0.043,0.863-0.11,1.651,0.035,2.447c3.113,0,6.133,0,9.202,0
			C35.081,18.563,35.111,17.776,34.959,16.952z M55.343,62.873c0,0.993-0.03,2.037,0.009,3.08c0.038,1.008,0.682,1.576,1.736,1.628
			c1.119,0.055,1.875-0.477,1.98-1.505c0.112-1.078,0.117-2.168,0.005-3.316c-0.375-0.004-0.72-0.184-1.017,0.101
			c-0.271,1.261,0.285,2.594-0.34,3.729c-0.459,0.128-0.771,0.152-1.115-0.174c-0.322-1.136,0.034-2.407-0.226-3.654
			C56.031,62.727,55.725,62.619,55.343,62.873z M63.094,62.326c-0.75,0.447-1.206,0.072-1.518-0.529
			c-0.387-0.01-0.715-0.127-0.99,0.133c0.432,1.171,1.356,1.67,2.552,1.373c0.58-0.144,1.057-0.42,1.199-1.054
			c0.134-0.593-0.137-1.104-0.813-1.47c-0.387-0.208-0.821-0.326-1.225-0.508c-0.332-0.149-0.519-0.384-0.265-0.838
			c0.334-0.104,0.734-0.26,1.042,0.131c0.391,0.498,0.798,0.356,1.263,0.186c-0.528-1.271-1.684-1.69-2.861-1.093
			c-0.962,0.487-1.046,1.466-0.183,2.131c0.358,0.276,0.789,0.396,1.203,0.557C62.876,61.493,63.278,61.649,63.094,62.326z
			 M74.819,64.172c-0.244-1.062-0.788-1.533-1.794-1.56c-0.998-0.025-1.836,0.576-2.045,1.551c-0.137,0.633-0.143,1.294,0.015,1.928
			c0.227,0.904,0.922,1.44,1.84,1.485c1.021,0.051,1.647-0.367,2.01-1.354c0.021-0.055-0.038-0.138-0.074-0.257
			c-0.255,0-0.527,0-0.854,0c-0.067,0.1-0.157,0.228-0.242,0.357c-0.234,0.364-0.59,0.408-0.964,0.328
			c-0.423-0.09-0.556-0.432-0.591-0.815c-0.024-0.282-0.03-0.565-0.026-0.849c0.008-0.562-0.07-1.194,0.612-1.441
			c0.707-0.255,0.984,0.341,1.257,0.77C74.309,64.33,74.595,64.416,74.819,64.172z M67.096,67.384
			c0.22-0.515-0.079-1.039,0.249-1.453c0.417-0.047,0.821-0.054,1.206-0.144c0.825-0.195,1.291-0.789,1.265-1.541
			c-0.025-0.743-0.547-1.366-1.346-1.477c-0.782-0.107-1.577-0.104-2.376-0.005c0,1.616,0,3.132,0,4.631
			C66.449,67.591,66.748,67.546,67.096,67.384z M67.062,21.743c-0.666,1.02-1.338,2.047-2.125,3.252
			c0.979-0.022,1.732,0.065,2.51-0.114c0.916-1.004,1.835-2.013,2.861-3.138C69.119,21.743,68.12,21.743,67.062,21.743z
			 M45.103,25.101c1.026-0.018,1.755-0.709,1.708-1.62c-0.047-0.899-0.838-1.552-1.84-1.518c-0.953,0.032-1.633,0.692-1.625,1.581
			C43.355,24.507,44.045,25.119,45.103,25.101z M37.65,40.411c-0.993,0.015-1.735,0.728-1.703,1.636
			c0.034,0.928,0.768,1.548,1.808,1.523c0.977-0.021,1.616-0.642,1.618-1.565C39.375,41.037,38.681,40.395,37.65,40.411z
			 M46.172,3.259c-0.96-0.004-1.707,0.646-1.726,1.502c-0.019,0.892,0.663,1.552,1.636,1.584c1.021,0.034,1.783-0.635,1.773-1.56
			C47.848,3.901,47.146,3.265,46.172,3.259z M63.991,64.784c-1.041,0-2.104,0-3.146,0c-0.152,0.327-0.191,0.584,0.082,0.826
			c1.015,0,2.044,0,3.131,0C64.116,65.314,64.229,65.065,63.991,64.784z M76.513,72.004c-0.097,0.834-0.839,0.268-1.225,0.52
			c0.315,0.413,0.667,0.444,1.086,0.279c0.363-0.146,0.632-0.337,0.635-0.773c0.001-0.381-0.226-0.582-0.535-0.723
			c-0.22-0.098-0.444-0.186-0.667-0.277c-0.272-0.111-0.334-0.316-0.267-0.568c0.523-0.607,0.932,0.197,1.406,0.189
			c0.048-0.45-0.225-0.588-0.467-0.71c-0.51-0.256-1.153-0.087-1.388,0.337c-0.232,0.416-0.044,0.818,0.553,1.159
			C75.943,71.608,76.361,71.594,76.513,72.004z M92.333,71.713c-0.073-0.88-0.327-1.226-0.864-1.137
			c-0.486,0.079-0.775,0.398-0.869,0.885c-0.113,0.601,0.102,1.102,0.58,1.338c0.464,0.229,0.786,0.044,1.11-0.314
			c-0.412-0.234-0.995,0.341-1.142-0.405C91.438,71.68,91.933,72.041,92.333,71.713z M64.265,75.76
			c-0.728-0.867-1.12-0.812-1.606,0.156c0.139,0.611,0.957,0.37,1.168,0.899c-0.333,0.628-0.761-0.063-1.171,0.047
			c0.698,0.801,1.169,0.733,1.666-0.156c-0.148-0.583-0.951-0.404-1.143-0.935C63.537,75.271,63.816,75.899,64.265,75.76z
			 M88.512,72.648c0.368-1.617,0.368-1.617,1.075-1.451c0.092,1.047,0.092,1.047,0.374,1.463c0.408-1.912,0.071-2.314-1.638-1.842
			C88.432,71.413,88.209,72.037,88.512,72.648z M67.08,72.339c0.24,0.43,0.569,0.655,1.053,0.518
			c0.416-0.119,0.74-0.344,0.567-0.859c-0.198-0.502-0.872-0.341-1.131-0.741c0.232-0.52,0.698,0.026,0.936-0.299
			c-0.792-0.596-0.929-0.558-1.408,0.349c0.143,0.62,0.946,0.399,1.142,0.931C67.897,72.916,67.48,72.022,67.08,72.339z
			 M87.763,72.924c-0.104-0.895,0.249-1.602-0.287-2.162c-0.455-0.475-0.939-0.03-1.384,0.076c-0.127,1.216-0.127,1.216,0.185,1.841
			c0.399-0.479-0.072-1.134,0.331-1.579c0.203-0.104,0.392-0.106,0.516-0.015C87.603,71.568,87.176,72.236,87.763,72.924z
			 M66.497,74.733c-0.679,0.426-0.864,0.96-0.613,1.768c0.138,0.446,0.371,0.852,0.849,0.942c0.5,0.094,0.969-0.047,1.249-0.533
			c0.066-0.115-0.013-0.228-0.093-0.321c-0.372,0.045-0.485,0.565-0.922,0.498C66.229,76.537,66.15,76.146,66.497,74.733z
			 M71.236,72.875c-0.382-0.693-0.425-1.283-0.193-1.9c0.146-0.391-0.099-0.649-0.421-0.87c-0.741,0.721-0.013,1.509-0.163,2.241
			C70.404,72.611,70.65,72.853,71.236,72.875z M69.983,74.637c-0.751,0.859-0.146,1.658-0.137,2.422
			c0.003,0.207,0.225,0.423,0.628,0.17C69.766,76.507,70.738,75.529,69.983,74.637z M69.524,72.693
			c0.345-0.938,0.17-1.857-0.063-2.777C69.344,70.842,69.051,71.768,69.524,72.693z M79.982,72.792
			c0.509-0.362,0.375-0.771,0.335-1.088c-0.062-0.491,0.43-0.626,0.545-0.994c-0.338-0.157-0.633-0.134-0.949,0.069
			C79.896,71.408,79.842,72.045,79.982,72.792z M65.878,72.934c0.347-0.701,0.101-1.248,0.293-1.729
			c0.543-0.354,0.543-0.354,0.446-0.555c-0.307-0.117-0.584-0.002-0.901,0.18C65.64,71.454,65.446,72.092,65.878,72.934z
			 M61.78,77.506c0.288-0.853,0.343-1.469-0.037-2.322C61.657,76.042,61.627,76.658,61.78,77.506z M68.852,77.235
			c0.143-0.626,0.231-1.261-0.041-1.887C68.708,75.975,68.646,76.6,68.852,77.235z M60.582,72.646
			c0.2-0.646,0.247-1.306,0.027-2.108C60.345,71.328,60.472,71.982,60.582,72.646z M67.947,75.359
			c0.146-0.419,0.042-0.629-0.428-0.662C67.474,75.084,67.67,75.229,67.947,75.359z M72.841,69.735
			c-0.125,0.036-0.199,0.125-0.184,0.248c0.005,0.04,0.118,0.105,0.164,0.093c0.104-0.028,0.239-0.078,0.188-0.23
			C72.992,69.795,72.897,69.771,72.841,69.735z M67.254,74.582c-0.139-0.109-0.276-0.201-0.408,0.014
			C67.004,74.748,67.13,74.674,67.254,74.582z"/>
		<path fill-rule="evenodd" clip-rule="evenodd" fill="#FFFFFF" d="M5.563,48.521c0-1.637,0-3.201,0-4.773
			c0.856-0.255,3.185-0.264,3.879-0.008c1.102,0.406,1.76,1.472,1.653,2.675c-0.108,1.213-0.794,1.911-2.114,2.083
			C7.863,48.646,6.74,48.602,5.563,48.521z"/>
		<path fill-rule="evenodd" clip-rule="evenodd" fill="#FFFFFF" d="M8.949,32.484c0,0.484,0.003,0.968,0,1.452
			c-0.009,1.177-0.438,1.746-1.499,1.998c-0.974,0.231-1.877-0.16-2.366-1.025c-0.201-0.356-0.282-0.748-0.364-1.145
			c-0.242-1.175-0.178-2.332,0.227-3.452c0.472-1.305,1.834-1.822,3.063-1.193c0.573,0.293,0.948,0.735,0.937,1.429
			c-0.01,0.645-0.001,1.292-0.001,1.937C8.947,32.484,8.948,32.484,8.949,32.484z"/>
		<path fill-rule="evenodd" clip-rule="evenodd" fill="#FFFFFF" d="M56.136,32.364c0,0.564,0.007,1.129-0.001,1.694
			c-0.016,1.055-0.396,1.552-1.384,1.827c-0.964,0.268-1.825-0.027-2.347-0.781c-0.514-0.739-0.536-1.604-0.57-2.436
			c-0.031-0.795,0.008-1.613,0.31-2.38c0.506-1.285,1.836-1.792,3.07-1.161c0.573,0.294,0.956,0.713,0.922,1.423
			c-0.028,0.603-0.005,1.209-0.005,1.813C56.133,32.364,56.135,32.364,56.136,32.364z"/>
		<path fill-rule="evenodd" clip-rule="evenodd" fill="#FFFFFF" d="M22.274,51.401c0,0.728,0,1.401,0,2.123
			c-0.519,0.706-1.252,1.045-2.162,1.017c-0.792-0.023-1.309-0.396-1.451-1.027c-0.17-0.75,0.158-1.49,0.855-1.827
			C20.38,51.27,21.294,51.296,22.274,51.401z"/>
		<path fill-rule="evenodd" clip-rule="evenodd" fill="#FFFFFF" d="M67.826,14.106c0,0.567-0.035,0.969,0.008,1.364
			c0.086,0.818-0.341,1.291-1.02,1.599c-0.735,0.335-1.496,0.43-2.184-0.078c-0.864-0.636-0.604-2.06,0.45-2.603
			C65.916,13.959,66.798,14.134,67.826,14.106z"/>
		<path fill-rule="evenodd" clip-rule="evenodd" fill="#FFFFFF" d="M68.688,31.33c-1.364,0.019-2.736,0.035-4.12-0.011
			c0.154-1.702,0.993-2.558,2.294-2.473C68.174,28.933,68.817,29.761,68.688,31.33z"/>
		<path fill-rule="evenodd" clip-rule="evenodd" fill="#FFFFFF" d="M16.569,12.542c0.282-1.805,1.192-2.654,2.561-2.46
			c1.227,0.174,1.815,1.064,1.608,2.46C19.354,12.542,17.967,12.542,16.569,12.542z"/>
		<path fill-rule="evenodd" clip-rule="evenodd" fill="#FFFFFF" d="M21.533,31.339c-1.475,0.016-2.853,0.027-4.26-0.002
			c0.382-1.873,1.171-2.606,2.506-2.463C21.046,29.01,21.6,29.748,21.533,31.339z"/>
		<path fill-rule="evenodd" clip-rule="evenodd" fill="#FFFFFF" d="M76.472,31.355c0.243-1.825,1.053-2.599,2.408-2.493
			c1.271,0.1,1.843,0.81,1.865,2.429C79.354,31.413,77.958,31.31,76.472,31.355z"/>
		<path fill-rule="evenodd" clip-rule="evenodd" fill="#FFFFFF" d="M68.419,64.836c-0.354,0.227-0.714,0.109-1.056,0.146
			c-0.353-0.438-0.15-0.865-0.175-1.332c0.485-0.14,0.915-0.223,1.259,0.138C68.771,64.127,68.74,64.509,68.419,64.836z"/>
		<path fill-rule="evenodd" clip-rule="evenodd" fill="#FFFFFF" d="M92.01,71.326c-0.422,0.201-0.669,0.283-0.92-0.053
			C91.363,70.914,91.604,70.946,92.01,71.326z"/>
		<path fill-rule="evenodd" clip-rule="evenodd" fill="#FFFFFF" d="M72.371,75.677c-0.006,0.142-0.012,0.282-0.018,0.424
			c-0.286-0.061-0.633,0.162-0.878-0.189C71.674,75.428,72.034,75.598,72.371,75.677z"/>
		<path fill-rule="evenodd" clip-rule="evenodd" fill="#FFFFFF" d="M85.121,72.237c-0.051,0.065-0.103,0.132-0.153,0.197
			c-0.362,0.076-0.731,0.115-0.868-0.333c-0.104-0.338-0.145-0.719,0.168-0.977c0.347-0.285,0.647-0.051,0.933,0.162
			C85.278,71.612,85.308,71.934,85.121,72.237z"/>
		<path fill-rule="evenodd" clip-rule="evenodd" fill="#FFFFFF" d="M72.891,70.987c0.048,0.08,0.114,0.104,0.201,0.071
			c-0.005,0.14-0.01,0.279-0.014,0.42c-0.303,0.004-0.604,0.01-0.906,0.015C72.092,70.872,72.56,71.025,72.891,70.987z"/>
		<path fill-rule="evenodd" clip-rule="evenodd" fill="#FFFFFF" d="M77.901,71.201c0.298-0.294,0.622-0.211,0.949-0.063
			c0.174,1.193,0.131,1.261-0.826,1.309C77.842,72.045,77.654,71.645,77.901,71.201z"/>
		<path fill-rule="evenodd" clip-rule="evenodd" fill="#FFFFFF" d="M82.653,72.314c-0.226,0.222-0.52,0.152-0.789,0.184
			c-0.215-0.492-0.337-0.983-0.008-1.478C82.858,71.127,82.911,71.212,82.653,72.314z"/>
		<path fill-rule="evenodd" clip-rule="evenodd" fill="#FFFFFF" d="M59.178,76.471c0.003,0.11,0.007,0.222,0.009,0.332
			c-0.249,0.181-0.494,0.379-0.837,0.247c-0.005-0.206-0.011-0.412-0.016-0.618C58.62,76.335,58.902,76.342,59.178,76.471z"/>
		<path fill-rule="evenodd" clip-rule="evenodd" fill="#FFFFFF" d="M64.623,71.002c0.061,0.156,0.121,0.313,0.18,0.47
			c-0.303,0.025-0.615,0.125-0.897-0.08C63.961,70.881,64.338,71.029,64.623,71.002z"/>
		<path fill-rule="evenodd" clip-rule="evenodd" fill="#FFFFFF" d="M57.084,75.913c-0.177-0.177-0.322,0.004-0.48,0.044
			c-0.301-0.05-0.601-0.103-0.9-0.154c-0.009-0.269-0.018-0.537-0.025-0.806c0.369-0.249,0.771-0.137,1.166-0.104
			C57.173,75.174,56.871,75.604,57.084,75.913z"/>
	</g>
</g>
</svg>
