<?xml version="1.0" encoding="utf-8"?>
<!-- Generator: Adobe Illustrator 16.0.0, SVG Export Plug-In . SVG Version: 6.00 Build 0)  -->
<!DOCTYPE svg PUBLIC "-//W3C//DTD SVG 1.1//EN" "http://www.w3.org/Graphics/SVG/1.1/DTD/svg11.dtd">
<svg version="1.1" id="Layer_1" xmlns="http://www.w3.org/2000/svg" xmlns:xlink="http://www.w3.org/1999/xlink" x="0px" y="0px"
	 width="38.977px" height="90px" viewBox="-2.428 -7.883 38.977 90" enable-background="new -2.428 -7.883 38.977 90"
	 xml:space="preserve">
<g>
	<rect x="-2.428" y="-7.883" fill="#FFFFFF" width="38.977" height="90"/>
	<g>
		<path fill="none" d="M34.791,65.028c0,5.039,0,10.081,0,15.129c-6.593,0-13.184,0-19.775,0c-0.006-0.732-0.012-1.468-0.021-2.224
			c-1.194,0-2.363,0-3.541,0c0-0.607,0-1.189,0-1.777c0.004-0.303-0.028-0.598-0.11-0.893c-0.299-1.041-0.976-1.709-2.043-1.91
			c-1.074-0.199-1.966,0.162-2.606,1.059c-0.376,0.525-0.51,1.137-0.515,1.775c-0.003,1.326,0,2.648,0,3.97
			c-2.149,0-4.303,0-6.453,0c0-20.654,0-41.312,0-61.97c0.267,0.118,0.538,0.232,0.807,0.35c0.065-0.22-0.009-0.356-0.181-0.466
			c-0.172-0.105-0.32-0.237-0.478-0.352c-0.042-0.028-0.077-0.105-0.149-0.045c0-8.016,0-16.034,0-24.063c6.92,0,13.839,0,20.763,0
			c0,0.093,0.006,0.188,0.006,0.283c0.002,2.663,0.002,5.337,0.003,8.001c0,0.092-0.027,0.187,0.025,0.271c0.534,0,1.064,0,1.611,0
			c0-1.066,0-2.113,0-3.186c2.405,0,4.79,0,7.167,0c0-0.749,0-1.466,0-2.208c-2.397,0-4.776,0-7.163,0c0-1.072,0-2.121,0-3.167
			c4.221,0,8.439,0,12.65,0c0,23.753,0,47.509,0,71.264c-0.493,0-0.987,0-1.485,0c-0.012,0.141-0.026,0.242,0.015,0.359
			c0.321,0,0.638,0,0.979,0c-0.288,0.65-0.569,1.275-0.845,1.901c0.1,0.053,0.185,0.112,0.282,0.12
			c0.081-0.057,0.09-0.138,0.122-0.207c0.159-0.35,0.308-0.704,0.476-1.056C34.486,65.673,34.594,65.328,34.791,65.028z
			 M29.43,9.054c-0.001-1.498-0.203-2.386-0.683-3.199c-0.759-1.301-1.875-2.111-3.375-2.266c-1.664-0.173-3.003,0.487-4.011,1.808
			c-0.575,0.757-0.858,1.629-0.943,2.575c-0.106,1.153,0.037,2.268,0.604,3.289c0.762,1.387,1.944,2.216,3.527,2.36
			c1.496,0.137,2.744-0.425,3.715-1.568C29.104,11.071,29.421,9.894,29.43,9.054z M29.312,44.365
			c0.003-0.057,0.007-0.092,0.007-0.123c0-1.238,0.015-2.476-0.004-3.717c-0.008-0.738-0.11-1.469-0.356-2.176
			c-0.385-1.086-1.062-1.92-2.14-2.381c-0.822-0.354-1.689-0.439-2.574-0.316c-1.178,0.162-2.147,0.693-2.848,1.67
			c-0.643,0.9-0.879,1.931-0.896,3.014c-0.019,1.272-0.004,2.547-0.003,3.821c0,0.067-0.021,0.134,0.028,0.208
			C23.447,44.365,26.368,44.365,29.312,44.365z M20.525,61.627c2.925,0,5.851,0,8.781,0c0.005-0.041,0.012-0.066,0.012-0.092
			c0-1.256,0.015-2.514-0.007-3.77c-0.011-0.861-0.146-1.705-0.501-2.505c-0.471-1.043-1.222-1.775-2.313-2.139
			c-0.751-0.252-1.526-0.299-2.312-0.185c-1.386,0.209-2.426,0.914-3.091,2.153c-0.429,0.797-0.583,1.663-0.595,2.556
			c-0.01,1.238-0.003,2.479-0.001,3.714C20.5,61.454,20.479,61.539,20.525,61.627z M25.19,17.789
			c-0.073-0.122-0.123-0.213-0.179-0.31c-0.859-1.503-2.669-1.39-3.59-0.542c-0.646,0.598-0.91,1.359-0.919,2.215
			c-0.013,1.262-0.006,2.528-0.004,3.791c0,0.065-0.028,0.135,0.03,0.192c2.924,0,5.847,0,8.774,0c0-0.734,0-1.46,0-2.206
			c-1.192,0-2.364,0-3.558,0c0-0.198,0.006-0.383-0.002-0.561c-0.019-0.39,0.148-0.696,0.433-0.946
			c0.153-0.141,0.326-0.252,0.505-0.355c0.372-0.217,0.768-0.387,1.162-0.557c0.486-0.218,0.988-0.424,1.46-0.67
			c0.035-0.463,0.025-2.201-0.021-2.394c-0.057-0.009-0.1,0.029-0.141,0.05c-0.735,0.335-1.471,0.661-2.2,1.008
			C26.291,16.816,25.615,17.109,25.19,17.789z M10.88,54.922c-0.1-0.177-0.178-0.32-0.27-0.457c-0.281-0.414-0.636-0.738-1.121-0.9
			c-1.018-0.348-2.151,0.035-2.777,0.939c-0.362,0.533-0.524,1.135-0.524,1.775c-0.007,1.248-0.003,2.492-0.003,3.744
			c0,0.074-0.019,0.15,0.028,0.229c2.925,0,5.85,0,8.782,0c0-0.738,0-1.455,0-2.201c-1.199,0-2.378,0-3.572,0
			c0-0.229,0-0.422,0.002-0.622c0.012-0.313,0.132-0.581,0.353-0.806c0.23-0.225,0.5-0.393,0.784-0.537
			c0.549-0.286,1.122-0.512,1.69-0.77c0.252-0.117,0.521-0.219,0.74-0.357c0-0.807,0-1.591,0-2.382
			c-0.041,0.006-0.069,0-0.088,0.011c-0.981,0.479-1.996,0.877-2.96,1.389C11.519,54.197,11.138,54.469,10.88,54.922z
			 M14.992,62.695c-2.946,1.311-5.875,2.608-8.793,3.908c0,0.862,0,1.713,0,2.567c2.929,1.179,5.851,2.358,8.789,3.544
			c0-0.805,0-1.564,0-2.334c-0.582-0.223-1.156-0.443-1.717-0.654c0-1.33,0-2.633,0-3.934c0.585-0.246,1.154-0.483,1.721-0.725
			C14.992,64.285,14.992,63.511,14.992,62.695z M20.512,32.995c2.938,0,5.867,0,8.792,0c0-2.171,0-4.324,0-6.486
			c-0.537,0-1.062,0-1.603,0c0,1.424,0,2.84,0,4.275c-0.71,0-1.4,0-2.116,0c0-1.336,0-2.657,0-3.973c-0.556,0-1.087,0-1.64,0
			c0,1.336,0,2.655,0,3.976c-0.615,0-1.205,0-1.823,0c0-1.401,0-2.792,0-4.177c-0.556,0-1.077,0-1.61,0
			C20.512,28.745,20.512,30.864,20.512,32.995z M6.755,38.477c-0.521,1.134-0.777,2.314-0.662,3.557
			c0.053,0.535,0.19,1.045,0.443,1.523c0.847,1.605,2.798,1.494,3.686,0.703c0.388-0.346,0.658-0.768,0.875-1.23
			c0.239-0.516,0.409-1.055,0.61-1.582c0.116-0.296,0.236-0.588,0.445-0.838c0.354-0.416,0.91-0.354,1.165,0.131
			c0.085,0.162,0.132,0.338,0.152,0.517c0.091,0.825-0.105,1.585-0.482,2.309c-0.183,0.353-0.404,0.691-0.619,1.055
			c0.647,0,1.27,0,1.894,0c0.466-0.814,0.775-1.673,0.837-2.606c0.051-0.775,0.009-1.545-0.287-2.277
			c-0.372-0.92-1.02-1.527-2.032-1.65c-0.984-0.122-1.789,0.211-2.38,1.02c-0.255,0.35-0.442,0.734-0.608,1.132
			c-0.218,0.513-0.379,1.052-0.608,1.558c-0.094,0.203-0.193,0.4-0.355,0.559c-0.285,0.281-0.656,0.25-0.89-0.077
			c-0.066-0.099-0.121-0.205-0.154-0.323c-0.088-0.316-0.12-0.638-0.088-0.967c0.047-0.485,0.172-0.945,0.329-1.398
			c0.132-0.369,0.299-0.728,0.445-1.111C7.89,38.477,7.331,38.477,6.755,38.477z M20.515,50c2.936,0,5.864,0,8.797,0
			c0-0.728,0-1.441,0-2.158c-2.943,0-5.868,0-8.797,0C20.515,48.569,20.515,49.281,20.515,50z M6.192,50.004
			c2.942,0,5.867,0,8.795,0c0-0.731,0-1.452,0-2.162c-2.938,0-5.864,0-8.795,0C6.192,48.562,6.192,49.272,6.192,50.004z
			 M17.752,50.127c0.571,0.024,1.216-0.433,1.227-1.223c0.001-0.681-0.562-1.234-1.23-1.231c-0.679,0.007-1.232,0.565-1.23,1.233
			C16.527,49.592,17.072,50.131,17.752,50.127z M2.206,17.091c-0.373-0.018-0.714,0.042-1.013,0.256
			c-0.142,0.102-0.243,0.243-0.306,0.408c-0.246,0.65,0.093,1.332,0.761,1.531c0.325,0.097,0.648,0.086,0.961-0.014
			c0.527-0.177,0.838-0.616,0.836-1.172c0-0.185-0.031-0.358-0.084-0.536c-0.136-0.431-0.202-0.476-0.656-0.437
			c-0.007,0-0.011,0.01-0.03,0.024c0.035,0.07,0.074,0.148,0.112,0.218c0.103,0.186,0.146,0.383,0.166,0.59
			c0.035,0.487-0.285,0.856-0.749,0.844c0-0.279,0-0.562,0-0.847C2.206,17.671,2.206,17.39,2.206,17.091z M2.202,30.021
			c-0.366-0.015-0.697,0.046-0.988,0.25c-0.179,0.118-0.29,0.289-0.348,0.496c-0.197,0.689,0.182,1.327,0.885,1.481
			c0.809,0.181,1.529-0.233,1.67-0.959c0.05-0.245,0.021-0.483-0.037-0.719c-0.107-0.45-0.198-0.517-0.661-0.505
			c-0.015,0-0.028,0.02-0.047,0.03c0.081,0.158,0.176,0.312,0.225,0.488c0.176,0.606-0.074,1.134-0.699,1.174
			C2.202,31.181,2.202,30.612,2.202,30.021z M3.385,41.474c-0.527-0.038-2.31-0.026-2.512,0.019c0,0.148,0,0.303,0,0.453
			c0.095,0.043,0.182,0.025,0.264,0.025c0.448,0,0.896,0,1.342,0c0.076,0,0.155-0.011,0.227,0.031
			C2.912,42.121,3.056,42.458,3,42.695c-0.063,0.256-0.216,0.375-0.534,0.379c-0.394,0.011-0.791,0.004-1.183,0.004
			c-0.135,0-0.27,0-0.403,0c0,0.186,0,0.342,0,0.514c0.454,0,0.889-0.004,1.329,0.003c0.173,0,0.343-0.009,0.514-0.038
			c0.615-0.113,0.901-0.707,0.606-1.257c-0.054-0.104-0.125-0.196-0.188-0.294c0.082-0.063,0.169-0.004,0.245-0.063
			C3.385,41.791,3.385,41.641,3.385,41.474z M3.385,39.717c-0.51,0-1.007,0.004-1.504,0c-0.318,0-0.521-0.147-0.621-0.457
			c-0.088-0.262,0.02-0.506,0.275-0.607c0.119-0.047,0.246-0.061,0.379-0.057c0.488,0,0.978,0,1.461,0c0-0.184,0-0.342,0-0.518
			c-0.516,0-1.011,0-1.506,0.006c-0.088,0-0.176,0.018-0.26,0.025c-0.738,0.065-1.034,0.855-0.573,1.445
			c0.039,0.049,0.119,0.074,0.102,0.162c-0.089,0.004-0.172,0.004-0.264,0.011c0,0.164,0,0.315,0,0.475c0.848,0,1.676,0,2.512,0
			C3.385,40.038,3.385,39.887,3.385,39.717z M3.2,26.261c0.097-0.111,0.141-0.249,0.177-0.378c0.088-0.337,0.118-0.671-0.072-0.996
			C3.12,24.565,2.55,24.413,2.25,24.779c-0.111,0.132-0.213,0.275-0.302,0.417c-0.093,0.145-0.188,0.289-0.287,0.427
			c-0.056,0.07-0.123,0.126-0.223,0.099c-0.104-0.035-0.141-0.113-0.158-0.215c-0.03-0.157,0.006-0.309,0.062-0.453
			c0.042-0.117,0.102-0.229,0.16-0.355c-0.177,0-0.325,0-0.483,0c-0.165,0.33-0.255,0.659-0.158,1.023
			c0.062,0.252,0.195,0.44,0.453,0.506c0.262,0.07,0.489,0,0.675-0.202c0.128-0.145,0.221-0.303,0.32-0.466
			c0.077-0.132,0.137-0.274,0.251-0.387c0.137-0.13,0.283-0.11,0.378,0.053c0.062,0.107,0.062,0.218,0.045,0.327
			c-0.024,0.166-0.088,0.315-0.165,0.459c-0.038,0.08-0.109,0.15-0.114,0.251C2.879,26.261,3.042,26.261,3.2,26.261z M0.876,35.4
			c0.844-0.372,1.663-0.732,2.482-1.102c0.13-0.056,0.127-0.179,0.004-0.249c-0.029-0.016-0.06-0.028-0.095-0.042
			c-0.728-0.312-1.46-0.63-2.192-0.943c-0.064-0.03-0.121-0.073-0.198-0.051c-0.014,0.168-0.018,0.338,0,0.511
			c0.5,0.211,0.992,0.428,1.521,0.652c-0.533,0.24-1.03,0.457-1.521,0.676C0.876,35.041,0.876,35.207,0.876,35.4z M2.817,20.153
			c0.042,0.097,0.084,0.172,0.112,0.252c0.029,0.088,0.057,0.18,0.053,0.275c-0.006,0.211-0.108,0.362-0.309,0.372
			c-0.443,0.009-0.886,0-1.336,0c-0.025-0.278,0.021-0.534-0.028-0.776c-0.155,0-0.285,0-0.425,0
			c-0.049,0.264,0.015,0.52-0.038,0.766c-0.149,0.039-0.309-0.021-0.471,0.057c0.329,0.302,0.589,0.642,0.937,0.928
			C1.356,21.861,1.3,21.71,1.36,21.565c0.093,0,0.188,0,0.28,0c0.381,0,0.759,0.008,1.137-0.014c0.35-0.025,0.561-0.225,0.642-0.564
			c0.073-0.299-0.011-0.568-0.138-0.835C3.12,20.153,2.976,20.153,2.817,20.153z M25.697,64.883c0,0.797,0,1.578,0,2.361
			c0.11,0.008,0.214,0.018,0.328-0.01c0-0.338,0-0.662,0-0.984c0.217-0.067,0.363,0.023,0.491,0.158
			c0.168,0.179,0.284,0.39,0.413,0.59c0.188,0.295,0.191,0.295,0.561,0.21c-0.299-0.34-0.439-0.782-0.798-1.069
			c0.027-0.023,0.045-0.044,0.065-0.053c0.261-0.166,0.339-0.413,0.278-0.694c-0.06-0.281-0.261-0.431-0.543-0.481
			C26.23,64.861,25.97,64.896,25.697,64.883z M3.385,28.376c-0.458,0-0.896,0-1.336,0c-0.202,0-0.392-0.053-0.546-0.19
			c-0.173-0.155-0.285-0.372-0.105-0.667c0.041-0.07,0.12-0.118,0.128-0.224c-0.143-0.075-0.266-0.182-0.417-0.232
			c-0.183,0.164-0.299,0.355-0.292,0.587c0.012,0.352,0.306,0.506,0.577,0.731c-0.205,0-0.359,0-0.521,0c0,0.178,0,0.334,0,0.495
			c0.844,0,1.67,0,2.512,0C3.385,28.71,3.385,28.555,3.385,28.376z M23.084,66.552c0.299,0,0.58,0,0.861,0
			c0.088-0.003,0.138,0.028,0.176,0.116c0.082,0.193,0.179,0.382,0.267,0.576c0.114,0,0.223,0.025,0.346-0.021
			c-0.352-0.791-0.7-1.57-1.04-2.341c-0.1-0.015-0.18-0.023-0.264,0.011c-0.329,0.773-0.657,1.547-0.997,2.338
			c0.132,0.027,0.238,0.024,0.357,0.004C22.881,67.012,22.979,66.795,23.084,66.552z M20.854,67.24c0-0.338,0-0.668,0-1.017
			c0.138,0,0.258-0.003,0.372,0c0.122,0.003,0.243-0.013,0.354-0.052c0.262-0.101,0.408-0.309,0.408-0.598
			c0.005-0.295-0.136-0.54-0.401-0.625c-0.353-0.117-0.719-0.05-1.075-0.066c0,0.813,0,1.584,0,2.357
			C20.626,67.24,20.729,67.24,20.854,67.24z M31.097,65.367c0.043-0.38-0.035-0.475-0.401-0.496c-0.074-0.007-0.153-0.007-0.229,0
			c-0.263,0.018-0.462,0.134-0.557,0.386c-0.099,0.261-0.028,0.513,0.193,0.697c0.115,0.095,0.253,0.176,0.379,0.263
			c0.108,0.068,0.223,0.127,0.307,0.23c0.171,0.211,0.088,0.444-0.181,0.502c-0.188,0.042-0.357-0.021-0.511-0.125
			c-0.069-0.047-0.128-0.107-0.21-0.174c-0.003,0.159-0.018,0.295,0.012,0.422c0.172,0.124,0.354,0.188,0.557,0.197
			c0.351,0.021,0.609-0.127,0.712-0.398c0.104-0.287,0.015-0.604-0.247-0.8c-0.146-0.11-0.307-0.19-0.462-0.29
			c-0.224-0.143-0.308-0.277-0.247-0.425c0.06-0.151,0.285-0.229,0.517-0.167c0.073,0.026,0.141,0.064,0.208,0.097
			C30.993,65.312,31.029,65.371,31.097,65.367z M0.876,36.82c0.847,0,1.675,0,2.516,0c-0.007-0.176,0.026-0.334-0.023-0.482
			c-0.84,0-1.663,0-2.496,0C0.876,36.5,0.876,36.651,0.876,36.82z M3.392,23.422c-0.006-0.179,0.029-0.337-0.026-0.492
			c-0.833,0-1.656,0-2.507,0c0.014,0.167-0.021,0.325,0.025,0.492C1.716,23.422,2.54,23.422,3.392,23.422z M28.776,67.24
			c0-0.794,0-1.564,0-2.348c-0.117-0.012-0.221-0.029-0.325,0.014c0,0.784,0,1.552,0,2.334C28.559,67.24,28.659,67.24,28.776,67.24z
			 M0.11,22.869c-0.178,0.005-0.303,0.146-0.292,0.325c0.007,0.165,0.125,0.272,0.303,0.27c0.181,0,0.295-0.126,0.285-0.312
			C0.398,22.983,0.272,22.866,0.11,22.869z M0.409,36.581c0-0.165-0.127-0.299-0.281-0.306c-0.166-0.008-0.31,0.137-0.313,0.303
			c0,0.167,0.151,0.312,0.309,0.308C0.286,36.877,0.409,36.746,0.409,36.581z"/>
		<path fill="#1B1A1F" d="M6.181,80.157c0-1.324-0.003-2.647,0-3.97c0.004-0.636,0.138-1.248,0.514-1.775
			c0.644-0.896,1.537-1.258,2.606-1.059c1.067,0.197,1.743,0.869,2.045,1.91c0.082,0.295,0.112,0.59,0.108,0.893
			c0,0.588,0,1.17,0,1.777c1.178,0,2.347,0,3.541,0c0.01,0.756,0.015,1.491,0.023,2.224C12.067,80.157,9.124,80.157,6.181,80.157z
			 M9.837,77.942c0-0.422,0.007-0.815,0-1.21c-0.005-0.17-0.035-0.34-0.085-0.506c-0.149-0.47-0.459-0.672-1.004-0.654
			c-0.469,0.015-0.749,0.258-0.859,0.732c-0.051,0.208-0.069,0.424-0.078,0.637c-0.016,0.333-0.005,0.66-0.005,1.001
			C8.493,77.942,9.154,77.942,9.837,77.942z"/>
		<path fill="#1B1A1F" d="M22.14-6.39c0,1.047,0,2.095,0,3.166c2.385,0,4.764,0,7.161,0c0,0.742,0,1.46,0,2.206
			c-2.376,0-4.762,0-7.166,0c0,1.076,0,2.123,0,3.186c-0.548,0-1.075,0-1.612,0c-0.05-0.083-0.022-0.18-0.022-0.271
			c-0.001-2.664-0.001-5.336-0.003-8.001c0-0.094-0.006-0.188-0.006-0.281C21.039-6.39,21.587-6.39,22.14-6.39z"/>
		<path fill="#1B1A1F" d="M34.791,65.028c-0.197,0.3-0.305,0.645-0.457,0.967c-0.168,0.349-0.316,0.708-0.475,1.055
			c-0.032,0.07-0.045,0.152-0.123,0.205c-0.101-0.007-0.185-0.063-0.284-0.117c0.274-0.632,0.556-1.251,0.847-1.904
			c-0.344,0-0.656,0-0.979,0c-0.036-0.116-0.024-0.218-0.015-0.358c0.498,0,0.992,0,1.485,0
			C34.791,64.924,34.791,64.977,34.791,65.028z"/>
		<path fill="#1B1A1F" d="M-0.271,17.674c0.072-0.059,0.107,0.019,0.148,0.045c0.16,0.114,0.308,0.246,0.476,0.352
			c0.176,0.109,0.25,0.25,0.183,0.466c-0.267-0.114-0.54-0.232-0.806-0.35C-0.271,18.019-0.271,17.847-0.271,17.674z"/>
		<path fill="#1B1A1F" d="M29.43,9.054c-0.009,0.84-0.325,2.021-1.166,3.002c-0.971,1.142-2.218,1.705-3.713,1.572
			c-1.582-0.148-2.763-0.978-3.527-2.367c-0.568-1.022-0.712-2.133-0.604-3.287c0.085-0.942,0.367-1.819,0.941-2.577
			c1.01-1.322,2.35-1.979,4.013-1.806c1.501,0.153,2.617,0.966,3.375,2.264C29.227,6.668,29.429,7.556,29.43,9.054z M22.245,8.601
			c0,0.119-0.011,0.242,0.003,0.355c0.106,0.94,0.51,1.689,1.375,2.133c0.485,0.254,1.013,0.328,1.55,0.278
			c1.021-0.091,1.786-0.58,2.183-1.55c0.319-0.771,0.322-1.559,0.044-2.341c-0.241-0.679-0.703-1.171-1.377-1.445
			c-0.551-0.221-1.119-0.256-1.69-0.151c-0.495,0.088-0.938,0.292-1.296,0.643C22.445,7.092,22.234,7.802,22.245,8.601z"/>
		<path fill="#1B1A1F" d="M29.312,44.365c-2.946,0-5.864,0-8.786,0c-0.047-0.074-0.028-0.145-0.028-0.211
			c-0.001-1.277-0.016-2.546,0.006-3.82c0.015-1.081,0.251-2.111,0.894-3.015c0.7-0.974,1.67-1.509,2.848-1.67
			c0.884-0.12,1.755-0.034,2.574,0.319c1.079,0.465,1.755,1.297,2.142,2.381c0.246,0.707,0.347,1.438,0.354,2.172
			c0.018,1.244,0.007,2.482,0.007,3.718C29.318,44.273,29.314,44.309,29.312,44.365z M27.698,42.153c0-0.451,0.003-0.876,0-1.294
			c-0.003-0.32-0.021-0.637-0.089-0.945c-0.193-0.896-0.703-1.537-1.582-1.85c-0.594-0.211-1.204-0.246-1.828-0.119
			c-1.077,0.219-1.74,0.871-1.985,1.94c-0.044,0.193-0.08,0.388-0.08,0.587c0.006,0.559,0,1.111,0,1.682
			C23.992,42.153,25.831,42.153,27.698,42.153z"/>
		<path fill="#1B1A1F" d="M20.525,61.627c-0.047-0.088-0.028-0.176-0.028-0.262c-0.001-1.24-0.009-2.478,0.002-3.715
			c0.013-0.893,0.167-1.758,0.595-2.557c0.663-1.239,1.705-1.943,3.092-2.148c0.785-0.122,1.559-0.068,2.309,0.18
			c1.09,0.363,1.846,1.094,2.314,2.141c0.354,0.795,0.492,1.643,0.503,2.504c0.021,1.256,0.007,2.514,0.007,3.772
			c0,0.023-0.012,0.046-0.012,0.091C26.376,61.627,23.45,61.627,20.525,61.627z M27.698,59.436c0-0.338-0.003-0.664,0-0.987
			c0.003-0.411,0-0.826-0.082-1.233c-0.155-0.768-0.548-1.368-1.255-1.73c-0.65-0.334-1.344-0.396-2.056-0.273
			c-1.204,0.202-1.917,0.928-2.124,2.13c-0.082,0.483-0.038,0.964-0.047,1.442c-0.009,0.213-0.003,0.428-0.003,0.652
			C23.992,59.436,25.831,59.436,27.698,59.436z"/>
		<path fill="#1B1A1F" d="M25.19,17.789c0.422-0.679,1.101-0.973,1.758-1.283c0.729-0.346,1.462-0.674,2.197-1.008
			c0.044-0.021,0.085-0.058,0.141-0.049c0.043,0.197,0.055,1.927,0.021,2.396c-0.47,0.249-0.97,0.451-1.463,0.668
			c-0.393,0.17-0.79,0.34-1.159,0.557c-0.179,0.102-0.352,0.215-0.507,0.355c-0.282,0.253-0.449,0.555-0.431,0.945
			c0.008,0.178,0.003,0.359,0.003,0.562c1.188,0,2.361,0,3.554,0c0,0.745,0,1.468,0,2.206c-2.925,0-5.846,0-8.771,0
			c-0.06-0.052-0.029-0.127-0.029-0.192c-0.004-1.263-0.009-2.526,0.005-3.792c0.007-0.855,0.27-1.614,0.918-2.215
			c0.92-0.85,2.73-0.959,3.586,0.543C25.067,17.575,25.117,17.667,25.19,17.789z M22.135,20.924c0.677,0,1.315,0,1.98,0
			c0-0.37,0-0.729,0-1.087c-0.004-0.113-0.004-0.226-0.021-0.337c-0.073-0.577-0.437-0.908-0.993-0.908
			c-0.545,0.002-0.894,0.324-0.955,0.909C22.104,19.97,22.135,20.44,22.135,20.924z"/>
		<path fill="#1B1A1F" d="M10.88,54.922c0.258-0.453,0.638-0.721,1.06-0.945c0.964-0.512,1.982-0.914,2.959-1.393
			c0.023-0.013,0.048-0.006,0.088-0.013c0,0.794,0,1.579,0,2.382c-0.221,0.145-0.486,0.246-0.738,0.363
			c-0.569,0.258-1.139,0.48-1.69,0.766c-0.281,0.145-0.554,0.312-0.782,0.538c-0.223,0.228-0.343,0.492-0.354,0.806
			c-0.004,0.196-0.004,0.396-0.004,0.621c1.195,0,2.373,0,3.573,0c0,0.744,0,1.463,0,2.201c-2.929,0-5.858,0-8.782,0
			c-0.042-0.074-0.029-0.154-0.029-0.229c0-1.248-0.003-2.496,0.004-3.744c0.003-0.639,0.162-1.238,0.523-1.775
			c0.63-0.9,1.758-1.283,2.777-0.938c0.489,0.164,0.844,0.488,1.122,0.906C10.703,54.602,10.776,54.745,10.88,54.922z M9.799,58.051
			c0-0.095,0-0.159,0-0.229c0-0.352,0-0.703-0.003-1.059c-0.004-0.137-0.041-0.27-0.084-0.4c-0.178-0.523-0.554-0.66-0.939-0.654
			c-0.485,0.006-0.773,0.24-0.893,0.703c-0.143,0.542-0.051,1.087-0.076,1.639C8.482,58.051,9.124,58.051,9.799,58.051z"/>
		<path fill="#1B1A1F" d="M14.992,62.695c0,0.815,0,1.59,0,2.373c-0.567,0.241-1.136,0.479-1.72,0.721c0,1.301,0,2.603,0,3.938
			c0.562,0.211,1.132,0.429,1.715,0.65c0,0.766,0,1.529,0,2.334c-2.938-1.182-5.86-2.361-8.789-3.543c0-0.852,0-1.702,0-2.566
			C9.121,65.304,12.046,64.006,14.992,62.695z M8.312,67.853c1.162,0.439,2.264,0.855,3.384,1.276c0-0.9,0-1.775,0-2.68
			C10.574,66.914,9.468,67.375,8.312,67.853z"/>
		<path fill="#1B1A1F" d="M20.512,32.995c0-2.131,0-4.25,0-6.385c0.538,0,1.055,0,1.613,0c0,1.389,0,2.774,0,4.174
			c0.616,0,1.21,0,1.823,0c0-1.315,0-2.637,0-3.973c0.557,0,1.084,0,1.638,0c0,1.316,0,2.637,0,3.973c0.715,0,1.405,0,2.117,0
			c0-1.432,0-2.852,0-4.275c0.543,0,1.066,0,1.604,0c0,2.162,0,4.314,0,6.486C26.376,32.995,23.45,32.995,20.512,32.995z"/>
		<path fill="#1B1A1F" d="M6.755,38.477c0.576,0,1.135,0,1.715,0c-0.145,0.384-0.313,0.741-0.441,1.11
			c-0.161,0.457-0.284,0.921-0.333,1.399c-0.033,0.33,0,0.651,0.091,0.971c0.03,0.111,0.084,0.221,0.151,0.316
			c0.234,0.328,0.605,0.361,0.89,0.08c0.162-0.162,0.261-0.353,0.355-0.559c0.231-0.506,0.394-1.041,0.608-1.558
			c0.166-0.397,0.353-0.782,0.608-1.132c0.591-0.809,1.396-1.143,2.384-1.02c1.008,0.123,1.656,0.728,2.028,1.647
			c0.299,0.735,0.34,1.503,0.29,2.282c-0.064,0.936-0.374,1.79-0.84,2.605c-0.624,0-1.243,0-1.894,0
			c0.215-0.364,0.437-0.699,0.619-1.055c0.376-0.721,0.573-1.484,0.482-2.307c-0.02-0.182-0.067-0.354-0.152-0.516
			c-0.252-0.489-0.812-0.553-1.165-0.135c-0.208,0.25-0.329,0.545-0.445,0.841c-0.201,0.524-0.369,1.066-0.61,1.579
			c-0.218,0.466-0.487,0.885-0.875,1.232c-0.888,0.789-2.839,0.904-3.684-0.703c-0.255-0.477-0.393-0.99-0.443-1.521
			C5.978,40.791,6.234,39.61,6.755,38.477z"/>
		<path fill="#D31F41" d="M20.515,50c0-0.719,0-1.431,0-2.158c2.929,0,5.854,0,8.797,0c0,0.717,0,1.431,0,2.158
			C26.376,50,23.45,50,20.515,50z"/>
		<path fill="#D31F41" d="M6.192,50.004c0-0.731,0-1.441,0-2.162c2.932,0,5.854,0,8.795,0c0,0.713,0,1.431,0,2.162
			C12.056,50.004,9.134,50.004,6.192,50.004z"/>
		<path fill="#1B1A1F" d="M17.752,50.127c-0.683,0.004-1.226-0.535-1.234-1.217c-0.002-0.668,0.552-1.23,1.23-1.234
			c0.665-0.01,1.231,0.548,1.23,1.228C18.968,49.694,18.325,50.148,17.752,50.127z"/>
		<path fill="#1B1A1F" d="M2.206,17.091c0,0.299,0,0.58,0,0.861c0,0.282,0,0.563,0,0.847c0.467,0.012,0.788-0.355,0.747-0.844
			c-0.016-0.208-0.062-0.407-0.164-0.591c-0.038-0.074-0.077-0.147-0.112-0.217c0.019-0.015,0.022-0.025,0.03-0.025
			c0.454-0.037,0.52,0.007,0.656,0.438c0.053,0.177,0.084,0.352,0.084,0.536c0.001,0.555-0.309,0.999-0.836,1.172
			c-0.313,0.1-0.636,0.111-0.961,0.015c-0.668-0.199-1.007-0.877-0.761-1.532c0.063-0.165,0.164-0.305,0.306-0.408
			C1.492,17.136,1.833,17.077,2.206,17.091z M1.861,17.589c-0.426,0.06-0.602,0.24-0.594,0.601c0.009,0.355,0.208,0.57,0.594,0.609
			C1.861,18.401,1.861,17.996,1.861,17.589z"/>
		<path fill="#1B1A1F" d="M2.202,30.021c0,0.591,0,1.166,0,1.737c0.625-0.042,0.872-0.573,0.699-1.178
			c-0.049-0.172-0.141-0.331-0.225-0.485c0.022-0.016,0.035-0.031,0.047-0.031c0.462-0.014,0.557,0.053,0.661,0.506
			c0.054,0.236,0.086,0.476,0.037,0.717c-0.141,0.726-0.861,1.139-1.67,0.96c-0.705-0.155-1.086-0.791-0.885-1.485
			c0.058-0.202,0.172-0.375,0.348-0.495C1.508,30.067,1.839,30.005,2.202,30.021z M1.857,31.754c0-0.416,0-0.816,0-1.215
			c-0.369,0.02-0.562,0.188-0.586,0.491C1.235,31.422,1.415,31.65,1.857,31.754z"/>
		<path fill="#1B1A1F" d="M3.385,41.474c0,0.167,0,0.321,0,0.466c-0.075,0.059-0.167,0-0.245,0.064
			c0.06,0.097,0.134,0.188,0.187,0.293c0.296,0.549,0.01,1.146-0.605,1.256c-0.168,0.027-0.341,0.039-0.514,0.039
			c-0.439-0.006-0.875,0-1.329,0c0-0.173,0-0.331,0-0.518c0.133,0,0.268,0,0.403,0c0.394,0,0.789,0.008,1.183,0
			c0.32-0.007,0.472-0.123,0.536-0.383c0.058-0.24-0.09-0.573-0.297-0.693c-0.074-0.038-0.149-0.031-0.227-0.031
			c-0.447,0-0.894,0.004-1.339,0c-0.084,0-0.171,0.02-0.266-0.024c0-0.147,0-0.305,0-0.456C1.077,41.447,2.857,41.436,3.385,41.474z
			"/>
		<path fill="#1B1A1F" d="M3.385,39.717c0,0.17,0,0.321,0,0.484c-0.836,0-1.668,0-2.512,0c0-0.16,0-0.312,0-0.477
			c0.092-0.004,0.176-0.012,0.264-0.012c0.021-0.084-0.062-0.111-0.102-0.161c-0.461-0.591-0.165-1.378,0.573-1.444
			c0.084-0.008,0.172-0.025,0.26-0.025c0.499-0.004,0.993-0.004,1.506-0.004c0,0.174,0,0.334,0,0.518c-0.487,0-0.973,0-1.461-0.004
			c-0.133-0.004-0.26,0.011-0.379,0.061c-0.257,0.098-0.363,0.344-0.275,0.607c0.101,0.303,0.299,0.457,0.621,0.457
			C2.378,39.721,2.875,39.717,3.385,39.717z"/>
		<path fill="#1B1A1F" d="M3.2,26.261c-0.158,0-0.321,0-0.497,0c0.006-0.1,0.079-0.173,0.114-0.25
			c0.077-0.146,0.141-0.294,0.165-0.459c0.02-0.112,0.016-0.225-0.045-0.327c-0.095-0.166-0.241-0.185-0.378-0.053
			c-0.11,0.11-0.174,0.251-0.251,0.385c-0.099,0.165-0.19,0.325-0.32,0.467c-0.186,0.202-0.413,0.272-0.675,0.206
			c-0.256-0.07-0.392-0.26-0.453-0.509c-0.097-0.365-0.005-0.694,0.162-1.024c0.155,0,0.303,0,0.482,0
			c-0.06,0.128-0.116,0.239-0.162,0.355c-0.055,0.142-0.088,0.296-0.06,0.455c0.016,0.1,0.056,0.182,0.158,0.214
			c0.099,0.03,0.169-0.026,0.222-0.1c0.098-0.137,0.193-0.279,0.287-0.425c0.089-0.143,0.191-0.281,0.302-0.416
			c0.3-0.369,0.87-0.217,1.056,0.108c0.19,0.323,0.16,0.656,0.072,0.995C3.341,26.015,3.295,26.147,3.2,26.261z"/>
		<path fill="#1B1A1F" d="M0.876,35.4c0-0.193,0-0.359,0-0.553c0.488-0.218,0.988-0.436,1.521-0.675
			c-0.529-0.229-1.021-0.442-1.521-0.652c-0.018-0.178-0.018-0.343-0.004-0.512c0.082-0.022,0.138,0.021,0.202,0.049
			c0.728,0.316,1.461,0.633,2.192,0.949c0.034,0.01,0.066,0.025,0.095,0.037c0.119,0.07,0.126,0.192-0.004,0.252
			C2.536,34.668,1.716,35.027,0.876,35.4z"/>
		<path fill="#1B1A1F" d="M2.817,20.153c0.162,0,0.302,0,0.463,0c0.127,0.267,0.215,0.538,0.138,0.835
			c-0.081,0.339-0.292,0.542-0.644,0.564c-0.378,0.021-0.754,0.014-1.135,0.014c-0.088,0-0.187,0-0.281,0
			C1.3,21.71,1.356,21.861,1.316,22.026c-0.352-0.285-0.615-0.625-0.938-0.928c0.161-0.078,0.318-0.017,0.469-0.057
			c0.053-0.246-0.012-0.505,0.038-0.766c0.141,0,0.269,0,0.425,0c0.049,0.243,0.003,0.498,0.032,0.776
			c0.446,0,0.889,0.012,1.329-0.003c0.204-0.007,0.306-0.158,0.312-0.373c0.004-0.096-0.028-0.187-0.054-0.275
			C2.901,20.325,2.859,20.25,2.817,20.153z"/>
		<path fill="#1B1A1F" d="M25.697,64.883c0.272,0.014,0.538-0.021,0.797,0.031c0.284,0.05,0.482,0.197,0.545,0.479
			c0.059,0.283-0.021,0.527-0.281,0.693c-0.021,0.016-0.038,0.029-0.065,0.053c0.358,0.29,0.502,0.729,0.801,1.07
			c-0.372,0.084-0.376,0.084-0.562-0.211c-0.13-0.2-0.249-0.411-0.411-0.587c-0.131-0.138-0.277-0.229-0.494-0.161
			c0,0.322,0,0.65,0,0.984c-0.114,0.027-0.214,0.018-0.328,0.01C25.697,66.461,25.697,65.68,25.697,64.883z M26.033,65.191
			c0,0.242,0,0.467,0,0.71c0.231-0.003,0.464,0.07,0.61-0.173c0.069-0.114,0.076-0.249,0-0.361
			C26.494,65.135,26.265,65.195,26.033,65.191z"/>
		<path fill="#1B1A1F" d="M3.385,28.376c0,0.179,0,0.335,0,0.501c-0.838,0-1.668,0-2.512,0c0-0.162,0-0.322,0-0.495
			c0.166,0,0.316,0,0.521,0c-0.271-0.225-0.565-0.379-0.577-0.731c-0.003-0.232,0.112-0.423,0.292-0.587
			c0.151,0.05,0.278,0.157,0.417,0.232c-0.009,0.105-0.086,0.155-0.128,0.224c-0.179,0.295-0.063,0.511,0.105,0.667
			c0.156,0.137,0.344,0.19,0.546,0.19C2.49,28.376,2.928,28.376,3.385,28.376z"/>
		<path fill="#1B1A1F" d="M23.084,66.552c-0.106,0.246-0.199,0.464-0.299,0.686c-0.114,0.018-0.224,0.023-0.353-0.007
			c0.335-0.79,0.668-1.564,0.994-2.338c0.087-0.028,0.164-0.022,0.263-0.01c0.344,0.772,0.692,1.552,1.044,2.34
			c-0.123,0.043-0.229,0.021-0.349,0.021c-0.088-0.193-0.186-0.379-0.267-0.578c-0.033-0.086-0.08-0.117-0.17-0.117
			C23.669,66.552,23.38,66.552,23.084,66.552z M23.558,65.412c-0.117,0.297-0.228,0.557-0.336,0.816c0.243,0,0.46,0,0.696,0
			C23.795,65.954,23.687,65.708,23.558,65.412z"/>
		<path fill="#1B1A1F" d="M20.854,67.24c-0.126,0-0.231,0-0.34,0c0-0.776,0-1.544,0-2.358c0.354,0.015,0.72-0.05,1.075,0.064
			c0.263,0.085,0.404,0.329,0.398,0.632c0,0.282-0.145,0.493-0.408,0.59c-0.11,0.041-0.231,0.057-0.352,0.053
			c-0.116-0.002-0.236,0-0.374,0C20.854,66.572,20.854,66.902,20.854,67.24z M20.859,65.901c0.183,0,0.338,0.018,0.489-0.003
			c0.179-0.021,0.276-0.166,0.279-0.342c0.005-0.176-0.077-0.277-0.258-0.338c-0.167-0.047-0.335-0.023-0.513-0.027
			C20.859,65.441,20.859,65.666,20.859,65.901z"/>
		<path fill="#1B1A1F" d="M31.097,65.367c-0.067,0.004-0.104-0.055-0.158-0.081c-0.067-0.029-0.133-0.07-0.208-0.091
			c-0.231-0.064-0.457,0.01-0.513,0.164c-0.062,0.145,0.021,0.281,0.246,0.425c0.152,0.097,0.315,0.181,0.459,0.287
			c0.262,0.196,0.352,0.516,0.252,0.8c-0.104,0.275-0.362,0.419-0.714,0.398c-0.197-0.012-0.385-0.074-0.557-0.197
			c-0.027-0.131-0.013-0.263-0.01-0.422c0.08,0.066,0.145,0.127,0.209,0.174c0.152,0.107,0.318,0.167,0.51,0.125
			c0.266-0.058,0.351-0.289,0.182-0.5c-0.085-0.105-0.2-0.164-0.311-0.232c-0.123-0.087-0.258-0.164-0.379-0.263
			c-0.222-0.185-0.292-0.437-0.193-0.697c0.097-0.252,0.296-0.364,0.56-0.384c0.074-0.009,0.153-0.009,0.231,0
			C31.063,64.896,31.14,64.987,31.097,65.367z"/>
		<path fill="#1B1A1F" d="M0.876,36.82c0-0.169,0-0.32,0-0.482c0.833,0,1.656,0,2.495,0c0.047,0.148,0.015,0.307,0.022,0.482
			C2.554,36.82,1.722,36.82,0.876,36.82z"/>
		<path fill="#1B1A1F" d="M3.392,23.422c-0.853,0-1.676,0-2.508,0c-0.042-0.166-0.011-0.325-0.025-0.492c0.851,0,1.673,0,2.507,0
			C3.421,23.085,3.386,23.243,3.392,23.422z"/>
		<path fill="#1B1A1F" d="M28.776,67.24c-0.117,0-0.218,0-0.325,0c0-0.782,0-1.55,0-2.334c0.104-0.042,0.205-0.025,0.325-0.014
			C28.776,65.676,28.776,66.446,28.776,67.24z"/>
		<path fill="#1B1A1F" d="M0.11,22.869c0.162-0.002,0.288,0.111,0.295,0.279c0.01,0.188-0.105,0.316-0.285,0.316
			c-0.177,0.002-0.295-0.109-0.303-0.273C-0.192,23.015-0.065,22.874,0.11,22.869z"/>
		<path fill="#1B1A1F" d="M0.409,36.581c0,0.165-0.123,0.296-0.285,0.305c-0.158,0.005-0.309-0.141-0.309-0.308
			c0.003-0.17,0.147-0.311,0.313-0.303C0.279,36.282,0.409,36.416,0.409,36.581z"/>
		<path fill="none" d="M9.837,77.942c-0.683,0-1.342,0-2.03,0c0-0.341-0.01-0.671,0.006-1.002c0.009-0.212,0.028-0.428,0.077-0.636
			c0.113-0.478,0.39-0.719,0.857-0.732c0.545-0.021,0.856,0.185,1.006,0.654c0.049,0.166,0.081,0.336,0.084,0.504
			C9.845,77.127,9.837,77.521,9.837,77.942z"/>
		<path fill="none" d="M22.245,8.601c-0.011-0.799,0.2-1.508,0.791-2.077c0.358-0.349,0.798-0.557,1.296-0.642
			c0.571-0.103,1.14-0.07,1.69,0.152c0.674,0.272,1.136,0.766,1.377,1.445c0.277,0.782,0.272,1.571-0.044,2.343
			c-0.396,0.968-1.161,1.457-2.183,1.544c-0.537,0.05-1.064-0.024-1.55-0.272c-0.861-0.446-1.27-1.195-1.375-2.132
			C22.234,8.843,22.245,8.72,22.245,8.601z"/>
		<path fill="none" d="M27.698,42.153c-1.867,0-3.706,0-5.563,0c0-0.565,0.006-1.124,0-1.681c0-0.2,0.035-0.396,0.082-0.588
			c0.246-1.071,0.905-1.722,1.986-1.941c0.621-0.125,1.232-0.094,1.828,0.121c0.879,0.312,1.389,0.949,1.582,1.848
			c0.067,0.311,0.084,0.627,0.088,0.943C27.701,41.281,27.698,41.702,27.698,42.153z"/>
		<path fill="none" d="M27.698,59.436c-1.867,0-3.706,0-5.567,0c0-0.225-0.005-0.439,0.004-0.652
			c0.009-0.479-0.035-0.959,0.047-1.442c0.204-1.202,0.92-1.931,2.121-2.13c0.712-0.123,1.405-0.061,2.059,0.273
			c0.707,0.362,1.099,0.963,1.254,1.732c0.083,0.408,0.083,0.816,0.08,1.231C27.695,58.771,27.698,59.098,27.698,59.436z"/>
		<path fill="none" d="M22.135,20.924c0-0.483-0.03-0.954,0.014-1.421c0.06-0.583,0.413-0.904,0.953-0.909
			c0.557,0,0.92,0.329,0.996,0.906c0.014,0.111,0.014,0.225,0.018,0.339c0,0.355,0,0.714,0,1.087
			C23.45,20.924,22.812,20.924,22.135,20.924z"/>
		<path fill="none" d="M9.799,58.051c-0.675,0-1.315,0-1.995,0c0.024-0.552-0.067-1.097,0.076-1.639
			c0.119-0.463,0.411-0.697,0.894-0.703c0.385-0.006,0.762,0.135,0.938,0.654c0.042,0.131,0.081,0.264,0.084,0.403
			c0.003,0.353,0.003,0.704,0.003,1.058C9.799,57.889,9.799,57.956,9.799,58.051z"/>
		<path fill="none" d="M8.312,67.853c1.156-0.481,2.262-0.938,3.384-1.403c0,0.905,0,1.779,0,2.68
			C10.576,68.708,9.474,68.292,8.312,67.853z"/>
		<path fill="none" d="M1.861,17.589c0,0.407,0,0.809,0,1.21c-0.387-0.038-0.585-0.25-0.594-0.609
			C1.259,17.829,1.435,17.649,1.861,17.589z"/>
		<path fill="none" d="M1.857,31.754c-0.442-0.104-0.625-0.333-0.586-0.721c0.024-0.306,0.217-0.475,0.586-0.492
			C1.857,30.938,1.857,31.338,1.857,31.754z"/>
		<path fill="none" d="M26.033,65.191c0.231,0.004,0.461-0.057,0.61,0.176c0.076,0.115,0.069,0.247,0,0.365
			c-0.149,0.239-0.379,0.166-0.61,0.169C26.033,65.658,26.033,65.434,26.033,65.191z"/>
		<path fill="none" d="M23.558,65.412c0.129,0.296,0.237,0.542,0.36,0.816c-0.239,0-0.457,0-0.696,0
			C23.33,65.965,23.44,65.709,23.558,65.412z"/>
		<path fill="none" d="M20.859,65.901c0-0.235,0-0.464,0-0.71c0.18,0.004,0.344-0.021,0.514,0.027
			c0.179,0.057,0.26,0.162,0.257,0.338c-0.002,0.18-0.103,0.32-0.278,0.342C21.197,65.919,21.042,65.901,20.859,65.901z"/>
	</g>
</g>
</svg>
