<?xml version="1.0" encoding="utf-8"?>
<!-- Generator: Adobe Illustrator 16.0.0, SVG Export Plug-In . SVG Version: 6.00 Build 0)  -->
<!DOCTYPE svg PUBLIC "-//W3C//DTD SVG 1.1//EN" "http://www.w3.org/Graphics/SVG/1.1/DTD/svg11.dtd">
<svg version="1.1" id="Layer_1" xmlns="http://www.w3.org/2000/svg" xmlns:xlink="http://www.w3.org/1999/xlink" x="0px" y="0px"
	 width="29.668px" height="68.5px" viewBox="13.053 52.038 29.668 68.5" enable-background="new 13.053 52.038 29.668 68.5"
	 xml:space="preserve">
<g>
	<rect x="13.053" y="52.038" fill="#FFFFFF" width="29.668" height="68.5"/>
	<g>
		<path fill="none" d="M41.384,107.531c0,3.836,0,7.672,0,11.516c-5.019,0-10.035,0-15.052,0c-0.006-0.559-0.009-1.117-0.016-1.693
			c-0.909,0-1.798,0-2.694,0c0-0.463,0-0.906,0-1.352c0.002-0.23-0.021-0.457-0.083-0.68c-0.229-0.793-0.743-1.303-1.555-1.455
			c-0.817-0.152-1.496,0.125-1.984,0.807c-0.286,0.4-0.389,0.863-0.392,1.352c-0.002,1.008,0,2.014,0,3.021
			c-1.638,0-3.275,0-4.912,0c0-15.721,0-31.443,0-47.165c0.204,0.089,0.41,0.177,0.614,0.267c0.049-0.168-0.007-0.273-0.137-0.356
			c-0.13-0.08-0.242-0.18-0.363-0.268c-0.032-0.021-0.059-0.08-0.114-0.035c0-6.101,0-12.203,0-18.315c5.267,0,10.535,0,15.803,0
			c0.001,0.071,0.005,0.143,0.005,0.215c0.001,2.029,0.001,4.062,0.003,6.09c0,0.07-0.022,0.142,0.016,0.207
			c0.409,0,0.811,0,1.228,0c0-0.808,0-1.606,0-2.424c1.829,0,3.645,0,5.454,0c0-0.568,0-1.114,0-1.678c-1.823,0-3.635,0-5.45,0
			c0-0.815,0-1.613,0-2.41c3.21,0,6.422,0,9.63,0c0,18.08,0,36.16,0,54.24c-0.378,0-0.754,0-1.132,0
			c-0.009,0.107-0.018,0.184,0.011,0.273c0.245,0,0.484,0,0.745,0c-0.221,0.496-0.435,0.971-0.644,1.447
			c0.077,0.041,0.14,0.088,0.216,0.092c0.061-0.043,0.068-0.105,0.094-0.156c0.121-0.268,0.233-0.537,0.361-0.805
			C41.151,108.021,41.232,107.76,41.384,107.531z M37.303,64.93c-0.002-1.141-0.157-1.816-0.521-2.437
			c-0.576-0.988-1.427-1.607-2.568-1.724c-1.266-0.13-2.286,0.37-3.053,1.375c-0.438,0.576-0.652,1.243-0.718,1.959
			c-0.082,0.88,0.027,1.726,0.46,2.505c0.579,1.056,1.479,1.687,2.685,1.799c1.138,0.102,2.088-0.327,2.826-1.194
			C37.054,66.465,37.296,65.569,37.303,64.93z M37.213,91.805c0.002-0.043,0.006-0.068,0.006-0.094c0-0.943,0.009-1.885-0.004-2.83
			c-0.005-0.561-0.083-1.117-0.271-1.654c-0.294-0.828-0.809-1.461-1.628-1.812c-0.626-0.271-1.286-0.335-1.959-0.243
			c-0.897,0.124-1.635,0.527-2.168,1.272c-0.489,0.685-0.669,1.468-0.681,2.292c-0.016,0.969-0.004,1.939-0.003,2.908
			c0,0.051-0.017,0.104,0.021,0.16C32.748,91.805,34.97,91.805,37.213,91.805z M30.526,104.943c2.226,0,4.453,0,6.684,0
			c0.002-0.031,0.009-0.051,0.009-0.07c0-0.955,0.01-1.912-0.006-2.867c-0.008-0.656-0.112-1.299-0.383-1.906
			c-0.355-0.795-0.93-1.352-1.759-1.627c-0.572-0.191-1.163-0.23-1.76-0.141c-1.055,0.16-1.847,0.695-2.353,1.639
			c-0.326,0.607-0.445,1.266-0.452,1.945c-0.008,0.943-0.003,1.887-0.001,2.828C30.506,104.811,30.489,104.875,30.526,104.943z
			 M34.077,71.577c-0.057-0.093-0.095-0.164-0.138-0.235c-0.653-1.144-2.029-1.061-2.731-0.415
			c-0.493,0.456-0.694,1.035-0.699,1.686c-0.01,0.962-0.004,1.925-0.002,2.888c0,0.049-0.022,0.105,0.022,0.148
			c2.225,0,4.449,0,6.677,0c0-0.56,0-1.113,0-1.681c-0.905,0-1.8,0-2.706,0c0-0.152,0.004-0.291-0.001-0.427
			c-0.014-0.298,0.113-0.529,0.328-0.721c0.117-0.106,0.249-0.191,0.386-0.271c0.282-0.165,0.583-0.293,0.882-0.423
			c0.373-0.166,0.754-0.321,1.114-0.509c0.026-0.354,0.017-1.673-0.016-1.823c-0.044-0.006-0.075,0.022-0.109,0.039
			c-0.557,0.254-1.117,0.503-1.672,0.766C34.913,70.837,34.398,71.061,34.077,71.577z M23.184,99.838
			c-0.077-0.133-0.133-0.242-0.205-0.346c-0.213-0.316-0.484-0.562-0.855-0.686c-0.775-0.264-1.638,0.027-2.112,0.713
			c-0.278,0.406-0.398,0.865-0.401,1.352c-0.004,0.951-0.001,1.898-0.001,2.85c0,0.057-0.014,0.115,0.02,0.174
			c2.228,0,4.455,0,6.684,0c0-0.561,0-1.107,0-1.674c-0.912,0-1.81,0-2.719,0c0-0.174,0-0.322,0.003-0.473
			c0.007-0.238,0.1-0.443,0.268-0.613c0.175-0.172,0.381-0.299,0.596-0.41c0.419-0.217,0.855-0.389,1.286-0.584
			c0.194-0.09,0.396-0.166,0.565-0.273c0-0.615,0-1.211,0-1.814c-0.032,0.004-0.053,0-0.068,0.008
			c-0.745,0.363-1.519,0.668-2.252,1.059C23.67,99.289,23.381,99.494,23.184,99.838z M26.315,105.756
			c-2.244,0.998-4.473,1.986-6.694,2.975c0,0.658,0,1.303,0,1.953c2.229,0.898,4.453,1.797,6.691,2.697c0-0.613,0-1.191,0-1.777
			c-0.445-0.168-0.88-0.336-1.308-0.496c0-1.014,0-2.006,0-2.996c0.445-0.186,0.878-0.367,1.31-0.549
			C26.315,106.967,26.315,106.377,26.315,105.756z M30.514,83.151c2.237,0,4.465,0,6.693,0c0-1.652,0-3.291,0-4.936
			c-0.41,0-0.81,0-1.221,0c0,1.083,0,2.163,0,3.253c-0.541,0-1.066,0-1.611,0c0-1.016,0-2.02,0-3.025c-0.423,0-0.825,0-1.247,0
			c0,1.019,0,2.023,0,3.027c-0.468,0-0.917,0-1.388,0c0-1.066,0-2.122,0-3.178c-0.424,0-0.818,0-1.227,0
			C30.514,79.916,30.514,81.53,30.514,83.151z M20.044,87.322c-0.395,0.863-0.591,1.762-0.503,2.707
			c0.04,0.406,0.145,0.795,0.337,1.158c0.645,1.223,2.129,1.137,2.806,0.535c0.294-0.262,0.5-0.584,0.666-0.936
			c0.182-0.391,0.311-0.801,0.464-1.203c0.089-0.225,0.179-0.449,0.338-0.637c0.27-0.318,0.694-0.27,0.888,0.1
			c0.064,0.123,0.101,0.256,0.115,0.393c0.07,0.627-0.08,1.205-0.366,1.756c-0.139,0.271-0.306,0.527-0.47,0.803
			c0.494,0,0.967,0,1.44,0c0.354-0.619,0.591-1.271,0.638-1.982c0.038-0.592,0.006-1.176-0.219-1.734
			c-0.286-0.699-0.775-1.162-1.546-1.256c-0.749-0.092-1.362,0.16-1.813,0.777c-0.193,0.266-0.337,0.559-0.464,0.861
			c-0.163,0.391-0.286,0.801-0.462,1.186c-0.07,0.154-0.147,0.305-0.271,0.426c-0.216,0.213-0.499,0.188-0.675-0.061
			c-0.053-0.074-0.094-0.156-0.118-0.246c-0.068-0.24-0.093-0.486-0.068-0.736c0.037-0.367,0.131-0.719,0.251-1.064
			c0.101-0.281,0.227-0.553,0.338-0.846C20.908,87.322,20.485,87.322,20.044,87.322z M30.515,96.094c2.236,0,4.463,0,6.695,0
			c0-0.555,0-1.096,0-1.643c-2.237,0-4.466,0-6.695,0C30.515,95.006,30.515,95.547,30.515,96.094z M19.615,96.096
			c2.241,0,4.466,0,6.693,0c0-0.557,0-1.104,0-1.646c-2.236,0-4.46,0-6.693,0C19.615,95,19.615,95.539,19.615,96.096z
			 M28.414,96.189c0.436,0.018,0.926-0.328,0.934-0.93c0.002-0.518-0.43-0.939-0.937-0.936c-0.515,0.006-0.937,0.432-0.935,0.939
			C27.482,95.783,27.896,96.191,28.414,96.189z M16.582,71.045c-0.286-0.012-0.543,0.034-0.77,0.196
			c-0.109,0.078-0.186,0.183-0.233,0.309c-0.187,0.497,0.07,1.015,0.578,1.166c0.247,0.072,0.493,0.066,0.732-0.012
			c0.402-0.133,0.638-0.469,0.636-0.892c0-0.14-0.021-0.274-0.063-0.407c-0.102-0.329-0.154-0.364-0.499-0.335
			c-0.006,0-0.009,0.007-0.021,0.018c0.025,0.055,0.054,0.112,0.085,0.168c0.076,0.14,0.112,0.292,0.125,0.449
			c0.027,0.369-0.217,0.65-0.569,0.643c0-0.215,0-0.43,0-0.646C16.582,71.489,16.582,71.273,16.582,71.045z M16.579,80.886
			c-0.278-0.011-0.53,0.036-0.752,0.19c-0.135,0.091-0.221,0.221-0.267,0.377c-0.15,0.525,0.14,1.012,0.676,1.129
			c0.616,0.137,1.163-0.178,1.272-0.73c0.037-0.186,0.014-0.367-0.029-0.547c-0.081-0.344-0.153-0.396-0.503-0.386
			c-0.01,0-0.021,0.014-0.037,0.022c0.063,0.119,0.134,0.239,0.172,0.371c0.132,0.461-0.057,0.863-0.532,0.896
			C16.579,81.772,16.579,81.336,16.579,80.886z M17.479,89.604c-0.402-0.027-1.758-0.02-1.911,0.014c0,0.113,0,0.23,0,0.344
			c0.072,0.033,0.137,0.02,0.2,0.02c0.341,0,0.682,0,1.021,0c0.057,0,0.117-0.01,0.172,0.023c0.158,0.09,0.27,0.346,0.225,0.527
			c-0.047,0.195-0.164,0.285-0.405,0.289c-0.301,0.008-0.603,0.002-0.902,0.002c-0.103,0-0.204,0-0.305,0c0,0.143,0,0.262,0,0.391
			c0.344,0,0.677-0.002,1.011,0.002c0.132,0,0.261-0.006,0.391-0.029c0.468-0.086,0.686-0.537,0.461-0.957
			c-0.04-0.078-0.095-0.148-0.141-0.223c0.059-0.049,0.127-0.002,0.184-0.049C17.479,89.846,17.479,89.73,17.479,89.604z
			 M17.479,88.268c-0.387,0-0.767,0.002-1.145,0c-0.242,0-0.396-0.113-0.472-0.348c-0.067-0.199,0.015-0.387,0.208-0.463
			c0.092-0.035,0.189-0.045,0.289-0.043c0.373,0,0.744,0,1.113,0c0-0.139,0-0.26,0-0.392c-0.391,0-0.767-0.001-1.146,0.001
			c-0.066,0-0.132,0.014-0.196,0.02c-0.564,0.051-0.788,0.65-0.438,1.1c0.03,0.037,0.092,0.057,0.077,0.123
			c-0.068,0.002-0.131,0.004-0.201,0.008c0,0.125,0,0.24,0,0.361c0.644,0,1.274,0,1.911,0
			C17.479,88.512,17.479,88.396,17.479,88.268z M17.338,78.026c0.073-0.087,0.107-0.189,0.134-0.287
			c0.068-0.258,0.09-0.512-0.055-0.759c-0.141-0.246-0.574-0.361-0.803-0.081c-0.084,0.1-0.162,0.208-0.231,0.317
			c-0.069,0.11-0.143,0.219-0.218,0.325c-0.042,0.054-0.095,0.097-0.169,0.075c-0.078-0.025-0.107-0.087-0.121-0.163
			c-0.021-0.12,0.006-0.236,0.048-0.346c0.032-0.089,0.077-0.173,0.121-0.27c-0.135,0-0.248,0-0.368,0
			c-0.125,0.25-0.194,0.502-0.122,0.779c0.05,0.19,0.151,0.335,0.347,0.387c0.198,0.052,0.373-0.001,0.514-0.156
			c0.098-0.108,0.168-0.23,0.243-0.355c0.059-0.1,0.106-0.208,0.191-0.292c0.104-0.101,0.217-0.084,0.288,0.041
			c0.046,0.079,0.047,0.163,0.036,0.248c-0.019,0.125-0.068,0.238-0.126,0.348c-0.028,0.061-0.083,0.115-0.088,0.191
			C17.094,78.026,17.217,78.026,17.338,78.026z M15.568,84.981c0.643-0.282,1.267-0.558,1.891-0.838
			c0.098-0.044,0.095-0.136,0.002-0.19c-0.021-0.012-0.046-0.021-0.072-0.031c-0.554-0.24-1.112-0.48-1.669-0.721
			c-0.048-0.021-0.092-0.054-0.152-0.038c-0.01,0.127-0.012,0.256,0.001,0.39c0.381,0.16,0.755,0.324,1.157,0.496
			c-0.406,0.181-0.785,0.348-1.157,0.514C15.568,84.707,15.568,84.834,15.568,84.981z M17.047,73.378
			c0.032,0.072,0.062,0.13,0.084,0.191c0.022,0.066,0.045,0.135,0.042,0.208c-0.006,0.163-0.083,0.278-0.237,0.283
			c-0.337,0.009-0.673,0.001-1.015,0.001c-0.02-0.211,0.015-0.406-0.023-0.591c-0.117,0-0.217,0-0.323,0
			c-0.038,0.2,0.011,0.396-0.029,0.583c-0.115,0.031-0.235-0.016-0.358,0.042c0.249,0.232,0.448,0.49,0.715,0.708
			c0.032-0.126-0.01-0.24,0.034-0.35c0.072,0,0.146,0,0.216,0c0.288-0.002,0.575,0.005,0.862-0.012
			c0.268-0.017,0.427-0.17,0.49-0.429c0.058-0.228-0.007-0.434-0.105-0.634C17.276,73.378,17.169,73.378,17.047,73.378z
			 M34.46,107.422c0,0.607,0,1.199,0,1.795c0.086,0.006,0.163,0.014,0.25-0.008c0-0.256,0-0.502,0-0.75
			c0.165-0.049,0.278,0.02,0.375,0.123c0.126,0.135,0.216,0.295,0.313,0.449c0.145,0.225,0.147,0.225,0.429,0.158
			c-0.227-0.258-0.336-0.594-0.608-0.812c0.021-0.018,0.034-0.033,0.051-0.041c0.197-0.125,0.257-0.312,0.212-0.527
			c-0.047-0.215-0.198-0.328-0.413-0.365C34.869,107.404,34.669,107.43,34.46,107.422z M17.479,79.634c-0.349,0-0.682-0.001-1.017,0
			c-0.155,0.001-0.298-0.04-0.416-0.145c-0.129-0.117-0.216-0.282-0.08-0.507c0.032-0.054,0.092-0.091,0.098-0.169
			c-0.107-0.059-0.201-0.139-0.318-0.179c-0.136,0.126-0.227,0.273-0.221,0.45c0.009,0.266,0.232,0.385,0.438,0.555
			c-0.155,0-0.271,0-0.395,0c0,0.135,0,0.254,0,0.377c0.642,0,1.272,0,1.91,0C17.479,79.889,17.479,79.771,17.479,79.634z
			 M32.475,108.689c0.226,0,0.441,0,0.654,0c0.067-0.002,0.104,0.023,0.132,0.09c0.062,0.148,0.135,0.291,0.203,0.439
			c0.089,0,0.171,0.018,0.264-0.016c-0.267-0.602-0.532-1.195-0.792-1.781c-0.075-0.01-0.135-0.016-0.199,0.008
			c-0.25,0.588-0.502,1.178-0.758,1.779c0.1,0.021,0.181,0.018,0.27,0.004C32.319,109.043,32.393,108.877,32.475,108.689z
			 M30.775,109.215c0-0.258,0-0.508,0-0.773c0.106,0,0.195-0.002,0.284,0c0.093,0.002,0.184-0.01,0.27-0.041
			c0.198-0.076,0.309-0.234,0.309-0.453c0.005-0.227-0.103-0.412-0.303-0.477c-0.27-0.088-0.549-0.039-0.819-0.049
			c0,0.617,0,1.205,0,1.793C30.601,109.215,30.68,109.215,30.775,109.215z M38.571,107.791c0.032-0.289-0.027-0.361-0.305-0.379
			c-0.058-0.006-0.118-0.006-0.175,0c-0.201,0.014-0.353,0.102-0.424,0.293c-0.074,0.199-0.021,0.391,0.147,0.529
			c0.091,0.072,0.194,0.135,0.289,0.199c0.082,0.053,0.171,0.1,0.234,0.178c0.131,0.16,0.066,0.336-0.137,0.381
			c-0.146,0.033-0.272-0.016-0.389-0.096c-0.052-0.035-0.098-0.08-0.159-0.131c-0.004,0.121-0.013,0.225,0.007,0.322
			c0.131,0.094,0.271,0.143,0.423,0.15c0.267,0.016,0.465-0.096,0.543-0.301c0.077-0.221,0.009-0.461-0.19-0.611
			c-0.11-0.082-0.232-0.146-0.349-0.219c-0.172-0.109-0.234-0.213-0.188-0.324c0.045-0.117,0.215-0.174,0.393-0.127
			c0.056,0.018,0.106,0.049,0.158,0.072C38.492,107.748,38.52,107.793,38.571,107.791z M15.569,86.062c0.644,0,1.275,0,1.916,0
			c-0.006-0.132,0.019-0.253-0.018-0.367c-0.638,0-1.265,0-1.899,0C15.569,85.818,15.569,85.934,15.569,86.062z M17.485,75.863
			c-0.005-0.135,0.021-0.255-0.02-0.373c-0.634,0-1.261,0-1.906,0c0.009,0.126-0.017,0.246,0.017,0.373
			C16.21,75.863,16.836,75.863,17.485,75.863z M36.806,109.215c0-0.604,0-1.189,0-1.785c-0.09-0.01-0.17-0.023-0.248,0.01
			c0,0.596,0,1.182,0,1.775C36.641,109.215,36.716,109.215,36.806,109.215z M14.985,75.444c-0.134,0.003-0.229,0.111-0.222,0.245
			c0.007,0.127,0.097,0.209,0.231,0.208c0.138,0,0.225-0.096,0.218-0.239C15.206,75.53,15.11,75.441,14.985,75.444z M15.213,85.88
			c0-0.124-0.097-0.228-0.213-0.231c-0.126-0.006-0.237,0.102-0.238,0.23c-0.001,0.125,0.114,0.236,0.236,0.232
			C15.12,86.105,15.213,86.006,15.213,85.88z"/>
		<path fill="#1B1A1F" d="M19.607,119.047c0-1.008-0.001-2.014,0.001-3.021c0.002-0.486,0.104-0.951,0.391-1.352
			c0.489-0.682,1.168-0.959,1.984-0.807c0.812,0.152,1.326,0.662,1.555,1.455c0.063,0.223,0.086,0.449,0.084,0.68
			c-0.001,0.445-0.001,0.889-0.001,1.352c0.897,0,1.785,0,2.694,0c0.007,0.576,0.01,1.135,0.017,1.693
			C24.089,119.047,21.848,119.047,19.607,119.047z M22.391,117.359c0-0.32,0.006-0.621-0.001-0.92
			c-0.003-0.129-0.027-0.26-0.065-0.385c-0.113-0.357-0.349-0.512-0.763-0.498c-0.357,0.01-0.57,0.195-0.654,0.557
			c-0.039,0.16-0.053,0.322-0.058,0.484c-0.013,0.252-0.004,0.504-0.004,0.762C21.367,117.359,21.87,117.359,22.391,117.359z"/>
		<path fill="#1B1A1F" d="M31.753,53.174c0,0.797,0,1.595,0,2.41c1.816,0,3.627,0,5.451,0c0,0.564,0,1.11,0,1.678
			c-1.81,0-3.626,0-5.455,0c0,0.818,0,1.616,0,2.424c-0.416,0-0.818,0-1.228,0c-0.038-0.064-0.016-0.136-0.016-0.207
			c-0.002-2.029-0.002-4.061-0.003-6.09c0-0.072-0.004-0.144-0.004-0.215C30.914,53.174,31.335,53.174,31.753,53.174z"/>
		<path fill="#1B1A1F" d="M41.384,107.531c-0.151,0.229-0.231,0.49-0.349,0.736c-0.127,0.266-0.239,0.537-0.361,0.803
			c-0.024,0.053-0.033,0.115-0.094,0.156c-0.075-0.004-0.138-0.049-0.216-0.09c0.209-0.479,0.423-0.951,0.645-1.449
			c-0.262,0-0.5,0-0.745,0c-0.028-0.088-0.02-0.166-0.011-0.273c0.378,0,0.755,0,1.132,0
			C41.384,107.453,41.384,107.492,41.384,107.531z"/>
		<path fill="#1B1A1F" d="M14.696,71.49c0.055-0.044,0.081,0.014,0.113,0.035c0.121,0.088,0.233,0.188,0.363,0.268
			c0.131,0.083,0.187,0.189,0.137,0.356c-0.203-0.089-0.41-0.178-0.613-0.267C14.696,71.752,14.696,71.621,14.696,71.49z"/>
		<path fill="#1B1A1F" d="M37.303,64.93c-0.007,0.639-0.249,1.537-0.889,2.285c-0.738,0.867-1.688,1.297-2.826,1.194
			c-1.205-0.112-2.105-0.743-2.685-1.799c-0.432-0.78-0.542-1.626-0.46-2.505c0.065-0.717,0.28-1.383,0.718-1.959
			c0.767-1.007,1.787-1.505,3.053-1.375c1.142,0.118,1.992,0.736,2.568,1.724C37.146,63.114,37.301,63.789,37.303,64.93z
			 M31.833,64.583c0,0.091-0.009,0.185,0.002,0.273c0.081,0.714,0.389,1.284,1.046,1.623c0.369,0.191,0.771,0.248,1.182,0.21
			c0.777-0.07,1.359-0.441,1.662-1.179c0.24-0.585,0.243-1.187,0.033-1.781c-0.185-0.518-0.536-0.893-1.05-1.1
			c-0.418-0.169-0.851-0.195-1.287-0.116c-0.377,0.067-0.712,0.224-0.985,0.49C31.987,63.435,31.824,63.977,31.833,64.583z"/>
		<path fill="#1B1A1F" d="M37.213,91.805c-2.243,0-4.465,0-6.687,0c-0.038-0.057-0.021-0.109-0.021-0.16
			c-0.001-0.971-0.013-1.939,0.004-2.908c0.01-0.824,0.19-1.607,0.681-2.293c0.533-0.744,1.271-1.148,2.167-1.272
			c0.673-0.091,1.335-0.026,1.96,0.243c0.819,0.352,1.334,0.985,1.628,1.812c0.188,0.537,0.267,1.094,0.271,1.654
			c0.012,0.945,0.005,1.889,0.005,2.83C37.219,91.734,37.215,91.762,37.213,91.805z M35.984,90.121c0-0.344,0.003-0.666,0-0.984
			c-0.002-0.242-0.015-0.484-0.067-0.721c-0.149-0.684-0.534-1.168-1.204-1.406c-0.453-0.162-0.917-0.189-1.391-0.093
			c-0.82,0.167-1.324,0.663-1.51,1.478c-0.035,0.146-0.062,0.295-0.062,0.447c0.004,0.424,0.001,0.846,0.001,1.279
			C33.165,90.121,34.563,90.121,35.984,90.121z"/>
		<path fill="#1B1A1F" d="M30.526,104.943c-0.037-0.068-0.021-0.135-0.021-0.199c-0.002-0.941-0.007-1.885,0.001-2.826
			c0.007-0.682,0.126-1.34,0.452-1.947c0.506-0.943,1.298-1.479,2.353-1.637c0.597-0.092,1.188-0.051,1.76,0.139
			c0.829,0.275,1.403,0.832,1.759,1.627c0.271,0.607,0.375,1.25,0.383,1.906c0.015,0.955,0.006,1.912,0.006,2.869
			c0,0.018-0.007,0.037-0.009,0.07C34.979,104.943,32.751,104.943,30.526,104.943z M35.984,103.273c0-0.256-0.002-0.504,0-0.75
			c0.003-0.314,0.001-0.629-0.062-0.939c-0.118-0.582-0.417-1.039-0.955-1.316c-0.496-0.254-1.023-0.301-1.565-0.209
			c-0.916,0.154-1.459,0.707-1.615,1.621c-0.062,0.367-0.028,0.732-0.036,1.098c-0.007,0.162-0.003,0.326-0.003,0.496
			C33.165,103.273,34.563,103.273,35.984,103.273z"/>
		<path fill="#1B1A1F" d="M34.077,71.577c0.321-0.517,0.836-0.74,1.336-0.977c0.555-0.263,1.115-0.512,1.671-0.766
			c0.035-0.016,0.065-0.045,0.108-0.038c0.032,0.15,0.043,1.468,0.016,1.823c-0.359,0.188-0.739,0.343-1.114,0.509
			c-0.299,0.13-0.6,0.259-0.882,0.423c-0.136,0.079-0.268,0.165-0.386,0.271c-0.214,0.191-0.341,0.423-0.328,0.72
			c0.006,0.136,0.002,0.274,0.002,0.426c0.905,0,1.8,0,2.705,0c0,0.568,0,1.12,0,1.681c-2.227,0-4.451,0-6.677,0
			c-0.045-0.042-0.022-0.099-0.022-0.148c-0.002-0.963-0.007-1.925,0.003-2.888c0.005-0.65,0.206-1.229,0.699-1.686
			c0.7-0.645,2.078-0.729,2.73,0.415C33.982,71.413,34.021,71.484,34.077,71.577z M31.75,73.964c0.516,0,1.002,0,1.506,0
			c0-0.283,0-0.557,0-0.828c-0.001-0.086-0.003-0.172-0.014-0.256c-0.057-0.441-0.334-0.69-0.756-0.69
			c-0.414,0.002-0.682,0.245-0.727,0.691C31.726,73.236,31.75,73.596,31.75,73.964z"/>
		<path fill="#1B1A1F" d="M23.184,99.838c0.197-0.344,0.486-0.549,0.807-0.719c0.734-0.391,1.508-0.695,2.252-1.061
			c0.017-0.008,0.036-0.004,0.068-0.008c0,0.604,0,1.201,0,1.814c-0.169,0.109-0.371,0.186-0.564,0.275
			c-0.432,0.195-0.867,0.365-1.287,0.582c-0.215,0.111-0.421,0.238-0.595,0.41c-0.169,0.172-0.261,0.375-0.269,0.613
			c-0.002,0.15-0.002,0.301-0.002,0.473c0.909,0,1.806,0,2.719,0c0,0.566,0,1.115,0,1.676c-2.229,0-4.457,0-6.684,0
			c-0.034-0.059-0.021-0.119-0.021-0.174c0-0.951-0.003-1.9,0.002-2.852c0.002-0.486,0.123-0.943,0.4-1.35
			c0.476-0.686,1.337-0.977,2.113-0.715c0.37,0.125,0.643,0.371,0.854,0.688C23.051,99.596,23.106,99.705,23.184,99.838z
			 M22.361,102.221c0-0.07,0-0.121,0-0.174c-0.002-0.268,0-0.535-0.004-0.805c-0.002-0.105-0.031-0.207-0.063-0.305
			c-0.135-0.398-0.421-0.502-0.715-0.498c-0.368,0.004-0.589,0.182-0.68,0.535c-0.108,0.41-0.04,0.828-0.058,1.246
			C21.359,102.221,21.847,102.221,22.361,102.221z"/>
		<path fill="#1B1A1F" d="M26.315,105.756c0,0.621,0,1.211,0,1.807c-0.433,0.182-0.865,0.363-1.31,0.549c0,0.99,0,1.982,0,2.996
			c0.427,0.162,0.861,0.328,1.307,0.496c0,0.584,0,1.164,0,1.777c-2.237-0.9-4.461-1.799-6.691-2.697c0-0.648,0-1.295,0-1.953
			C21.843,107.742,24.071,106.754,26.315,105.756z M21.23,109.682c0.883,0.334,1.723,0.65,2.575,0.973c0-0.688,0-1.354,0-2.041
			C22.951,108.967,22.11,109.316,21.23,109.682z"/>
		<path fill="#1B1A1F" d="M30.514,83.151c0-1.622,0-3.235,0-4.859c0.408,0,0.803,0,1.227,0c0,1.056,0,2.111,0,3.177
			c0.47,0,0.92,0,1.388,0c0-1.002,0-2.007,0-3.026c0.422,0,0.825,0,1.247,0c0,1.004,0,2.008,0,3.026c0.545,0,1.07,0,1.611,0
			c0-1.09,0-2.17,0-3.253c0.411,0,0.81,0,1.221,0c0,1.645,0,3.283,0,4.935C34.979,83.151,32.751,83.151,30.514,83.151z"/>
		<path fill="#1B1A1F" d="M20.044,87.322c0.441,0,0.864,0,1.306,0c-0.11,0.293-0.236,0.564-0.337,0.846
			c-0.121,0.348-0.215,0.701-0.251,1.066c-0.025,0.25,0,0.496,0.068,0.736c0.023,0.088,0.064,0.17,0.117,0.244
			c0.177,0.248,0.459,0.275,0.675,0.062c0.124-0.123,0.2-0.271,0.271-0.428c0.177-0.385,0.3-0.791,0.462-1.184
			c0.128-0.303,0.271-0.596,0.465-0.861c0.45-0.617,1.063-0.87,1.813-0.777c0.77,0.094,1.259,0.555,1.545,1.254
			c0.226,0.559,0.258,1.143,0.22,1.736C26.35,90.73,26.114,91.379,25.76,92c-0.474,0-0.947,0-1.441,0
			c0.164-0.277,0.332-0.531,0.47-0.803c0.287-0.551,0.437-1.131,0.366-1.756c-0.014-0.139-0.05-0.27-0.114-0.393
			c-0.193-0.371-0.619-0.42-0.888-0.102c-0.159,0.188-0.25,0.414-0.338,0.639c-0.154,0.4-0.282,0.812-0.465,1.203
			c-0.166,0.352-0.371,0.674-0.666,0.936c-0.676,0.602-2.161,0.688-2.805-0.535c-0.193-0.363-0.298-0.754-0.337-1.158
			C19.453,89.084,19.649,88.186,20.044,87.322z"/>
		<path fill="#D31F41" d="M30.515,96.094c0-0.547,0-1.088,0-1.643c2.229,0,4.458,0,6.695,0c0,0.547,0,1.088,0,1.643
			C34.979,96.094,32.751,96.094,30.515,96.094z"/>
		<path fill="#D31F41" d="M19.615,96.096c0-0.557,0-1.096,0-1.646c2.233,0,4.456,0,6.693,0c0,0.545,0,1.09,0,1.646
			C24.08,96.096,21.856,96.096,19.615,96.096z"/>
		<path fill="#1B1A1F" d="M28.414,96.189c-0.519,0.002-0.932-0.406-0.938-0.926c-0.002-0.508,0.42-0.934,0.935-0.938
			c0.507-0.006,0.938,0.416,0.937,0.934C29.34,95.861,28.85,96.207,28.414,96.189z"/>
		<path fill="#1B1A1F" d="M16.582,71.045c0,0.228,0,0.443,0,0.657c0,0.216,0,0.43,0,0.646c0.353,0.008,0.598-0.273,0.569-0.643
			c-0.012-0.157-0.049-0.309-0.125-0.449c-0.031-0.057-0.059-0.113-0.084-0.168c0.013-0.01,0.016-0.018,0.021-0.018
			c0.345-0.028,0.397,0.006,0.5,0.335c0.041,0.133,0.062,0.267,0.062,0.407c0.002,0.423-0.233,0.758-0.635,0.892
			c-0.24,0.078-0.486,0.084-0.733,0.012c-0.508-0.151-0.764-0.669-0.578-1.166c0.049-0.126,0.124-0.231,0.233-0.309
			C16.039,71.081,16.296,71.034,16.582,71.045z M16.32,71.425c-0.324,0.045-0.458,0.184-0.452,0.459
			c0.005,0.271,0.158,0.435,0.452,0.463C16.32,72.042,16.32,71.735,16.32,71.425z"/>
		<path fill="#1B1A1F" d="M16.579,80.886c0,0.45,0,0.887,0,1.323c0.475-0.033,0.663-0.437,0.532-0.897
			c-0.038-0.132-0.108-0.252-0.172-0.37c0.017-0.01,0.027-0.023,0.037-0.023c0.35-0.011,0.422,0.042,0.503,0.385
			c0.043,0.18,0.066,0.363,0.029,0.548c-0.11,0.553-0.656,0.866-1.272,0.73c-0.536-0.118-0.826-0.604-0.676-1.13
			c0.046-0.154,0.133-0.285,0.267-0.377C16.05,80.922,16.302,80.875,16.579,80.886z M16.319,82.206c0-0.318,0-0.621,0-0.925
			c-0.283,0.016-0.431,0.143-0.45,0.375C15.843,81.953,15.981,82.127,16.319,82.206z"/>
		<path fill="#1B1A1F" d="M17.479,89.604c0,0.127,0,0.244,0,0.354c-0.057,0.045-0.125,0-0.184,0.049
			c0.045,0.074,0.1,0.145,0.141,0.223c0.225,0.418,0.007,0.871-0.461,0.957c-0.13,0.021-0.259,0.029-0.391,0.027
			c-0.334-0.002-0.667,0-1.011,0c0-0.129,0-0.25,0-0.391c0.1,0,0.202,0,0.305,0c0.3,0,0.601,0.004,0.902-0.002
			c0.241-0.004,0.358-0.094,0.405-0.291c0.045-0.182-0.066-0.436-0.225-0.527c-0.055-0.031-0.114-0.023-0.172-0.023
			c-0.34,0-0.681,0.002-1.021,0c-0.063,0-0.129,0.014-0.2-0.02c0-0.111,0-0.229,0-0.344C15.722,89.584,17.077,89.574,17.479,89.604z
			"/>
		<path fill="#1B1A1F" d="M17.479,88.268c0,0.129,0,0.244,0,0.367c-0.637,0-1.268,0-1.911,0c0-0.121,0-0.236,0-0.361
			c0.07-0.004,0.133-0.008,0.201-0.01c0.015-0.064-0.047-0.084-0.077-0.121c-0.35-0.449-0.125-1.049,0.438-1.1
			c0.064-0.006,0.13-0.02,0.196-0.02c0.38-0.002,0.756-0.002,1.146-0.002c0,0.133,0,0.254,0,0.393c-0.37,0-0.74,0-1.113-0.002
			c-0.1-0.002-0.197,0.008-0.289,0.045c-0.193,0.076-0.275,0.264-0.208,0.463c0.075,0.232,0.229,0.348,0.472,0.348
			C16.712,88.27,17.091,88.268,17.479,88.268z"/>
		<path fill="#1B1A1F" d="M17.338,78.026c-0.121,0-0.244,0-0.379,0c0.005-0.077,0.06-0.131,0.088-0.191
			c0.058-0.11,0.107-0.223,0.126-0.348c0.012-0.085,0.01-0.17-0.036-0.248c-0.071-0.125-0.184-0.142-0.287-0.041
			c-0.085,0.083-0.133,0.191-0.191,0.293c-0.075,0.125-0.146,0.248-0.244,0.354c-0.141,0.156-0.315,0.209-0.513,0.157
			c-0.196-0.053-0.298-0.198-0.347-0.387c-0.072-0.277-0.003-0.528,0.122-0.779c0.119,0,0.232,0,0.368,0
			c-0.045,0.097-0.089,0.181-0.122,0.27c-0.042,0.109-0.067,0.226-0.047,0.346c0.013,0.076,0.043,0.138,0.121,0.164
			c0.073,0.022,0.127-0.021,0.168-0.075c0.075-0.106,0.148-0.214,0.218-0.325c0.069-0.109,0.148-0.216,0.231-0.317
			c0.229-0.28,0.663-0.164,0.804,0.081c0.145,0.247,0.122,0.501,0.054,0.759C17.445,77.838,17.411,77.939,17.338,78.026z"/>
		<path fill="#1B1A1F" d="M15.568,84.981c0-0.147,0-0.274,0-0.421c0.373-0.164,0.752-0.332,1.158-0.513
			c-0.402-0.172-0.777-0.335-1.158-0.496c-0.013-0.134-0.011-0.263-0.001-0.39c0.061-0.016,0.104,0.017,0.153,0.038
			c0.556,0.241,1.114,0.481,1.669,0.722c0.025,0.009,0.051,0.018,0.071,0.03c0.093,0.054,0.097,0.146-0.002,0.19
			C16.835,84.424,16.21,84.698,15.568,84.981z"/>
		<path fill="#1B1A1F" d="M17.047,73.378c0.122,0,0.229,0,0.352,0c0.098,0.201,0.163,0.407,0.105,0.634
			c-0.063,0.26-0.223,0.413-0.49,0.429c-0.287,0.017-0.575,0.01-0.863,0.012c-0.069,0-0.144,0-0.215,0
			c-0.045,0.109-0.002,0.224-0.034,0.35c-0.267-0.218-0.466-0.476-0.715-0.708c0.123-0.058,0.242-0.01,0.358-0.042
			c0.04-0.188-0.01-0.384,0.029-0.583c0.105,0,0.206,0,0.323,0c0.038,0.187,0.004,0.38,0.023,0.592c0.342,0,0.677,0.008,1.014-0.003
			c0.155-0.006,0.232-0.119,0.238-0.283c0.002-0.074-0.021-0.141-0.043-0.209C17.109,73.508,17.079,73.45,17.047,73.378z"/>
		<path fill="#1B1A1F" d="M34.46,107.422c0.209,0.008,0.409-0.018,0.609,0.021c0.214,0.039,0.366,0.152,0.413,0.365
			c0.045,0.215-0.015,0.402-0.212,0.527c-0.018,0.01-0.031,0.023-0.052,0.041c0.272,0.221,0.383,0.555,0.609,0.814
			c-0.282,0.064-0.285,0.064-0.429-0.16c-0.098-0.154-0.188-0.314-0.313-0.447c-0.098-0.105-0.211-0.174-0.376-0.125
			c0,0.248,0,0.496,0,0.75c-0.087,0.021-0.164,0.014-0.25,0.008C34.46,108.621,34.46,108.029,34.46,107.422z M34.717,107.654
			c0,0.186,0,0.357,0,0.541c0.176-0.002,0.353,0.053,0.464-0.131c0.054-0.088,0.059-0.189,0.001-0.275
			C35.068,107.613,34.893,107.656,34.717,107.654z"/>
		<path fill="#1B1A1F" d="M17.479,79.634c0,0.138,0,0.255,0,0.382c-0.638,0-1.269,0-1.91,0c0-0.123,0-0.244,0-0.377
			c0.124,0,0.239,0,0.395,0c-0.206-0.17-0.43-0.287-0.438-0.555c-0.005-0.177,0.085-0.324,0.221-0.45
			c0.117,0.041,0.211,0.121,0.318,0.179c-0.006,0.078-0.065,0.116-0.098,0.169c-0.136,0.225-0.049,0.391,0.08,0.507
			c0.118,0.104,0.261,0.146,0.416,0.145C16.798,79.633,17.131,79.634,17.479,79.634z"/>
		<path fill="#1B1A1F" d="M32.475,108.689c-0.082,0.188-0.154,0.354-0.228,0.523c-0.089,0.014-0.171,0.016-0.27-0.004
			c0.256-0.602,0.508-1.193,0.757-1.781c0.064-0.021,0.124-0.016,0.199-0.006c0.262,0.586,0.526,1.18,0.793,1.781
			c-0.093,0.033-0.174,0.016-0.264,0.016c-0.068-0.148-0.142-0.291-0.203-0.441c-0.027-0.064-0.064-0.09-0.131-0.09
			C32.916,108.689,32.699,108.689,32.475,108.689z M32.833,107.824c-0.092,0.227-0.173,0.422-0.256,0.621c0.184,0,0.35,0,0.531,0
			C33.014,108.236,32.931,108.049,32.833,107.824z"/>
		<path fill="#1B1A1F" d="M30.775,109.215c-0.096,0-0.175,0-0.26,0c0-0.59,0-1.176,0-1.793c0.271,0.01,0.55-0.039,0.819,0.049
			c0.2,0.064,0.308,0.25,0.303,0.479c0,0.217-0.11,0.377-0.309,0.451c-0.086,0.031-0.177,0.043-0.27,0.041
			c-0.089-0.002-0.178,0-0.284,0C30.775,108.707,30.775,108.957,30.775,109.215z M30.78,108.197c0.138,0,0.256,0.012,0.372-0.004
			c0.136-0.016,0.212-0.125,0.213-0.26c0.003-0.133-0.059-0.213-0.195-0.256c-0.127-0.037-0.254-0.018-0.39-0.021
			C30.78,107.846,30.78,108.018,30.78,108.197z"/>
		<path fill="#1B1A1F" d="M38.571,107.791c-0.052,0.002-0.079-0.043-0.12-0.062c-0.053-0.023-0.104-0.055-0.158-0.07
			c-0.178-0.049-0.348,0.008-0.393,0.125c-0.046,0.111,0.017,0.215,0.188,0.324c0.117,0.074,0.24,0.137,0.35,0.219
			c0.199,0.15,0.267,0.391,0.189,0.611c-0.077,0.207-0.275,0.318-0.542,0.301c-0.152-0.008-0.292-0.057-0.423-0.15
			c-0.02-0.1-0.01-0.201-0.007-0.322c0.062,0.051,0.108,0.096,0.159,0.131c0.117,0.08,0.243,0.127,0.389,0.096
			c0.203-0.045,0.268-0.221,0.137-0.381c-0.063-0.078-0.152-0.125-0.234-0.178c-0.095-0.064-0.198-0.125-0.289-0.199
			c-0.17-0.139-0.223-0.332-0.147-0.529c0.071-0.191,0.223-0.279,0.424-0.293c0.057-0.006,0.117-0.006,0.175,0
			C38.546,107.43,38.604,107.502,38.571,107.791z"/>
		<path fill="#1B1A1F" d="M15.569,86.062c0-0.128,0-0.243,0-0.367c0.634,0,1.261,0,1.899,0c0.035,0.114,0.011,0.235,0.017,0.367
			C16.845,86.062,16.213,86.062,15.569,86.062z"/>
		<path fill="#1B1A1F" d="M17.485,75.863c-0.649,0-1.275,0-1.909,0c-0.033-0.125-0.008-0.246-0.017-0.373c0.646,0,1.272,0,1.906,0
			C17.506,75.608,17.48,75.729,17.485,75.863z"/>
		<path fill="#1B1A1F" d="M36.806,109.215c-0.09,0-0.165,0-0.248,0c0-0.594,0-1.18,0-1.775c0.079-0.033,0.158-0.02,0.248-0.01
			C36.806,108.025,36.806,108.611,36.806,109.215z"/>
		<path fill="#1B1A1F" d="M14.985,75.444c0.125-0.003,0.221,0.085,0.227,0.213c0.007,0.143-0.08,0.239-0.218,0.239
			c-0.134,0.002-0.224-0.081-0.23-0.208C14.756,75.555,14.853,75.447,14.985,75.444z"/>
		<path fill="#1B1A1F" d="M15.213,85.88c0,0.126-0.093,0.226-0.215,0.231c-0.122,0.005-0.237-0.107-0.236-0.232
			c0.001-0.129,0.112-0.236,0.238-0.23C15.116,85.652,15.213,85.756,15.213,85.88z"/>
		<path fill="none" d="M22.391,117.359c-0.521,0-1.023,0-1.545,0c0-0.258-0.009-0.51,0.004-0.762
			c0.005-0.162,0.019-0.324,0.058-0.484c0.084-0.361,0.297-0.547,0.653-0.557c0.414-0.014,0.65,0.141,0.764,0.498
			c0.038,0.127,0.062,0.256,0.064,0.385C22.396,116.738,22.391,117.039,22.391,117.359z"/>
		<path fill="none" d="M31.833,64.583c-0.009-0.606,0.154-1.148,0.603-1.58c0.273-0.266,0.608-0.422,0.985-0.489
			c0.437-0.079,0.869-0.053,1.287,0.116c0.515,0.208,0.865,0.582,1.05,1.1c0.21,0.594,0.207,1.196-0.033,1.781
			c-0.303,0.738-0.885,1.109-1.662,1.179c-0.41,0.037-0.812-0.019-1.182-0.21c-0.657-0.339-0.966-0.909-1.046-1.623
			C31.824,64.768,31.833,64.674,31.833,64.583z"/>
		<path fill="none" d="M35.984,90.121c-1.421,0-2.819,0-4.233,0c0-0.432,0.003-0.855-0.001-1.279c0-0.152,0.027-0.301,0.062-0.447
			c0.187-0.814,0.689-1.311,1.511-1.478c0.473-0.097,0.937-0.069,1.391,0.093c0.67,0.238,1.055,0.723,1.204,1.406
			c0.053,0.236,0.065,0.479,0.067,0.721C35.986,89.457,35.984,89.777,35.984,90.121z"/>
		<path fill="none" d="M35.984,103.273c-1.421,0-2.819,0-4.237,0c0-0.17-0.004-0.334,0.003-0.496
			c0.008-0.365-0.026-0.73,0.036-1.098c0.156-0.914,0.7-1.469,1.615-1.621c0.542-0.092,1.069-0.045,1.565,0.209
			c0.538,0.277,0.837,0.734,0.955,1.318c0.063,0.311,0.064,0.623,0.062,0.938C35.982,102.77,35.984,103.018,35.984,103.273z"/>
		<path fill="none" d="M31.75,73.964c0-0.368-0.024-0.728,0.01-1.083c0.045-0.446,0.312-0.688,0.726-0.691
			c0.423,0,0.7,0.249,0.757,0.69c0.01,0.084,0.012,0.171,0.014,0.256c0,0.271,0,0.545,0,0.828
			C32.751,73.964,32.265,73.964,31.75,73.964z"/>
		<path fill="none" d="M22.361,102.221c-0.515,0-1.002,0-1.519,0c0.017-0.418-0.052-0.836,0.057-1.246
			c0.092-0.354,0.312-0.531,0.681-0.535c0.293-0.004,0.579,0.1,0.714,0.498c0.032,0.098,0.062,0.199,0.063,0.305
			c0.004,0.27,0.003,0.537,0.004,0.805C22.361,102.098,22.361,102.15,22.361,102.221z"/>
		<path fill="none" d="M21.23,109.682c0.88-0.365,1.721-0.715,2.575-1.068c0,0.688,0,1.354,0,2.041
			C22.953,110.332,22.113,110.016,21.23,109.682z"/>
		<path fill="none" d="M16.32,71.425c0,0.31,0,0.616,0,0.923c-0.294-0.029-0.447-0.192-0.452-0.463
			C15.862,71.609,15.996,71.47,16.32,71.425z"/>
		<path fill="none" d="M16.319,82.206c-0.338-0.079-0.477-0.253-0.45-0.55c0.02-0.232,0.167-0.359,0.45-0.375
			C16.319,81.585,16.319,81.888,16.319,82.206z"/>
		<path fill="none" d="M34.717,107.654c0.176,0.002,0.352-0.041,0.465,0.135c0.058,0.088,0.053,0.188-0.001,0.277
			c-0.112,0.182-0.288,0.127-0.464,0.129C34.717,108.012,34.717,107.84,34.717,107.654z"/>
		<path fill="none" d="M32.833,107.824c0.098,0.225,0.181,0.412,0.275,0.621c-0.182,0-0.348,0-0.531,0
			C32.66,108.246,32.741,108.051,32.833,107.824z"/>
		<path fill="none" d="M30.78,108.197c0-0.18,0-0.354,0-0.541c0.136,0.004,0.263-0.016,0.39,0.021
			c0.137,0.043,0.198,0.123,0.195,0.256c-0.001,0.137-0.078,0.244-0.213,0.262C31.036,108.209,30.918,108.197,30.78,108.197z"/>
	</g>
</g>
</svg>
