<?xml version="1.0" encoding="utf-8"?>
<!-- Generator: Adobe Illustrator 16.0.0, SVG Export Plug-In . SVG Version: 6.00 Build 0)  -->
<!DOCTYPE svg PUBLIC "-//W3C//DTD SVG 1.1//EN" "http://www.w3.org/Graphics/SVG/1.1/DTD/svg11.dtd">
<svg version="1.1" id="Layer_1" xmlns="http://www.w3.org/2000/svg" xmlns:xlink="http://www.w3.org/1999/xlink" x="0px" y="0px"
	 width="156px" height="84px" viewBox="0 0 156 84" enable-background="new 0 0 156 84" xml:space="preserve">
<rect fill="#FFFFFF" width="156" height="84"/>
<g>
	<path fill="#262626" d="M8.083,40.518c1.083,0.373,2.214,0.239,3.328,0.254c4.118,0.066,7.334-2.865,7.246-7.336
		c-0.036-1.783-0.007-3.566-0.007-5.341c0-1.184,0.036-2.38-0.015-3.563c-0.041-1.161,0.526-2.676-0.27-3.399
		c-0.775-0.716-2.265-0.153-3.438-0.249c-0.86-0.069-1.121,0.266-1.113,1.12c0.04,3.563,0.014,7.121,0.019,10.687
		c0.003,0.795-0.012,1.572-0.239,2.342c-0.446,1.516-1.562,2.265-3.116,2.079C8.957,36.937,8.136,36.1,8.001,34.54
		c-0.054-0.594-0.025-1.184-0.025-1.781c-0.004-3.625-0.011-7.256,0.004-10.879c0.003-0.626-0.106-1.01-0.847-0.993
		c-1.118,0.036-2.24,0.019-3.363,0.01c-0.587-0.004-0.801,0.256-0.801,0.839c0.017,4.029-0.136,8.053,0.059,12.071
		C3.187,37.139,4.22,39.188,8.083,40.518z"/>
	<path fill="#262626" d="M26.999,22.417c2.975,1.755,6.143,1.78,9.31,0.711c1.389-0.474,2.443-1.477,3.016-2.927
		c0.84-2.101,0.246-4.927-2.162-6.577c-1.261-0.866-2.667-1.381-4.104-1.862c-1.056-0.348-2.134-0.691-2.974-1.47
		c-0.801-0.753-0.819-1.422-0.11-2.232c1.046-1.21,3.978-1.114,4.442,0.348c0.485,1.57,1.445,1.396,2.541,1.392
		c0.66-0.002,1.323-0.01,1.986,0.005c0.632,0.015,0.807-0.318,0.705-0.873c-0.327-1.758-1.125-3.262-2.722-4.141
		c-3.328-1.829-6.713-1.723-9.913,0.236c-2.866,1.754-3.103,5.429-0.69,7.787c0.809,0.793,1.777,1.349,2.806,1.778
		c1.03,0.42,2.071,0.817,3.125,1.176c0.692,0.236,1.359,0.511,1.896,1.006c0.909,0.847,0.866,2.207-0.052,2.921
		c-1.591,1.224-4.552,0.374-5.006-1.581c-0.22-0.972-0.579-1.174-1.412-1.083c-0.325,0.03-0.659,0.004-0.985,0.004
		c-0.468,0-0.925-0.015-1.383,0c-1.138,0.028-1.217,0.1-1.061,1.276C24.487,20.122,25.449,21.508,26.999,22.417z"/>
	<path fill="#262626" d="M49.327,40.649c1.519,0.028,1.591,0.083,1.564-1.672c-0.018-1.309,0.053-2.637-0.021-3.945
		c-0.053-0.929,0.341-1.141,1.15-1.092c0.722,0.039,1.452,0.012,2.178,0.003c1.256-0.025,2.479-0.267,3.631-0.741
		c2.098-0.858,3.406-2.373,3.699-4.692c0.58-4.54-2.56-7.345-6.371-7.562c-2.631-0.158-5.27-0.063-7.904-0.05
		c-1.101,0.009-1.119,0.049-1.122,1.287c-0.019,2.831-0.007,5.659-0.004,8.493c0,2.241-0.021,4.484,0.004,6.725
		C46.165,41.188,45.527,40.573,49.327,40.649z M51.335,24.704c1.4-0.373,3.024-0.531,4.366,0.453
		c1.115,0.812,1.166,2.01,0.976,3.221c-0.147,0.879-0.983,1.548-1.943,1.688c-0.131,0.018-0.265,0.019-0.396,0.019
		c-0.458,0.008-0.927,0.004-1.385,0.004c-2.499,0.004-2.032,0.152-2.074-2.111c-0.002-0.265-0.04-0.537,0.013-0.796
		C51.065,26.327,50.34,24.97,51.335,24.704z"/>
	<path fill="#262626" d="M81.208,33.863c-0.986,0.052-1.972,0.013-2.958,0.012c-0.506-0.002-0.777,0.121-0.94,0.714
		c-0.521,1.8-1.534,2.518-3.246,2.484c-1.698-0.019-2.715-0.893-3.11-2.703c-0.488-2.265-0.534-4.547-0.057-6.833
		c0.539-2.672,1.646-3.448,4.265-3.045c1.096,0.169,1.776,0.823,2.104,1.826c0.453,1.37,0.446,1.381,1.705,1.395
		c0.721,0.003,1.458,0.023,2.177-0.001c1.014-0.031,1.072-0.125,0.911-1.19c-0.032-0.252-0.087-0.512-0.164-0.762
		c-0.931-2.933-3.041-4.507-5.967-5.049c-4.291-0.798-8.114,1.146-9.557,5.313c-0.533,1.529-0.61,3.076-0.538,4.657
		c0,0.856-0.103,1.729,0.011,2.568c0.471,3.251,1.863,5.942,5.16,7.059c2.926,0.985,5.84,0.771,8.442-1.092
		c1.436-1.024,2.37-2.427,2.612-4.234C82.157,34.303,82.105,33.823,81.208,33.863z"/>
	<path fill="#262626" d="M37.271,28.95c-3.092-0.013-6.188-0.002-9.287-0.001c-3.169,0-3.125-0.001-3.039,3.167
		c0.026,0.923,0.392,1.083,1.191,1.065c1.903-0.04,3.813-0.012,5.729-0.012c1.444,0,2.896,0,4.341,0c2.716,0,2.716,0,2.66-2.735
		C38.837,28.974,38.837,28.959,37.271,28.95z"/>
	<path fill="#262626" d="M11.198,49.854c-0.493-0.01-0.961,0.021-1.031,0.634c-0.054,0.455-0.036,0.928-0.036,1.382
		c-0.012,2.049,0.005,4.084-0.021,6.127c-0.012,0.645-0.012,1.328-0.55,1.838c-0.921,0.876-2.054,0.933-3.142,0.591
		c-1.026-0.314-1.529-1.183-1.553-2.284c-0.006-0.389-0.004-0.788-0.004-1.186c0-1.973,0-3.957,0-5.935
		c0-0.591,0.102-1.195-0.852-1.175c-1,0.012-0.75,0.717-0.763,1.25c-0.027,1.119-0.011,2.237-0.011,3.358c0.005,0,0.005,0,0.006,0
		c0,1.253,0.025,2.506-0.006,3.757c-0.025,1.062,0.345,1.997,1.1,2.656c1.32,1.145,2.865,1.493,4.596,0.958
		c1.768-0.554,2.855-1.73,2.945-3.536c0.128-2.574,0.039-5.141,0.04-7.717C11.92,50.091,11.678,49.876,11.198,49.854z"/>
	<path fill="#262626" d="M88.869,55.954c-1.086-0.641-2.346-0.802-3.481-1.33c-1.208-0.569-1.573-1.122-1.386-2.077
		c0.157-0.757,0.846-1.311,1.91-1.442c0.377-0.048,0.798-0.008,1.171,0.085c0.848,0.253,1.556,0.666,1.756,1.664
		c0.143,0.772,0.81,0.626,1.258,0.507c0.619-0.178,0.352-0.771,0.234-1.164c-0.502-1.574-1.972-2.421-4.313-2.399
		c-0.179,0.006-0.577-0.019-0.96,0.056c-1.409,0.266-2.497,1.311-2.678,2.535c-0.22,1.566,0.31,2.651,1.756,3.38
		c0.693,0.347,1.461,0.557,2.197,0.827c0.487,0.184,0.997,0.332,1.469,0.572c0.879,0.458,1.182,1.077,1.048,1.917
		c-0.116,0.745-0.747,1.305-1.648,1.464c-1.737,0.306-2.646-0.071-3.527-1.697c-0.341-0.619-0.817-0.741-1.281-0.562
		c-0.686,0.244-0.396,0.88-0.232,1.338c0.185,0.485,0.48,0.949,0.928,1.254c1.393,1.005,2.911,1.484,4.633,1.002
		c0.755-0.213,1.501-0.455,2.06-1.078C91.164,59.26,90.741,57.069,88.869,55.954z"/>
	<path fill="#262626" d="M112.088,52.703c-0.67-0.104-1.291,0.206-1.866,0.498c-0.581,0.291-0.824,0.242-0.81-0.454
		c0.025-0.925,0-1.851,0.012-2.761c0.001-0.529-0.135-0.9-0.773-0.854c-0.56,0.047-0.836,0.314-0.822,0.876
		c0.002,0.326,0,0.648,0,0.983c0,1.516,0,3.017,0,4.529c0,0.854,0,1.707,0,2.56c0,0.923-0.021,1.839,0.005,2.762
		c0.025,0.853,0.652,1.358,1.188,0.877c0.539-0.499,0.751-0.414,1.312-0.106c1.814,0.96,3.754,0.268,4.551-1.62
		c0.744-1.762,0.694-3.591-0.029-5.351C114.354,53.45,113.316,52.882,112.088,52.703z M113.185,59.78
		c-0.611,0.768-1.391,0.935-2.272,0.745c-0.846-0.181-1.429-0.903-1.485-1.84c-0.051-0.788-0.031-1.572-0.002-2.361
		c0.05-1.312,0.64-1.997,1.807-2.133c1.154-0.135,2.188,0.593,2.433,1.785c0.097,0.449,0.07,0.924,0.073,1.043
		C113.737,58.194,113.768,59.043,113.185,59.78z"/>
	<path fill="#262626" d="M50.313,69.945c1.26,0.017,2.165,0.416,2.503,1.733c0.045,0.187,0.115,0.382,0.245,0.53
		c0.422,0.455,0.96,0.411,1.432,0.151c0.38-0.22,0.063-0.567,0-0.864c-0.424-1.756-1.672-2.682-3.319-2.969
		c-1.693-0.303-3.249,0.15-4.423,1.557c-1.093,1.308-1.265,2.844-1.124,4.453c0,0.723-0.075,1.459,0.009,2.174
		c0.276,2.163,1.939,3.811,3.985,4.005c2.504,0.238,4.172-0.799,4.871-3.023c0.234-0.766-0.023-1.029-0.822-0.951
		c-0.586,0.059-0.77,0.427-0.88,0.891c-0.339,1.382-1.355,1.598-2.574,1.638c-1.283,0.033-2.192-0.513-2.608-1.684
		c-0.656-1.911-0.656-3.895-0.033-5.812C47.978,70.543,48.933,69.924,50.313,69.945z"/>
	<path fill="#262626" d="M8.243,68.741c-1.381-0.018-2.76,0.019-4.141-0.035c-0.835-0.03-0.976,0.388-0.967,1.084
		c0.025,1.639,0.01,3.286,0.01,4.931c-0.001,1.711-0.005,3.424,0,5.134c0,0.438,0.16,0.76,0.674,0.774
		c0.496,0.01,0.931-0.076,0.992-0.688c0.02-0.192,0-0.394,0.004-0.588c0.02-1.048,0.042-2.1,0.063-3.144
		c1.055-0.496,2.181-0.157,3.271-0.254c2.187-0.175,3.374-1.399,3.508-3.462C11.81,70.204,10.031,68.768,8.243,68.741z
		 M8.693,74.392c-1.074,0.402-2.203,0.27-3.312,0.271c-0.418,0-0.55-0.312-0.562-0.658c-0.018-0.586-0.005-1.177-0.005-1.77
		c-0.004-2.443-0.004-2.443,2.918-2.202c1.544,0.128,2.372,1.089,2.275,2.591C9.952,73.521,9.494,74.083,8.693,74.392z"/>
	<path fill="#262626" d="M20.277,75.031c0.057-3.31-2.551-3.991-5.029-3.19c-0.797,0.253-1.459,0.85-1.799,1.711
		c-0.18,0.459,0.072,0.61,0.381,0.688c0.651,0.161,0.997-0.189,1.44-0.695c0.89-1.03,2.394-0.932,3.06,0.039
		c0.268,0.391,0.442,0.869,0.253,1.299c-0.184,0.424-0.679,0.289-1.062,0.282c-1.048-0.015-2.09-0.019-3.024,0.593
		c-1.026,0.675-1.525,1.758-1.295,2.857c0.207,0.995,1.263,1.959,2.368,2.08c0.644,0.071,1.303,0.097,1.925-0.196
		c0.624-0.293,0.636-0.257,1.779,0.087c0.736,0.225,1.039-0.029,1.039-0.833c0-0.791,0-1.574,0-2.366c-0.013,0-0.025,0-0.035,0
		C20.277,76.605,20.269,75.815,20.277,75.031z M18.634,77.883c-0.328,1.257-2.475,1.88-3.445,1.001
		c-0.567-0.499-0.572-1.364,0.004-1.91c0.619-0.601,1.401-0.661,1.997-0.627C18.586,76.348,18.928,76.769,18.634,77.883z"/>
	<path fill="#262626" d="M68.001,72.113c-2.164,1.485-2.618,5.455-0.831,7.397c1.495,1.631,4.392,1.688,5.835,0.115
		c0.213-0.229,0.506-0.488,0.205-0.833c-0.264-0.285-0.556-0.631-0.982-0.242c-0.347,0.312-0.696,0.546-1.173,0.672
		c-1.414,0.394-2.499-0.039-3.089-1.324c-0.417-0.868-0.23-1.188,0.723-1.225c0.589-0.014,1.19-0.007,1.781-0.007
		c0.266,0,0.528,0,0.78,0c2.609,0.007,2.975-0.518,1.997-2.968C72.419,71.586,69.89,70.828,68.001,72.113z M70.678,75.226
		c-0.261,0.011-0.526,0.002-0.788,0.002c-0.191,0-0.396,0.028-0.586-0.002c-0.484-0.079-1.229,0.289-1.411-0.256
		c-0.213-0.62,0.312-1.209,0.825-1.635c0.853-0.697,1.887-0.631,2.631,0.099c0.455,0.444,0.666,1.077,0.565,1.576
		C71.854,75.384,71.114,75.207,70.678,75.226z"/>
	<path fill="#262626" d="M151.081,53.26c-2.519-1.573-5.335,0.535-5.66,2.842c-0.128,0.905-0.14,1.864,0.01,2.752
		c0.276,1.649,1.412,2.61,2.958,3.086c1.287,0.394,3.212-0.212,3.959-1.17c0.231-0.295,0.267-0.582-0.01-0.875
		c-0.196-0.198-0.463-0.302-0.708-0.188c-0.287,0.148-0.517,0.417-0.799,0.564c-1.407,0.741-2.772,0.356-3.53-0.994
		c-0.646-1.146-0.476-1.426,0.894-1.445c0.528-0.015,1.056,0,1.581,0c0,0,0-0.01,0-0.015c0.79,0,1.582,0,2.371,0.005
		c0.341,0,0.634-0.034,0.733-0.456C153.162,56.192,152.146,53.923,151.081,53.26z M151.213,56.292
		c-0.376,0.484-0.961,0.183-1.446,0.248c-0.189,0.041-0.389,0.015-0.588,0.015c-0.321,0-0.649,0.007-0.973-0.014
		c-0.38-0.014-0.887,0.158-1.107-0.165c-0.292-0.433,0.133-0.873,0.349-1.225c0.615-1.06,1.942-1.335,2.852-0.691
		C150.75,54.784,151.417,56.03,151.213,56.292z"/>
	<path fill="#262626" d="M37.76,53.12c-2.759,1.393-3.252,6.188-0.783,8.053c1.733,1.311,4.175,1.118,5.512-0.432
		c0.15-0.175,0.396-0.353,0.16-0.661c-0.219-0.271-0.489-0.479-0.827-0.379c-0.241,0.075-0.436,0.288-0.664,0.421
		c-1.753,0.997-3.173,0.522-3.925-1.319c-0.319-0.781-0.253-0.935,0.535-0.968c0.722-0.029,1.443-0.003,2.165-0.003
		c0.657,0,1.312,0.01,1.97-0.01c1.039-0.031,1.06-0.061,1.036-1.135c-0.008-0.267-0.035-0.529-0.062-0.792
		C42.638,53.56,40.103,51.948,37.76,53.12z M39.801,56.537c-0.182,0.055-0.395,0.004-0.589,0.018c-0.264,0-0.528,0.004-0.795-0.014
		c-0.379-0.008-0.933,0.156-1.114-0.173c-0.266-0.506,0.106-1.027,0.42-1.452c0.495-0.666,1.521-0.944,2.306-0.678
		c0.646,0.218,1.372,1.178,1.239,1.822C41.085,56.98,40.3,56.379,39.801,56.537z"/>
	<path fill="#262626" d="M71.243,53.044c-2.339,1.037-3.324,4.315-2.027,6.748c1.253,2.382,4.104,3.002,6.157,1.322
		c0.296-0.244,0.927-0.48,0.534-1.063c-0.398-0.603-0.876-0.379-1.329,0.004c-0.191,0.174-0.429,0.312-0.667,0.405
		c-1.306,0.493-2.749-0.117-3.281-1.365c-0.351-0.831-0.131-1.227,0.751-1.26c0.663-0.026,1.324-0.003,1.973-0.003
		c0.663,0,1.326-0.034,1.986,0.003c0.693,0.04,0.933-0.283,0.88-0.931c-0.049-0.456-0.024-0.929-0.124-1.378
		C75.615,53.282,73.324,52.12,71.243,53.044z M74.513,56.314c-0.201,0.387-0.711,0.213-1.087,0.227
		c-0.324,0.021-0.661,0.014-0.985,0.014c-0.19,0-0.396,0.012-0.589-0.015c-0.427-0.054-1.009,0.235-1.25-0.267
		c-0.26-0.532,0.143-1.023,0.462-1.416c0.845-1.04,2.495-0.933,3.22,0.138C74.57,55.415,74.701,55.898,74.513,56.314z"/>
	<path fill="#262626" d="M117.521,54.877c-0.372,0.752-0.669,1.557-0.625,2.437c0.016,0.337-0.014,0.679,0.059,0.987
		c0.355,1.718,1.219,3.021,2.981,3.584c1.567,0.502,2.854-0.028,3.94-1.113c1.633-1.628,1.627-5.243-0.048-6.844
		C121.513,51.709,118.559,52.78,117.521,54.877z M122.878,59.572c-0.519,0.769-1.237,1.166-2.184,1.019
		c-0.829-0.116-1.45-0.567-1.786-1.348c-0.497-1.197-0.563-2.41-0.018-3.618c0.412-0.906,1.041-1.467,2.097-1.48
		c1.064,0,1.73,0.583,2.123,1.479c0.234,0.531,0.293,1.126,0.421,1.661C123.398,58.106,123.33,58.9,122.878,59.572z"/>
	<path fill="#262626" d="M96.082,52.706c-1.354-0.132-3.063,0.999-3.593,2.316c-0.288,0.716-0.578,1.466-0.498,2.316
		c-0.108,0.778,0.155,1.548,0.444,2.262c0.591,1.453,1.767,2.28,3.309,2.424c1.57,0.158,2.874-0.532,3.648-1.863
		c0.945-1.604,0.978-3.341,0.253-5.093C98.982,53.472,97.651,52.86,96.082,52.706z M97.738,59.814
		c-1.088,1.243-2.774,1.089-3.614-0.348c-0.777-1.358-0.758-2.751-0.037-4.128c0.451-0.85,1.153-1.222,2.109-1.18
		c0.721-0.053,1.217,0.38,1.642,0.904C98.855,56.316,98.802,58.604,97.738,59.814z"/>
	<path fill="#262626" d="M57.237,59.403c0.001-1.17-0.583-1.828-1.571-2.251c-0.606-0.25-1.199-0.505-1.863-0.598
		c-0.447-0.072-0.887-0.264-1.275-0.502c-0.558-0.343-0.58-0.843-0.161-1.331c0.315-0.373,0.716-0.535,1.205-0.562
		c0.957-0.052,1.642,0.267,2.065,1.177c0.223,0.502,0.831,0.5,1.209,0.295c0.516-0.27,0.355-0.807,0.109-1.22
		c-1.262-2.13-4.504-2.294-6.062-0.319c-0.763,0.973-0.598,1.942,0.327,2.819c0.59,0.575,1.337,0.773,2.109,0.964
		c0.634,0.154,1.305,0.23,1.838,0.677c0.634,0.515,0.585,1.384-0.107,1.811c-0.824,0.489-2.225,0.302-2.909-0.427
		c-0.178-0.196-0.213-0.499-0.392-0.684c-0.35-0.38-0.841-0.424-1.25-0.157c-0.401,0.266-0.229,0.773-0.059,1.081
		c0.715,1.236,1.869,1.769,3.253,1.89c0.69,0.086,1.332-0.094,1.918-0.394C56.529,61.199,57.236,60.584,57.237,59.403z"/>
	<path fill="#262626" d="M140.219,52.706c-0.567,0.104-1.103,0.397-1.635,0.64c-0.336,0.159-0.41,0.264-0.823-0.119
		c-0.723-0.706-1.43-0.253-1.451,0.774c-0.026,1.122-0.006,2.242-0.006,3.363c0,1.25,0.012,2.502-0.007,3.754
		c-0.006,0.674,0.422,0.69,0.922,0.693c0.489,0.004,0.722-0.198,0.72-0.693c-0.01-0.457,0-0.915,0.002-1.384
		c0-1.181-0.046-2.37,0.007-3.566c0.052-1.178,0.876-1.944,2.017-1.981c1.128-0.046,1.679,0.506,1.814,1.848
		c0.05,0.454,0.01,0.924,0.01,1.383c0,1.253,0.007,2.504,0.012,3.756c0,0.513,0.282,0.663,0.751,0.639
		c0.415-0.012,0.821-0.032,0.821-0.59c0.004-2.046,0.095-4.098-0.055-6.125C143.211,53.576,141.643,52.465,140.219,52.706z"/>
	<path fill="#262626" d="M37.779,75.952c-0.854-0.325-1.758-0.511-2.61-0.831c-0.473-0.17-1.046-0.383-0.985-1.049
		c0.068-0.674,0.552-1.053,1.168-1.171c0.747-0.153,1.439,0.016,1.969,0.612c0.213,0.231,0.325,0.604,0.579,0.749
		c0.404,0.225,0.938,0.273,1.276-0.092c0.24-0.247-0.026-0.598-0.169-0.89c-0.608-1.283-1.66-1.779-3.035-1.72
		c-0.326,0.018-0.655,0.012-0.985,0.054c-1.156,0.176-2.284,1.239-2.413,2.271c-0.146,1.081,0.463,1.921,1.823,2.458
		c0.425,0.17,0.876,0.264,1.31,0.403c0.497,0.159,1.028,0.271,1.474,0.528c0.808,0.463,0.727,1.439-0.12,1.865
		c-0.984,0.502-2.044,0.316-2.861-0.505c-0.229-0.225-0.386-0.565-0.652-0.704c-0.343-0.174-0.785-0.193-1.1,0.106
		c-0.312,0.286-0.016,0.63,0.106,0.879c0.798,1.668,3.162,2.327,5.141,1.481c0.985-0.417,1.577-1.07,1.627-2.207
		C39.37,77.02,38.768,76.341,37.779,75.952z"/>
	<path fill="#262626" d="M130.253,52.89c-0.303,0.107-0.618,0.234-0.887,0.403c-0.476,0.306-0.717,0.333-1.181-0.188
		c-0.442-0.505-1.084-0.062-1.106,0.686c-0.025,1.192-0.007,2.371-0.007,3.562c0.004,1.182,0.007,2.373,0,3.557
		c-0.005,0.502,0.039,0.905,0.704,0.917c0.729,0.007,0.916-0.364,0.871-0.986c-0.022-0.337,0-0.663,0-0.995
		c0-1.256-0.036-2.509,0.008-3.761c0.049-1.194,0.852-1.896,2.045-1.895c1.213,0.001,1.617,0.447,1.646,1.911
		c0.028,1.579,0.024,3.158,0.003,4.746c-0.021,0.633,0.128,0.989,0.857,0.979c0.623-0.018,0.773-0.293,0.773-0.851
		c-0.013-1.913,0.067-3.83-0.036-5.74C133.838,53.334,132.08,52.273,130.253,52.89z"/>
	<path fill="#262626" d="M17.344,52.935c-0.365,0.119-0.735,0.292-1.055,0.506c-0.462,0.301-0.503,0-0.808-0.28
		c-0.612-0.544-1.23-0.16-1.252,0.682c-0.023,1.181-0.013,2.368-0.013,3.547c0.004,0,0.008,0,0.013,0
		c0,1.189,0.007,2.369-0.005,3.559c-0.008,0.512,0.095,0.886,0.745,0.882c0.666-0.003,0.711-0.422,0.711-0.923
		c-0.007-1.503-0.051-3.02,0.014-4.533c0.056-1.441,0.899-2.212,2.236-2.186c1.181,0.011,1.572,0.534,1.596,2.182
		c0.013,1.576,0.013,3.151,0.005,4.738c-0.005,0.648,0.391,0.697,0.896,0.708c0.522,0.015,0.682-0.25,0.682-0.708
		c-0.009-1.971,0.091-3.958-0.052-5.926C20.919,53.264,19.172,52.278,17.344,52.935z"/>
	<path fill="#262626" d="M33.549,52.974c-0.484-0.003-0.841,0.07-1.016,0.664c-0.452,1.571-0.997,3.115-1.496,4.677
		c-0.079,0.238-0.057,0.616-0.322,0.626c-0.405,0.017-0.421-0.389-0.524-0.705c-0.47-1.49-0.992-2.975-1.451-4.469
		c-0.186-0.606-0.521-0.88-1.111-0.793c-0.586-0.027-0.735,0.286-0.575,0.744c0.387,1.112,0.79,2.225,1.198,3.321
		c0.5,1.345,1.032,2.688,1.512,4.044c0.149,0.413,0.341,0.698,0.796,0.726c0.443,0.029,0.711-0.152,0.875-0.592
		c0.887-2.527,1.812-5.049,2.716-7.558C34.339,53.122,34.022,52.974,33.549,52.974z"/>
	<path fill="#262626" d="M67.36,61.283c0.08-0.671-0.349-0.723-0.857-0.733c-0.739-0.021-0.796-0.554-0.796-1.116
		c-0.003-1.324,0.026-2.639-0.024-3.959c-0.032-0.829,0.044-1.438,1.118-1.29c0.395,0.04,0.562-0.236,0.553-0.636
		c-0.024-0.296-0.153-0.575-0.446-0.53c-1.195,0.162-1.259-0.538-1.203-1.431c0.028-0.545-0.293-0.834-0.854-0.853
		c-0.656-0.012-0.766,0.414-0.728,0.905c0.063,0.843-0.091,1.454-1.139,1.352c-0.362-0.032-0.63,0.133-0.638,0.559
		c-0.019,0.403,0.19,0.674,0.562,0.634c1.161-0.158,1.257,0.466,1.225,1.396c-0.053,1.453-0.05,2.899,0.009,4.355
		c0.052,1.308,0.717,1.986,1.882,2.13C66.614,62.065,67.255,62.131,67.36,61.283z"/>
	<path fill="#262626" d="M63.896,79.228c-0.695,0.041-0.878-0.381-0.873-1.003c0.023-1.447,0.026-2.892-0.005-4.333
		c-0.013-0.751,0.238-1.107,1.019-1.01c0.392,0.05,0.625-0.151,0.61-0.56c-0.003-0.364-0.142-0.707-0.541-0.643
		c-1.14,0.16-1.148-0.529-1.083-1.318c0.068-0.593-0.22-0.799-0.802-0.799c-0.566,0.004-0.876,0.176-0.809,0.782
		c0.065,0.805,0.01,1.45-1.089,1.337c-0.419-0.043-0.477,0.349-0.473,0.694c0.013,0.302,0.153,0.505,0.458,0.501
		c0.707-0.021,1.136,0.195,1.104,1.001c-0.044,0.787-0.016,1.579-0.016,2.367c0.001,0,0.011,0,0.016,0
		c0,0.848-0.068,1.713,0.007,2.552c0.112,1.345,0.873,1.948,2.234,1.924c0.469-0.008,0.958,0.016,1.008-0.639
		C64.697,79.547,64.532,79.196,63.896,79.228z"/>
	<path fill="#262626" d="M26.189,71.579c-0.459,0-0.951-0.007-1.296,0.355c-0.36,0.389-0.45,0.147-0.813-0.087
		c-0.922-0.579-1.415-0.217-1.437,0.896c-0.027,1.115-0.011,2.226-0.011,3.352c0,0,0,0,0.009,0c0,1.243,0.003,2.488-0.009,3.739
		c-0.004,0.575,0.235,0.815,0.83,0.804c0.597-0.007,0.815-0.271,0.808-0.834c-0.014-1.381-0.005-2.758,0-4.135
		c0.008-2.058,0.031-2.127,2.108-2.522c0.667-0.128,0.663-0.502,0.639-0.966C26.988,71.652,26.61,71.579,26.189,71.579z"/>
	<path fill="#262626" d="M46.42,61.033c-0.04-1.443-0.018-2.898-0.002-4.345c0.013-1.812,0.036-1.831,1.743-2.251
		c0.191-0.04,0.387-0.09,0.581-0.134c0.431-0.084,0.421-0.412,0.431-0.749c0.022-0.46-0.198-0.771-0.642-0.849
		c-0.241-0.033-0.535,0-0.766,0.107c-0.675,0.341-1.293,0.547-2.093,0.201c-0.627-0.268-0.894,0.194-0.868,0.864
		c0.043,1.186,0.008,2.366,0.008,3.559c0,0,0.008,0,0.01,0c0,1.183-0.01,2.372,0,3.563c0.004,0.385-0.002,0.8,0.568,0.807
		C45.938,61.815,46.445,61.854,46.42,61.033z"/>
	<path fill="#262626" d="M105.168,52.781c-0.766,0.42-1.462,0.641-2.32,0.219c-0.369-0.173-0.74,0.098-0.731,0.627
		c0.011,1.25,0,2.488,0,3.738c0,1.188,0.01,2.367,0,3.545c-0.008,0.499,0.043,0.916,0.709,0.92c0.686,0.007,0.928-0.287,0.906-0.943
		c-0.025-1.377-0.01-2.76-0.003-4.141c0.022-1.841,0.025-1.841,1.875-2.29c0.653-0.158,0.918-0.657,0.683-1.302
		C106.073,52.561,105.568,52.564,105.168,52.781z"/>
	<path fill="#262626" d="M29.392,71.642c-0.605-0.014-0.8,0.239-0.798,0.81c0.021,1.24,0.013,2.482,0.013,3.728
		c0,1.24,0,2.481,0,3.726c0.001,0.443,0.141,0.734,0.671,0.729c0.51,0,0.913-0.059,0.913-0.702c-0.003-2.488-0.004-4.972,0-7.453
		C30.19,71.92,29.986,71.655,29.392,71.642z"/>
	<path fill="#262626" d="M57.504,71.649c-1.118,0.043-0.729,0.908-0.742,1.465c-0.033,1.978-0.02,3.956-0.012,5.929
		c0,0.335-0.021,0.666,0.025,0.985c0.069,0.486,0.44,0.593,0.868,0.612c0.536,0.044,0.693-0.275,0.696-0.719
		c0.017-1.251,0.013-2.503,0.013-3.757c0.002,0,0.002,0,0.002,0c0-0.985,0.007-1.977,0-2.965
		C58.336,71.722,58.273,71.608,57.504,71.649z"/>
	<path fill="#262626" d="M24.406,52.961c-0.544,0.013-0.856,0.161-0.849,0.798c0.021,2.37,0.018,4.739,0.002,7.109
		c-0.01,0.646,0.191,0.977,0.895,0.966c0.665-0.007,0.717-0.407,0.711-0.912c-0.007-1.188-0.003-2.37-0.003-3.558
		c0-1.196-0.008-2.374,0.011-3.565C25.184,53.253,25.023,52.938,24.406,52.961z"/>
	<path fill="#262626" d="M61.071,61.119c-0.019-1.235-0.001-2.482-0.001-3.729c0,0,0,0,0.001,0c0-1.234-0.021-2.48,0.004-3.727
		c0.021-0.69-0.404-0.675-0.901-0.69c-0.481-0.007-0.7,0.181-0.698,0.682c0.006,2.479,0.004,4.965,0.004,7.455
		c0,0.456,0.159,0.717,0.686,0.701C60.65,61.803,61.074,61.783,61.071,61.119z"/>
	<path fill="#262626" d="M72.652,51.768c1.013-0.392,1.525-1.337,2.237-2.081c0.032-0.043,0.03-0.121,0.051-0.176
		c-0.019-0.225-0.184-0.371-0.367-0.379c-0.319-0.028-0.719-0.105-0.953,0.048c-0.83,0.543-1.334,1.413-1.656,2.303
		C71.807,51.908,72.445,51.845,72.652,51.768z"/>
	<path fill="#262626" d="M70.466,70.353c0.517-0.484,0.995-1.016,1.474-1.549c0.16-0.185,0.263-0.421,0.395-0.633
		c-0.259-0.06-0.504-0.129-0.748-0.184c-1.241-0.142-1.483,0.88-1.945,1.619c-0.157,0.249-0.499,0.533-0.098,0.808
		C69.831,70.601,70.209,70.585,70.466,70.353z"/>
	<path fill="#262626" d="M57.722,68.461c-0.517-0.073-1.033,0.366-1.042,0.909c-0.007,0.541,0.342,0.801,0.752,0.984
		c0.466,0.052,1.216-0.526,1.129-0.926C58.466,69,58.294,68.537,57.722,68.461z"/>
	<path fill="#262626" d="M29.36,68.481c-0.46,0.013-1.007,0.612-0.955,1.022c0.055,0.425,0.751,0.975,1.147,0.83
		c0.455-0.159,0.764-0.483,0.705-0.962C30.205,68.82,29.813,68.457,29.36,68.481z"/>
	<path fill="#262626" d="M60.225,51.482c0.531,0.021,0.869-0.194,0.908-0.754c0.022-0.525-0.161-0.882-0.729-0.928
		c-0.505-0.036-0.898,0.1-1.005,0.659C59.289,51.044,59.635,51.469,60.225,51.482z"/>
	<path fill="#262626" d="M24.459,51.498c0.538-0.016,0.831-0.31,0.932-0.79c0.029-0.46-0.367-0.856-0.852-0.908
		c-0.557-0.062-0.884,0.231-1.018,0.712C23.391,51.003,23.895,51.509,24.459,51.498z"/>
</g>
</svg>
