<?xml version="1.0" encoding="utf-8"?>
<!-- Generator: Adobe Illustrator 16.0.0, SVG Export Plug-In . SVG Version: 6.00 Build 0)  -->
<!DOCTYPE svg PUBLIC "-//W3C//DTD SVG 1.1//EN" "http://www.w3.org/Graphics/SVG/1.1/DTD/svg11.dtd">
<svg version="1.1" id="Layer_1" xmlns="http://www.w3.org/2000/svg" xmlns:xlink="http://www.w3.org/1999/xlink" x="0px" y="0px"
	 width="253.536px" height="68.564px" viewBox="0 0 253.536 68.564" enable-background="new 0 0 253.536 68.564"
	 xml:space="preserve">
<g>
	<path fill="#FFFFFF" d="M186.945,60.979c-0.094,0-0.184-0.01-0.271-0.027c-0.088-0.019-0.164-0.057-0.231-0.112
		c-0.065-0.058-0.12-0.137-0.161-0.24c-0.039-0.103-0.061-0.239-0.061-0.41v-4.081h1.229v-0.87h-1.229v-1.595h-1.125v1.595h-1.198
		v0.87h1.198v4.075c0,0.328,0.04,0.605,0.121,0.83c0.08,0.225,0.189,0.406,0.328,0.544c0.139,0.139,0.3,0.236,0.483,0.295
		c0.185,0.06,0.38,0.089,0.587,0.089c0.202,0,0.375-0.015,0.518-0.043c0.142-0.027,0.258-0.055,0.347-0.079v-0.912
		c-0.058,0.013-0.137,0.027-0.239,0.046C187.137,60.97,187.04,60.979,186.945,60.979 M174.513,55.66
		c0.103-0.389,0.253-0.719,0.452-0.992c0.201-0.273,0.451-0.486,0.748-0.64c0.299-0.152,0.645-0.228,1.037-0.228
		c0.342,0,0.634,0.046,0.877,0.14c0.244,0.095,0.447,0.228,0.61,0.401c0.164,0.174,0.293,0.385,0.388,0.633
		c0.093,0.247,0.162,0.525,0.207,0.833h1.172c-0.043-0.438-0.146-0.838-0.303-1.201c-0.158-0.362-0.373-0.675-0.643-0.937
		c-0.27-0.263-0.598-0.465-0.982-0.611c-0.386-0.146-0.826-0.22-1.326-0.22c-0.547,0-1.041,0.1-1.48,0.296s-0.812,0.475-1.121,0.833
		c-0.309,0.359-0.546,0.791-0.712,1.296s-0.25,1.067-0.25,1.688v0.888c0,0.621,0.082,1.184,0.246,1.686
		c0.165,0.503,0.397,0.935,0.7,1.292c0.302,0.359,0.666,0.637,1.092,0.831s0.9,0.292,1.424,0.292c0.53,0,0.995-0.074,1.393-0.222
		c0.397-0.148,0.733-0.354,1.011-0.615c0.274-0.261,0.491-0.571,0.647-0.93c0.155-0.359,0.258-0.748,0.307-1.166h-1.174
		c-0.049,0.312-0.119,0.592-0.213,0.837s-0.225,0.452-0.393,0.62c-0.169,0.168-0.381,0.298-0.637,0.386
		c-0.256,0.09-0.568,0.134-0.941,0.134c-0.395,0-0.734-0.081-1.021-0.246c-0.289-0.164-0.525-0.389-0.713-0.675
		c-0.187-0.285-0.324-0.619-0.416-1.001c-0.092-0.381-0.137-0.788-0.137-1.223v-0.9C174.361,56.475,174.411,56.047,174.513,55.66
		 M193.39,52.487h-1.362l-1.174,1.789h0.906L193.39,52.487z M193.062,57.926h-3.297c0.036-0.305,0.104-0.574,0.204-0.811
		c0.1-0.235,0.224-0.432,0.374-0.59c0.149-0.157,0.319-0.277,0.511-0.36c0.189-0.084,0.398-0.125,0.627-0.125
		c0.287,0,0.529,0.053,0.725,0.157c0.194,0.105,0.354,0.243,0.478,0.413c0.123,0.171,0.214,0.363,0.272,0.578
		c0.06,0.215,0.094,0.433,0.106,0.65V57.926z M193.54,56.04c-0.222-0.288-0.502-0.515-0.844-0.68
		c-0.341-0.164-0.746-0.246-1.216-0.246c-0.374,0-0.731,0.076-1.077,0.229c-0.345,0.153-0.65,0.372-0.919,0.66
		c-0.269,0.287-0.481,0.643-0.642,1.063c-0.161,0.421-0.24,0.9-0.24,1.437v0.255c0,0.462,0.07,0.888,0.214,1.277
		c0.142,0.39,0.345,0.725,0.606,1.007c0.264,0.281,0.582,0.502,0.953,0.66c0.371,0.157,0.785,0.236,1.244,0.236
		c0.327,0,0.621-0.036,0.881-0.105c0.26-0.071,0.49-0.166,0.69-0.286c0.2-0.119,0.376-0.256,0.526-0.407
		c0.148-0.152,0.277-0.31,0.383-0.472l-0.688-0.535c-0.207,0.268-0.449,0.481-0.725,0.646c-0.275,0.161-0.611,0.242-1.01,0.242
		c-0.301,0-0.568-0.057-0.807-0.171c-0.236-0.113-0.439-0.267-0.607-0.462c-0.168-0.194-0.299-0.423-0.391-0.688
		c-0.09-0.264-0.141-0.548-0.147-0.853h4.458v-0.504c0-0.463-0.053-0.891-0.158-1.284C193.92,56.668,193.76,56.328,193.54,56.04
		 M184.211,40.086c0.22,0,0.386-0.062,0.498-0.184c0.113-0.122,0.17-0.273,0.17-0.456s-0.057-0.337-0.17-0.463
		c-0.112-0.125-0.278-0.188-0.498-0.188c-0.219,0-0.385,0.062-0.496,0.188s-0.168,0.28-0.168,0.463s0.057,0.334,0.168,0.456
		S183.993,40.086,184.211,40.086 M181.645,61.818h1.125v-6.581h-1.125V61.818z M184.765,41.192h-1.125v6.582h1.125V41.192z
		 M181.952,45.948c0-0.268-0.048-0.503-0.144-0.704c-0.097-0.203-0.24-0.383-0.435-0.539c-0.194-0.155-0.44-0.292-0.736-0.41
		c-0.297-0.117-0.645-0.224-1.047-0.316c-0.312-0.067-0.566-0.137-0.764-0.204c-0.197-0.065-0.352-0.14-0.466-0.219
		c-0.112-0.079-0.19-0.167-0.229-0.265c-0.041-0.098-0.062-0.207-0.062-0.328c0-0.122,0.024-0.24,0.073-0.356
		c0.049-0.115,0.126-0.219,0.231-0.31c0.104-0.092,0.239-0.164,0.403-0.22s0.364-0.081,0.601-0.081c0.223,0,0.418,0.032,0.59,0.1
		c0.17,0.067,0.313,0.154,0.432,0.262c0.118,0.108,0.207,0.229,0.268,0.365c0.062,0.137,0.092,0.271,0.092,0.404h1.132
		c0-0.284-0.058-0.551-0.17-0.8c-0.113-0.25-0.279-0.469-0.496-0.654c-0.218-0.187-0.479-0.333-0.791-0.44
		c-0.31-0.106-0.662-0.161-1.056-0.161c-0.369,0-0.703,0.053-1.004,0.155c-0.301,0.104-0.556,0.243-0.767,0.42
		c-0.211,0.176-0.374,0.381-0.489,0.613c-0.115,0.233-0.174,0.479-0.174,0.739c0,0.271,0.055,0.509,0.164,0.712
		s0.268,0.378,0.473,0.525s0.453,0.274,0.744,0.38c0.293,0.106,0.621,0.197,0.985,0.273c0.324,0.069,0.586,0.146,0.784,0.226
		c0.199,0.081,0.353,0.17,0.46,0.266c0.106,0.095,0.18,0.196,0.216,0.304c0.037,0.108,0.055,0.223,0.055,0.345
		c0,0.134-0.029,0.259-0.091,0.373c-0.062,0.115-0.151,0.218-0.271,0.303s-0.268,0.15-0.44,0.199
		c-0.175,0.05-0.377,0.073-0.608,0.073c-0.179,0-0.356-0.021-0.535-0.061c-0.178-0.041-0.342-0.11-0.492-0.208
		s-0.274-0.224-0.374-0.38c-0.099-0.155-0.154-0.351-0.167-0.58h-1.125c0,0.271,0.059,0.536,0.176,0.793
		c0.118,0.258,0.29,0.486,0.518,0.688s0.508,0.362,0.842,0.483c0.336,0.122,0.723,0.183,1.16,0.183c0.381,0,0.729-0.048,1.039-0.143
		c0.312-0.097,0.58-0.229,0.803-0.398c0.225-0.171,0.396-0.375,0.516-0.614C181.892,46.501,181.952,46.237,181.952,45.948
		 M195.056,43.881h-3.297c0.036-0.304,0.104-0.573,0.204-0.81c0.1-0.234,0.224-0.432,0.373-0.59c0.15-0.158,0.32-0.278,0.512-0.361
		s0.4-0.124,0.627-0.124c0.288,0,0.529,0.053,0.725,0.157c0.194,0.105,0.354,0.242,0.478,0.413c0.124,0.17,0.215,0.363,0.272,0.578
		c0.059,0.215,0.096,0.433,0.106,0.651V43.881L195.056,43.881z M195.534,41.996c-0.222-0.289-0.503-0.516-0.843-0.68
		c-0.341-0.164-0.746-0.246-1.217-0.246c-0.373,0-0.731,0.076-1.076,0.229s-0.651,0.372-0.919,0.66s-0.48,0.643-0.643,1.063
		c-0.16,0.421-0.239,0.9-0.239,1.437v0.256c0,0.462,0.069,0.888,0.213,1.276c0.142,0.391,0.345,0.726,0.608,1.008
		c0.264,0.28,0.58,0.501,0.951,0.658c0.371,0.158,0.785,0.237,1.243,0.237c0.329,0,0.623-0.036,0.882-0.105
		c0.26-0.07,0.49-0.166,0.69-0.285c0.201-0.12,0.377-0.256,0.526-0.408c0.149-0.151,0.277-0.309,0.384-0.471l-0.688-0.535
		c-0.207,0.268-0.447,0.481-0.724,0.645c-0.276,0.162-0.612,0.243-1.011,0.243c-0.301,0-0.568-0.057-0.807-0.171
		c-0.236-0.113-0.438-0.267-0.607-0.462c-0.168-0.194-0.299-0.424-0.389-0.688c-0.093-0.264-0.143-0.548-0.149-0.852h4.459V44.3
		c0-0.462-0.054-0.89-0.158-1.283C195.917,42.624,195.754,42.282,195.534,41.996 M182.217,52.84c-0.221,0-0.385,0.062-0.496,0.188
		c-0.111,0.125-0.168,0.279-0.168,0.462c0,0.184,0.057,0.336,0.168,0.456c0.111,0.121,0.275,0.184,0.496,0.184
		c0.219,0,0.385-0.062,0.498-0.184c0.113-0.12,0.17-0.272,0.17-0.456c0-0.183-0.057-0.337-0.17-0.462
		C182.602,52.903,182.436,52.84,182.217,52.84 M189.129,47.854c0.142-0.029,0.257-0.055,0.347-0.079v-0.913
		c-0.058,0.014-0.138,0.027-0.24,0.048c-0.104,0.018-0.202,0.025-0.295,0.025c-0.094,0-0.185-0.009-0.271-0.025
		c-0.088-0.021-0.166-0.058-0.231-0.113c-0.067-0.058-0.121-0.137-0.161-0.24c-0.041-0.104-0.062-0.24-0.062-0.41v-4.082h1.229
		v-0.87h-1.229V39.6h-1.125v1.594h-1.197v0.87h1.197v4.075c0,0.329,0.041,0.605,0.123,0.831c0.08,0.225,0.189,0.406,0.328,0.544
		s0.299,0.236,0.482,0.295c0.184,0.06,0.381,0.088,0.588,0.088C188.814,47.896,188.986,47.882,189.129,47.854 M231.583,44.557
		c0,0.328-0.041,0.638-0.119,0.93c-0.079,0.293-0.195,0.55-0.351,0.771c-0.153,0.221-0.35,0.396-0.584,0.526
		c-0.235,0.129-0.507,0.193-0.815,0.193c-0.312,0-0.584-0.064-0.816-0.193c-0.232-0.131-0.429-0.307-0.584-0.526
		c-0.156-0.222-0.273-0.479-0.352-0.771c-0.075-0.291-0.114-0.602-0.114-0.93v-0.134c0-0.324,0.039-0.634,0.114-0.928
		c0.078-0.294,0.194-0.553,0.352-0.772c0.155-0.221,0.35-0.398,0.58-0.529c0.23-0.132,0.501-0.196,0.811-0.196
		c0.312,0,0.586,0.064,0.82,0.196c0.234,0.131,0.432,0.31,0.587,0.529c0.155,0.221,0.272,0.479,0.353,0.772s0.119,0.604,0.119,0.928
		V44.557L231.583,44.557z M231.903,42.031c-0.259-0.3-0.574-0.534-0.945-0.705s-0.789-0.256-1.256-0.256
		c-0.459,0-0.871,0.085-1.24,0.256s-0.683,0.405-0.939,0.705c-0.257,0.301-0.457,0.653-0.598,1.062
		c-0.139,0.407-0.209,0.851-0.209,1.329v0.134c0,0.479,0.07,0.921,0.209,1.328c0.141,0.408,0.341,0.761,0.601,1.06
		c0.261,0.299,0.574,0.53,0.942,0.699c0.369,0.168,0.785,0.252,1.246,0.252c0.463,0,0.879-0.084,1.248-0.252
		c0.369-0.169,0.684-0.402,0.941-0.699c0.26-0.299,0.459-0.65,0.598-1.06c0.138-0.407,0.207-0.85,0.207-1.328v-0.134
		c0-0.479-0.069-0.922-0.207-1.329C232.362,42.686,232.163,42.332,231.903,42.031 M238.847,41.621
		c-0.183-0.192-0.403-0.332-0.663-0.42c-0.26-0.087-0.549-0.131-0.869-0.131c-0.414,0-0.787,0.084-1.119,0.252
		c-0.333,0.169-0.617,0.4-0.853,0.696l-0.036-0.827h-1.064v6.581h1.125v-4.688c0.154-0.315,0.369-0.571,0.646-0.767
		c0.275-0.194,0.596-0.293,0.961-0.293c0.215,0,0.404,0.027,0.568,0.079c0.164,0.053,0.303,0.137,0.414,0.25
		c0.11,0.113,0.194,0.261,0.252,0.44c0.058,0.181,0.084,0.397,0.084,0.653v4.324h1.127V43.46c0-0.431-0.051-0.797-0.149-1.1
		C239.172,42.059,239.029,41.814,238.847,41.621 M245.845,41.621c-0.183-0.192-0.403-0.332-0.663-0.42
		c-0.26-0.087-0.549-0.131-0.87-0.131c-0.413,0-0.786,0.084-1.118,0.252c-0.333,0.169-0.617,0.4-0.854,0.696l-0.035-0.827h-1.064
		v6.581h1.125v-4.688c0.154-0.315,0.369-0.571,0.646-0.767c0.275-0.194,0.596-0.293,0.961-0.293c0.215,0,0.404,0.027,0.568,0.079
		c0.164,0.053,0.302,0.137,0.414,0.25c0.11,0.113,0.194,0.261,0.252,0.44c0.057,0.181,0.084,0.397,0.084,0.653v4.324h1.127V43.46
		c0-0.431-0.051-0.797-0.149-1.1C246.17,42.059,246.027,41.814,245.845,41.621 M252.411,43.881h-3.297
		c0.036-0.304,0.104-0.573,0.204-0.81c0.099-0.234,0.224-0.432,0.373-0.59s0.32-0.278,0.513-0.361
		c0.189-0.083,0.398-0.124,0.625-0.124c0.289,0,0.529,0.053,0.725,0.157s0.354,0.242,0.479,0.413
		c0.123,0.17,0.215,0.362,0.273,0.578c0.059,0.215,0.094,0.433,0.105,0.65V43.881z M253.536,44.301c0-0.462-0.053-0.89-0.158-1.283
		c-0.104-0.393-0.269-0.734-0.488-1.021c-0.223-0.289-0.502-0.516-0.844-0.68c-0.34-0.164-0.746-0.246-1.217-0.246
		c-0.373,0-0.73,0.075-1.076,0.229c-0.344,0.153-0.65,0.372-0.918,0.66s-0.481,0.643-0.642,1.063
		c-0.161,0.422-0.241,0.9-0.241,1.437v0.256c0,0.462,0.071,0.888,0.213,1.277c0.144,0.389,0.346,0.725,0.608,1.007
		c0.265,0.28,0.581,0.501,0.952,0.659c0.371,0.157,0.786,0.236,1.244,0.236c0.328,0,0.621-0.036,0.882-0.105
		c0.26-0.07,0.489-0.166,0.69-0.285c0.199-0.12,0.375-0.256,0.525-0.408c0.148-0.151,0.277-0.309,0.383-0.472l-0.688-0.534
		c-0.207,0.267-0.448,0.481-0.725,0.645c-0.275,0.163-0.611,0.243-1.01,0.243c-0.3,0-0.568-0.058-0.806-0.171
		s-0.44-0.268-0.608-0.462c-0.169-0.194-0.298-0.424-0.39-0.688c-0.091-0.264-0.142-0.548-0.147-0.852h4.457v-0.505H253.536z
		 M212.898,44.557c0,0.328-0.039,0.639-0.118,0.931c-0.078,0.292-0.195,0.549-0.35,0.771c-0.154,0.221-0.35,0.396-0.584,0.526
		c-0.235,0.129-0.508,0.193-0.815,0.193c-0.312,0-0.584-0.064-0.817-0.193c-0.232-0.131-0.428-0.307-0.584-0.526
		c-0.155-0.222-0.272-0.479-0.351-0.771c-0.077-0.292-0.114-0.603-0.114-0.931v-0.134c0-0.324,0.037-0.634,0.114-0.928
		s0.194-0.553,0.351-0.772c0.156-0.221,0.351-0.398,0.582-0.529c0.229-0.132,0.5-0.196,0.809-0.196c0.312,0,0.586,0.064,0.82,0.196
		c0.236,0.131,0.432,0.31,0.588,0.529s0.273,0.479,0.353,0.772c0.08,0.293,0.118,0.604,0.118,0.928L212.898,44.557L212.898,44.557z
		 M213.222,42.031c-0.261-0.3-0.575-0.534-0.946-0.705s-0.789-0.256-1.256-0.256c-0.458,0-0.872,0.085-1.241,0.256
		c-0.368,0.171-0.682,0.405-0.938,0.705c-0.258,0.301-0.456,0.653-0.598,1.062c-0.14,0.407-0.209,0.851-0.209,1.329v0.134
		c0,0.479,0.069,0.921,0.211,1.328c0.14,0.408,0.338,0.761,0.599,1.06c0.26,0.299,0.573,0.53,0.942,0.699
		c0.368,0.168,0.784,0.252,1.246,0.252c0.463,0,0.879-0.084,1.248-0.252c0.368-0.169,0.684-0.4,0.942-0.699
		c0.26-0.299,0.458-0.65,0.596-1.06c0.138-0.407,0.207-0.85,0.207-1.328v-0.134c0-0.479-0.069-0.922-0.207-1.329
		C213.68,42.686,213.48,42.332,213.222,42.031 M206.184,43.863c-0.236-0.22-0.538-0.415-0.903-0.588
		c-0.364-0.172-0.799-0.328-1.301-0.471c-0.364-0.102-0.679-0.207-0.94-0.316c-0.261-0.108-0.476-0.229-0.642-0.357
		s-0.289-0.272-0.368-0.427c-0.078-0.155-0.117-0.324-0.117-0.512c0-0.206,0.035-0.396,0.108-0.57
		c0.073-0.176,0.185-0.326,0.334-0.453c0.149-0.128,0.341-0.229,0.572-0.302c0.231-0.073,0.503-0.109,0.815-0.109
		c0.332,0,0.619,0.043,0.862,0.128s0.446,0.205,0.608,0.359c0.162,0.153,0.283,0.336,0.361,0.547
		c0.079,0.211,0.118,0.439,0.118,0.688h1.175c0-0.345-0.07-0.679-0.207-1.004c-0.139-0.324-0.341-0.61-0.604-0.856
		c-0.267-0.247-0.595-0.446-0.981-0.597c-0.391-0.149-0.834-0.225-1.332-0.225c-0.455,0-0.867,0.061-1.236,0.182
		c-0.368,0.122-0.685,0.291-0.947,0.508c-0.264,0.218-0.469,0.474-0.611,0.768c-0.145,0.294-0.217,0.612-0.217,0.958
		c0,0.345,0.066,0.649,0.201,0.919c0.134,0.267,0.324,0.505,0.574,0.714s0.552,0.394,0.906,0.554s0.752,0.305,1.188,0.43
		c0.418,0.121,0.763,0.239,1.034,0.355s0.486,0.239,0.648,0.37c0.158,0.133,0.271,0.277,0.334,0.436
		c0.062,0.159,0.094,0.342,0.094,0.549c0,0.434-0.164,0.775-0.492,1.027c-0.328,0.251-0.801,0.377-1.417,0.377
		c-0.288,0-0.562-0.032-0.824-0.101s-0.492-0.171-0.692-0.313c-0.201-0.142-0.361-0.32-0.48-0.538
		c-0.12-0.218-0.18-0.478-0.18-0.781h-1.174c0,0.297,0.045,0.567,0.133,0.814c0.09,0.247,0.213,0.471,0.371,0.669
		c0.158,0.199,0.345,0.373,0.558,0.523c0.213,0.149,0.442,0.274,0.692,0.377c0.25,0.101,0.511,0.178,0.783,0.229
		c0.271,0.051,0.543,0.075,0.813,0.075c0.467,0,0.889-0.056,1.269-0.167c0.379-0.11,0.703-0.271,0.973-0.478
		c0.271-0.207,0.479-0.456,0.625-0.748c0.146-0.292,0.219-0.618,0.219-0.979c0-0.345-0.059-0.651-0.174-0.925
		C206.598,44.327,206.42,44.082,206.184,43.863 M224.346,44.557c0,0.328-0.032,0.638-0.098,0.928
		c-0.064,0.29-0.166,0.542-0.304,0.757c-0.139,0.216-0.313,0.387-0.528,0.512c-0.215,0.126-0.476,0.188-0.778,0.188
		c-0.207,0-0.394-0.026-0.56-0.08c-0.168-0.053-0.315-0.125-0.449-0.219c-0.131-0.093-0.246-0.203-0.346-0.328
		c-0.1-0.126-0.186-0.262-0.259-0.407V43.06c0.068-0.146,0.152-0.281,0.249-0.407c0.098-0.126,0.212-0.233,0.344-0.328
		c0.133-0.094,0.28-0.167,0.447-0.219c0.166-0.053,0.354-0.079,0.561-0.079c0.315,0,0.584,0.063,0.803,0.191s0.396,0.301,0.531,0.52
		c0.137,0.22,0.234,0.475,0.295,0.765c0.062,0.29,0.092,0.599,0.092,0.928V44.557z M224.806,41.998
		c-0.218-0.293-0.484-0.521-0.804-0.685c-0.318-0.163-0.685-0.243-1.099-0.243c-0.417,0-0.78,0.072-1.088,0.22
		c-0.31,0.146-0.571,0.354-0.791,0.627v-3.486h-1.126l0.001,9.343h1.033l0.056-0.76c0.219,0.284,0.486,0.502,0.803,0.654
		c0.315,0.151,0.691,0.228,1.125,0.228c0.405,0,0.768-0.083,1.084-0.249c0.315-0.166,0.584-0.397,0.803-0.695
		c0.219-0.299,0.385-0.651,0.498-1.06c0.113-0.407,0.171-0.853,0.171-1.335v-0.128c0-0.503-0.058-0.96-0.171-1.372
		C225.187,42.646,225.022,42.293,224.806,41.998 M197.105,26.886c-0.026,0.833-0.255,1.44-0.685,1.824
		c-0.432,0.383-1.053,0.574-1.864,0.574c-0.483,0-0.892-0.081-1.226-0.242c-0.332-0.162-0.601-0.418-0.806-0.771
		c-0.205-0.353-0.354-0.804-0.448-1.354c-0.094-0.552-0.141-1.217-0.141-1.995v-0.816c0-0.778,0.052-1.445,0.156-2
		c0.104-0.554,0.264-1.006,0.479-1.354c0.215-0.35,0.483-0.604,0.807-0.767c0.322-0.162,0.701-0.242,1.138-0.242
		c0.471,0,0.866,0.055,1.188,0.161c0.322,0.107,0.588,0.266,0.797,0.475c0.207,0.208,0.36,0.47,0.457,0.786
		c0.099,0.315,0.152,0.679,0.166,1.088h3.526c-0.065-0.76-0.245-1.461-0.534-2.106c-0.287-0.645-0.688-1.202-1.197-1.672
		s-1.135-0.838-1.869-1.103c-0.735-0.267-1.58-0.398-2.534-0.398c-0.935,0-1.779,0.167-2.538,0.499
		c-0.76,0.332-1.409,0.808-1.95,1.426c-0.54,0.618-0.957,1.369-1.249,2.251c-0.292,0.883-0.438,1.876-0.438,2.978v0.796
		c0,1.102,0.14,2.094,0.419,2.977c0.278,0.883,0.685,1.632,1.219,2.247s1.187,1.086,1.955,1.416
		c0.769,0.329,1.644,0.494,2.624,0.494c0.906,0,1.727-0.126,2.458-0.377c0.731-0.252,1.36-0.605,1.884-1.058
		c0.523-0.454,0.934-0.998,1.229-1.633c0.295-0.634,0.461-1.335,0.494-2.101L197.105,26.886L197.105,26.886z M195.385,38.443h-1.362
		l-1.175,1.788h0.906L195.385,38.443z M218.243,41.071c-0.365,0-0.676,0.079-0.931,0.237c-0.256,0.158-0.469,0.373-0.64,0.646
		l-0.019-0.762h-1.096l0.001,6.581h1.125v-4.671c0.121-0.288,0.305-0.518,0.551-0.688c0.245-0.171,0.562-0.256,0.951-0.256
		c0.105,0,0.2,0.004,0.283,0.01s0.174,0.017,0.271,0.033v-1.047c-0.041-0.021-0.113-0.039-0.22-0.058S218.323,41.071,218.243,41.071
		 M156.801,47.774h1.125v-6.582h-1.127L156.801,47.774z M153.058,59.976c-0.062,0.126-0.146,0.247-0.253,0.365
		c-0.107,0.117-0.234,0.222-0.381,0.312c-0.146,0.092-0.309,0.164-0.486,0.223c-0.178,0.057-0.369,0.085-0.57,0.085
		c-0.207,0-0.39-0.029-0.545-0.088c-0.156-0.06-0.289-0.139-0.396-0.238c-0.108-0.099-0.188-0.217-0.241-0.355
		c-0.052-0.138-0.078-0.284-0.078-0.442c0-0.406,0.174-0.709,0.521-0.909c0.35-0.201,0.847-0.302,1.49-0.302h0.938V59.976z
		 M154.183,60.383v-3.061c0-0.367-0.062-0.69-0.183-0.967c-0.123-0.275-0.291-0.506-0.506-0.689
		c-0.215-0.185-0.474-0.322-0.774-0.413c-0.304-0.092-0.632-0.139-0.988-0.139c-0.397,0-0.758,0.06-1.08,0.175
		c-0.321,0.114-0.597,0.266-0.823,0.448c-0.229,0.187-0.402,0.395-0.526,0.624c-0.123,0.231-0.187,0.466-0.187,0.7h1.133
		c0-0.139,0.033-0.271,0.104-0.396c0.068-0.126,0.165-0.236,0.289-0.332c0.123-0.097,0.271-0.171,0.445-0.229
		c0.176-0.057,0.367-0.086,0.578-0.086c0.459,0,0.806,0.117,1.041,0.351c0.234,0.233,0.354,0.547,0.354,0.939v0.519h-1.12
		c-0.448,0-0.856,0.046-1.224,0.14c-0.363,0.093-0.676,0.229-0.934,0.413c-0.258,0.183-0.455,0.409-0.593,0.678
		c-0.138,0.271-0.207,0.581-0.207,0.936c0,0.271,0.054,0.524,0.158,0.763s0.255,0.442,0.446,0.618
		c0.192,0.174,0.427,0.312,0.699,0.413c0.274,0.102,0.579,0.151,0.916,0.151c0.202,0,0.396-0.021,0.577-0.062
		c0.183-0.043,0.353-0.104,0.509-0.178c0.155-0.074,0.301-0.162,0.433-0.262s0.25-0.204,0.354-0.312
		c0.018,0.134,0.036,0.263,0.062,0.387c0.023,0.123,0.057,0.227,0.097,0.307h1.181v-0.097c-0.078-0.179-0.136-0.391-0.174-0.636
		C154.202,60.841,154.183,60.606,154.183,60.383 M146.521,56.371c-0.073,0.21-0.188,0.39-0.344,0.542
		c-0.156,0.151-0.356,0.271-0.603,0.354c-0.246,0.085-0.539,0.128-0.88,0.128h-2.098v-3.473h2.098c0.341,0,0.634,0.048,0.88,0.146
		c0.245,0.098,0.445,0.229,0.603,0.391s0.271,0.35,0.344,0.562s0.108,0.434,0.108,0.66
		C146.631,55.933,146.595,56.162,146.521,56.371 M146.999,53.726c-0.262-0.241-0.584-0.429-0.97-0.562
		c-0.386-0.135-0.829-0.201-1.333-0.201h-3.267l0.001,8.855h1.168v-3.467h2.098c0.504,0,0.947-0.06,1.333-0.18
		c0.386-0.119,0.708-0.293,0.97-0.521c0.263-0.228,0.461-0.508,0.597-0.843s0.204-0.715,0.204-1.141
		c0-0.395-0.068-0.755-0.204-1.085S147.26,53.967,146.999,53.726 M173.779,43.103c0.122-0.287,0.306-0.517,0.552-0.687
		c0.244-0.171,0.562-0.256,0.951-0.256c0.105,0,0.199,0.003,0.282,0.009c0.084,0.006,0.174,0.018,0.271,0.033v-1.047
		c-0.041-0.02-0.113-0.039-0.219-0.058c-0.106-0.019-0.199-0.027-0.279-0.027c-0.365,0-0.676,0.079-0.932,0.237
		s-0.469,0.373-0.639,0.646l-0.02-0.762h-1.095v6.582h1.126L173.779,43.103z M146.741,44.916c0,0.344-0.05,0.644-0.146,0.896
		c-0.098,0.254-0.234,0.465-0.413,0.633s-0.394,0.293-0.646,0.374s-0.531,0.122-0.84,0.122c-0.305,0-0.581-0.041-0.83-0.122
		c-0.25-0.081-0.464-0.206-0.642-0.374c-0.179-0.168-0.317-0.379-0.417-0.633c-0.1-0.253-0.148-0.553-0.148-0.896v-5.998h-1.156
		v5.998c0,0.498,0.082,0.935,0.246,1.308c0.166,0.373,0.391,0.683,0.676,0.931c0.285,0.247,0.623,0.434,1.014,0.558
		c0.389,0.123,0.809,0.186,1.259,0.186c0.431,0,0.839-0.062,1.229-0.186c0.39-0.124,0.73-0.311,1.025-0.558
		c0.293-0.248,0.527-0.558,0.701-0.931c0.176-0.373,0.262-0.81,0.262-1.308v-5.998h-1.174V44.916L146.741,44.916z M157.372,40.086
		c0.221,0,0.387-0.062,0.5-0.184c0.112-0.122,0.17-0.273,0.17-0.456s-0.058-0.337-0.17-0.463c-0.113-0.125-0.279-0.188-0.5-0.188
		c-0.219,0-0.384,0.062-0.496,0.188c-0.11,0.126-0.166,0.28-0.166,0.463s0.056,0.334,0.166,0.456
		C156.988,40.025,157.153,40.086,157.372,40.086 M142.995,30.698c0.508,0.447,1.117,0.784,1.83,1.014
		c0.711,0.228,1.497,0.342,2.356,0.342c0.866,0,1.653-0.114,2.362-0.342c0.709-0.229,1.314-0.566,1.818-1.014
		c0.504-0.445,0.893-0.999,1.168-1.656c0.275-0.658,0.413-1.417,0.413-2.277v-9.582h-3.536v9.582c0,0.907-0.188,1.562-0.563,1.964
		c-0.376,0.403-0.931,0.604-1.662,0.604c-0.72,0-1.271-0.201-1.657-0.604c-0.387-0.402-0.579-1.058-0.579-1.964v-9.582h-3.557v9.582
		c0,0.86,0.141,1.619,0.423,2.277C142.093,29.699,142.488,30.253,142.995,30.698 M164.76,16.25c-0.154,0.131-0.352,0.234-0.59,0.312
		s-0.525,0.116-0.861,0.116c-0.416,0-0.784-0.039-1.104-0.116c-0.318-0.077-0.59-0.207-0.812-0.388
		c-0.222-0.183-0.39-0.418-0.504-0.71s-0.171-0.653-0.171-1.083h-3.547c0,0.578,0.082,1.102,0.248,1.571
		c0.164,0.471,0.389,0.89,0.675,1.26c0.284,0.369,0.624,0.687,1.017,0.952c0.395,0.266,0.816,0.484,1.271,0.659
		c0.453,0.176,0.928,0.305,1.425,0.389s0.997,0.125,1.501,0.125c0.818,0,1.562-0.09,2.23-0.272c0.67-0.181,1.24-0.446,1.713-0.796
		c0.475-0.349,0.841-0.781,1.1-1.294c0.258-0.514,0.389-1.1,0.389-1.758c0-0.618-0.109-1.172-0.328-1.662s-0.537-0.931-0.957-1.32
		c-0.42-0.389-0.936-0.734-1.547-1.037s-1.307-0.577-2.084-0.826c-0.418-0.135-0.791-0.271-1.125-0.408
		c-0.332-0.139-0.613-0.285-0.846-0.443s-0.41-0.326-0.534-0.504c-0.125-0.178-0.187-0.378-0.187-0.6
		c0-0.201,0.043-0.392,0.131-0.569c0.087-0.178,0.217-0.336,0.388-0.474c0.173-0.138,0.386-0.245,0.64-0.322
		c0.256-0.077,0.552-0.116,0.888-0.116c0.343,0,0.64,0.047,0.892,0.142c0.252,0.094,0.465,0.224,0.635,0.388
		c0.172,0.165,0.299,0.363,0.383,0.595s0.127,0.485,0.127,0.761h3.525c0-0.691-0.136-1.317-0.408-1.879
		c-0.271-0.561-0.648-1.039-1.133-1.436c-0.483-0.396-1.062-0.702-1.732-0.917c-0.672-0.215-1.407-0.322-2.206-0.322
		c-0.813,0-1.563,0.097-2.252,0.292s-1.285,0.47-1.788,0.826c-0.504,0.354-0.896,0.787-1.18,1.294
		c-0.282,0.507-0.424,1.076-0.424,1.708c0,0.659,0.141,1.234,0.42,1.728c0.277,0.494,0.648,0.926,1.112,1.294
		c0.463,0.37,0.993,0.689,1.593,0.958c0.598,0.27,1.219,0.511,1.862,0.726c0.552,0.182,0.996,0.353,1.335,0.514
		s0.604,0.324,0.791,0.489s0.312,0.339,0.378,0.522c0.063,0.186,0.097,0.393,0.097,0.62c0,0.194-0.035,0.379-0.105,0.555
		C165.026,15.966,164.915,16.119,164.76,16.25 M177.209,19.914h2.316c0.37,0,0.688,0.062,0.952,0.187
		c0.267,0.124,0.483,0.29,0.655,0.498c0.171,0.208,0.297,0.449,0.378,0.721c0.079,0.272,0.12,0.56,0.12,0.861
		c0,0.282-0.041,0.544-0.12,0.786c-0.081,0.241-0.207,0.45-0.378,0.625c-0.172,0.175-0.391,0.311-0.655,0.408
		c-0.267,0.098-0.582,0.146-0.952,0.146h-2.316V19.914z M177.209,26.876h2.316c0.88,0,1.672-0.112,2.378-0.338
		c0.705-0.226,1.304-0.544,1.793-0.957c0.49-0.413,0.867-0.908,1.13-1.486c0.262-0.577,0.393-1.222,0.393-1.934
		c0-0.72-0.131-1.383-0.393-1.99c-0.263-0.608-0.64-1.134-1.13-1.577c-0.489-0.443-1.088-0.789-1.793-1.038
		c-0.706-0.249-1.498-0.373-2.378-0.373h-5.854v14.669h3.535v-4.976H177.209z M157.797,26.285h10.313v-2.97h-10.313V26.285z
		 M161.081,52.84c-0.221,0-0.386,0.062-0.496,0.188c-0.111,0.125-0.168,0.279-0.168,0.462c0,0.184,0.057,0.336,0.168,0.456
		c0.11,0.121,0.275,0.184,0.496,0.184c0.219,0,0.385-0.062,0.498-0.184c0.113-0.12,0.17-0.272,0.17-0.456
		c0-0.183-0.058-0.337-0.17-0.462C161.465,52.903,161.299,52.84,161.081,52.84 M163.652,41.192l-1.63,5.057l-1.673-5.057H159.2
		l2.385,6.582h0.856l2.36-6.582H163.652z M167.937,58.75c-0.194-0.156-0.438-0.293-0.735-0.411
		c-0.296-0.117-0.645-0.224-1.047-0.315c-0.312-0.068-0.566-0.137-0.763-0.204c-0.197-0.066-0.353-0.141-0.466-0.219
		c-0.113-0.079-0.19-0.168-0.231-0.265c-0.04-0.099-0.061-0.207-0.061-0.328c0-0.122,0.024-0.241,0.073-0.356
		c0.049-0.114,0.125-0.22,0.23-0.311c0.104-0.091,0.24-0.164,0.404-0.219c0.164-0.056,0.363-0.082,0.599-0.082
		c0.224,0,0.42,0.032,0.591,0.1c0.17,0.067,0.313,0.155,0.432,0.263c0.117,0.107,0.207,0.229,0.269,0.364
		c0.062,0.136,0.091,0.271,0.091,0.404h1.133c0-0.283-0.059-0.55-0.172-0.8c-0.113-0.249-0.277-0.468-0.494-0.653
		c-0.218-0.187-0.48-0.334-0.791-0.44c-0.312-0.107-0.662-0.162-1.057-0.162c-0.367,0-0.703,0.053-1.003,0.155
		c-0.301,0.104-0.556,0.243-0.767,0.42c-0.211,0.176-0.375,0.381-0.49,0.614s-0.173,0.479-0.173,0.739
		c0,0.271,0.055,0.509,0.163,0.712c0.109,0.202,0.268,0.378,0.473,0.524c0.204,0.148,0.453,0.275,0.745,0.382
		c0.292,0.105,0.62,0.195,0.985,0.272c0.324,0.069,0.586,0.145,0.783,0.226c0.199,0.081,0.354,0.17,0.459,0.266
		c0.107,0.095,0.18,0.196,0.217,0.304s0.056,0.223,0.056,0.343c0,0.136-0.03,0.261-0.093,0.374c-0.061,0.116-0.15,0.218-0.271,0.303
		s-0.267,0.151-0.44,0.199c-0.174,0.051-0.377,0.073-0.607,0.073c-0.18,0-0.357-0.02-0.535-0.061
		c-0.179-0.04-0.343-0.109-0.492-0.207c-0.15-0.098-0.274-0.225-0.375-0.38c-0.1-0.156-0.154-0.351-0.166-0.581h-1.127
		c0,0.271,0.061,0.536,0.178,0.794s0.289,0.485,0.517,0.688c0.228,0.2,0.509,0.361,0.843,0.483c0.335,0.122,0.721,0.183,1.159,0.183
		c0.381,0,0.728-0.048,1.04-0.144c0.312-0.095,0.579-0.229,0.803-0.398c0.223-0.17,0.396-0.375,0.514-0.613
		c0.121-0.239,0.181-0.504,0.181-0.79c0-0.269-0.048-0.505-0.144-0.706C168.277,59.085,168.133,58.906,167.937,58.75
		 M170.103,43.882h-3.297c0.037-0.305,0.104-0.574,0.204-0.811c0.1-0.235,0.224-0.432,0.374-0.59
		c0.149-0.158,0.319-0.278,0.511-0.361s0.398-0.124,0.627-0.124c0.288,0,0.529,0.053,0.725,0.157
		c0.194,0.105,0.354,0.242,0.478,0.413c0.123,0.17,0.215,0.363,0.272,0.578c0.059,0.215,0.096,0.433,0.106,0.651V43.882z
		 M170.581,41.996c-0.222-0.288-0.502-0.516-0.843-0.68s-0.747-0.246-1.217-0.246c-0.373,0-0.731,0.076-1.076,0.229
		c-0.346,0.152-0.651,0.373-0.919,0.66c-0.268,0.288-0.48,0.643-0.642,1.063s-0.24,0.9-0.24,1.437v0.256
		c0,0.463,0.069,0.888,0.213,1.276c0.142,0.391,0.345,0.726,0.608,1.008c0.263,0.281,0.58,0.501,0.951,0.658
		c0.371,0.159,0.785,0.238,1.244,0.238c0.328,0,0.621-0.036,0.881-0.105c0.261-0.071,0.49-0.167,0.691-0.286
		c0.2-0.12,0.375-0.256,0.525-0.408c0.15-0.151,0.277-0.309,0.383-0.471l-0.688-0.535c-0.207,0.268-0.447,0.481-0.724,0.645
		c-0.276,0.162-0.612,0.243-1.011,0.243c-0.301,0-0.568-0.057-0.807-0.171c-0.236-0.113-0.438-0.267-0.607-0.462
		c-0.168-0.194-0.299-0.424-0.389-0.688c-0.092-0.264-0.143-0.547-0.149-0.852h4.459V44.3c0-0.462-0.054-0.89-0.158-1.283
		C170.963,42.624,170.801,42.282,170.581,41.996 M160.508,61.818h1.125v-6.581h-1.125V61.818z M158.754,55.115
		c-0.365,0-0.676,0.079-0.933,0.237c-0.255,0.158-0.468,0.374-0.639,0.646l-0.019-0.762h-1.094v6.581h1.125v-4.672
		c0.121-0.287,0.305-0.517,0.551-0.688c0.246-0.169,0.562-0.255,0.951-0.255c0.105,0,0.2,0.003,0.283,0.009
		c0.083,0.007,0.174,0.018,0.271,0.034v-1.047c-0.041-0.021-0.113-0.039-0.219-0.059C158.928,55.125,158.834,55.115,158.754,55.115
		 M154.31,41.622c-0.183-0.193-0.403-0.333-0.663-0.421c-0.26-0.087-0.549-0.131-0.869-0.131c-0.414,0-0.787,0.084-1.119,0.252
		c-0.332,0.169-0.617,0.401-0.853,0.696l-0.036-0.826h-1.064v6.581h1.125v-4.689c0.154-0.315,0.369-0.571,0.646-0.767
		c0.275-0.194,0.596-0.292,0.96-0.292c0.216,0,0.405,0.026,0.569,0.079s0.302,0.136,0.414,0.249c0.11,0.113,0.194,0.261,0.252,0.441
		c0.057,0.18,0.084,0.397,0.084,0.652v4.325h1.127v-4.312c0-0.431-0.051-0.796-0.149-1.1
		C154.633,42.062,154.493,41.814,154.31,41.622"/>
	<polygon fill="#FFFFFF" points="11.21,15.839 4.325,15.839 4.325,22.951 0.739,22.951 0.739,5.546 12.071,5.546 12.071,8.451 
		4.325,8.451 4.325,12.946 11.21,12.946 	"/>
	<path fill="#FFFFFF" d="M19.476,23.19c-1.004,0-1.903-0.164-2.696-0.49c-0.793-0.326-1.467-0.772-2.021-1.339
		c-0.554-0.564-0.976-1.229-1.267-1.989c-0.291-0.762-0.436-1.576-0.436-2.444V16.46c0-0.98,0.141-1.878,0.424-2.696
		c0.283-0.817,0.685-1.521,1.208-2.11c0.521-0.589,1.155-1.05,1.9-1.38c0.745-0.331,1.58-0.496,2.504-0.496
		c0.932,0,1.753,0.153,2.462,0.46c0.709,0.308,1.305,0.737,1.787,1.291c0.482,0.555,0.844,1.222,1.087,2.002
		c0.244,0.781,0.365,1.65,0.365,2.606v1.47h-8.236c0.056,0.423,0.169,0.806,0.341,1.148c0.171,0.343,0.39,0.636,0.657,0.879
		c0.267,0.243,0.58,0.432,0.938,0.568c0.358,0.135,0.761,0.202,1.207,0.202c0.629,0,1.211-0.116,1.745-0.353
		c0.534-0.235,0.993-0.6,1.375-1.094l1.697,1.899c-0.207,0.295-0.466,0.582-0.777,0.861s-0.677,0.528-1.1,0.747
		c-0.423,0.219-0.899,0.395-1.429,0.525C20.685,23.125,20.105,23.19,19.476,23.19 M19.081,12.574c-0.375,0-0.703,0.066-0.986,0.197
		c-0.283,0.132-0.526,0.315-0.729,0.55c-0.203,0.235-0.369,0.518-0.496,0.844s-0.219,0.688-0.275,1.088H21.4v-0.275
		c-0.007-0.342-0.058-0.662-0.149-0.957c-0.092-0.295-0.231-0.55-0.418-0.765c-0.188-0.215-0.427-0.382-0.717-0.501
		C19.824,12.635,19.479,12.574,19.081,12.574"/>
	<rect x="27.027" y="14.9" fill="#FFFFFF" width="9.624" height="2.785"/>
	<path fill="#FFFFFF" d="M33.748,8.945c0-0.184-0.036-0.351-0.107-0.502c-0.072-0.15-0.208-0.293-0.407-0.425
		c-0.199-0.131-0.47-0.257-0.812-0.376c-0.343-0.12-0.785-0.235-1.327-0.346c-0.662-0.145-1.273-0.323-1.835-0.538
		c-0.562-0.215-1.048-0.482-1.458-0.801c-0.41-0.319-0.731-0.689-0.962-1.112c-0.231-0.422-0.347-0.912-0.347-1.47
		c0-0.542,0.118-1.057,0.353-1.542c0.235-0.486,0.574-0.915,1.016-1.285c0.442-0.37,0.984-0.664,1.625-0.879
		c0.642-0.215,1.365-0.323,2.17-0.323c0.836,0,1.59,0.104,2.259,0.311s1.237,0.496,1.703,0.867c0.466,0.371,0.825,0.812,1.076,1.321
		s0.376,1.068,0.376,1.674h-3.455c0-0.494-0.16-0.902-0.479-1.226c-0.318-0.323-0.817-0.484-1.494-0.484
		c-0.583,0-1.032,0.132-1.351,0.396c-0.319,0.263-0.478,0.598-0.478,1.004c0,0.19,0.042,0.36,0.125,0.508
		c0.083,0.146,0.219,0.283,0.406,0.406s0.434,0.236,0.741,0.341c0.307,0.104,0.683,0.199,1.129,0.287
		c0.701,0.135,1.351,0.303,1.949,0.502s1.113,0.457,1.548,0.771c0.435,0.314,0.775,0.697,1.022,1.147s0.371,0.994,0.371,1.632
		c0,0.574-0.127,1.102-0.382,1.584s-0.62,0.898-1.094,1.249s-1.046,0.626-1.715,0.825s-1.419,0.298-2.248,0.298
		c-0.908,0-1.709-0.127-2.402-0.382c-0.694-0.255-1.277-0.59-1.752-1.004c-0.474-0.415-0.83-0.882-1.069-1.398
		c-0.239-0.518-0.359-1.04-0.359-1.566h3.275c0.016,0.334,0.09,0.623,0.221,0.866s0.305,0.44,0.521,0.592
		c0.215,0.151,0.464,0.264,0.747,0.334c0.283,0.072,0.58,0.108,0.891,0.108c0.662,0,1.162-0.125,1.5-0.376
		C33.579,9.681,33.748,9.352,33.748,8.945"/>
	<path fill="#FFFFFF" d="M43.862,6.829v3.18h2.211v2.534h-2.211v6.455c0,0.271,0.028,0.493,0.083,0.669
		c0.055,0.175,0.14,0.312,0.251,0.413c0.111,0.1,0.249,0.167,0.412,0.202c0.163,0.036,0.356,0.055,0.58,0.055
		c0.207,0,0.396-0.008,0.568-0.024c0.172-0.016,0.321-0.036,0.448-0.06v2.618c-0.287,0.087-0.6,0.16-0.938,0.221
		c-0.339,0.06-0.724,0.09-1.154,0.09c-0.566,0-1.076-0.069-1.53-0.209c-0.454-0.139-0.843-0.36-1.166-0.664
		c-0.323-0.302-0.572-0.697-0.747-1.183c-0.175-0.486-0.263-1.072-0.263-1.757v-6.826h-1.889v-2.534h1.889v-3.18H43.862z"/>
	<path fill="#FFFFFF" d="M48.261,6.662c0-0.519,0.173-0.944,0.52-1.279c0.347-0.335,0.819-0.502,1.417-0.502
		c0.294,0,0.562,0.044,0.801,0.131c0.239,0.088,0.442,0.211,0.609,0.371s0.297,0.349,0.389,0.568
		c0.091,0.219,0.137,0.455,0.137,0.711c0,0.263-0.046,0.504-0.137,0.723c-0.092,0.219-0.222,0.408-0.389,0.568
		c-0.167,0.158-0.37,0.282-0.609,0.369c-0.239,0.089-0.506,0.133-0.801,0.133c-0.295,0-0.562-0.044-0.801-0.133
		c-0.239-0.087-0.442-0.211-0.61-0.369c-0.167-0.16-0.297-0.35-0.389-0.568C48.307,7.166,48.261,6.925,48.261,6.662 M51.931,22.943
		h-3.467V10.009h3.467V22.943z"/>
	<polygon fill="#FFFFFF" points="59.617,18.723 62.02,10.009 65.629,10.009 61.267,22.943 57.967,22.943 53.604,10.009 
		57.214,10.009 	"/>
	<path fill="#FFFFFF" d="M74.439,22.943c-0.16-0.311-0.275-0.696-0.347-1.16c-0.351,0.392-0.791,0.723-1.321,0.992
		c-0.53,0.271-1.178,0.406-1.942,0.406c-0.622,0-1.201-0.095-1.739-0.287c-0.538-0.19-1.004-0.458-1.398-0.801
		c-0.395-0.343-0.703-0.751-0.927-1.227c-0.223-0.474-0.334-0.993-0.334-1.56c0-0.677,0.125-1.279,0.376-1.805
		c0.251-0.526,0.628-0.973,1.13-1.339c0.502-0.367,1.125-0.646,1.871-0.836c0.745-0.191,1.612-0.287,2.6-0.287h1.542V14.3
		c0-0.598-0.154-1.076-0.46-1.435c-0.307-0.358-0.791-0.537-1.452-0.537c-0.582,0-1.039,0.139-1.369,0.418
		c-0.331,0.278-0.497,0.661-0.497,1.147h-3.455c0-0.558,0.13-1.088,0.389-1.59c0.259-0.502,0.628-0.94,1.106-1.315
		s1.056-0.671,1.733-0.891c0.677-0.218,1.434-0.328,2.271-0.328c0.749,0,1.442,0.096,2.08,0.287
		c0.638,0.191,1.187,0.478,1.649,0.854c0.462,0.379,0.823,0.853,1.082,1.423c0.259,0.569,0.388,1.232,0.388,1.989v5.476
		c0,0.366,0.012,0.695,0.036,0.986c0.023,0.291,0.056,0.554,0.095,0.788c0.04,0.235,0.092,0.446,0.156,0.635
		c0.063,0.187,0.139,0.363,0.227,0.53v0.204H74.439z M71.582,20.54c0.295,0,0.568-0.036,0.819-0.107
		c0.25-0.072,0.476-0.165,0.675-0.281c0.199-0.114,0.373-0.249,0.52-0.399c0.147-0.151,0.265-0.308,0.353-0.466v-2.225h-1.422
		c-0.455,0-0.849,0.05-1.184,0.149c-0.335,0.1-0.61,0.238-0.825,0.418c-0.215,0.179-0.375,0.39-0.479,0.634
		c-0.104,0.243-0.155,0.508-0.155,0.794c0,0.431,0.151,0.785,0.454,1.064C70.642,20.401,71.056,20.54,71.582,20.54"/>
	<rect x="80.249" y="4.582" fill="#FFFFFF" width="3.466" height="18.36"/>
	<path fill="#FFFFFF" d="M0,38.225c0-0.979,0.114-1.877,0.341-2.688c0.227-0.812,0.556-1.511,0.986-2.093
		c0.431-0.582,0.96-1.031,1.59-1.351c0.63-0.318,1.347-0.479,2.152-0.479c0.662,0,1.249,0.124,1.763,0.371s0.966,0.595,1.357,1.04
		v-6.599h3.466v18.361h-3.12l-0.167-1.375c-0.406,0.511-0.881,0.906-1.422,1.188c-0.542,0.283-1.176,0.425-1.901,0.425
		c-0.797,0-1.508-0.165-2.134-0.496c-0.625-0.331-1.153-0.785-1.584-1.368c-0.43-0.581-0.759-1.272-0.986-2.073
		C0.114,40.287,0,39.417,0,38.477V38.225z M3.455,38.476c0,0.526,0.044,1.018,0.131,1.47c0.088,0.455,0.229,0.853,0.425,1.189
		c0.195,0.34,0.45,0.605,0.765,0.802c0.315,0.195,0.699,0.292,1.154,0.292c0.558,0,1.022-0.118,1.393-0.356
		c0.37-0.239,0.659-0.57,0.867-0.992v-5.104c-0.208-0.431-0.497-0.763-0.867-0.998c-0.371-0.234-0.827-0.353-1.369-0.353
		c-0.455,0-0.841,0.097-1.16,0.293c-0.319,0.195-0.576,0.464-0.771,0.807c-0.195,0.344-0.339,0.745-0.431,1.207
		c-0.091,0.463-0.137,0.961-0.137,1.494V38.476z"/>
	<path fill="#FFFFFF" d="M20.061,45.026c-1.004,0-1.903-0.163-2.696-0.488c-0.793-0.327-1.466-0.773-2.02-1.341
		c-0.554-0.564-0.977-1.229-1.267-1.989c-0.291-0.762-0.436-1.576-0.436-2.444v-0.466c0-0.98,0.141-1.879,0.424-2.696
		c0.282-0.815,0.685-1.52,1.207-2.109c0.522-0.589,1.155-1.05,1.901-1.381c0.745-0.331,1.58-0.496,2.504-0.496
		c0.933,0,1.753,0.153,2.463,0.46c0.709,0.308,1.305,0.737,1.787,1.291c0.482,0.556,0.845,1.223,1.088,2.003
		c0.243,0.78,0.365,1.649,0.365,2.605v1.471h-8.236c0.056,0.422,0.169,0.806,0.341,1.147c0.171,0.342,0.391,0.635,0.657,0.878
		c0.267,0.243,0.58,0.433,0.938,0.568c0.359,0.136,0.761,0.202,1.207,0.202c0.63,0,1.212-0.116,1.746-0.353
		c0.534-0.236,0.992-0.6,1.375-1.094l1.697,1.899c-0.207,0.295-0.466,0.582-0.777,0.86c-0.311,0.279-0.677,0.528-1.1,0.747
		c-0.422,0.22-0.898,0.396-1.428,0.526C21.27,44.961,20.69,45.026,20.061,45.026 M19.666,34.411c-0.375,0-0.703,0.065-0.986,0.197
		c-0.283,0.131-0.526,0.314-0.729,0.551c-0.203,0.233-0.369,0.516-0.496,0.842c-0.127,0.327-0.219,0.688-0.275,1.088h4.805v-0.275
		c-0.008-0.342-0.058-0.661-0.149-0.956c-0.092-0.294-0.231-0.549-0.418-0.765c-0.187-0.215-0.426-0.383-0.717-0.502
		C20.409,34.471,20.064,34.411,19.666,34.411"/>
	<path fill="#FFFFFF" d="M34.664,41.221c0-0.183-0.036-0.35-0.108-0.502c-0.071-0.15-0.208-0.293-0.406-0.424
		c-0.199-0.132-0.47-0.258-0.812-0.377c-0.343-0.119-0.785-0.234-1.327-0.347c-0.662-0.145-1.273-0.322-1.835-0.539
		c-0.562-0.215-1.048-0.48-1.458-0.801c-0.411-0.317-0.731-0.688-0.962-1.11c-0.231-0.424-0.347-0.912-0.347-1.472
		c0-0.542,0.117-1.056,0.353-1.542c0.235-0.485,0.574-0.914,1.016-1.285c0.442-0.37,0.984-0.663,1.625-0.878
		c0.642-0.215,1.365-0.322,2.17-0.322c0.836,0,1.589,0.103,2.259,0.311c0.67,0.207,1.237,0.496,1.704,0.866
		c0.467,0.37,0.825,0.811,1.076,1.321c0.251,0.51,0.377,1.067,0.377,1.673h-3.455c0-0.494-0.159-0.902-0.478-1.227
		c-0.319-0.321-0.817-0.482-1.494-0.482c-0.582,0-1.032,0.132-1.351,0.395s-0.478,0.599-0.478,1.004c0,0.191,0.042,0.36,0.125,0.509
		c0.083,0.146,0.219,0.282,0.406,0.406c0.187,0.123,0.434,0.236,0.741,0.34c0.307,0.104,0.683,0.199,1.129,0.287
		c0.701,0.137,1.351,0.304,1.949,0.502c0.598,0.199,1.113,0.457,1.548,0.771c0.434,0.313,0.775,0.697,1.022,1.146
		c0.247,0.45,0.371,0.994,0.371,1.633c0,0.572-0.127,1.102-0.382,1.584c-0.255,0.48-0.62,0.897-1.094,1.249
		c-0.474,0.351-1.045,0.625-1.715,0.824c-0.669,0.198-1.418,0.298-2.247,0.298c-0.908,0-1.709-0.128-2.403-0.382
		c-0.693-0.256-1.277-0.59-1.751-1.005c-0.474-0.414-0.831-0.88-1.069-1.397c-0.239-0.519-0.359-1.04-0.359-1.565h3.275
		c0.016,0.334,0.09,0.623,0.221,0.866s0.305,0.439,0.52,0.592c0.215,0.151,0.464,0.264,0.747,0.335
		c0.283,0.071,0.58,0.107,0.891,0.107c0.662,0,1.162-0.125,1.5-0.377C34.494,41.957,34.664,41.628,34.664,41.221"/>
	<path fill="#FFFFFF" d="M46.315,28.506c0-0.519,0.173-0.944,0.52-1.279s0.819-0.502,1.417-0.502c0.294,0,0.562,0.044,0.801,0.131
		c0.239,0.088,0.442,0.211,0.61,0.371c0.167,0.159,0.297,0.35,0.389,0.567c0.091,0.22,0.137,0.456,0.137,0.711
		c0,0.263-0.046,0.504-0.137,0.723c-0.092,0.219-0.222,0.409-0.389,0.568c-0.167,0.16-0.371,0.283-0.61,0.371
		c-0.239,0.088-0.506,0.131-0.801,0.131s-0.562-0.043-0.801-0.131c-0.239-0.088-0.442-0.211-0.61-0.371
		c-0.167-0.159-0.297-0.35-0.389-0.568C46.361,29.01,46.315,28.769,46.315,28.506 M49.984,44.787h-3.466V31.854h3.466V44.787z"/>
	<path fill="#FFFFFF" d="M52.291,38.225c0-0.979,0.114-1.877,0.341-2.688c0.227-0.812,0.556-1.511,0.986-2.093
		c0.43-0.582,0.96-1.031,1.589-1.351c0.63-0.318,1.347-0.479,2.152-0.479c0.662,0,1.25,0.124,1.763,0.371
		c0.514,0.247,0.966,0.595,1.357,1.04v-6.599h3.466v18.361h-3.12l-0.167-1.375c-0.406,0.511-0.881,0.906-1.422,1.188
		c-0.542,0.283-1.176,0.425-1.901,0.425c-0.797,0-1.508-0.165-2.134-0.496s-1.153-0.785-1.583-1.368
		c-0.431-0.581-0.759-1.272-0.986-2.073c-0.227-0.802-0.341-1.672-0.341-2.612V38.225z M55.746,38.476
		c0,0.526,0.044,1.018,0.132,1.47c0.087,0.455,0.229,0.853,0.424,1.189c0.195,0.34,0.45,0.605,0.765,0.802
		c0.314,0.195,0.699,0.292,1.153,0.292c0.558,0,1.022-0.118,1.393-0.356c0.37-0.239,0.659-0.57,0.867-0.992v-5.104
		c-0.208-0.431-0.497-0.763-0.867-0.998c-0.371-0.234-0.827-0.353-1.369-0.353c-0.455,0-0.841,0.097-1.16,0.293
		c-0.319,0.195-0.576,0.464-0.771,0.807c-0.195,0.344-0.339,0.745-0.43,1.207c-0.092,0.463-0.138,0.961-0.138,1.494L55.746,38.476
		L55.746,38.476z"/>
	<path fill="#FFFFFF" d="M72.577,45.026c-1.004,0-1.903-0.163-2.695-0.488c-0.793-0.327-1.467-0.773-2.021-1.341
		c-0.554-0.564-0.976-1.229-1.267-1.989c-0.291-0.762-0.436-1.575-0.436-2.444v-0.467c0-0.979,0.141-1.878,0.424-2.695
		c0.283-0.815,0.685-1.52,1.207-2.109s1.156-1.05,1.901-1.381s1.58-0.496,2.504-0.496c0.933,0,1.753,0.153,2.463,0.46
		c0.709,0.308,1.305,0.737,1.787,1.291c0.482,0.555,0.844,1.223,1.087,2.003c0.243,0.78,0.365,1.649,0.365,2.605v1.47h-8.235
		c0.055,0.423,0.169,0.807,0.34,1.148s0.39,0.635,0.658,0.878c0.267,0.243,0.58,0.433,0.938,0.568
		c0.359,0.136,0.761,0.202,1.208,0.202c0.629,0,1.211-0.116,1.745-0.353c0.534-0.235,0.992-0.6,1.375-1.094l1.697,1.899
		c-0.208,0.295-0.466,0.582-0.777,0.86c-0.311,0.279-0.678,0.528-1.1,0.747c-0.422,0.22-0.898,0.396-1.428,0.526
		C73.786,44.961,73.206,45.026,72.577,45.026 M72.183,34.412c-0.375,0-0.704,0.064-0.986,0.197
		c-0.283,0.131-0.525,0.314-0.729,0.551c-0.203,0.233-0.369,0.516-0.496,0.842c-0.127,0.327-0.219,0.688-0.275,1.088h4.805v-0.275
		c-0.008-0.342-0.058-0.66-0.149-0.956c-0.092-0.294-0.231-0.549-0.419-0.765c-0.187-0.215-0.426-0.383-0.717-0.502
		C72.926,34.471,72.581,34.412,72.183,34.412 M72.493,26.426h3.766l-3.311,3.706h-2.809L72.493,26.426z"/>
	<path fill="#FFFFFF" d="M85.81,45.026c-1.004,0-1.903-0.163-2.696-0.488c-0.793-0.327-1.466-0.773-2.02-1.341
		c-0.554-0.564-0.977-1.229-1.267-1.989c-0.291-0.762-0.436-1.576-0.436-2.444v-0.466c0-0.98,0.141-1.879,0.424-2.696
		c0.282-0.815,0.685-1.52,1.207-2.109c0.522-0.589,1.155-1.05,1.901-1.381c0.745-0.331,1.58-0.496,2.504-0.496
		c0.933,0,1.753,0.153,2.462,0.46c0.709,0.308,1.305,0.737,1.787,1.291c0.482,0.556,0.845,1.223,1.088,2.003
		c0.243,0.78,0.365,1.649,0.365,2.605v1.471h-8.236c0.056,0.422,0.169,0.806,0.341,1.147c0.171,0.342,0.39,0.635,0.657,0.878
		s0.58,0.433,0.938,0.568c0.359,0.136,0.761,0.202,1.208,0.202c0.629,0,1.211-0.116,1.745-0.353c0.534-0.235,0.992-0.6,1.375-1.094
		l1.697,1.899c-0.208,0.295-0.466,0.582-0.777,0.86c-0.311,0.279-0.677,0.528-1.1,0.747c-0.422,0.22-0.898,0.396-1.428,0.526
		C87.019,44.961,86.439,45.026,85.81,45.026 M85.416,34.411c-0.375,0-0.704,0.065-0.986,0.197c-0.283,0.131-0.526,0.314-0.729,0.551
		c-0.203,0.233-0.369,0.516-0.496,0.842c-0.127,0.327-0.219,0.688-0.275,1.088h4.805v-0.275c-0.008-0.342-0.058-0.661-0.149-0.956
		c-0.092-0.294-0.231-0.549-0.418-0.765c-0.187-0.215-0.426-0.383-0.717-0.502C86.159,34.471,85.814,34.411,85.416,34.411"/>
	<path fill="#FFFFFF" d="M100.367,41.213c0-0.184-0.036-0.352-0.108-0.502c-0.072-0.15-0.208-0.293-0.406-0.425
		c-0.199-0.132-0.47-0.258-0.813-0.376c-0.343-0.12-0.785-0.234-1.327-0.348c-0.662-0.144-1.273-0.322-1.835-0.538
		c-0.562-0.215-1.048-0.481-1.458-0.801c-0.41-0.319-0.731-0.688-0.962-1.111s-0.346-0.911-0.346-1.471
		c0-0.542,0.117-1.056,0.353-1.542c0.235-0.486,0.574-0.915,1.016-1.285s0.984-0.663,1.625-0.878s1.365-0.323,2.17-0.323
		c0.836,0,1.589,0.104,2.259,0.312c0.669,0.207,1.237,0.496,1.704,0.867c0.466,0.37,0.825,0.811,1.076,1.32
		c0.251,0.511,0.377,1.068,0.377,1.674h-3.455c0-0.494-0.159-0.902-0.478-1.227c-0.319-0.322-0.817-0.483-1.494-0.483
		c-0.582,0-1.032,0.132-1.351,0.395s-0.478,0.598-0.478,1.004c0,0.19,0.041,0.36,0.125,0.508c0.083,0.147,0.219,0.283,0.406,0.406
		c0.188,0.124,0.435,0.237,0.741,0.341c0.307,0.104,0.684,0.199,1.13,0.287c0.701,0.136,1.351,0.303,1.948,0.502
		c0.598,0.199,1.113,0.456,1.548,0.771c0.434,0.314,0.774,0.697,1.022,1.146c0.247,0.451,0.37,0.994,0.37,1.632
		c0,0.574-0.127,1.104-0.382,1.585c-0.255,0.481-0.62,0.898-1.094,1.248c-0.474,0.353-1.046,0.626-1.715,0.825
		s-1.418,0.299-2.247,0.299c-0.908,0-1.709-0.128-2.403-0.382c-0.693-0.256-1.277-0.59-1.751-1.005
		c-0.474-0.414-0.831-0.88-1.069-1.398c-0.239-0.519-0.359-1.039-0.359-1.565h3.275c0.016,0.335,0.089,0.624,0.221,0.867
		c0.131,0.243,0.305,0.439,0.52,0.591c0.215,0.152,0.464,0.264,0.747,0.335c0.283,0.072,0.58,0.108,0.891,0.108
		c0.662,0,1.161-0.127,1.5-0.378C100.197,41.948,100.367,41.619,100.367,41.213"/>
	<path fill="#FFFFFF" d="M4.278,61.531v6.134H0.692V50.26h6.79c1.028,0,1.946,0.143,2.755,0.43c0.809,0.287,1.494,0.688,2.056,1.202
		s0.99,1.123,1.285,1.828c0.295,0.706,0.442,1.473,0.442,2.301c0,0.846-0.147,1.606-0.442,2.284
		c-0.295,0.677-0.723,1.255-1.285,1.732c-0.562,0.479-1.248,0.847-2.056,1.104c-0.809,0.26-1.728,0.389-2.755,0.389H4.278z
		 M4.278,58.627h3.204c0.51,0,0.95-0.063,1.321-0.191c0.371-0.127,0.673-0.305,0.909-0.531c0.235-0.228,0.408-0.5,0.52-0.818
		c0.111-0.318,0.167-0.665,0.167-1.04c0-0.374-0.056-0.735-0.167-1.082c-0.112-0.346-0.285-0.653-0.52-0.92
		c-0.235-0.268-0.538-0.48-0.909-0.641c-0.371-0.159-0.811-0.238-1.321-0.238H4.278V58.627z"/>
	<path fill="#FFFFFF" d="M22.993,67.664c-0.16-0.312-0.275-0.697-0.347-1.159c-0.351,0.39-0.791,0.722-1.321,0.992
		c-0.53,0.271-1.178,0.405-1.942,0.405c-0.622,0-1.202-0.096-1.739-0.287c-0.538-0.189-1.004-0.458-1.399-0.801
		c-0.394-0.343-0.703-0.751-0.926-1.226c-0.223-0.475-0.334-0.994-0.334-1.561c0-0.677,0.125-1.278,0.376-1.806
		c0.251-0.525,0.627-0.972,1.129-1.338c0.502-0.367,1.125-0.646,1.871-0.837c0.745-0.191,1.611-0.287,2.6-0.287h1.542V59.02
		c0-0.598-0.153-1.076-0.46-1.435c-0.307-0.359-0.791-0.538-1.453-0.538c-0.582,0-1.038,0.14-1.369,0.419
		c-0.331,0.278-0.496,0.661-0.496,1.146H15.27c0-0.558,0.129-1.088,0.389-1.59c0.259-0.502,0.627-0.939,1.105-1.314
		c0.478-0.374,1.056-0.671,1.733-0.892c0.677-0.219,1.435-0.328,2.271-0.328c0.75,0,1.442,0.097,2.08,0.287
		c0.638,0.191,1.188,0.478,1.65,0.854c0.462,0.379,0.822,0.853,1.082,1.422c0.259,0.57,0.389,1.234,0.389,1.991v5.475
		c0,0.366,0.012,0.695,0.036,0.986s0.056,0.554,0.096,0.788s0.091,0.446,0.155,0.634s0.14,0.364,0.227,0.532v0.203h-3.49V67.664z
		 M20.136,65.262c0.295,0,0.568-0.036,0.819-0.107s0.476-0.166,0.675-0.28c0.199-0.115,0.373-0.249,0.52-0.4
		s0.265-0.307,0.353-0.466v-2.225h-1.422c-0.454,0-0.849,0.051-1.183,0.149c-0.335,0.1-0.61,0.238-0.825,0.418
		c-0.215,0.179-0.375,0.391-0.479,0.634s-0.156,0.509-0.156,0.795c0,0.432,0.152,0.785,0.455,1.063
		C19.196,65.122,19.61,65.262,20.136,65.262"/>
	<path fill="#FFFFFF" d="M35.891,57.97c-0.175-0.024-0.38-0.046-0.616-0.066c-0.235-0.02-0.444-0.028-0.627-0.028
		c-0.678,0-1.225,0.112-1.644,0.341c-0.418,0.227-0.728,0.556-0.926,0.986v8.463h-3.455V54.73h3.264l0.096,1.542
		c0.327-0.558,0.729-0.995,1.207-1.309c0.479-0.315,1.036-0.474,1.674-0.474c0.183,0,0.376,0.017,0.58,0.049
		c0.203,0.03,0.369,0.066,0.496,0.106L35.891,57.97z"/>
	<path fill="#FFFFFF" d="M37.529,51.383c0-0.519,0.173-0.944,0.521-1.279c0.346-0.334,0.818-0.502,1.417-0.502
		c0.294,0,0.562,0.044,0.8,0.132c0.239,0.087,0.442,0.211,0.61,0.37c0.167,0.16,0.297,0.35,0.389,0.568
		c0.091,0.219,0.137,0.456,0.137,0.711c0,0.263-0.046,0.504-0.137,0.724c-0.092,0.22-0.222,0.408-0.389,0.567
		c-0.167,0.16-0.371,0.283-0.61,0.371c-0.239,0.088-0.506,0.131-0.8,0.131c-0.295,0-0.562-0.043-0.801-0.131
		s-0.442-0.211-0.61-0.371c-0.167-0.159-0.296-0.35-0.388-0.567C37.575,51.887,37.529,51.646,37.529,51.383 M41.199,67.664h-3.466
		V54.73h3.466V67.664z"/>
	<path fill="#FFFFFF" d="M51.189,64.098c0-0.183-0.036-0.351-0.108-0.501c-0.071-0.152-0.208-0.294-0.406-0.425
		c-0.199-0.132-0.47-0.257-0.813-0.377c-0.343-0.119-0.785-0.234-1.327-0.348c-0.662-0.144-1.273-0.321-1.835-0.536
		c-0.562-0.217-1.048-0.482-1.458-0.803c-0.411-0.317-0.731-0.688-0.962-1.11c-0.231-0.424-0.347-0.912-0.347-1.472
		c0-0.541,0.117-1.056,0.353-1.542c0.235-0.484,0.574-0.915,1.016-1.283c0.442-0.371,0.984-0.664,1.625-0.88
		c0.642-0.216,1.365-0.322,2.169-0.322c0.837,0,1.59,0.104,2.26,0.312c0.669,0.207,1.237,0.495,1.703,0.866
		c0.466,0.37,0.825,0.811,1.076,1.32c0.251,0.511,0.376,1.067,0.376,1.674h-3.454c0-0.493-0.16-0.902-0.479-1.226
		c-0.319-0.322-0.817-0.484-1.494-0.484c-0.582,0-1.032,0.133-1.351,0.396c-0.319,0.264-0.479,0.599-0.479,1.004
		c0,0.191,0.042,0.36,0.126,0.509c0.083,0.146,0.219,0.282,0.406,0.405c0.187,0.124,0.434,0.237,0.741,0.341
		c0.307,0.104,0.684,0.199,1.13,0.287c0.701,0.137,1.351,0.304,1.949,0.502c0.598,0.199,1.113,0.456,1.548,0.771
		c0.434,0.313,0.775,0.697,1.022,1.146c0.247,0.451,0.371,0.994,0.371,1.633c0,0.573-0.128,1.103-0.382,1.584
		c-0.255,0.481-0.62,0.898-1.094,1.25c-0.474,0.351-1.046,0.625-1.715,0.823c-0.67,0.199-1.419,0.3-2.248,0.3
		c-0.909,0-1.709-0.129-2.403-0.384c-0.693-0.254-1.277-0.589-1.751-1.004c-0.474-0.414-0.831-0.88-1.069-1.397
		c-0.239-0.519-0.359-1.04-0.359-1.565h3.275c0.016,0.334,0.09,0.623,0.221,0.865c0.131,0.244,0.305,0.44,0.52,0.593
		c0.215,0.151,0.464,0.263,0.747,0.335c0.283,0.071,0.58,0.107,0.891,0.107c0.661,0,1.161-0.126,1.5-0.377
		C51.019,64.833,51.189,64.504,51.189,64.098"/>
	<rect x="121.894" y="4.265" fill="#FFFFFF" width="0.675" height="63.399"/>
</g>
</svg>
