<?xml version="1.0" encoding="utf-8"?>
<!-- Generator: Adobe Illustrator 16.0.0, SVG Export Plug-In . SVG Version: 6.00 Build 0)  -->
<!DOCTYPE svg PUBLIC "-//W3C//DTD SVG 1.1//EN" "http://www.w3.org/Graphics/SVG/1.1/DTD/svg11.dtd">
<svg version="1.1" id="Layer_1" xmlns="http://www.w3.org/2000/svg" xmlns:xlink="http://www.w3.org/1999/xlink" x="0px" y="0px"
	 width="310.143px" height="70px" viewBox="-3.702 -0.888 310.143 70" enable-background="new -3.702 -0.888 310.143 70"
	 xml:space="preserve">
<g>
	<path fill="#FFFFFF" d="M239.125,61.42c-0.096,0-0.188-0.012-0.273-0.028c-0.089-0.021-0.168-0.061-0.236-0.115
		c-0.064-0.062-0.119-0.139-0.16-0.244c-0.041-0.103-0.063-0.242-0.063-0.414v-4.125h1.241v-0.879h-1.241v-1.613h-1.138v1.613
		h-1.209v0.879h1.209v4.118c0,0.33,0.04,0.614,0.123,0.84c0.08,0.227,0.191,0.412,0.331,0.554c0.142,0.137,0.303,0.234,0.489,0.295
		c0.186,0.061,0.383,0.09,0.594,0.09c0.204,0,0.378-0.015,0.525-0.045c0.142-0.027,0.258-0.055,0.35-0.08v-0.92
		c-0.061,0.011-0.142,0.029-0.24,0.046C239.316,61.411,239.221,61.42,239.125,61.42 M226.557,56.042
		c0.102-0.393,0.252-0.728,0.455-1.002c0.203-0.279,0.456-0.493,0.757-0.647c0.301-0.152,0.651-0.232,1.048-0.232
		c0.347,0,0.645,0.047,0.89,0.144c0.245,0.098,0.45,0.231,0.614,0.405c0.166,0.174,0.297,0.386,0.393,0.641
		c0.094,0.246,0.162,0.531,0.209,0.841h1.184c-0.044-0.442-0.145-0.848-0.307-1.213c-0.158-0.369-0.377-0.684-0.648-0.945
		c-0.274-0.271-0.604-0.472-0.994-0.619c-0.387-0.146-0.838-0.222-1.34-0.222c-0.556,0-1.053,0.1-1.495,0.299
		c-0.444,0.197-0.822,0.479-1.136,0.84c-0.312,0.365-0.55,0.801-0.719,1.311c-0.169,0.513-0.252,1.083-0.252,1.71v0.899
		c0,0.627,0.082,1.194,0.248,1.705c0.168,0.507,0.401,0.943,0.704,1.306c0.308,0.362,0.675,0.643,1.106,0.842
		c0.43,0.194,0.91,0.294,1.438,0.294c0.537,0,1.007-0.075,1.408-0.226s0.741-0.356,1.022-0.622c0.274-0.261,0.497-0.575,0.654-0.938
		c0.158-0.363,0.261-0.758,0.311-1.179h-1.189c-0.049,0.312-0.119,0.595-0.214,0.846c-0.095,0.248-0.227,0.456-0.396,0.626
		c-0.17,0.172-0.384,0.302-0.643,0.391c-0.261,0.089-0.575,0.136-0.953,0.136c-0.398,0-0.742-0.084-1.034-0.251
		c-0.289-0.161-0.529-0.39-0.721-0.684c-0.187-0.282-0.326-0.622-0.419-1.009c-0.094-0.383-0.14-0.796-0.14-1.235v-0.913
		C226.401,56.866,226.452,56.433,226.557,56.042 M245.643,52.832h-1.381l-1.186,1.807h0.916L245.643,52.832z M245.31,58.33h-3.334
		c0.034-0.306,0.105-0.577,0.203-0.818c0.099-0.237,0.228-0.436,0.38-0.598c0.148-0.157,0.32-0.279,0.514-0.363
		c0.19-0.085,0.405-0.129,0.633-0.129c0.289,0,0.536,0.053,0.732,0.163c0.199,0.104,0.357,0.243,0.486,0.417
		c0.123,0.171,0.213,0.366,0.273,0.582c0.061,0.217,0.094,0.438,0.108,0.659v0.087H245.31z M245.793,56.423
		c-0.227-0.29-0.509-0.515-0.855-0.685c-0.343-0.166-0.753-0.247-1.229-0.247c-0.378,0-0.741,0.076-1.088,0.232
		c-0.349,0.156-0.657,0.376-0.929,0.665c-0.273,0.293-0.487,0.649-0.65,1.077c-0.161,0.426-0.239,0.911-0.239,1.452v0.259
		c0,0.468,0.069,0.898,0.212,1.291c0.145,0.394,0.35,0.732,0.614,1.018c0.267,0.285,0.589,0.507,0.964,0.668
		c0.375,0.157,0.793,0.241,1.257,0.241c0.333,0,0.625-0.038,0.89-0.108c0.262-0.071,0.496-0.167,0.699-0.287
		c0.205-0.121,0.38-0.26,0.531-0.415s0.281-0.312,0.387-0.477l-0.693-0.543c-0.213,0.27-0.457,0.491-0.735,0.655
		c-0.275,0.163-0.615,0.245-1.021,0.245c-0.303,0-0.57-0.055-0.814-0.171c-0.238-0.116-0.443-0.271-0.612-0.47
		c-0.169-0.195-0.304-0.424-0.395-0.692c-0.093-0.267-0.144-0.554-0.149-0.863h4.509v-0.513c0-0.463-0.058-0.897-0.161-1.295
		C246.173,57.058,246.012,56.72,245.793,56.423 M236.359,40.296c0.223,0,0.389-0.062,0.501-0.182
		c0.118-0.126,0.175-0.28,0.175-0.463c0-0.187-0.057-0.341-0.175-0.469c-0.112-0.128-0.278-0.189-0.501-0.189
		c-0.222,0-0.388,0.062-0.502,0.189c-0.109,0.128-0.168,0.282-0.168,0.469c0,0.183,0.059,0.337,0.168,0.463
		C235.97,40.234,236.136,40.296,236.359,40.296 M233.766,62.265h1.137v-6.654h-1.137V62.265z M236.92,41.413h-1.136v6.656h1.136
		V41.413z M234.074,46.221c0-0.27-0.046-0.509-0.145-0.711c-0.1-0.204-0.239-0.386-0.438-0.543
		c-0.195-0.157-0.444-0.298-0.745-0.417c-0.3-0.119-0.653-0.228-1.06-0.321c-0.312-0.065-0.571-0.135-0.77-0.205
		c-0.201-0.064-0.357-0.142-0.473-0.221c-0.115-0.077-0.195-0.171-0.232-0.267c-0.04-0.098-0.062-0.21-0.062-0.331
		c0-0.123,0.024-0.243,0.076-0.359c0.047-0.117,0.126-0.222,0.23-0.316c0.105-0.09,0.244-0.163,0.41-0.219
		c0.166-0.058,0.367-0.085,0.608-0.085c0.224,0,0.422,0.032,0.595,0.099c0.174,0.069,0.316,0.157,0.434,0.267
		c0.122,0.109,0.211,0.229,0.271,0.37c0.062,0.138,0.093,0.272,0.093,0.408h1.144c0-0.286-0.061-0.559-0.173-0.812
		c-0.114-0.25-0.282-0.471-0.501-0.656c-0.219-0.192-0.486-0.339-0.798-0.444c-0.316-0.11-0.666-0.168-1.066-0.168
		c-0.378,0-0.713,0.055-1.017,0.157c-0.305,0.106-0.56,0.248-0.774,0.426c-0.214,0.178-0.38,0.386-0.496,0.622
		c-0.117,0.235-0.174,0.48-0.174,0.741c0,0.279,0.053,0.518,0.164,0.724c0.109,0.205,0.273,0.382,0.481,0.531
		c0.205,0.148,0.453,0.278,0.749,0.384c0.297,0.108,0.626,0.199,0.996,0.277c0.327,0.068,0.594,0.146,0.795,0.229
		c0.2,0.084,0.355,0.171,0.462,0.266c0.107,0.097,0.184,0.198,0.22,0.306c0.034,0.113,0.054,0.223,0.054,0.351
		c0,0.138-0.029,0.261-0.09,0.376c-0.062,0.116-0.153,0.221-0.274,0.308c-0.12,0.087-0.267,0.15-0.442,0.203
		c-0.18,0.052-0.38,0.073-0.617,0.073c-0.182,0-0.359-0.021-0.542-0.06c-0.178-0.041-0.345-0.114-0.496-0.21
		c-0.151-0.101-0.278-0.226-0.379-0.383c-0.101-0.161-0.155-0.359-0.169-0.588h-1.139c0,0.273,0.061,0.542,0.18,0.801
		c0.118,0.262,0.292,0.493,0.521,0.696c0.23,0.203,0.514,0.365,0.853,0.49c0.337,0.121,0.729,0.181,1.173,0.181
		c0.381,0,0.732-0.047,1.051-0.144c0.317-0.097,0.584-0.227,0.809-0.402c0.227-0.171,0.402-0.38,0.522-0.623
		C234.017,46.783,234.074,46.516,234.074,46.221 M247.326,44.135h-3.334c0.035-0.308,0.104-0.581,0.203-0.82
		c0.1-0.238,0.229-0.437,0.376-0.595c0.153-0.162,0.324-0.28,0.52-0.368c0.194-0.083,0.405-0.126,0.634-0.126
		c0.291,0,0.537,0.053,0.733,0.159c0.196,0.107,0.357,0.242,0.483,0.419c0.123,0.17,0.217,0.365,0.273,0.584
		c0.059,0.216,0.096,0.436,0.109,0.659v0.088H247.326z M247.803,42.228c-0.221-0.293-0.506-0.52-0.848-0.688
		c-0.344-0.166-0.754-0.249-1.23-0.249c-0.378,0-0.74,0.076-1.088,0.233c-0.35,0.151-0.658,0.371-0.931,0.665
		c-0.271,0.296-0.483,0.649-0.647,1.073c-0.162,0.433-0.242,0.911-0.242,1.454v0.26c0,0.469,0.07,0.899,0.215,1.291
		c0.143,0.395,0.348,0.734,0.613,1.02c0.268,0.284,0.587,0.505,0.963,0.667c0.374,0.157,0.793,0.235,1.254,0.235
		c0.332,0,0.633-0.032,0.893-0.102c0.262-0.072,0.494-0.168,0.699-0.293c0.205-0.116,0.381-0.255,0.532-0.405
		c0.151-0.157,0.28-0.317,0.391-0.479l-0.698-0.546c-0.211,0.272-0.452,0.491-0.732,0.655c-0.279,0.165-0.615,0.246-1.022,0.246
		c-0.302,0-0.57-0.061-0.814-0.176c-0.239-0.111-0.441-0.269-0.614-0.465c-0.169-0.196-0.301-0.427-0.388-0.695
		c-0.096-0.267-0.147-0.556-0.154-0.861h4.511v-0.508c0-0.467-0.059-0.902-0.162-1.297C248.191,42.862,248.03,42.515,247.803,42.228
		 M234.345,53.191c-0.224,0-0.392,0.063-0.506,0.188c-0.109,0.129-0.167,0.281-0.167,0.465c0,0.191,0.06,0.341,0.167,0.466
		c0.114,0.12,0.282,0.187,0.506,0.187c0.221,0,0.387-0.066,0.502-0.187c0.113-0.125,0.172-0.274,0.172-0.466
		c0-0.184-0.059-0.336-0.172-0.465C234.732,53.255,234.565,53.191,234.345,53.191 M241.331,48.148
		c0.146-0.032,0.257-0.055,0.352-0.08v-0.924c-0.061,0.018-0.142,0.028-0.245,0.052c-0.104,0.016-0.205,0.024-0.296,0.024
		c-0.096,0-0.188-0.013-0.273-0.024c-0.089-0.024-0.17-0.063-0.234-0.116c-0.068-0.06-0.123-0.14-0.161-0.243
		c-0.044-0.107-0.066-0.246-0.066-0.413v-4.129h1.244v-0.882h-1.244v-1.608h-1.137v1.608h-1.208v0.882h1.208v4.118
		c0,0.334,0.041,0.614,0.125,0.841c0.08,0.228,0.191,0.411,0.332,0.551c0.14,0.141,0.303,0.241,0.486,0.298
		c0.188,0.062,0.385,0.089,0.596,0.089C241.014,48.19,241.189,48.178,241.331,48.148 M284.249,44.82
		c0,0.329-0.041,0.638-0.123,0.938c-0.079,0.295-0.198,0.554-0.353,0.782c-0.155,0.221-0.352,0.395-0.591,0.53
		c-0.237,0.131-0.511,0.196-0.825,0.196c-0.313,0-0.59-0.065-0.822-0.196c-0.237-0.136-0.436-0.31-0.593-0.53
		c-0.159-0.228-0.277-0.487-0.354-0.782c-0.076-0.293-0.114-0.608-0.114-0.938v-0.137c0-0.331,0.038-0.646,0.114-0.942
		c0.077-0.294,0.195-0.555,0.354-0.778c0.157-0.224,0.354-0.403,0.586-0.54c0.232-0.132,0.508-0.194,0.82-0.194
		c0.314,0,0.595,0.062,0.829,0.194c0.235,0.137,0.438,0.316,0.593,0.54c0.157,0.224,0.276,0.485,0.355,0.778
		c0.082,0.297,0.123,0.611,0.123,0.942V44.82L284.249,44.82z M284.572,42.26c-0.261-0.299-0.583-0.537-0.956-0.707
		c-0.376-0.173-0.796-0.264-1.271-0.264c-0.461,0-0.882,0.089-1.254,0.264c-0.374,0.17-0.688,0.408-0.948,0.707
		c-0.261,0.305-0.465,0.665-0.604,1.078c-0.144,0.409-0.214,0.858-0.214,1.345v0.137c0,0.482,0.073,0.927,0.214,1.339
		c0.139,0.413,0.343,0.771,0.608,1.071c0.262,0.301,0.581,0.54,0.952,0.707c0.372,0.171,0.791,0.254,1.258,0.254
		c0.47,0,0.889-0.083,1.261-0.254c0.374-0.167,0.692-0.408,0.954-0.707c0.263-0.301,0.463-0.656,0.602-1.071
		c0.142-0.412,0.21-0.858,0.21-1.339v-0.137c0-0.486-0.07-0.936-0.21-1.345C285.037,42.926,284.837,42.565,284.572,42.26
		 M291.594,41.847c-0.186-0.195-0.41-0.337-0.673-0.424c-0.262-0.088-0.554-0.134-0.877-0.134c-0.42,0-0.796,0.084-1.133,0.257
		c-0.335,0.17-0.621,0.404-0.861,0.703l-0.034-0.839h-1.078v6.655h1.138v-4.741c0.154-0.319,0.373-0.574,0.653-0.771
		c0.276-0.201,0.603-0.301,0.971-0.301c0.219,0,0.41,0.025,0.572,0.082c0.169,0.052,0.311,0.137,0.42,0.255
		c0.115,0.111,0.2,0.261,0.255,0.442c0.063,0.182,0.087,0.4,0.087,0.661v4.368h1.139v-4.355c0-0.433-0.053-0.807-0.149-1.109
		C291.922,42.292,291.778,42.04,291.594,41.847 M298.668,41.847c-0.184-0.195-0.409-0.337-0.67-0.424
		c-0.264-0.088-0.556-0.134-0.881-0.134c-0.419,0-0.796,0.084-1.13,0.257c-0.336,0.17-0.623,0.404-0.862,0.703l-0.036-0.839h-1.078
		v6.655h1.135v-4.741c0.159-0.319,0.377-0.574,0.658-0.771c0.274-0.201,0.6-0.301,0.972-0.301c0.216,0,0.407,0.025,0.569,0.082
		c0.166,0.052,0.31,0.137,0.424,0.255c0.111,0.111,0.196,0.261,0.253,0.442c0.058,0.182,0.086,0.4,0.086,0.661v4.368h1.14v-4.355
		c0-0.433-0.055-0.807-0.152-1.109C298.999,42.292,298.851,42.04,298.668,41.847 M305.304,44.135h-3.333
		c0.036-0.308,0.106-0.581,0.205-0.82c0.101-0.238,0.226-0.437,0.38-0.595c0.148-0.162,0.326-0.28,0.518-0.368
		c0.191-0.083,0.405-0.126,0.631-0.126c0.294,0,0.536,0.053,0.732,0.159c0.197,0.107,0.356,0.242,0.484,0.419
		c0.123,0.17,0.219,0.365,0.275,0.584c0.06,0.216,0.094,0.436,0.105,0.656v0.091H305.304z M306.438,44.559
		c0-0.469-0.048-0.901-0.157-1.298c-0.104-0.396-0.269-0.746-0.492-1.032c-0.229-0.293-0.51-0.521-0.854-0.688
		c-0.344-0.166-0.754-0.249-1.23-0.249c-0.375,0-0.738,0.076-1.085,0.233c-0.351,0.151-0.658,0.38-0.932,0.665
		c-0.267,0.296-0.485,0.653-0.646,1.077c-0.162,0.429-0.246,0.907-0.246,1.451v0.26c0,0.468,0.074,0.902,0.214,1.292
		c0.147,0.393,0.351,0.732,0.62,1.02c0.264,0.28,0.583,0.505,0.959,0.665s0.796,0.237,1.26,0.237c0.33,0,0.625-0.034,0.891-0.104
		c0.263-0.072,0.495-0.165,0.698-0.287c0.202-0.122,0.38-0.261,0.531-0.411c0.151-0.153,0.279-0.317,0.387-0.479l-0.695-0.546
		c-0.209,0.272-0.451,0.491-0.729,0.655c-0.282,0.165-0.621,0.246-1.022,0.246c-0.304,0-0.576-0.061-0.813-0.171
		c-0.242-0.116-0.447-0.273-0.618-0.47c-0.168-0.196-0.298-0.427-0.392-0.695c-0.091-0.264-0.144-0.551-0.148-0.861h4.506v-0.511
		H306.438z M265.361,44.82c0,0.329-0.041,0.645-0.121,0.94c-0.082,0.292-0.197,0.552-0.354,0.779
		c-0.157,0.221-0.352,0.395-0.591,0.53c-0.238,0.131-0.513,0.196-0.824,0.196c-0.316,0-0.59-0.065-0.828-0.196
		c-0.232-0.136-0.431-0.31-0.59-0.53c-0.154-0.228-0.273-0.487-0.351-0.779c-0.082-0.296-0.12-0.611-0.12-0.94v-0.137
		c0-0.331,0.038-0.646,0.12-0.942c0.077-0.294,0.191-0.555,0.351-0.778s0.357-0.403,0.59-0.54c0.235-0.132,0.506-0.194,0.818-0.194
		c0.314,0,0.593,0.062,0.828,0.194c0.24,0.137,0.438,0.316,0.595,0.54c0.159,0.221,0.274,0.485,0.356,0.778
		c0.082,0.297,0.121,0.611,0.121,0.942V44.82L265.361,44.82z M265.689,42.26c-0.265-0.299-0.586-0.537-0.961-0.707
		c-0.374-0.173-0.795-0.264-1.268-0.264c-0.463,0-0.881,0.089-1.255,0.264c-0.372,0.17-0.69,0.408-0.95,0.707
		c-0.261,0.305-0.459,0.665-0.604,1.078c-0.143,0.409-0.213,0.858-0.213,1.345v0.137c0,0.482,0.071,0.927,0.215,1.339
		c0.143,0.413,0.341,0.771,0.607,1.071c0.263,0.301,0.577,0.54,0.951,0.707c0.373,0.171,0.793,0.254,1.258,0.254
		c0.471,0,0.891-0.083,1.262-0.254c0.374-0.167,0.692-0.406,0.953-0.707c0.265-0.301,0.465-0.656,0.604-1.071
		c0.141-0.412,0.212-0.858,0.212-1.339v-0.137c0-0.486-0.071-0.936-0.212-1.345C266.15,42.926,265.95,42.565,265.689,42.26
		 M258.571,44.113c-0.237-0.221-0.542-0.417-0.911-0.593c-0.371-0.175-0.807-0.328-1.314-0.477
		c-0.368-0.104-0.687-0.207-0.951-0.318c-0.264-0.109-0.48-0.23-0.647-0.362c-0.17-0.13-0.293-0.273-0.376-0.434
		c-0.079-0.156-0.117-0.33-0.117-0.519c0-0.203,0.034-0.397,0.109-0.574c0.076-0.176,0.188-0.329,0.339-0.458
		c0.147-0.13,0.342-0.229,0.579-0.306c0.236-0.073,0.508-0.112,0.824-0.112c0.333,0,0.623,0.042,0.871,0.131
		c0.246,0.088,0.45,0.209,0.614,0.366c0.163,0.152,0.286,0.342,0.365,0.549c0.082,0.218,0.119,0.445,0.119,0.698h1.188
		c0-0.347-0.072-0.687-0.21-1.017c-0.138-0.328-0.342-0.617-0.608-0.866c-0.272-0.248-0.604-0.45-0.995-0.601
		c-0.394-0.155-0.844-0.229-1.345-0.229c-0.46,0-0.879,0.062-1.25,0.187c-0.372,0.123-0.691,0.294-0.963,0.509
		c-0.264,0.219-0.471,0.479-0.615,0.776c-0.145,0.297-0.219,0.617-0.219,0.972c0,0.344,0.068,0.655,0.205,0.927
		c0.136,0.271,0.328,0.51,0.58,0.722c0.253,0.21,0.56,0.399,0.916,0.563c0.361,0.155,0.763,0.304,1.2,0.429
		c0.424,0.123,0.771,0.245,1.044,0.362c0.273,0.12,0.496,0.244,0.658,0.376c0.16,0.136,0.271,0.282,0.337,0.438
		c0.063,0.163,0.094,0.347,0.094,0.554c0,0.441-0.167,0.784-0.496,1.039c-0.333,0.255-0.81,0.382-1.435,0.382
		c-0.289,0-0.566-0.031-0.829-0.103c-0.267-0.069-0.497-0.172-0.703-0.316c-0.204-0.144-0.368-0.325-0.481-0.545
		c-0.125-0.225-0.188-0.484-0.188-0.786h-1.187c0,0.3,0.045,0.568,0.137,0.819c0.091,0.248,0.216,0.476,0.374,0.677
		c0.159,0.204,0.351,0.38,0.564,0.527c0.215,0.15,0.447,0.278,0.699,0.382c0.254,0.103,0.518,0.179,0.791,0.231
		c0.274,0.053,0.549,0.076,0.822,0.076c0.473,0,0.902-0.058,1.283-0.169c0.384-0.112,0.711-0.273,0.984-0.483
		c0.271-0.207,0.483-0.46,0.631-0.754c0.145-0.299,0.22-0.629,0.22-0.994c0-0.348-0.058-0.655-0.176-0.935
		C258.993,44.587,258.812,44.337,258.571,44.113 M276.933,44.82c0,0.329-0.03,0.638-0.099,0.936
		c-0.065,0.29-0.166,0.548-0.307,0.767c-0.14,0.216-0.317,0.39-0.533,0.517c-0.219,0.127-0.481,0.191-0.787,0.191
		c-0.211,0-0.4-0.03-0.568-0.085c-0.17-0.054-0.317-0.127-0.454-0.216c-0.13-0.098-0.249-0.208-0.347-0.337
		c-0.102-0.125-0.189-0.262-0.262-0.413v-2.877c0.07-0.146,0.152-0.283,0.25-0.41c0.097-0.129,0.215-0.237,0.347-0.331
		c0.138-0.094,0.288-0.169,0.454-0.222c0.164-0.054,0.357-0.081,0.564-0.081c0.321,0,0.59,0.066,0.812,0.193
		c0.224,0.128,0.401,0.308,0.538,0.526c0.139,0.222,0.236,0.481,0.298,0.771c0.064,0.298,0.091,0.607,0.091,0.94v0.131H276.933z
		 M277.399,42.231c-0.221-0.296-0.492-0.527-0.813-0.697c-0.321-0.16-0.692-0.242-1.111-0.242c-0.422,0-0.788,0.076-1.096,0.221
		c-0.319,0.146-0.582,0.36-0.801,0.636V38.62h-1.139l0.004,9.448h1.044l0.052-0.77c0.222,0.285,0.492,0.504,0.812,0.661
		c0.321,0.154,0.699,0.229,1.138,0.229c0.407,0,0.776-0.081,1.094-0.253c0.321-0.166,0.592-0.4,0.815-0.699
		c0.219-0.305,0.385-0.66,0.501-1.073c0.114-0.412,0.173-0.861,0.173-1.349v-0.131c0-0.506-0.059-0.971-0.173-1.388
		C277.784,42.881,277.616,42.53,277.399,42.231 M249.395,26.952c-0.027,0.843-0.259,1.454-0.691,1.843
		c-0.437,0.387-1.066,0.584-1.887,0.584c-0.49,0-0.902-0.085-1.238-0.248c-0.334-0.162-0.607-0.425-0.815-0.78
		c-0.205-0.357-0.36-0.812-0.453-1.369c-0.094-0.558-0.144-1.23-0.144-2.018v-0.823c0-0.787,0.055-1.461,0.159-2.021
		c0.105-0.561,0.267-1.019,0.483-1.369c0.217-0.354,0.49-0.612,0.815-0.776s0.711-0.249,1.151-0.249
		c0.479,0,0.875,0.062,1.198,0.167c0.327,0.105,0.595,0.27,0.806,0.479c0.211,0.211,0.368,0.475,0.463,0.796
		c0.104,0.32,0.155,0.689,0.166,1.101h3.571c-0.071-0.767-0.251-1.478-0.544-2.132c-0.29-0.649-0.695-1.214-1.211-1.688
		c-0.517-0.473-1.146-0.845-1.893-1.114c-0.741-0.268-1.594-0.406-2.557-0.406c-0.949,0-1.799,0.172-2.568,0.506
		c-0.769,0.337-1.423,0.815-1.969,1.444c-0.548,0.627-0.967,1.382-1.267,2.275c-0.294,0.89-0.438,1.898-0.438,3.012v0.802
		c0,1.112,0.144,2.117,0.426,3.01c0.279,0.891,0.689,1.647,1.231,2.272c0.538,0.618,1.196,1.098,1.976,1.43
		c0.778,0.333,1.66,0.498,2.65,0.498c0.918,0,1.744-0.126,2.485-0.381c0.738-0.253,1.378-0.611,1.905-1.069
		c0.528-0.458,0.941-1.008,1.239-1.65c0.298-0.64,0.468-1.351,0.501-2.123H249.395L249.395,26.952L249.395,26.952z M247.656,38.635
		h-1.376l-1.189,1.81h0.914L247.656,38.635z M270.762,41.292c-0.373,0-0.683,0.082-0.941,0.237
		c-0.254,0.162-0.471,0.381-0.645,0.658l-0.02-0.774h-1.106v6.654h1.136v-4.722c0.123-0.289,0.31-0.522,0.556-0.697
		c0.251-0.171,0.57-0.254,0.962-0.254c0.107,0,0.205,0.001,0.285,0.008c0.086,0.006,0.175,0.016,0.275,0.033v-1.061
		c-0.041-0.017-0.116-0.037-0.221-0.054C270.936,41.299,270.845,41.292,270.762,41.292 M208.651,48.069h1.136v-6.656h-1.139
		L208.651,48.069z M204.866,60.403c-0.062,0.128-0.146,0.249-0.255,0.369c-0.109,0.119-0.238,0.228-0.386,0.314
		c-0.146,0.094-0.312,0.169-0.492,0.226c-0.181,0.06-0.373,0.087-0.577,0.087c-0.209,0-0.391-0.029-0.549-0.089
		c-0.159-0.056-0.294-0.14-0.4-0.239c-0.111-0.098-0.191-0.22-0.246-0.357c-0.051-0.14-0.078-0.29-0.078-0.45
		c0-0.409,0.178-0.715,0.527-0.917c0.354-0.201,0.855-0.307,1.506-0.307h0.949L204.866,60.403L204.866,60.403z M206.006,60.815
		v-3.092c0-0.376-0.066-0.702-0.189-0.981c-0.123-0.274-0.292-0.509-0.511-0.695c-0.216-0.187-0.476-0.323-0.781-0.417
		c-0.309-0.092-0.639-0.14-1-0.14c-0.401,0-0.766,0.058-1.09,0.179c-0.325,0.113-0.605,0.266-0.836,0.448
		c-0.229,0.188-0.404,0.4-0.527,0.632c-0.127,0.233-0.192,0.472-0.192,0.706h1.143c0-0.14,0.037-0.269,0.108-0.397
		c0.069-0.129,0.165-0.24,0.289-0.335c0.125-0.1,0.275-0.175,0.45-0.229c0.178-0.058,0.369-0.087,0.586-0.087
		c0.461,0,0.814,0.112,1.053,0.35c0.235,0.238,0.356,0.555,0.356,0.95v0.525h-1.131c-0.456,0-0.866,0.046-1.241,0.145
		c-0.363,0.093-0.682,0.229-0.941,0.414c-0.262,0.187-0.461,0.414-0.598,0.687c-0.143,0.275-0.211,0.587-0.211,0.945
		c0,0.273,0.052,0.528,0.159,0.774c0.106,0.237,0.259,0.448,0.453,0.624c0.193,0.174,0.431,0.314,0.706,0.417
		c0.275,0.099,0.584,0.152,0.924,0.152c0.205,0,0.402-0.022,0.585-0.063c0.183-0.045,0.357-0.103,0.511-0.18
		c0.162-0.078,0.308-0.164,0.441-0.265c0.133-0.098,0.251-0.207,0.357-0.316c0.017,0.135,0.034,0.265,0.062,0.39
		c0.025,0.123,0.059,0.23,0.098,0.311h1.193V62.17c-0.079-0.181-0.136-0.396-0.175-0.643
		C206.02,61.276,206.006,61.039,206.006,60.815 M198.26,56.761c-0.077,0.212-0.191,0.391-0.351,0.548
		c-0.157,0.15-0.358,0.272-0.606,0.357c-0.253,0.088-0.547,0.129-0.893,0.129h-2.119v-3.509h2.119c0.346,0,0.64,0.048,0.893,0.146
		c0.248,0.101,0.446,0.231,0.606,0.396c0.159,0.166,0.273,0.353,0.351,0.568c0.071,0.211,0.109,0.438,0.109,0.664
		C198.369,56.319,198.335,56.548,198.26,56.761 M198.74,54.089c-0.266-0.246-0.589-0.437-0.979-0.569
		c-0.39-0.14-0.839-0.205-1.349-0.205h-3.302v8.953h1.185v-3.502h2.119c0.509,0,0.959-0.061,1.348-0.184
		c0.391-0.118,0.717-0.295,0.979-0.526c0.267-0.228,0.469-0.51,0.604-0.854c0.14-0.333,0.205-0.723,0.205-1.15
		c0-0.396-0.068-0.762-0.205-1.099C199.208,54.62,199.003,54.329,198.74,54.089 M225.813,43.345c0.121-0.289,0.31-0.522,0.556-0.693
		c0.251-0.17,0.57-0.258,0.964-0.258c0.105,0,0.2,0.001,0.287,0.008c0.08,0.007,0.172,0.019,0.271,0.033v-1.055
		c-0.043-0.024-0.118-0.041-0.222-0.061c-0.108-0.021-0.202-0.03-0.28-0.03c-0.373,0-0.685,0.082-0.944,0.237
		c-0.26,0.163-0.477,0.382-0.647,0.658l-0.021-0.774h-1.104v6.657h1.136L225.813,43.345z M198.479,45.181
		c0,0.347-0.047,0.649-0.147,0.903c-0.097,0.255-0.237,0.472-0.417,0.637c-0.183,0.172-0.397,0.299-0.652,0.382
		c-0.257,0.079-0.537,0.122-0.85,0.122c-0.306,0-0.586-0.043-0.838-0.122c-0.258-0.085-0.471-0.21-0.648-0.382
		c-0.18-0.165-0.323-0.382-0.424-0.637c-0.102-0.256-0.15-0.561-0.15-0.903v-6.067h-1.168v6.067c0,0.497,0.084,0.944,0.25,1.319
		c0.169,0.377,0.396,0.69,0.68,0.943c0.291,0.248,0.635,0.438,1.025,0.562c0.394,0.124,0.817,0.186,1.273,0.186
		c0.436,0,0.846-0.062,1.242-0.186c0.396-0.123,0.74-0.314,1.038-0.562c0.294-0.253,0.534-0.566,0.71-0.943
		c0.178-0.376,0.264-0.822,0.264-1.319v-6.067h-1.188V45.181L198.479,45.181z M209.227,40.296c0.225,0,0.391-0.062,0.504-0.182
		c0.117-0.126,0.172-0.28,0.172-0.463c0-0.187-0.055-0.341-0.172-0.469c-0.113-0.128-0.279-0.189-0.504-0.189
		c-0.221,0-0.385,0.062-0.503,0.189c-0.109,0.128-0.164,0.282-0.164,0.469c0,0.183,0.055,0.337,0.164,0.463
		C208.84,40.234,209.006,40.296,209.227,40.296 M194.693,30.808c0.512,0.449,1.131,0.79,1.849,1.023
		c0.72,0.229,1.514,0.346,2.383,0.346c0.875,0,1.669-0.116,2.389-0.346c0.716-0.233,1.33-0.574,1.837-1.023
		c0.51-0.451,0.904-1.012,1.182-1.677c0.279-0.663,0.42-1.434,0.42-2.299v-9.691h-3.578v9.691c0,0.915-0.188,1.574-0.567,1.981
		c-0.378,0.407-0.94,0.612-1.681,0.612c-0.729,0-1.283-0.205-1.676-0.612c-0.391-0.407-0.585-1.069-0.585-1.981v-9.691h-3.596v9.691
		c0,0.864,0.144,1.635,0.429,2.299C193.782,29.796,194.18,30.357,194.693,30.808 M216.698,16.202
		c-0.158,0.13-0.356,0.235-0.601,0.314c-0.24,0.077-0.529,0.116-0.869,0.116c-0.421,0-0.79-0.04-1.113-0.116
		c-0.322-0.078-0.598-0.209-0.825-0.392c-0.219-0.188-0.392-0.426-0.506-0.718c-0.114-0.296-0.171-0.662-0.171-1.094h-3.586
		c0,0.581,0.082,1.114,0.252,1.586c0.164,0.479,0.391,0.902,0.684,1.274c0.283,0.376,0.624,0.697,1.023,0.964
		c0.398,0.269,0.827,0.492,1.285,0.667c0.458,0.179,0.937,0.309,1.442,0.392c0.501,0.084,1.008,0.125,1.515,0.125
		c0.826,0,1.578-0.09,2.256-0.276c0.676-0.18,1.254-0.45,1.73-0.805c0.479-0.35,0.848-0.79,1.112-1.309
		c0.261-0.518,0.39-1.111,0.39-1.777c0-0.629-0.108-1.183-0.329-1.682c-0.221-0.492-0.544-0.94-0.97-1.334
		c-0.424-0.394-0.943-0.741-1.562-1.05c-0.618-0.302-1.319-0.581-2.108-0.835c-0.421-0.133-0.799-0.27-1.136-0.41
		c-0.335-0.14-0.616-0.288-0.854-0.447c-0.232-0.162-0.413-0.331-0.54-0.508c-0.126-0.182-0.189-0.384-0.189-0.606
		c0-0.203,0.043-0.396,0.132-0.578c0.086-0.179,0.219-0.339,0.393-0.479c0.173-0.138,0.391-0.247,0.648-0.327
		c0.26-0.077,0.557-0.116,0.896-0.116c0.348,0,0.648,0.048,0.902,0.146c0.254,0.093,0.469,0.225,0.642,0.392
		c0.173,0.167,0.302,0.363,0.386,0.6c0.087,0.234,0.129,0.492,0.129,0.771h3.562c0-0.703-0.137-1.334-0.412-1.899
		c-0.272-0.567-0.654-1.05-1.143-1.453c-0.487-0.402-1.072-0.707-1.754-0.928c-0.678-0.214-1.422-0.323-2.229-0.323
		c-0.824,0-1.579,0.096-2.275,0.293c-0.697,0.198-1.297,0.479-1.807,0.836c-0.512,0.357-0.909,0.794-1.196,1.307
		c-0.281,0.513-0.43,1.09-0.43,1.729c0,0.664,0.145,1.245,0.427,1.743c0.278,0.499,0.656,0.935,1.124,1.31
		c0.471,0.375,1.007,0.699,1.608,0.968c0.606,0.271,1.235,0.516,1.886,0.733c0.557,0.183,1.01,0.356,1.346,0.521
		c0.348,0.16,0.614,0.327,0.804,0.496c0.188,0.163,0.317,0.341,0.381,0.528c0.065,0.186,0.098,0.394,0.098,0.623
		c0,0.198-0.036,0.384-0.109,0.561C216.963,15.913,216.854,16.071,216.698,16.202 M229.283,19.907h2.338
		c0.377,0,0.697,0.06,0.965,0.185c0.266,0.128,0.487,0.295,0.662,0.503c0.172,0.213,0.299,0.452,0.381,0.731
		c0.082,0.273,0.119,0.563,0.119,0.869c0,0.284-0.037,0.55-0.119,0.793c-0.086,0.249-0.209,0.455-0.381,0.635
		c-0.175,0.175-0.396,0.314-0.662,0.411c-0.27,0.1-0.589,0.15-0.965,0.15h-2.338V19.907z M229.283,26.943h2.338
		c0.895,0,1.693-0.115,2.407-0.343c0.713-0.227,1.317-0.545,1.813-0.964c0.494-0.419,0.875-0.918,1.142-1.502
		c0.263-0.581,0.396-1.236,0.396-1.957c0-0.726-0.134-1.397-0.396-2.011c-0.267-0.616-0.647-1.148-1.142-1.596
		c-0.496-0.449-1.101-0.798-1.813-1.048c-0.714-0.255-1.513-0.38-2.407-0.38h-5.915v14.83h3.575v-5.03h0.002V26.943z
		 M209.657,26.342h10.428v-3.001h-10.428V26.342z M212.978,53.191c-0.224,0-0.388,0.063-0.503,0.188
		c-0.111,0.129-0.169,0.281-0.169,0.465c0,0.191,0.058,0.341,0.169,0.466c0.115,0.12,0.279,0.187,0.503,0.187
		c0.217,0,0.386-0.066,0.501-0.187c0.115-0.125,0.172-0.274,0.172-0.466c0-0.184-0.057-0.336-0.172-0.465
		C213.363,53.255,213.194,53.191,212.978,53.191 M215.576,41.413l-1.648,5.113l-1.69-5.113h-1.162l2.411,6.656h0.867l2.385-6.656
		H215.576z M219.907,59.164c-0.196-0.155-0.44-0.295-0.742-0.413c-0.299-0.122-0.652-0.226-1.058-0.318
		c-0.316-0.073-0.575-0.142-0.773-0.208c-0.197-0.067-0.355-0.144-0.471-0.221c-0.114-0.082-0.191-0.171-0.232-0.267
		c-0.039-0.1-0.06-0.209-0.06-0.33c0-0.125,0.022-0.246,0.071-0.36c0.049-0.118,0.129-0.224,0.233-0.317
		c0.103-0.09,0.244-0.164,0.409-0.221c0.164-0.053,0.364-0.086,0.607-0.086c0.224,0,0.424,0.036,0.596,0.103
		c0.17,0.067,0.318,0.161,0.438,0.267c0.116,0.109,0.205,0.229,0.271,0.368c0.063,0.136,0.092,0.272,0.092,0.409h1.144
		c0-0.286-0.057-0.554-0.173-0.808c-0.115-0.255-0.279-0.474-0.497-0.662c-0.221-0.19-0.487-0.338-0.801-0.445
		c-0.315-0.109-0.671-0.163-1.07-0.163c-0.372,0-0.708,0.052-1.014,0.158c-0.303,0.103-0.561,0.244-0.773,0.422
		c-0.216,0.179-0.38,0.385-0.498,0.622c-0.116,0.237-0.173,0.485-0.173,0.75c0,0.269,0.057,0.511,0.164,0.716
		c0.108,0.205,0.267,0.383,0.479,0.532c0.205,0.149,0.457,0.278,0.752,0.383c0.294,0.11,0.627,0.199,0.998,0.276
		c0.326,0.068,0.591,0.148,0.791,0.229c0.2,0.083,0.355,0.172,0.461,0.268c0.109,0.096,0.182,0.198,0.223,0.306
		c0.034,0.109,0.055,0.226,0.055,0.35c0,0.137-0.031,0.264-0.096,0.377c-0.061,0.121-0.149,0.224-0.271,0.306
		c-0.122,0.087-0.268,0.152-0.445,0.205c-0.176,0.049-0.381,0.07-0.614,0.07c-0.182,0-0.362-0.021-0.54-0.062
		c-0.184-0.041-0.35-0.109-0.501-0.206c-0.149-0.102-0.272-0.23-0.38-0.386c-0.097-0.155-0.153-0.355-0.166-0.586h-1.138
		c0,0.27,0.063,0.541,0.181,0.802c0.117,0.265,0.288,0.491,0.521,0.693c0.229,0.205,0.513,0.366,0.852,0.492
		c0.338,0.123,0.729,0.185,1.172,0.185c0.383,0,0.733-0.05,1.05-0.147c0.317-0.094,0.589-0.23,0.813-0.399
		c0.224-0.174,0.401-0.379,0.516-0.62c0.123-0.241,0.188-0.511,0.188-0.8c0-0.271-0.052-0.508-0.147-0.713
		C220.254,59.505,220.103,59.321,219.907,59.164 M222.098,44.135h-3.33c0.034-0.308,0.104-0.581,0.201-0.82
		c0.102-0.238,0.228-0.437,0.378-0.595c0.153-0.162,0.323-0.28,0.517-0.368c0.194-0.083,0.402-0.126,0.635-0.126
		c0.293,0,0.535,0.053,0.732,0.159c0.198,0.107,0.355,0.242,0.481,0.419c0.126,0.17,0.219,0.365,0.278,0.584
		c0.059,0.216,0.094,0.436,0.107,0.659V44.135L222.098,44.135z M222.582,42.228c-0.226-0.292-0.508-0.52-0.854-0.688
		c-0.343-0.166-0.753-0.249-1.229-0.249c-0.376,0-0.737,0.076-1.087,0.233c-0.35,0.151-0.658,0.38-0.93,0.665
		c-0.271,0.296-0.485,0.649-0.648,1.073c-0.16,0.433-0.241,0.911-0.241,1.454v0.26c0,0.469,0.069,0.899,0.212,1.291
		c0.145,0.395,0.348,0.734,0.615,1.02c0.267,0.282,0.588,0.505,0.961,0.667c0.379,0.16,0.795,0.237,1.26,0.237
		c0.331,0,0.624-0.034,0.889-0.104c0.265-0.072,0.495-0.168,0.699-0.293c0.205-0.116,0.379-0.255,0.531-0.405
		c0.15-0.157,0.278-0.317,0.388-0.479l-0.697-0.546c-0.208,0.272-0.451,0.491-0.729,0.655c-0.282,0.165-0.619,0.246-1.021,0.246
		c-0.306,0-0.574-0.061-0.815-0.176c-0.24-0.111-0.442-0.269-0.615-0.465c-0.171-0.196-0.301-0.427-0.392-0.695
		c-0.092-0.267-0.146-0.551-0.149-0.861h4.508v-0.508c0-0.467-0.057-0.902-0.159-1.297
		C222.967,42.862,222.801,42.515,222.582,42.228 M212.397,62.265h1.136v-6.654h-1.136V62.265z M210.624,55.491
		c-0.369,0-0.682,0.079-0.943,0.24c-0.257,0.156-0.474,0.379-0.646,0.654l-0.021-0.772h-1.102v6.653h1.135v-4.723
		c0.125-0.29,0.31-0.521,0.557-0.698c0.252-0.168,0.571-0.253,0.963-0.253c0.107,0,0.205,0,0.287,0.007
		c0.085,0.006,0.176,0.019,0.276,0.035v-1.062c-0.044-0.017-0.114-0.035-0.222-0.055C210.802,55.499,210.704,55.491,210.624,55.491
		 M206.131,41.847c-0.183-0.195-0.41-0.337-0.67-0.424c-0.262-0.088-0.555-0.134-0.877-0.134c-0.42,0-0.796,0.084-1.133,0.257
		c-0.335,0.17-0.622,0.404-0.862,0.703l-0.034-0.837h-1.079v6.655h1.137v-4.743c0.155-0.319,0.374-0.574,0.653-0.771
		c0.279-0.201,0.604-0.298,0.974-0.298c0.216,0,0.408,0.022,0.572,0.079c0.168,0.053,0.308,0.137,0.421,0.255
		c0.111,0.111,0.196,0.261,0.256,0.442c0.053,0.182,0.084,0.405,0.084,0.661v4.372h1.139v-4.359c0-0.433-0.052-0.804-0.149-1.109
		C206.459,42.292,206.319,42.04,206.131,41.847"/>
	<polygon fill="#FFFFFF" points="61.467,15.783 54.507,15.783 54.507,22.975 50.882,22.975 50.882,5.379 62.338,5.379 62.338,8.315 
		54.507,8.315 54.507,12.861 61.467,12.861 	"/>
	<path fill="#FFFFFF" d="M69.826,23.217c-1.014,0-1.925-0.167-2.728-0.496c-0.8-0.328-1.48-0.782-2.041-1.356
		c-0.56-0.569-0.985-1.241-1.281-2.01c-0.294-0.769-0.44-1.593-0.44-2.469v-0.472c0-0.997,0.142-1.899,0.427-2.728
		c0.289-0.826,0.694-1.537,1.219-2.131c0.529-0.595,1.17-1.063,1.922-1.4c0.753-0.332,1.601-0.496,2.531-0.496
		c0.942,0,1.775,0.153,2.492,0.465c0.717,0.312,1.316,0.744,1.805,1.305c0.488,0.563,0.853,1.233,1.1,2.027
		c0.246,0.787,0.369,1.667,0.369,2.632v1.486h-8.327c0.056,0.426,0.172,0.814,0.346,1.16c0.173,0.351,0.394,0.646,0.664,0.889
		c0.27,0.248,0.585,0.438,0.947,0.58c0.364,0.133,0.77,0.202,1.223,0.202c0.636,0,1.225-0.116,1.762-0.356
		c0.539-0.235,1.004-0.604,1.392-1.106l1.717,1.922c-0.21,0.295-0.473,0.588-0.786,0.87c-0.315,0.281-0.687,0.536-1.113,0.755
		c-0.429,0.22-0.909,0.397-1.444,0.53C71.048,23.149,70.463,23.217,69.826,23.217 M69.424,12.483c-0.378,0-0.709,0.067-0.996,0.201
		c-0.286,0.134-0.533,0.316-0.736,0.554c-0.208,0.238-0.375,0.524-0.502,0.854c-0.129,0.329-0.222,0.698-0.276,1.101h4.857v-0.279
		c-0.009-0.346-0.059-0.67-0.152-0.966c-0.091-0.295-0.235-0.554-0.424-0.771c-0.19-0.222-0.43-0.386-0.725-0.51
		C70.177,12.543,69.827,12.483,69.424,12.483"/>
	<rect x="77.46" y="14.836" fill="#FFFFFF" width="9.727" height="2.815"/>
	<path fill="#FFFFFF" d="M84.254,8.817c0-0.189-0.039-0.357-0.111-0.509c-0.075-0.153-0.208-0.3-0.412-0.432
		c-0.2-0.134-0.475-0.257-0.82-0.376c-0.347-0.125-0.794-0.241-1.341-0.353c-0.667-0.144-1.286-0.326-1.854-0.544
		c-0.568-0.216-1.057-0.488-1.474-0.808c-0.412-0.323-0.74-0.699-0.973-1.125c-0.234-0.425-0.35-0.921-0.35-1.488
		c0-0.548,0.12-1.067,0.357-1.553c0.236-0.495,0.58-0.929,1.028-1.302c0.446-0.375,0.994-0.67,1.642-0.889
		c0.649-0.217,1.38-0.327,2.194-0.327c0.847,0,1.608,0.105,2.283,0.312c0.677,0.209,1.249,0.501,1.722,0.875
		c0.471,0.374,0.835,0.824,1.088,1.337c0.253,0.517,0.378,1.084,0.378,1.692h-3.493c0-0.499-0.161-0.91-0.483-1.24
		C83.313,1.764,82.809,1.6,82.124,1.6c-0.59,0-1.043,0.132-1.367,0.396c-0.32,0.268-0.482,0.611-0.482,1.02
		c0,0.19,0.041,0.362,0.123,0.51c0.084,0.149,0.223,0.289,0.414,0.412c0.188,0.123,0.437,0.239,0.748,0.346
		c0.311,0.104,0.689,0.202,1.141,0.292c0.709,0.133,1.367,0.303,1.97,0.503c0.605,0.204,1.125,0.462,1.565,0.784
		c0.441,0.315,0.785,0.7,1.034,1.156c0.248,0.454,0.375,1.005,0.375,1.65c0,0.58-0.127,1.114-0.385,1.6
		c-0.259,0.489-0.629,0.908-1.107,1.262c-0.481,0.354-1.058,0.635-1.735,0.834c-0.677,0.204-1.433,0.302-2.272,0.302
		c-0.918,0-1.729-0.128-2.428-0.384c-0.701-0.258-1.291-0.598-1.771-1.019c-0.48-0.418-0.839-0.89-1.081-1.411
		c-0.241-0.522-0.362-1.05-0.362-1.583h3.311c0.017,0.339,0.091,0.629,0.224,0.876c0.132,0.248,0.31,0.446,0.528,0.597
		c0.216,0.156,0.467,0.269,0.753,0.339c0.287,0.068,0.588,0.109,0.901,0.109c0.671,0,1.176-0.125,1.516-0.381
		C84.083,9.56,84.254,9.228,84.254,8.817"/>
	<path fill="#FFFFFF" d="M94.477,6.678v3.213h2.235v2.562h-2.235v6.525c0,0.271,0.03,0.496,0.087,0.675
		c0.053,0.178,0.139,0.316,0.252,0.419c0.115,0.1,0.253,0.167,0.417,0.203c0.166,0.036,0.359,0.056,0.583,0.056
		c0.208,0,0.403-0.007,0.577-0.024c0.172-0.014,0.323-0.037,0.453-0.062v2.65c-0.291,0.084-0.609,0.159-0.949,0.219
		c-0.342,0.063-0.729,0.091-1.166,0.091c-0.572,0-1.088-0.07-1.546-0.211c-0.462-0.141-0.853-0.363-1.181-0.673
		c-0.326-0.299-0.578-0.7-0.752-1.192c-0.18-0.492-0.267-1.084-0.267-1.776v-6.901h-1.908V9.891h1.908V6.678H94.477z"/>
	<path fill="#FFFFFF" d="M98.925,6.507c0-0.523,0.175-0.954,0.525-1.291c0.35-0.34,0.827-0.507,1.431-0.507
		c0.298,0,0.569,0.041,0.811,0.13c0.243,0.089,0.445,0.213,0.615,0.377c0.17,0.159,0.299,0.35,0.393,0.57
		c0.092,0.222,0.139,0.462,0.139,0.721c0,0.266-0.046,0.509-0.139,0.733c-0.094,0.22-0.223,0.41-0.393,0.572
		c-0.17,0.16-0.372,0.285-0.615,0.374c-0.241,0.088-0.513,0.134-0.811,0.134c-0.299,0-0.567-0.045-0.811-0.134
		c-0.241-0.089-0.445-0.214-0.614-0.374c-0.17-0.162-0.3-0.352-0.396-0.572C98.971,7.016,98.925,6.773,98.925,6.507 M102.633,22.965
		h-3.505V9.891h3.505V22.965z"/>
	<polygon fill="#FFFFFF" points="110.403,18.701 112.834,9.891 116.481,9.891 112.072,22.965 108.736,22.965 104.325,9.891 
		107.976,9.891 	"/>
	<path fill="#FFFFFF" d="M125.389,22.965c-0.163-0.312-0.279-0.702-0.353-1.174c-0.355,0.397-0.801,0.732-1.334,1.005
		c-0.536,0.273-1.191,0.408-1.962,0.408c-0.629,0-1.217-0.096-1.757-0.288c-0.545-0.194-1.018-0.462-1.417-0.807
		c-0.398-0.35-0.711-0.765-0.936-1.246c-0.226-0.476-0.337-1.002-0.337-1.577c0-0.681,0.126-1.293,0.379-1.823
		c0.258-0.532,0.637-0.982,1.143-1.351c0.508-0.372,1.137-0.655,1.894-0.845c0.75-0.192,1.626-0.291,2.628-0.291h1.558v-0.75
		c0-0.604-0.154-1.088-0.465-1.448c-0.311-0.365-0.799-0.543-1.47-0.543c-0.586,0-1.048,0.14-1.381,0.421
		c-0.337,0.282-0.504,0.667-0.504,1.16h-3.493c0-0.565,0.132-1.101,0.394-1.608c0.262-0.506,0.636-0.95,1.12-1.327
		c0.483-0.38,1.066-0.68,1.75-0.901c0.687-0.219,1.449-0.329,2.297-0.329c0.758,0,1.458,0.094,2.103,0.291
		c0.644,0.192,1.198,0.479,1.665,0.861c0.469,0.381,0.834,0.86,1.094,1.441c0.263,0.574,0.392,1.243,0.392,2.011v5.533
		c0,0.37,0.013,0.702,0.036,0.995c0.025,0.297,0.058,0.561,0.094,0.798c0.042,0.238,0.095,0.45,0.16,0.641
		c0.062,0.19,0.14,0.369,0.229,0.536v0.208h-3.527V22.965z M122.502,20.536c0.295,0,0.572-0.037,0.827-0.108
		c0.251-0.071,0.482-0.166,0.68-0.287c0.204-0.112,0.379-0.249,0.526-0.403c0.149-0.15,0.27-0.312,0.358-0.469V17.02h-1.436
		c-0.462,0-0.861,0.05-1.197,0.15c-0.339,0.101-0.616,0.242-0.837,0.424c-0.215,0.18-0.377,0.392-0.481,0.638
		c-0.105,0.25-0.156,0.515-0.156,0.805c0,0.434,0.149,0.794,0.457,1.076C121.55,20.397,121.969,20.536,122.502,20.536"/>
	<rect x="131.26" y="4.406" fill="#FFFFFF" width="3.503" height="18.56"/>
	<path fill="#FFFFFF" d="M50.136,38.412c0-0.986,0.112-1.896,0.346-2.714c0.23-0.825,0.56-1.529,0.997-2.119
		c0.436-0.585,0.969-1.042,1.606-1.369c0.637-0.32,1.364-0.482,2.176-0.482c0.671,0,1.264,0.13,1.784,0.381
		c0.52,0.245,0.977,0.599,1.372,1.048v-6.672h3.5v18.567h-3.15l-0.168-1.395c-0.412,0.515-0.892,0.918-1.436,1.202
		c-0.552,0.288-1.192,0.431-1.924,0.431c-0.808,0-1.524-0.166-2.159-0.501c-0.632-0.333-1.165-0.796-1.601-1.384
		c-0.437-0.585-0.767-1.286-0.997-2.096c-0.234-0.809-0.346-1.691-0.346-2.644V38.412z M53.629,38.667
		c0,0.535,0.044,1.028,0.131,1.486c0.089,0.462,0.232,0.865,0.43,1.205c0.198,0.344,0.455,0.612,0.772,0.807
		c0.319,0.2,0.706,0.301,1.167,0.301c0.565,0,1.031-0.12,1.408-0.365c0.375-0.24,0.668-0.573,0.876-0.999v-5.162
		c-0.208-0.437-0.502-0.771-0.876-1.007c-0.376-0.241-0.836-0.358-1.385-0.358c-0.461,0-0.849,0.096-1.172,0.294
		c-0.322,0.197-0.584,0.467-0.779,0.817c-0.197,0.345-0.344,0.75-0.437,1.217c-0.091,0.468-0.138,0.974-0.138,1.511v0.253H53.629z"
		/>
	<path fill="#FFFFFF" d="M70.414,45.291c-1.014,0-1.922-0.162-2.724-0.497c-0.8-0.323-1.483-0.78-2.04-1.353
		c-0.562-0.57-0.988-1.242-1.281-2.011c-0.295-0.77-0.441-1.594-0.441-2.474v-0.47c0-0.993,0.143-1.9,0.426-2.725
		c0.285-0.826,0.693-1.539,1.221-2.133c0.526-0.599,1.169-1.06,1.921-1.396c0.754-0.334,1.599-0.505,2.53-0.505
		c0.946,0,1.777,0.157,2.493,0.469c0.716,0.309,1.317,0.745,1.805,1.306c0.489,0.559,0.854,1.233,1.102,2.023
		c0.245,0.786,0.368,1.666,0.368,2.634v1.486h-8.327c0.059,0.428,0.172,0.815,0.346,1.16c0.174,0.346,0.395,0.642,0.664,0.889
		c0.27,0.246,0.587,0.437,0.948,0.574c0.363,0.138,0.771,0.204,1.221,0.204c0.637,0,1.225-0.116,1.766-0.357
		c0.54-0.237,1.002-0.606,1.39-1.105l1.715,1.923c-0.208,0.295-0.467,0.586-0.784,0.867c-0.313,0.286-0.684,0.535-1.114,0.758
		c-0.424,0.221-0.904,0.397-1.441,0.531C71.637,45.227,71.052,45.291,70.414,45.291 M70.017,34.562c-0.38,0-0.71,0.064-0.998,0.197
		c-0.285,0.132-0.53,0.32-0.738,0.554c-0.204,0.239-0.373,0.523-0.5,0.852c-0.128,0.331-0.22,0.699-0.28,1.104h4.858V36.99
		c-0.008-0.347-0.059-0.67-0.15-0.968c-0.094-0.295-0.234-0.555-0.424-0.772c-0.189-0.217-0.432-0.389-0.724-0.506
		C70.768,34.62,70.42,34.562,70.017,34.562"/>
	<path fill="#FFFFFF" d="M85.178,41.444c0-0.187-0.035-0.353-0.107-0.51c-0.076-0.15-0.212-0.292-0.409-0.427
		c-0.204-0.136-0.479-0.259-0.822-0.382c-0.347-0.121-0.795-0.234-1.339-0.35c-0.672-0.146-1.29-0.321-1.859-0.546
		c-0.568-0.215-1.059-0.486-1.473-0.807c-0.416-0.323-0.74-0.697-0.974-1.123c-0.233-0.431-0.35-0.923-0.35-1.49
		c0-0.546,0.116-1.065,0.354-1.557c0.238-0.491,0.583-0.926,1.027-1.298c0.448-0.379,0.994-0.673,1.644-0.887
		c0.649-0.219,1.379-0.327,2.192-0.327c0.847,0,1.607,0.105,2.285,0.313c0.676,0.209,1.25,0.501,1.723,0.876
		c0.47,0.373,0.834,0.819,1.085,1.337c0.255,0.516,0.382,1.078,0.382,1.692h-3.491c0-0.501-0.163-0.913-0.485-1.239
		c-0.322-0.324-0.826-0.491-1.511-0.491c-0.586,0-1.044,0.135-1.364,0.397c-0.321,0.271-0.485,0.609-0.485,1.016
		c0,0.194,0.043,0.367,0.127,0.516c0.084,0.149,0.222,0.284,0.41,0.409c0.191,0.126,0.441,0.242,0.75,0.345
		c0.312,0.104,0.69,0.2,1.142,0.291c0.707,0.137,1.364,0.309,1.969,0.507c0.608,0.202,1.125,0.462,1.565,0.781
		c0.438,0.316,0.787,0.702,1.034,1.157c0.25,0.454,0.375,1.005,0.375,1.65c0,0.58-0.126,1.115-0.382,1.602
		c-0.262,0.485-0.632,0.906-1.109,1.262c-0.478,0.355-1.055,0.631-1.734,0.835c-0.676,0.2-1.435,0.3-2.272,0.3
		c-0.918,0-1.728-0.127-2.429-0.383c-0.7-0.26-1.291-0.599-1.771-1.018c-0.479-0.417-0.84-0.89-1.079-1.409
		c-0.242-0.524-0.362-1.052-0.362-1.585h3.311c0.016,0.337,0.091,0.626,0.223,0.875c0.133,0.25,0.308,0.444,0.525,0.601
		c0.218,0.152,0.468,0.265,0.756,0.336c0.286,0.072,0.588,0.109,0.901,0.109c0.669,0,1.175-0.129,1.515-0.382
		C85.007,42.189,85.178,41.855,85.178,41.444"/>
	<path fill="#FFFFFF" d="M96.956,28.59c0-0.526,0.175-0.956,0.524-1.295c0.353-0.336,0.831-0.509,1.436-0.509
		c0.297,0,0.566,0.047,0.81,0.134c0.239,0.09,0.446,0.213,0.614,0.375c0.169,0.164,0.303,0.354,0.395,0.576
		c0.091,0.223,0.138,0.46,0.138,0.713c0,0.27-0.047,0.516-0.138,0.737c-0.092,0.22-0.227,0.41-0.395,0.573
		c-0.167,0.16-0.375,0.286-0.614,0.376c-0.244,0.09-0.512,0.132-0.81,0.132c-0.299,0-0.569-0.042-0.81-0.132
		c-0.244-0.09-0.448-0.214-0.621-0.376c-0.166-0.163-0.298-0.353-0.392-0.573C97.004,29.1,96.956,28.858,96.956,28.59
		 M100.665,45.05h-3.505V31.978h3.505V45.05z"/>
	<path fill="#FFFFFF" d="M102.997,38.412c0-0.986,0.115-1.896,0.345-2.714c0.229-0.825,0.561-1.529,0.998-2.119
		c0.434-0.585,0.971-1.042,1.604-1.369c0.64-0.32,1.365-0.482,2.179-0.482c0.669,0,1.264,0.13,1.781,0.381
		c0.521,0.245,0.979,0.599,1.371,1.048v-6.672h3.505v18.567h-3.152l-0.171-1.395c-0.41,0.515-0.892,0.918-1.438,1.202
		c-0.547,0.288-1.187,0.431-1.921,0.431c-0.804,0-1.525-0.166-2.157-0.501c-0.633-0.333-1.166-0.796-1.6-1.384
		c-0.437-0.585-0.769-1.286-0.998-2.096c-0.23-0.809-0.345-1.691-0.345-2.644V38.412z M106.489,38.667
		c0,0.535,0.046,1.028,0.133,1.486c0.09,0.462,0.23,0.865,0.429,1.205c0.196,0.344,0.456,0.612,0.773,0.807
		c0.318,0.2,0.707,0.301,1.166,0.301c0.562,0,1.033-0.12,1.407-0.365c0.375-0.24,0.666-0.573,0.876-0.999v-5.162
		c-0.212-0.437-0.502-0.771-0.876-1.007c-0.375-0.241-0.834-0.358-1.383-0.358c-0.459,0-0.852,0.096-1.174,0.294
		c-0.322,0.197-0.582,0.467-0.779,0.817c-0.196,0.345-0.343,0.75-0.434,1.217c-0.092,0.468-0.14,0.974-0.14,1.511v0.253H106.489z"/>
	<path fill="#FFFFFF" d="M123.505,45.291c-1.016,0-1.925-0.162-2.725-0.497c-0.799-0.323-1.483-0.78-2.042-1.353
		c-0.562-0.57-0.988-1.242-1.282-2.011c-0.292-0.77-0.441-1.594-0.441-2.474v-0.473c0-0.99,0.144-1.897,0.429-2.722
		c0.285-0.826,0.694-1.539,1.22-2.133c0.526-0.599,1.169-1.06,1.922-1.396c0.753-0.334,1.596-0.505,2.532-0.505
		c0.943,0,1.772,0.157,2.491,0.469c0.716,0.309,1.317,0.745,1.806,1.306c0.487,0.559,0.853,1.233,1.098,2.023
		c0.246,0.786,0.37,1.666,0.37,2.634v1.486h-8.325c0.055,0.428,0.171,0.815,0.342,1.16c0.175,0.346,0.396,0.642,0.668,0.889
		c0.27,0.246,0.584,0.437,0.949,0.574c0.364,0.138,0.769,0.204,1.22,0.204c0.636,0,1.225-0.116,1.766-0.357
		c0.54-0.235,1.003-0.606,1.39-1.105l1.714,1.923c-0.207,0.295-0.468,0.586-0.784,0.867c-0.314,0.286-0.686,0.535-1.113,0.758
		c-0.424,0.221-0.906,0.397-1.442,0.531C124.725,45.227,124.141,45.291,123.505,45.291 M123.108,34.562
		c-0.379,0-0.714,0.064-0.998,0.2c-0.287,0.133-0.533,0.317-0.735,0.557c-0.205,0.236-0.377,0.52-0.5,0.852
		c-0.128,0.325-0.227,0.695-0.279,1.099h4.857v-0.275c-0.01-0.35-0.06-0.671-0.151-0.969c-0.09-0.297-0.232-0.557-0.423-0.774
		c-0.19-0.213-0.431-0.386-0.727-0.506C123.859,34.62,123.509,34.562,123.108,34.562 M123.42,26.488h3.807l-3.345,3.743h-2.842
		L123.42,26.488z"/>
	<path fill="#FFFFFF" d="M136.883,45.291c-1.015,0-1.924-0.162-2.726-0.497c-0.801-0.323-1.48-0.78-2.041-1.353
		c-0.561-0.57-0.986-1.242-1.28-2.011c-0.298-0.77-0.441-1.594-0.441-2.474v-0.47c0-0.993,0.141-1.9,0.428-2.725
		c0.285-0.826,0.692-1.539,1.22-2.133c0.53-0.599,1.169-1.06,1.922-1.396c0.754-0.334,1.598-0.505,2.531-0.505
		c0.943,0,1.775,0.157,2.488,0.469c0.718,0.309,1.32,0.745,1.809,1.306c0.486,0.559,0.854,1.233,1.098,2.023
		c0.246,0.786,0.372,1.666,0.372,2.634v1.486h-8.327c0.057,0.428,0.173,0.815,0.347,1.16c0.169,0.346,0.392,0.642,0.661,0.889
		c0.27,0.246,0.588,0.437,0.95,0.574c0.364,0.138,0.77,0.204,1.221,0.204c0.636,0,1.222-0.116,1.766-0.357
		c0.54-0.235,1-0.606,1.387-1.105l1.717,1.923c-0.207,0.295-0.472,0.586-0.784,0.867c-0.316,0.286-0.686,0.535-1.113,0.758
		c-0.427,0.221-0.908,0.397-1.444,0.531C138.105,45.227,137.52,45.291,136.883,45.291 M136.485,34.562
		c-0.379,0-0.712,0.064-0.998,0.197c-0.284,0.132-0.53,0.32-0.735,0.554c-0.204,0.239-0.375,0.523-0.5,0.852
		c-0.131,0.331-0.222,0.699-0.28,1.104h4.858V36.99c-0.01-0.347-0.057-0.67-0.15-0.968c-0.091-0.295-0.234-0.555-0.423-0.772
		c-0.188-0.217-0.43-0.389-0.724-0.506C137.235,34.62,136.89,34.562,136.485,34.562"/>
	<path fill="#FFFFFF" d="M151.598,41.437c0-0.187-0.035-0.357-0.109-0.507c-0.073-0.149-0.208-0.299-0.407-0.429
		c-0.203-0.135-0.476-0.263-0.823-0.381c-0.347-0.118-0.794-0.237-1.342-0.351c-0.671-0.146-1.287-0.328-1.857-0.545
		c-0.565-0.216-1.06-0.489-1.473-0.812c-0.413-0.321-0.736-0.694-0.971-1.125c-0.235-0.425-0.352-0.918-0.352-1.485
		c0-0.547,0.119-1.067,0.358-1.557c0.239-0.491,0.583-0.927,1.029-1.301c0.445-0.373,0.994-0.671,1.643-0.887
		c0.646-0.218,1.377-0.328,2.192-0.328c0.844,0,1.604,0.109,2.284,0.317c0.676,0.209,1.251,0.501,1.723,0.876
		c0.471,0.373,0.834,0.819,1.084,1.334c0.255,0.517,0.381,1.081,0.381,1.691h-3.492c0-0.495-0.16-0.909-0.481-1.238
		c-0.324-0.326-0.829-0.49-1.512-0.49c-0.586,0-1.043,0.13-1.365,0.399c-0.321,0.267-0.485,0.601-0.485,1.014
		c0,0.193,0.042,0.362,0.126,0.515c0.085,0.148,0.221,0.285,0.413,0.41c0.189,0.123,0.439,0.239,0.747,0.345
		c0.31,0.104,0.695,0.199,1.144,0.291c0.708,0.135,1.367,0.303,1.966,0.503c0.605,0.204,1.127,0.465,1.565,0.782
		c0.439,0.319,0.784,0.706,1.032,1.16c0.252,0.455,0.376,1.005,0.376,1.647c0,0.585-0.13,1.118-0.386,1.604
		c-0.259,0.486-0.627,0.904-1.103,1.258c-0.483,0.359-1.062,0.636-1.736,0.838c-0.678,0.201-1.431,0.303-2.273,0.303
		c-0.915,0-1.726-0.134-2.428-0.385c-0.701-0.262-1.29-0.598-1.77-1.019c-0.48-0.419-0.841-0.891-1.082-1.415
		c-0.241-0.523-0.361-1.049-0.361-1.583h3.308c0.019,0.342,0.092,0.635,0.225,0.879c0.133,0.243,0.309,0.446,0.527,0.599
		c0.216,0.149,0.465,0.265,0.751,0.335c0.287,0.075,0.588,0.109,0.903,0.109c0.67,0,1.176-0.125,1.518-0.378
		C151.427,42.177,151.598,41.846,151.598,41.437"/>
	<path fill="#FFFFFF" d="M54.459,61.977v6.198h-3.624V50.582h6.864c1.039,0,1.969,0.146,2.785,0.438
		c0.819,0.287,1.51,0.693,2.08,1.215c0.57,0.516,1,1.135,1.299,1.846c0.298,0.711,0.445,1.488,0.445,2.327
		c0,0.852-0.147,1.621-0.445,2.308c-0.299,0.68-0.729,1.268-1.299,1.75c-0.57,0.483-1.26,0.856-2.08,1.116
		c-0.816,0.263-1.746,0.396-2.785,0.396H54.459z M54.459,59.041h3.238c0.517,0,0.96-0.064,1.337-0.193
		c0.374-0.129,0.68-0.309,0.919-0.538c0.238-0.229,0.412-0.502,0.527-0.827c0.113-0.321,0.167-0.671,0.167-1.053
		c0-0.377-0.055-0.741-0.167-1.095c-0.115-0.346-0.289-0.657-0.527-0.929c-0.238-0.269-0.546-0.485-0.919-0.647
		c-0.377-0.16-0.819-0.241-1.337-0.241h-3.238V59.041z"/>
	<path fill="#FFFFFF" d="M73.38,68.176c-0.163-0.312-0.277-0.704-0.35-1.173c-0.355,0.396-0.798,0.727-1.335,1.005
		c-0.536,0.273-1.19,0.409-1.964,0.409c-0.627,0-1.214-0.095-1.757-0.291c-0.544-0.189-1.013-0.461-1.412-0.812
		c-0.398-0.34-0.714-0.757-0.939-1.233c-0.224-0.48-0.338-1.007-0.338-1.581c0-0.688,0.126-1.291,0.381-1.825
		c0.255-0.528,0.634-0.978,1.141-1.354c0.507-0.373,1.137-0.655,1.89-0.845c0.754-0.193,1.631-0.289,2.627-0.289h1.562v-0.751
		c0-0.607-0.157-1.089-0.466-1.455c-0.311-0.358-0.8-0.538-1.472-0.538c-0.585,0-1.049,0.141-1.381,0.426
		c-0.334,0.276-0.501,0.666-0.501,1.156H65.57c0-0.565,0.13-1.099,0.393-1.607c0.264-0.506,0.634-0.95,1.118-1.328
		c0.484-0.38,1.067-0.679,1.751-0.9c0.686-0.223,1.451-0.33,2.296-0.33c0.759,0,1.459,0.091,2.103,0.289
		c0.646,0.193,1.201,0.481,1.669,0.861c0.467,0.381,0.831,0.859,1.093,1.438c0.263,0.574,0.393,1.246,0.393,2.015v5.532
		c0,0.371,0.012,0.703,0.038,0.996c0.027,0.296,0.058,0.561,0.099,0.795c0.038,0.238,0.09,0.453,0.156,0.643
		c0.066,0.19,0.142,0.369,0.229,0.537v0.205h-3.528v0.005H73.38z M70.492,65.746c0.298,0,0.574-0.033,0.826-0.104
		c0.256-0.073,0.485-0.169,0.685-0.284c0.2-0.114,0.378-0.254,0.525-0.404c0.148-0.156,0.268-0.312,0.358-0.472v-2.248h-1.438
		c-0.461,0-0.859,0.05-1.196,0.15c-0.34,0.098-0.619,0.243-0.834,0.423c-0.218,0.183-0.379,0.395-0.485,0.642
		c-0.103,0.243-0.158,0.513-0.158,0.802c0,0.437,0.155,0.795,0.46,1.077C69.539,65.607,69.959,65.746,70.492,65.746"/>
	<path fill="#FFFFFF" d="M86.42,58.376c-0.178-0.027-0.385-0.046-0.625-0.068c-0.238-0.021-0.446-0.03-0.632-0.03
		c-0.685,0-1.239,0.114-1.663,0.349c-0.423,0.226-0.738,0.563-0.937,0.995v8.553h-3.492V55.096h3.298l0.098,1.558
		c0.331-0.562,0.737-1.004,1.22-1.32c0.486-0.317,1.048-0.475,1.692-0.475c0.186,0,0.381,0.016,0.584,0.044
		c0.208,0.031,0.376,0.069,0.501,0.109L86.42,58.376z"/>
	<path fill="#FFFFFF" d="M88.076,51.718c0-0.526,0.175-0.957,0.528-1.293c0.347-0.339,0.827-0.508,1.431-0.508
		c0.298,0,0.569,0.043,0.811,0.134c0.239,0.087,0.445,0.212,0.614,0.375c0.167,0.163,0.301,0.353,0.392,0.573
		c0.094,0.22,0.139,0.461,0.139,0.72c0,0.266-0.045,0.506-0.139,0.73c-0.091,0.225-0.224,0.414-0.392,0.574
		c-0.169,0.161-0.375,0.287-0.614,0.377c-0.243,0.088-0.513,0.13-0.811,0.13c-0.298,0-0.569-0.041-0.811-0.13
		c-0.241-0.089-0.446-0.214-0.615-0.377c-0.171-0.16-0.302-0.354-0.395-0.574C88.121,52.224,88.076,51.984,88.076,51.718
		 M91.785,68.176h-3.504V55.098h3.504V68.176z"/>
	<path fill="#FFFFFF" d="M101.883,64.57c0-0.184-0.038-0.354-0.106-0.5c-0.074-0.158-0.213-0.302-0.412-0.436
		c-0.202-0.132-0.475-0.26-0.822-0.378c-0.346-0.126-0.793-0.24-1.341-0.356c-0.669-0.146-1.288-0.32-1.856-0.54
		c-0.567-0.219-1.058-0.487-1.473-0.812c-0.417-0.321-0.737-0.696-0.974-1.124c-0.229-0.427-0.346-0.92-0.346-1.486
		c0-0.546,0.116-1.067,0.354-1.558c0.236-0.493,0.583-0.924,1.027-1.297c0.445-0.378,0.993-0.672,1.646-0.892
		c0.646-0.218,1.376-0.322,2.188-0.322c0.846,0,1.609,0.102,2.283,0.312c0.678,0.212,1.254,0.502,1.724,0.879
		c0.473,0.375,0.834,0.819,1.087,1.332c0.254,0.519,0.381,1.08,0.381,1.692h-3.494c0-0.496-0.162-0.912-0.483-1.239
		c-0.321-0.326-0.825-0.488-1.509-0.488c-0.591,0-1.045,0.137-1.368,0.397c-0.322,0.269-0.485,0.605-0.485,1.021
		c0,0.19,0.043,0.362,0.127,0.508c0.084,0.15,0.223,0.289,0.409,0.41c0.188,0.13,0.439,0.242,0.75,0.345
		c0.309,0.108,0.693,0.205,1.142,0.291c0.707,0.137,1.367,0.31,1.971,0.508c0.605,0.203,1.125,0.461,1.566,0.78
		c0.437,0.318,0.783,0.706,1.031,1.157c0.249,0.457,0.375,1.007,0.375,1.653c0,0.58-0.128,1.115-0.386,1.6
		c-0.258,0.485-0.627,0.909-1.109,1.266c-0.476,0.354-1.056,0.629-1.733,0.832c-0.675,0.199-1.432,0.302-2.271,0.302
		c-0.92,0-1.728-0.129-2.43-0.385c-0.699-0.258-1.29-0.601-1.769-1.016c-0.48-0.419-0.838-0.892-1.082-1.415
		c-0.239-0.522-0.363-1.051-0.363-1.582h3.312c0.015,0.335,0.092,0.631,0.226,0.875c0.13,0.247,0.308,0.442,0.524,0.596
		c0.218,0.157,0.47,0.271,0.757,0.342c0.286,0.068,0.585,0.109,0.898,0.109c0.671,0,1.175-0.129,1.518-0.382
		C101.71,65.316,101.883,64.981,101.883,64.57"/>
	<rect x="173.361" y="4.084" fill="#FFFFFF" width="0.682" height="64.091"/>
	<g>
		<path fill="#FFFFFF" d="M11.715,39.473c-1.548-0.118-3.09-0.344-4.566-0.85C1.556,36.698-2.182,33.03-3.387,27.126
			c-0.78-3.814-0.063-7.48,1.634-10.944C0.96,10.637,5.391,7.033,11.129,4.941c4.173-1.522,8.489-2.212,12.915-2.317
			c1.769-0.044,3.529,0.03,5.294,0.119c0.436,0.023,0.556,0.108,0.446,0.567c-0.729,3.06-1.442,6.125-2.126,9.199
			c-0.098,0.441-0.239,0.575-0.7,0.556c-3.459-0.132-6.888,0.093-10.237,1.03c-1.89,0.527-3.727,1.201-5.351,2.329
			c-2.148,1.488-3.671,3.457-4.363,6.009c-0.875,3.236,0.611,5.67,3.882,6.418c2.201,0.506,4.259,0.059,6.238-0.911
			c0.653-0.319,1.288-0.67,1.92-1.031c0.221-0.126,0.34-0.122,0.515,0.079c2.096,2.401,4.202,4.793,6.307,7.185
			c0.146,0.166,0.266,0.27-0.011,0.465c-2.839,1.998-4.28,4.864-4.981,8.167c-0.594,2.799-0.497,5.61-0.059,8.416
			c0.059,0.374-0.068,0.441-0.364,0.49c-3.105,0.52-6.213,1.027-9.312,1.579c-0.553,0.102-0.609-0.144-0.667-0.557
			c-0.592-4.311-0.146-8.529,1.113-12.676c0.045-0.148,0.089-0.301,0.129-0.451C11.727,39.571,11.716,39.536,11.715,39.473z"/>
		<path fill="#FFFFFF" d="M17.502,69.112c-3.522,0.012-6.384-2.839-6.381-6.361c0-3.472,2.848-6.335,6.299-6.344
			c3.56-0.01,6.405,2.783,6.428,6.311C23.871,66.244,21.033,69.102,17.502,69.112z"/>
	</g>
</g>
</svg>
