<?xml version="1.0" encoding="utf-8"?>
<!-- Generator: Adobe Illustrator 16.0.0, SVG Export Plug-In . SVG Version: 6.00 Build 0)  -->
<!DOCTYPE svg PUBLIC "-//W3C//DTD SVG 1.1//EN" "http://www.w3.org/Graphics/SVG/1.1/DTD/svg11.dtd">
<svg version="1.1" id="Layer_1" xmlns="http://www.w3.org/2000/svg" xmlns:xlink="http://www.w3.org/1999/xlink" x="0px" y="0px"
	 width="126px" height="68px" viewBox="0 0 126 68" enable-background="new 0 0 126 68" xml:space="preserve">
<rect fill="#FFFFFF" width="126" height="68"/>
<g>
	<path fill="#262626" d="M6.398,33.11c0.878,0.302,1.793,0.193,2.697,0.206c3.335,0.053,5.935-2.319,5.862-5.938
		c-0.026-1.444-0.003-2.887-0.003-4.325c0-0.958,0.029-1.927-0.01-2.884c-0.036-0.94,0.423-2.167-0.22-2.751
		c-0.631-0.581-1.832-0.126-2.782-0.202c-0.699-0.057-0.906,0.215-0.904,0.905c0.034,2.885,0.012,5.765,0.016,8.652
		c0.003,0.643-0.01,1.272-0.193,1.896c-0.358,1.227-1.265,1.833-2.522,1.682c-1.229-0.143-1.894-0.819-2.007-2.082
		c-0.041-0.482-0.017-0.958-0.017-1.443c-0.003-2.934-0.01-5.874,0.004-8.807c0.002-0.506-0.088-0.817-0.688-0.803
		c-0.903,0.028-1.815,0.014-2.723,0.007c-0.475-0.003-0.647,0.208-0.647,0.68c0.011,3.262-0.112,6.52,0.046,9.773
		C2.438,30.374,3.271,32.033,6.398,33.11z"/>
	<path fill="#262626" d="M21.715,18.456c2.404,1.421,4.972,1.441,7.534,0.576c1.123-0.384,1.977-1.196,2.44-2.37
		c0.681-1.7,0.199-3.988-1.748-5.323c-1.022-0.701-2.161-1.12-3.322-1.508c-0.854-0.282-1.728-0.559-2.409-1.19
		c-0.646-0.61-0.663-1.151-0.091-1.807c0.851-0.979,3.223-0.902,3.597,0.283c0.393,1.271,1.174,1.13,2.058,1.126
		c0.534-0.002,1.071-0.008,1.608,0.004c0.51,0.011,0.652-0.258,0.573-0.707c-0.266-1.423-0.913-2.641-2.203-3.353
		c-2.697-1.48-5.434-1.395-8.024,0.19c-2.323,1.42-2.516,4.396-0.561,6.304c0.653,0.643,1.437,1.092,2.271,1.44
		c0.832,0.34,1.677,0.661,2.53,0.952c0.558,0.192,1.099,0.415,1.535,0.815c0.732,0.686,0.699,1.786-0.045,2.365
		c-1.284,0.99-3.682,0.301-4.053-1.281c-0.176-0.786-0.469-0.95-1.144-0.876c-0.264,0.023-0.534,0.002-0.798,0.002
		c-0.377,0-0.745-0.011-1.119,0c-0.92,0.023-0.984,0.081-0.858,1.033C19.679,16.598,20.461,17.72,21.715,18.456z"/>
	<path fill="#262626" d="M39.791,33.216c1.227,0.022,1.285,0.067,1.262-1.354c-0.01-1.061,0.046-2.135-0.013-3.193
		c-0.046-0.753,0.276-0.924,0.932-0.885c0.583,0.032,1.174,0.01,1.761,0.003c1.018-0.02,2.007-0.215,2.94-0.6
		c1.695-0.695,2.755-1.92,2.995-3.797c0.47-3.676-2.073-5.946-5.161-6.122c-2.126-0.128-4.262-0.05-6.396-0.041
		c-0.894,0.008-0.909,0.04-0.91,1.042c-0.013,2.292-0.003,4.581,0,6.875c0,1.813-0.019,3.631,0,5.444
		C37.229,33.653,36.713,33.155,39.791,33.216z M41.414,20.308c1.134-0.302,2.447-0.431,3.535,0.365
		c0.901,0.659,0.945,1.627,0.789,2.608c-0.118,0.712-0.796,1.253-1.571,1.367c-0.109,0.014-0.216,0.015-0.324,0.015
		c-0.369,0.007-0.747,0.003-1.12,0.003c-2.021,0.003-1.645,0.125-1.676-1.708c-0.002-0.215-0.035-0.435,0.006-0.645
		C41.194,21.622,40.607,20.523,41.414,20.308z"/>
	<path fill="#262626" d="M65.598,27.722c-0.799,0.042-1.597,0.011-2.396,0.01c-0.41-0.002-0.631,0.098-0.764,0.579
		c-0.418,1.458-1.24,2.038-2.625,2.01c-1.373-0.016-2.198-0.723-2.518-2.188c-0.396-1.833-0.436-3.681-0.044-5.532
		c0.434-2.162,1.332-2.791,3.452-2.464c0.884,0.137,1.436,0.667,1.701,1.478c0.364,1.11,0.362,1.118,1.379,1.129
		c0.582,0.003,1.179,0.02,1.765-0.001c0.817-0.025,0.868-0.102,0.738-0.964c-0.028-0.204-0.07-0.414-0.133-0.616
		c-0.755-2.375-2.462-3.648-4.834-4.087c-3.47-0.646-6.568,0.928-7.733,4.301c-0.435,1.238-0.497,2.49-0.438,3.771
		c0,0.692-0.079,1.399,0.009,2.078c0.38,2.632,1.509,4.81,4.177,5.715c2.372,0.798,4.729,0.624,6.834-0.884
		c1.165-0.829,1.92-1.965,2.119-3.428C66.363,28.078,66.323,27.689,65.598,27.722z"/>
	<path fill="#262626" d="M30.029,23.746c-2.504-0.012-5.01-0.002-7.517-0.001c-2.568,0-2.53-0.001-2.461,2.564
		c0.019,0.746,0.316,0.875,0.963,0.862c1.541-0.032,3.089-0.01,4.636-0.01c1.173,0,2.347,0,3.516,0c2.197,0,2.197,0,2.154-2.213
		C31.294,23.764,31.294,23.753,30.029,23.746z"/>
	<path fill="#262626" d="M8.921,40.668c-0.399-0.008-0.776,0.017-0.833,0.514c-0.042,0.366-0.031,0.751-0.031,1.118
		c-0.008,1.659,0.004,3.306-0.014,4.959c-0.011,0.523-0.011,1.076-0.449,1.488c-0.741,0.709-1.662,0.756-2.539,0.479
		c-0.834-0.254-1.241-0.957-1.257-1.849c-0.005-0.316-0.003-0.639-0.003-0.96c0-1.597,0-3.204,0-4.806
		c0-0.477,0.078-0.966-0.691-0.949c-0.811,0.01-0.607,0.58-0.619,1.013c-0.019,0.904-0.01,1.81-0.01,2.718c0.006,0,0.006,0,0.006,0
		c0,1.014,0.022,2.029-0.006,3.041c-0.017,0.86,0.28,1.615,0.893,2.149c1.069,0.926,2.319,1.209,3.721,0.776
		c1.429-0.45,2.311-1.4,2.384-2.862c0.104-2.084,0.034-4.162,0.035-6.248C9.509,40.859,9.311,40.685,8.921,40.668z"/>
	<path fill="#262626" d="M71.799,45.605c-0.878-0.518-1.899-0.648-2.818-1.075c-0.977-0.464-1.274-0.91-1.121-1.683
		c0.127-0.612,0.686-1.061,1.548-1.169c0.303-0.037,0.645-0.004,0.944,0.068c0.688,0.206,1.259,0.54,1.424,1.349
		c0.113,0.625,0.654,0.505,1.02,0.411c0.499-0.145,0.281-0.626,0.189-0.942c-0.407-1.275-1.597-1.96-3.495-1.944
		c-0.146,0.005-0.468-0.014-0.775,0.046c-1.142,0.214-2.024,1.062-2.166,2.053c-0.182,1.268,0.249,2.145,1.418,2.736
		c0.563,0.279,1.182,0.45,1.777,0.669c0.396,0.148,0.809,0.268,1.192,0.465c0.712,0.37,0.955,0.869,0.849,1.551
		c-0.096,0.604-0.605,1.056-1.335,1.185c-1.407,0.248-2.144-0.058-2.855-1.374c-0.276-0.5-0.661-0.599-1.04-0.455
		c-0.552,0.197-0.32,0.713-0.188,1.084c0.15,0.393,0.389,0.768,0.753,1.014c1.127,0.814,2.355,1.202,3.75,0.812
		c0.609-0.173,1.214-0.369,1.665-0.874C73.658,48.282,73.316,46.509,71.799,45.605z"/>
	<path fill="#262626" d="M90.593,42.975c-0.538-0.085-1.044,0.165-1.51,0.402c-0.471,0.235-0.667,0.196-0.654-0.368
		c0.021-0.748,0-1.497,0.01-2.233c0.001-0.429-0.107-0.729-0.628-0.693c-0.452,0.039-0.673,0.257-0.666,0.711
		c0.002,0.264,0,0.524,0,0.796c0,1.227,0,2.442,0,3.667c0,0.691,0,1.382,0,2.07c0,0.749-0.014,1.49,0.004,2.237
		c0.022,0.689,0.528,1.1,0.965,0.71c0.435-0.404,0.609-0.335,1.062-0.087c1.47,0.778,3.038,0.218,3.682-1.311
		c0.603-1.426,0.564-2.907-0.021-4.333C92.43,43.579,91.588,43.119,90.593,42.975z M91.482,48.703
		c-0.492,0.621-1.126,0.756-1.838,0.604c-0.687-0.146-1.159-0.731-1.203-1.489c-0.041-0.638-0.027-1.273-0.002-1.912
		c0.038-1.062,0.517-1.616,1.463-1.727c0.935-0.11,1.769,0.48,1.968,1.446c0.079,0.363,0.056,0.747,0.059,0.843
		C91.929,47.419,91.955,48.106,91.482,48.703z"/>
	<path fill="#262626" d="M40.588,56.933c1.019,0.014,1.751,0.336,2.025,1.403c0.034,0.149,0.096,0.309,0.198,0.429
		c0.343,0.368,0.775,0.333,1.161,0.122c0.306-0.178,0.051-0.459,0-0.699c-0.344-1.422-1.355-2.17-2.689-2.403
		c-1.369-0.245-2.628,0.121-3.58,1.261c-0.886,1.059-1.025,2.3-0.908,3.604c0,0.585-0.061,1.181,0.008,1.759
		c0.221,1.751,1.568,3.086,3.224,3.241c2.025,0.195,3.377-0.646,3.945-2.446c0.189-0.619-0.021-0.833-0.665-0.771
		c-0.476,0.048-0.625,0.346-0.717,0.723c-0.274,1.117-1.095,1.293-2.08,1.325c-1.042,0.026-1.778-0.416-2.113-1.363
		c-0.531-1.548-0.531-3.152-0.026-4.706C38.696,57.414,39.468,56.915,40.588,56.933z"/>
	<path fill="#262626" d="M6.528,55.956c-1.117-0.013-2.232,0.016-3.35-0.027c-0.677-0.024-0.789,0.314-0.782,0.878
		c0.018,1.326,0.008,2.66,0.008,3.992c0,1.384-0.003,2.771,0,4.155c0,0.354,0.131,0.614,0.543,0.627
		c0.402,0.006,0.755-0.063,0.804-0.559c0.018-0.155,0-0.318,0.004-0.475c0.017-0.849,0.036-1.7,0.05-2.547
		c0.857-0.401,1.769-0.126,2.65-0.205c1.771-0.14,2.729-1.131,2.841-2.802C9.418,57.142,7.979,55.979,6.528,55.956z M6.896,60.532
		c-0.87,0.325-1.783,0.217-2.683,0.219c-0.339,0-0.444-0.252-0.454-0.533c-0.016-0.475-0.004-0.952-0.004-1.432
		c-0.004-1.978-0.004-1.978,2.365-1.783c1.248,0.104,1.919,0.881,1.84,2.098C7.916,59.827,7.542,60.281,6.896,60.532z"/>
	<path fill="#262626" d="M16.273,61.05c0.045-2.68-2.065-3.232-4.072-2.583c-0.644,0.205-1.181,0.687-1.456,1.385
		c-0.146,0.371,0.058,0.493,0.307,0.556c0.526,0.13,0.808-0.152,1.169-0.562c0.719-0.835,1.938-0.754,2.473,0.031
		c0.219,0.317,0.36,0.704,0.205,1.053c-0.145,0.342-0.545,0.234-0.859,0.229c-0.847-0.013-1.689-0.017-2.447,0.479
		c-0.829,0.547-1.233,1.422-1.048,2.314c0.165,0.806,1.024,1.585,1.917,1.684c0.52,0.058,1.054,0.079,1.561-0.159
		c0.503-0.237,0.513-0.208,1.438,0.071c0.596,0.181,0.84-0.025,0.84-0.676c0-0.64,0-1.275,0-1.914c-0.012,0-0.018,0-0.026,0
		C16.273,62.324,16.267,61.684,16.273,61.05z M14.943,63.357c-0.266,1.018-2.004,1.522-2.789,0.811
		c-0.459-0.404-0.463-1.105,0.003-1.546c0.499-0.488,1.135-0.535,1.613-0.508C14.901,62.114,15.179,62.456,14.943,63.357z"/>
	<path fill="#262626" d="M54.906,58.687c-1.754,1.203-2.119,4.417-0.674,5.989c1.212,1.319,3.555,1.366,4.725,0.093
		c0.17-0.185,0.41-0.396,0.163-0.675c-0.209-0.231-0.448-0.51-0.795-0.195c-0.276,0.253-0.562,0.441-0.946,0.544
		c-1.146,0.318-2.025-0.031-2.504-1.072c-0.338-0.704-0.186-0.962,0.588-0.991c0.475-0.012,0.963-0.006,1.442-0.006
		c0.216,0,0.425,0,0.629,0c2.112,0.006,2.409-0.418,1.618-2.402C58.481,58.261,56.436,57.646,54.906,58.687z M57.071,61.205
		c-0.212,0.01-0.423,0.002-0.636,0.002c-0.157,0-0.32,0.024-0.476-0.002c-0.392-0.063-0.995,0.235-1.144-0.206
		c-0.17-0.501,0.251-0.979,0.669-1.324c0.691-0.562,1.527-0.509,2.13,0.081c0.371,0.359,0.54,0.872,0.457,1.276
		C58.024,61.333,57.426,61.191,57.071,61.205z"/>
	<path fill="#262626" d="M122.16,43.425c-2.037-1.274-4.318,0.434-4.582,2.301c-0.102,0.73-0.111,1.509,0.009,2.228
		c0.226,1.335,1.145,2.113,2.395,2.497c1.041,0.32,2.602-0.17,3.206-0.946c0.187-0.239,0.212-0.472-0.008-0.709
		c-0.161-0.16-0.378-0.243-0.576-0.15c-0.23,0.12-0.415,0.335-0.646,0.456c-1.141,0.601-2.243,0.288-2.858-0.805
		c-0.521-0.928-0.384-1.154,0.723-1.171c0.43-0.011,0.854,0,1.281,0c0,0,0-0.006,0-0.011c0.638,0,1.282,0,1.919,0.005
		c0.277,0,0.512-0.028,0.594-0.37C123.847,45.798,123.022,43.962,122.16,43.425z M122.269,45.879
		c-0.306,0.392-0.78,0.148-1.173,0.201c-0.154,0.033-0.312,0.012-0.477,0.012c-0.26,0-0.525,0.005-0.786-0.011
		c-0.306-0.012-0.717,0.128-0.895-0.134c-0.239-0.352,0.105-0.707,0.278-0.991c0.501-0.857,1.576-1.082,2.312-0.559
		C121.893,44.659,122.433,45.666,122.269,45.879z"/>
	<path fill="#262626" d="M30.427,43.312c-2.236,1.127-2.636,5.009-0.637,6.519c1.404,1.062,3.379,0.906,4.463-0.349
		c0.121-0.142,0.32-0.286,0.129-0.535c-0.175-0.22-0.396-0.388-0.67-0.307c-0.194,0.061-0.354,0.233-0.538,0.34
		c-1.418,0.807-2.566,0.424-3.176-1.067c-0.258-0.633-0.205-0.757,0.431-0.785c0.588-0.022,1.171-0.002,1.755-0.002
		c0.532,0,1.062,0.008,1.595-0.006c0.839-0.026,0.856-0.051,0.836-0.921c-0.003-0.214-0.025-0.427-0.048-0.64
		C34.373,43.667,32.321,42.363,30.427,43.312z M32.078,46.077c-0.147,0.046-0.322,0.004-0.478,0.015
		c-0.214,0-0.43,0.004-0.642-0.011c-0.31-0.007-0.757,0.126-0.905-0.141c-0.216-0.41,0.088-0.831,0.341-1.175
		c0.401-0.539,1.229-0.767,1.867-0.549c0.522,0.177,1.109,0.953,1.004,1.476C33.116,46.437,32.483,45.95,32.078,46.077z"/>
	<path fill="#262626" d="M57.528,43.25c-1.891,0.84-2.688,3.493-1.64,5.464c1.016,1.926,3.323,2.43,4.984,1.068
		c0.237-0.198,0.752-0.389,0.434-0.861c-0.325-0.486-0.711-0.306-1.075,0.004c-0.156,0.141-0.349,0.254-0.541,0.327
		c-1.057,0.399-2.228-0.094-2.656-1.104c-0.285-0.673-0.108-0.993,0.609-1.021c0.537-0.021,1.072-0.002,1.597-0.002
		c0.537,0,1.07-0.026,1.604,0.002c0.563,0.033,0.757-0.228,0.716-0.752c-0.043-0.37-0.021-0.751-0.104-1.114
		C61.069,43.442,59.215,42.503,57.528,43.25z M60.178,45.897c-0.163,0.312-0.577,0.172-0.88,0.184
		c-0.262,0.016-0.535,0.011-0.797,0.011c-0.156,0-0.32,0.01-0.479-0.012c-0.346-0.043-0.817,0.189-1.013-0.217
		c-0.211-0.431,0.114-0.828,0.377-1.146c0.681-0.843,2.018-0.754,2.603,0.111C60.225,45.169,60.328,45.561,60.178,45.897z"/>
	<path fill="#262626" d="M94.992,44.732c-0.299,0.609-0.542,1.26-0.504,1.974c0.014,0.273-0.012,0.548,0.046,0.799
		c0.29,1.392,0.986,2.445,2.416,2.902c1.269,0.405,2.309-0.024,3.189-0.901c1.321-1.319,1.316-4.245-0.042-5.54
		C98.227,42.17,95.835,43.036,94.992,44.732z M99.33,48.534c-0.421,0.623-1.002,0.944-1.766,0.825
		c-0.672-0.095-1.178-0.46-1.45-1.091c-0.402-0.97-0.455-1.951-0.011-2.93c0.332-0.734,0.842-1.188,1.696-1.199
		c0.861,0,1.401,0.473,1.718,1.198c0.188,0.431,0.238,0.912,0.341,1.346C99.753,47.349,99.693,47.989,99.33,48.534z"/>
	<path fill="#262626" d="M77.64,42.976c-1.098-0.105-2.481,0.81-2.912,1.876c-0.23,0.58-0.469,1.187-0.403,1.874
		c-0.085,0.632,0.13,1.255,0.361,1.832c0.479,1.177,1.43,1.847,2.681,1.962c1.271,0.127,2.326-0.431,2.95-1.508
		c0.769-1.298,0.791-2.704,0.205-4.123C79.984,43.597,78.906,43.102,77.64,42.976z M78.977,48.73
		c-0.877,1.007-2.245,0.882-2.926-0.282c-0.627-1.098-0.609-2.226-0.027-3.341c0.362-0.688,0.934-0.989,1.706-0.955
		c0.582-0.042,0.984,0.309,1.329,0.732C79.884,45.898,79.837,47.751,78.977,48.73z"/>
	<path fill="#262626" d="M46.191,48.397c0.001-0.945-0.473-1.479-1.272-1.822c-0.488-0.201-0.969-0.408-1.507-0.483
		c-0.364-0.059-0.717-0.214-1.031-0.406c-0.455-0.278-0.469-0.684-0.133-1.078c0.258-0.302,0.581-0.433,0.978-0.455
		c0.772-0.041,1.329,0.217,1.673,0.953c0.179,0.406,0.67,0.405,0.978,0.238c0.419-0.217,0.289-0.652,0.09-0.986
		c-1.023-1.725-3.65-1.857-4.912-0.259c-0.614,0.787-0.48,1.571,0.265,2.282c0.479,0.466,1.084,0.626,1.711,0.779
		c0.512,0.126,1.056,0.188,1.485,0.549c0.517,0.415,0.474,1.12-0.084,1.466c-0.667,0.396-1.801,0.243-2.357-0.346
		c-0.145-0.159-0.17-0.404-0.315-0.554c-0.284-0.308-0.682-0.344-1.014-0.127c-0.324,0.215-0.185,0.626-0.046,0.875
		c0.577,1.001,1.513,1.431,2.632,1.529c0.562,0.07,1.079-0.075,1.555-0.318C45.62,49.851,46.19,49.354,46.191,48.397z"/>
	<path fill="#262626" d="M113.37,42.976c-0.464,0.085-0.895,0.323-1.328,0.519c-0.268,0.129-0.332,0.213-0.664-0.096
		c-0.587-0.572-1.157-0.205-1.176,0.627c-0.02,0.906-0.005,1.814-0.005,2.723c0,1.011,0.01,2.025-0.006,3.037
		c-0.006,0.547,0.342,0.561,0.747,0.562c0.396,0.004,0.583-0.16,0.581-0.562c-0.008-0.368,0-0.739,0.002-1.119
		c0-0.955-0.035-1.918,0.006-2.888c0.046-0.952,0.712-1.574,1.636-1.604c0.912-0.038,1.356,0.409,1.467,1.495
		c0.041,0.368,0.006,0.749,0.006,1.118c0,1.016,0.006,2.029,0.011,3.042c0,0.414,0.23,0.537,0.608,0.517
		c0.336-0.008,0.665-0.026,0.665-0.477c0.003-1.655,0.077-3.316-0.043-4.958C115.79,43.68,114.52,42.781,113.37,42.976z"/>
	<path fill="#262626" d="M30.438,61.796c-0.688-0.266-1.42-0.414-2.112-0.674c-0.381-0.138-0.845-0.311-0.797-0.851
		c0.054-0.544,0.444-0.852,0.946-0.946c0.605-0.124,1.163,0.014,1.594,0.495c0.17,0.187,0.263,0.489,0.469,0.607
		c0.327,0.18,0.756,0.221,1.031-0.075c0.194-0.2-0.018-0.482-0.137-0.72c-0.49-1.039-1.34-1.44-2.457-1.392
		c-0.265,0.014-0.53,0.008-0.798,0.041c-0.937,0.144-1.849,1.004-1.95,1.84c-0.117,0.876,0.372,1.554,1.477,1.99
		c0.34,0.137,0.708,0.214,1.061,0.326c0.401,0.128,0.83,0.22,1.192,0.426c0.653,0.377,0.587,1.167-0.1,1.512
		c-0.797,0.407-1.654,0.256-2.315-0.409c-0.185-0.181-0.312-0.458-0.528-0.571c-0.278-0.139-0.637-0.154-0.893,0.088
		c-0.251,0.231-0.01,0.509,0.088,0.71c0.645,1.353,2.559,1.886,4.16,1.2c0.798-0.338,1.277-0.867,1.32-1.786
		C31.729,62.659,31.239,62.109,30.438,61.796z"/>
	<path fill="#262626" d="M105.3,43.125c-0.243,0.086-0.498,0.189-0.717,0.327c-0.384,0.247-0.579,0.269-0.958-0.151
		c-0.354-0.41-0.878-0.051-0.893,0.554c-0.022,0.966-0.006,1.92-0.006,2.884c0.003,0.957,0.006,1.921,0,2.879
		c-0.005,0.407,0.028,0.733,0.567,0.743c0.589,0.006,0.742-0.295,0.709-0.799c-0.021-0.272,0-0.536,0-0.806
		c0-1.017-0.032-2.032,0.003-3.044c0.041-0.968,0.689-1.535,1.658-1.534c0.981,0.001,1.308,0.361,1.331,1.548
		c0.022,1.277,0.019,2.557,0,3.842c-0.013,0.513,0.106,0.801,0.696,0.792c0.502-0.014,0.628-0.238,0.628-0.688
		c-0.011-1.55,0.054-3.101-0.031-4.646C108.2,43.484,106.78,42.626,105.3,43.125z"/>
	<path fill="#262626" d="M13.896,43.162c-0.293,0.096-0.596,0.236-0.854,0.409c-0.372,0.242-0.408,0-0.653-0.229
		c-0.492-0.439-0.996-0.129-1.015,0.554c-0.015,0.955-0.006,1.916-0.006,2.871c0.001,0,0.002,0,0.006,0
		c0,0.962,0.006,1.918-0.004,2.879c-0.002,0.415,0.077,0.719,0.604,0.715c0.54-0.002,0.579-0.341,0.579-0.746
		c-0.006-1.218-0.045-2.444,0.012-3.671c0.043-1.166,0.728-1.79,1.807-1.769c0.958,0.009,1.273,0.432,1.294,1.766
		c0.011,1.277,0.011,2.552,0.004,3.835c-0.004,0.526,0.315,0.565,0.726,0.574c0.42,0.012,0.553-0.203,0.553-0.574
		c-0.007-1.594,0.069-3.203-0.044-4.796C16.792,43.428,15.377,42.631,13.896,43.162z"/>
	<path fill="#262626" d="M27.017,43.193c-0.392-0.003-0.683,0.057-0.824,0.538c-0.363,1.27-0.809,2.521-1.21,3.786
		c-0.066,0.192-0.047,0.498-0.263,0.505c-0.328,0.014-0.337-0.313-0.422-0.57c-0.379-1.206-0.804-2.407-1.175-3.617
		c-0.149-0.492-0.422-0.713-0.9-0.642c-0.476-0.022-0.596,0.231-0.466,0.603c0.312,0.9,0.638,1.799,0.968,2.688
		c0.405,1.088,0.839,2.175,1.226,3.273c0.12,0.335,0.277,0.564,0.644,0.588c0.36,0.023,0.578-0.124,0.711-0.479
		c0.717-2.046,1.468-4.088,2.199-6.119C27.654,43.313,27.398,43.193,27.017,43.193z"/>
	<path fill="#262626" d="M54.389,49.919c0.064-0.541-0.284-0.584-0.696-0.594c-0.599-0.016-0.644-0.446-0.644-0.903
		c-0.002-1.07,0.023-2.135-0.021-3.204c-0.023-0.672,0.038-1.165,0.907-1.045c0.319,0.031,0.455-0.19,0.447-0.514
		c-0.021-0.24-0.124-0.466-0.364-0.43c-0.965,0.132-1.016-0.436-0.972-1.157c0.024-0.442-0.24-0.677-0.693-0.69
		c-0.531-0.01-0.616,0.334-0.588,0.731c0.05,0.684-0.074,1.178-0.921,1.094c-0.296-0.025-0.509,0.108-0.516,0.453
		c-0.016,0.326,0.153,0.544,0.454,0.513c0.94-0.128,1.019,0.377,0.991,1.13c-0.041,1.177-0.039,2.349,0.007,3.526
		c0.04,1.059,0.579,1.608,1.523,1.724C53.784,50.553,54.302,50.606,54.389,49.919z"/>
	<path fill="#262626" d="M51.583,64.446c-0.565,0.033-0.709-0.309-0.705-0.812c0.016-1.174,0.019-2.341-0.004-3.508
		c-0.011-0.608,0.192-0.896,0.821-0.817c0.316,0.039,0.51-0.123,0.497-0.453c-0.003-0.295-0.116-0.574-0.441-0.521
		c-0.922,0.13-0.93-0.428-0.873-1.067c0.055-0.48-0.181-0.647-0.652-0.647c-0.458,0.003-0.708,0.143-0.654,0.634
		c0.052,0.652,0.009,1.174-0.882,1.083c-0.335-0.035-0.386,0.281-0.382,0.562c0.011,0.242,0.123,0.408,0.373,0.405
		c0.57-0.019,0.919,0.158,0.891,0.81c-0.033,0.638-0.014,1.279-0.014,1.917c0.001,0,0.01,0,0.014,0c0,0.687-0.055,1.387,0.006,2.065
		c0.093,1.087,0.706,1.577,1.811,1.556c0.378-0.006,0.773,0.014,0.817-0.516C52.23,64.704,52.097,64.421,51.583,64.446z"/>
	<path fill="#262626" d="M21.061,58.255c-0.375,0-0.773-0.006-1.054,0.287c-0.288,0.315-0.361,0.119-0.658-0.069
		c-0.742-0.469-1.142-0.177-1.16,0.726c-0.023,0.902-0.01,1.801-0.01,2.713c0,0,0,0,0.008,0c0,1.007,0.003,2.013-0.008,3.026
		c-0.003,0.466,0.19,0.66,0.673,0.649c0.484-0.006,0.66-0.218,0.653-0.673c-0.012-1.12-0.004-2.233,0-3.348
		c0.007-1.665,0.027-1.723,1.705-2.042c0.541-0.104,0.537-0.406,0.519-0.783C21.705,58.314,21.396,58.255,21.061,58.255z"/>
	<path fill="#262626" d="M37.436,49.716c-0.035-1.167-0.016-2.345-0.002-3.517c0.011-1.467,0.031-1.481,1.412-1.821
		c0.151-0.033,0.312-0.073,0.471-0.109c0.345-0.068,0.342-0.334,0.345-0.604c0.021-0.373-0.157-0.624-0.518-0.688
		c-0.195-0.026-0.432,0-0.617,0.088c-0.547,0.274-1.05,0.443-1.696,0.163c-0.506-0.218-0.723,0.157-0.701,0.699
		c0.033,0.96,0.007,1.916,0.007,2.881c0,0,0.003,0,0.004,0c0,0.957-0.004,1.92,0,2.885c0.003,0.312-0.001,0.648,0.464,0.653
		C37.046,50.351,37.457,50.381,37.436,49.716z"/>
	<path fill="#262626" d="M84.994,43.037c-0.621,0.34-1.183,0.519-1.88,0.177c-0.296-0.141-0.6,0.08-0.592,0.508
		c0.01,1.011,0,2.014,0,3.026c0,0.962,0.009,1.916,0,2.869c-0.007,0.404,0.034,0.742,0.572,0.745
		c0.557,0.006,0.753-0.232,0.733-0.764c-0.017-1.114-0.008-2.233-0.002-3.352c0.02-1.49,0.022-1.49,1.52-1.854
		c0.531-0.129,0.741-0.532,0.552-1.056C85.728,42.858,85.317,42.862,84.994,43.037z"/>
	<path fill="#262626" d="M23.652,58.306c-0.492-0.012-0.651,0.193-0.649,0.654c0.019,1.005,0.011,2.011,0.011,3.019
		c0,1.004,0,2.009,0,3.015c0.001,0.36,0.112,0.594,0.544,0.59c0.414,0,0.74-0.046,0.74-0.566c-0.003-2.016-0.003-4.024,0-6.034
		C24.298,58.53,24.13,58.315,23.652,58.306z"/>
	<path fill="#262626" d="M46.408,58.312c-0.906,0.033-0.589,0.734-0.601,1.187c-0.029,1.601-0.017,3.201-0.01,4.799
		c0,0.271-0.02,0.539,0.021,0.798c0.056,0.393,0.354,0.479,0.701,0.494c0.437,0.037,0.563-0.222,0.565-0.58
		c0.01-1.015,0.01-2.026,0.01-3.041l0,0c0-0.798,0.004-1.6,0-2.4C47.083,58.37,47.029,58.276,46.408,58.312z"/>
	<path fill="#262626" d="M19.613,43.183c-0.438,0.011-0.69,0.131-0.684,0.646c0.013,1.918,0.01,3.835,0.001,5.754
		c-0.008,0.524,0.151,0.791,0.724,0.783c0.539-0.006,0.579-0.33,0.574-0.738c-0.006-0.963-0.003-1.919-0.003-2.88
		c0-0.97-0.007-1.922,0.01-2.887C20.244,43.419,20.115,43.165,19.613,43.183z"/>
	<path fill="#262626" d="M49.294,49.786c-0.011-1-0.001-2.009-0.001-3.018c0,0,0,0,0.001,0c0-0.999-0.014-2.007,0.003-3.017
		c0.019-0.559-0.326-0.548-0.729-0.559c-0.389-0.006-0.564,0.145-0.562,0.551c0.005,2.008,0.004,4.02,0.004,6.034
		c0,0.37,0.128,0.582,0.551,0.568C48.955,50.341,49.297,50.324,49.294,49.786z"/>
	<path fill="#262626" d="M58.67,42.216c0.821-0.315,1.238-1.081,1.812-1.684c0.027-0.035,0.026-0.099,0.039-0.143
		c-0.012-0.182-0.145-0.302-0.294-0.309c-0.259-0.021-0.581-0.083-0.775,0.04c-0.669,0.439-1.076,1.145-1.336,1.865
		C57.986,42.331,58.505,42.278,58.67,42.216z"/>
	<path fill="#262626" d="M56.901,57.262c0.42-0.393,0.807-0.822,1.193-1.254c0.129-0.149,0.214-0.341,0.318-0.514
		c-0.211-0.047-0.409-0.103-0.606-0.146c-1.006-0.116-1.201,0.711-1.573,1.31c-0.127,0.202-0.404,0.431-0.08,0.654
		C56.39,57.463,56.693,57.45,56.901,57.262z"/>
	<path fill="#262626" d="M46.583,55.73c-0.417-0.06-0.834,0.295-0.842,0.736c-0.006,0.438,0.277,0.647,0.609,0.797
		c0.376,0.042,0.983-0.427,0.913-0.749C47.186,56.166,47.046,55.792,46.583,55.73z"/>
	<path fill="#262626" d="M23.625,55.747c-0.37,0.009-0.816,0.496-0.771,0.828c0.042,0.344,0.604,0.788,0.929,0.672
		c0.366-0.129,0.614-0.393,0.568-0.779C24.311,56.02,23.989,55.727,23.625,55.747z"/>
	<path fill="#262626" d="M48.612,41.986c0.427,0.018,0.701-0.158,0.735-0.61c0.015-0.427-0.13-0.714-0.592-0.752
		c-0.407-0.028-0.729,0.081-0.812,0.533C47.853,41.631,48.134,41.975,48.612,41.986z"/>
	<path fill="#262626" d="M19.659,41.999c0.433-0.013,0.673-0.252,0.751-0.641c0.025-0.372-0.295-0.693-0.687-0.735
		c-0.452-0.049-0.718,0.188-0.826,0.577C18.794,41.598,19.202,42.007,19.659,41.999z"/>
</g>
</svg>
